<svg xmlns="http://www.w3.org/2000/svg" xmlns:xlink="http://www.w3.org/1999/xlink" viewBox="0 0 239.26 270"><defs><style>.cls-1{isolation:isolate;}.cls-2{fill:#3f3f5c;}.cls-3{fill:#f3f3f3;}.cls-24,.cls-25,.cls-32,.cls-36,.cls-37,.cls-4,.cls-6{mix-blend-mode:soft-light;}.cls-5{fill:#ff3c4a;}.cls-13,.cls-33,.cls-37,.cls-6{opacity:0.5;}.cls-7{fill:#e8374b;}.cls-8{fill:#123054;}.cls-36,.cls-9{fill:#fff;}.cls-10{fill:#dadae0;}.cls-10,.cls-24,.cls-25{opacity:0.3;}.cls-11{fill:#464668;}.cls-12{fill:#fcfcfc;}.cls-13{fill:#d1d1e7;}.cls-14,.cls-15,.cls-16,.cls-17,.cls-29,.cls-36{opacity:0.2;}.cls-14{fill:url(#linear-gradient);}.cls-15{fill:url(#linear-gradient-2);}.cls-16{fill:url(#linear-gradient-3);}.cls-17{fill:url(#linear-gradient-4);}.cls-18{fill:#ff3e54;}.cls-19{fill:#ffb798;}.cls-20{fill:#7070a7;}.cls-21{fill:#d0d1d8;}.cls-22,.cls-33,.cls-34{fill:#ff5900;}.cls-23{fill:#e9ebf4;}.cls-26{opacity:0.1;}.cls-27{fill:#ffa283;}.cls-28{fill:#dbdbdb;}.cls-29{fill:#3765ff;}.cls-30{fill:#e8e8e8;}.cls-31{fill:#592b20;}.cls-32{opacity:0.6;}.cls-34{opacity:0.8;}.cls-35{fill:#ededed;}</style><linearGradient id="linear-gradient" x1="84.73" y1="84.01" x2="154.32" y2="84.01" gradientUnits="userSpaceOnUse"><stop offset="0" stop-color="#35325f" stop-opacity="0.8"/><stop offset="1" stop-color="#d1d1e7"/></linearGradient><linearGradient id="linear-gradient-2" x1="84.73" y1="96.29" x2="154.32" y2="96.29" xlink:href="#linear-gradient"/><linearGradient id="linear-gradient-3" x1="84.73" y1="106.79" x2="154.32" y2="106.79" xlink:href="#linear-gradient"/><linearGradient id="linear-gradient-4" x1="84.73" y1="238.36" x2="154.32" y2="238.36" xlink:href="#linear-gradient"/></defs><title>sevice illustartion</title><g class="cls-1"><g id="Layer_2" data-name="Layer 2"><g id="Layer_1-2" data-name="Layer 1"><circle class="cls-2" cx="185.17" cy="60.36" r="22.9" transform="translate(44.23 194.77) rotate(-61.7)"/><circle class="cls-3" cx="185.17" cy="60.36" r="20.26"/><path class="cls-4" d="M188.65,79.45a20.26,20.26,0,0,1-23.53-15.8c0,.14,0,.28.07.42A20.26,20.26,0,0,0,205,56.67l-.09-.42A20.26,20.26,0,0,1,188.65,79.45Z"/><path class="cls-4" d="M181.8,42.19a20.26,20.26,0,0,1,23.43,15.35c0-.29-.08-.59-.14-.88a20.26,20.26,0,1,0-39.84,7.4c.05.29.12.59.18.87A20.28,20.28,0,0,1,181.8,42.19Z"/><path class="cls-5" d="M183,48.49h0a.7.7,0,0,1-.8-.56l-.7-3.87a.7.7,0,0,1,.56-.8h0a.69.69,0,0,1,.8.56l.7,3.86A.69.69,0,0,1,183,48.49Z"/><path class="cls-5" d="M188.31,77.73h0a.69.69,0,0,1-.8-.56l-.7-3.86a.69.69,0,0,1,.56-.81h0a.7.7,0,0,1,.8.56l.7,3.87A.69.69,0,0,1,188.31,77.73Z"/><path class="cls-5" d="M198.71,58.05h0a.69.69,0,0,1,.56-.8l3.86-.7a.69.69,0,0,1,.81.56h0a.7.7,0,0,1-.56.8l-3.87.7A.7.7,0,0,1,198.71,58.05Z"/><path class="cls-5" d="M166.52,63.87h0a.7.7,0,0,1,.56-.8l3.87-.7a.69.69,0,0,1,.8.56h0a.69.69,0,0,1-.56.8l-3.86.7A.7.7,0,0,1,166.52,63.87Z"/><path class="cls-5" d="M193.09,49.22h0a.69.69,0,0,1-.17-1L195.16,45a.69.69,0,0,1,1-.17h0a.69.69,0,0,1,.17,1l-2.24,3.23A.69.69,0,0,1,193.09,49.22Z"/><path class="cls-5" d="M174.45,76.1h0a.69.69,0,0,1-.18-1l2.24-3.23a.69.69,0,0,1,1-.18h0a.68.68,0,0,1,.18,1l-2.24,3.23A.68.68,0,0,1,174.45,76.1Z"/><path class="cls-5" d="M196.47,68.39h0a.7.7,0,0,1,1-.18l3.23,2.25a.69.69,0,0,1,.17,1h0a.69.69,0,0,1-1,.17l-3.23-2.24A.69.69,0,0,1,196.47,68.39Z"/><path class="cls-5" d="M169.59,49.74h0a.69.69,0,0,1,1-.17l3.23,2.24a.7.7,0,0,1,.18,1h0a.7.7,0,0,1-1,.18l-3.22-2.24A.69.69,0,0,1,169.59,49.74Z"/><path class="cls-6" d="M186.16,60.85h0a1.34,1.34,0,0,1-1.08,1.55l-7.61,1.37a1.34,1.34,0,0,1-1.55-1.07h0A1.34,1.34,0,0,1,177,61.15l7.61-1.38A1.34,1.34,0,0,1,186.16,60.85Z"/><path class="cls-7" d="M188.82,60h0a1.33,1.33,0,0,1-1.07,1.55l-11.36,2a1.34,1.34,0,0,1-1.55-1.08h0A1.33,1.33,0,0,1,175.92,61l11.36-2.06A1.33,1.33,0,0,1,188.82,60Z"/><path class="cls-6" d="M184.71,61.77h0a1.07,1.07,0,0,1-.16-1.5l6.94-8.71a1.07,1.07,0,0,1,1.5-.17h0a1.07,1.07,0,0,1,.17,1.5l-6.95,8.71A1.07,1.07,0,0,1,184.71,61.77Z"/><path class="cls-5" d="M183,63.55h0a1.07,1.07,0,0,1-.17-1.5L191.63,51a1.08,1.08,0,0,1,1.5-.17h0a1.07,1.07,0,0,1,.17,1.5l-8.84,11.09A1.07,1.07,0,0,1,183,63.55Z"/><path class="cls-6" d="M187.49,60.48a2,2,0,1,1-2.27-1.58A2,2,0,0,1,187.49,60.48Z"/><path class="cls-8" d="M187.4,60.27a2,2,0,1,1-2.27-1.57A1.95,1.95,0,0,1,187.4,60.27Z"/><path class="cls-9" d="M186.59,60.42a1.13,1.13,0,1,1-1.32-.91A1.12,1.12,0,0,1,186.59,60.42Z"/><ellipse class="cls-10" cx="119.52" cy="262.11" rx="66.75" ry="7.89"/><path class="cls-11" d="M171.31,65.29V250.07a13.52,13.52,0,0,1-13.52,13.52H81.25a13.53,13.53,0,0,1-13.52-13.52V65.29A13.55,13.55,0,0,1,81.25,51.76h76.54A13.52,13.52,0,0,1,171.31,65.29Z"/><rect class="cls-12" x="72.64" y="56.66" width="93.76" height="202.57" rx="14.01"/><path class="cls-11" d="M99.51,54.41h40a0,0,0,0,1,0,0v4.88A3.76,3.76,0,0,1,135.77,63h-32.5a3.76,3.76,0,0,1-3.76-3.76V54.41A0,0,0,0,1,99.51,54.41Z"/><path class="cls-13" d="M125.67,60.36h-16.4a1.19,1.19,0,0,1-1.19-1.19h0A1.19,1.19,0,0,1,109.27,58h16.4a1.19,1.19,0,0,1,1.19,1.19h0A1.19,1.19,0,0,1,125.67,60.36Z"/><path class="cls-13" d="M131,59.17A1.19,1.19,0,1,1,129.77,58,1.19,1.19,0,0,1,131,59.17Z"/><rect class="cls-14" x="84.73" y="78.47" width="69.59" height="11.07"/><rect class="cls-15" x="84.73" y="93.52" width="69.59" height="5.54"/><rect class="cls-16" x="84.73" y="104.02" width="69.59" height="5.54"/><rect class="cls-17" x="84.73" y="233.93" width="69.59" height="8.85"/><path class="cls-18" d="M30.78,101.28s7.41-2.91,10.07,6.67S46.06,119.5,48.54,121s2.7,14.08-18.28,14.06S8,125.83,13.3,119.84s7.1-12.23,7.36-14.63S24.56,98.71,30.78,101.28Z"/><path class="cls-19" d="M43.41,134.28l-.12-.12a3.82,3.82,0,0,0-5.39.15,3.84,3.84,0,0,0-.06,5.17l.2.21,14.27,14.73h0a3.44,3.44,0,0,0,4.73-.19,3.35,3.35,0,0,0,.14-4.5h0c0-.05-.17-.07-.22-.12Z"/><path class="cls-19" d="M57,154.25l-.14.14,0,0a3.31,3.31,0,0,1-4.63-.28,3.41,3.41,0,0,1,.21-4.7c.32-.39,4-3.81,13.33-11.46l2.73,3.34C65.64,144.8,60.75,151.39,57,154.25Z"/><path class="cls-11" d="M32,212.15V212c-.34-10.07-.09-33.58-.1-33.62a6.65,6.65,0,0,1,6.46-6.82,6.58,6.58,0,0,1,6.79,6.4,1,1,0,0,1,0,.11c-1.06,10.76-2.22,19-4.78,34.92l0,.14a4.2,4.2,0,0,1-8.36-.44A3.13,3.13,0,0,1,32,212.15Z"/><path class="cls-19" d="M38,246.61l-4.76,0c-.15-1.53-.41-5.6-.7-7.7h5.72C38.15,241.06,38.06,245,38,246.61Z"/><path class="cls-11" d="M31.92,212.22A2.24,2.24,0,0,0,32,212a4.2,4.2,0,0,1,8.35.47,10.05,10.05,0,0,1-.11,1.2c-.59,3-1.48,15.94-2,25.3H32.54c-.36-2.86-.74-5.37-1-6.56C29.16,219.09,31.86,212.64,31.92,212.22Z"/><path class="cls-20" d="M38.3,237.15s.51.11.37.89.16,1.38-.17,1.68-3,1.06-6.11,0c0,0-.46-.24-.22-1.36.11-.46-.43-1,.09-1.47A9.8,9.8,0,0,0,38.3,237.15Z"/><path class="cls-11" d="M16,211.54a1,1,0,0,0,0-.17c.18-10.08,1.61-33.54,1.61-33.57a6.63,6.63,0,1,1,13.26.32v.12h0c-1.59,10.69-3.21,18.81-6.58,34.59l0,.12a4.2,4.2,0,0,1-8.33-.89C16,211.88,16,211.71,16,211.54Z"/><path class="cls-11" d="M16,211.6s.05-.15.06-.22a4.2,4.2,0,0,1,8.32.89,11,11,0,0,1-.17,1.19c-.75,3-2.29,16.35-3.22,25.66l-5.72-.59c-.21-2.9-.48-5.56-.64-6.78C12.87,218.33,15.89,212,16,211.6Z"/><path class="cls-19" d="M20.26,246.49l-4.84.28c-.07-1.5,0-6.3-.17-8.24l5.72.59C20.76,241.21,20.39,245,20.26,246.49Z"/><path class="cls-20" d="M21.17,237.18s.51.14.33.91.07,1.39-.27,1.67a8.35,8.35,0,0,1-6.1-.36s-.45-.27-.14-1.37c.13-.46-.37-1,.17-1.46A9.77,9.77,0,0,0,21.17,237.18Z"/><path class="cls-19" d="M39,247s-.64-1.05-3.25-1.05S32.94,247,32.94,247v1.34H39Z"/><rect class="cls-21" x="31.6" y="252.14" width="17.57" height="1.34"/><path class="cls-22" d="M49,252.14s.82-3.12-5-2.64L39.06,246a.58.58,0,0,0-.76,0,4.25,4.25,0,0,1-3.25,1.38c-1.59-.21-1.63-1.22-2.19-1.15s-1.48,2.63-1.33,5.88Z"/><path class="cls-22" d="M44,249.46c5.84-.48,5,2.68,5,2.68H43.52A5.39,5.39,0,0,1,44,249.46Z"/><path class="cls-23" d="M41.9,249.89a.22.22,0,0,0,.18-.1,2.82,2.82,0,0,1,.89-.91.2.2,0,0,0,.07-.28.2.2,0,0,0-.28-.08,3.32,3.32,0,0,0-1,1,.21.21,0,0,0,.07.29A.2.2,0,0,0,41.9,249.89Z"/><path class="cls-23" d="M41.05,249.28a.21.21,0,0,0,.18-.09,2.82,2.82,0,0,1,.89-.91.21.21,0,0,0-.21-.36,3.32,3.32,0,0,0-1,1.05.21.21,0,0,0,.18.31Z"/><path class="cls-23" d="M40.2,248.68a.2.2,0,0,0,.18-.1,2.72,2.72,0,0,1,.89-.9.21.21,0,0,0,.07-.29.2.2,0,0,0-.28-.07,3.35,3.35,0,0,0-1,1,.21.21,0,0,0,.07.29A.2.2,0,0,0,40.2,248.68Z"/><path class="cls-23" d="M39.35,248.08a.2.2,0,0,0,.18-.1,2.72,2.72,0,0,1,.89-.9.21.21,0,0,0,.07-.29.21.21,0,0,0-.28-.08,3.34,3.34,0,0,0-1,1,.21.21,0,0,0,.07.29A.2.2,0,0,0,39.35,248.08Z"/><path class="cls-19" d="M21.25,247s-.63-1.05-3.24-1.05S15.18,247,15.18,247v1.34h6.05Z"/><rect class="cls-21" x="14.42" y="252.14" width="11.08" height="1.34"/><path class="cls-22" d="M25.3,252.14a2.16,2.16,0,0,0-1.69-2.64L21,246a2.07,2.07,0,0,0-2.52,0c-.35.22-1.15,1.59-2.16,1.38s-.7-1.23-1-1.16-1,2.28-.85,5.91Z"/><path class="cls-22" d="M23.61,249.45a2.21,2.21,0,0,1,1.69,2.69H19.54C19.69,248.89,23.61,249.45,23.61,249.45Z"/><path class="cls-23" d="M20.64,249.27l.08,0a3.43,3.43,0,0,1,2.2-.33.2.2,0,0,0,.26-.13.21.21,0,0,0-.14-.26,3.66,3.66,0,0,0-2.49.33.21.21,0,0,0-.1.28A.21.21,0,0,0,20.64,249.27Z"/><path class="cls-23" d="M20.11,248.53a.15.15,0,0,0,.09,0,3.43,3.43,0,0,1,2.19-.32.21.21,0,0,0,.13-.4,3.7,3.7,0,0,0-2.49.34.21.21,0,0,0-.11.28A.22.22,0,0,0,20.11,248.53Z"/><path class="cls-23" d="M19.7,247.93a.15.15,0,0,0,.09,0,3.39,3.39,0,0,1,2.18-.38.21.21,0,0,0,.26-.14.2.2,0,0,0-.14-.26,3.73,3.73,0,0,0-2.48.4.21.21,0,0,0,.09.4Z"/><path class="cls-23" d="M19.18,247.22l.09,0a3.29,3.29,0,0,1,2.18-.42.21.21,0,1,0,.11-.41,3.71,3.71,0,0,0-2.47.45.21.21,0,0,0-.1.28A.21.21,0,0,0,19.18,247.22Z"/><path class="cls-11" d="M17.57,177.69a7.31,7.31,0,0,1,.07-.88c0-.21.06-.43.11-.64A47.62,47.62,0,0,1,23.1,162l16.82.09a25.84,25.84,0,0,1,5.19,14c0,.34,0,1.85,0,1.85a6.5,6.5,0,0,1-5.87,6.33l-15.16,0A6.71,6.71,0,0,1,17.57,177.69Z"/><g class="cls-24"><path d="M31.18,184a.19.19,0,0,0,.18-.11,44,44,0,0,0,1.86-6.09c1-4.14,0-13.4,0-13.8a.2.2,0,0,0-.21-.17.2.2,0,0,0-.17.21c0,.1,1,9.59,0,13.67a42.51,42.51,0,0,1-1.83,6,.19.19,0,0,0,.1.25Z"/><path d="M32.9,180.54h0c1.91-.29,2.59-2.57,2.62-2.67,1.26-3.86,0-13.65,0-14.06a.19.19,0,0,0-.21-.17.2.2,0,0,0-.17.22c0,.1,1.29,10.11.06,13.9,0,0-.65,2.15-2.32,2.4a.21.21,0,0,0-.16.22A.19.19,0,0,0,32.9,180.54Z"/><path d="M32.32,167a20.52,20.52,0,0,0,8.87-1.73.19.19,0,0,0,.08-.26.2.2,0,0,0-.26-.08c-.07,0-7.32,3.79-18.47,0a.19.19,0,0,0-.12.36A30.61,30.61,0,0,0,32.32,167Z"/><circle cx="34.41" cy="165.17" r="0.79"/><path d="M26.54,166.79s0,5.45-5.66,5.3A28.55,28.55,0,0,1,23.1,166,20.15,20.15,0,0,0,26.54,166.79Z"/><path d="M40.64,165.93s.6,3.06,3,3.82a29.55,29.55,0,0,0-1.8-4.43A11.73,11.73,0,0,1,40.64,165.93Z"/><path d="M21.09,173.45a6.69,6.69,0,0,0,4.81-1.7,7.31,7.31,0,0,0,2-5,.19.19,0,0,0-.19-.19h0a.19.19,0,0,0-.19.2,7.08,7.08,0,0,1-1.91,4.69,6.64,6.64,0,0,1-5.19,1.57.18.18,0,0,0-.2.18.19.19,0,0,0,.18.2Z"/><path d="M43.89,170.94a.19.19,0,0,0,.19-.14.19.19,0,0,0-.14-.23,5.61,5.61,0,0,1-4-4.45.18.18,0,0,0-.21-.16.19.19,0,0,0-.17.21,6,6,0,0,0,4.27,4.77Z"/><path d="M30.24,183.67a.23.23,0,0,0,.11,0,.19.19,0,0,0,0-.26,18.54,18.54,0,0,0-4.28-4.5.18.18,0,0,0-.26.05.19.19,0,0,0,0,.26,18.18,18.18,0,0,1,4.18,4.39A.19.19,0,0,0,30.24,183.67Z"/><path d="M29.12,183.29a.19.19,0,0,0,.12-.34,18.9,18.9,0,0,0-7.54-3.46.19.19,0,0,0-.07.38A18.29,18.29,0,0,1,29,183.24.21.21,0,0,0,29.12,183.29Z"/><path d="M29.31,184a.17.17,0,0,0,.18-.15.19.19,0,0,0-.15-.23c-.17,0-4.16-.81-6.28-.36a.19.19,0,0,0,.08.38c2-.44,6.09.35,6.13.36Z"/><path d="M33.51,183.67a.19.19,0,0,0,.16-.09,18.18,18.18,0,0,1,4.18-4.39.19.19,0,0,0,0-.26.18.18,0,0,0-.26-.05,18.54,18.54,0,0,0-4.28,4.5.19.19,0,0,0,0,.26A.23.23,0,0,0,33.51,183.67Z"/><path d="M34.63,183.29a.21.21,0,0,0,.13,0,18.38,18.38,0,0,1,7.36-3.37.19.19,0,0,0-.07-.38A18.9,18.9,0,0,0,34.51,183a.19.19,0,0,0,.12.34Z"/><path d="M34.44,184h0s4.09-.8,6.13-.36a.19.19,0,1,0,.08-.38c-2.11-.45-6.11.33-6.28.36a.19.19,0,0,0-.15.23A.17.17,0,0,0,34.44,184Z"/></g><path class="cls-19" d="M33.1,129.51l0,4.73-5.78,0,0-6.14A8.74,8.74,0,0,0,33.1,129.51Z"/><path class="cls-19" d="M27.32,128.12l0-4.74,5.78,0,0,6.15A8.74,8.74,0,0,1,27.32,128.12Z"/><path class="cls-25" d="M27.28,128.12l0-4.74,5.78,0,0,6.15A8.74,8.74,0,0,1,27.28,128.12Z"/><path class="cls-19" d="M31,133.33a5.89,5.89,0,0,1-4.28-1.83,29.74,29.74,0,0,1,3.78-.6,20.83,20.83,0,0,1,3.26.47C33.76,131.83,33.26,133.28,31,133.33Z"/><path class="cls-22" d="M15.94,135.67c0-2.25,3.16-2.7,3.16-2.7,1.65-.31,4.32-.71,6.07-1.13,0,0,.82-.18,1.89-.38a5,5,0,0,0,4,1.63c2.22-.05,2.54-1.27,2.58-1.73,1,.18,1.78.37,1.78.37C38.48,132.38,41,133,41,133s3.26.45,3.26,2.7c0,1-2.1,2.49-3.06,3v.24c3.06,2.39,3.45,4.18,3.45,6.22a5.38,5.38,0,0,1-3.6,5.31l-1.07,11.65c-6.67,3.49-16.82-.09-16.82-.09-1.1-7.53-2.83-12.36-3.63-17.17a44,44,0,0,1-.5-6.23C18,138,15.94,136.64,15.94,135.67Z"/><path class="cls-22" d="M43.66,167.54a23.56,23.56,0,0,1,.89,3.41s-8.9,4.12-25.74,0l1.11-3.41Z"/><path class="cls-9" d="M31.37,134.66c-3.56.09-5.68-1.56-6.4-2.77l.2,0s.82-.18,1.89-.38a5,5,0,0,0,4,1.63c2.22-.05,2.54-1.27,2.58-1.73.92.16,1.65.34,1.77.36C35.14,132.75,34.33,134.59,31.37,134.66Z"/><path class="cls-26" d="M43.57,147a4.5,4.5,0,0,1-2.4.78c-3.32.29-8.76.89-13.56.11a10.79,10.79,0,0,1-5-2.52s.91,5.15,7.21,5S43.17,151.06,43.57,147Z"/><path class="cls-19" d="M15.26,174.73s2.48,1.78,2.7,2.67.9,3,.9,3.45c0,1.08.54,2.48.25,2.58s-.85.36-1.52-1.74l.2,2.44s.12.88-.57,1a.7.7,0,0,1-.83-.61l-.31-.88a.66.66,0,0,1-.71.43c-.6,0-.79-1.07-.79-1.07a.75.75,0,0,1-.8.38.9.9,0,0,1-.68-.56.81.81,0,0,1-.6.1c-.43-.17-.7-1.14-.7-1.14a19,19,0,0,1,.09-6.05S12.68,172.51,15.26,174.73Z"/><path class="cls-25" d="M12.5,182.88a.81.81,0,0,0,.6-.1.9.9,0,0,0,.68.56.75.75,0,0,0,.8-.38s.19,1,.79,1.07a.66.66,0,0,0,.71-.43l.31.88a.71.71,0,0,0,.8.62c.69-.07.6-1,.6-1l-.19-2.39a15.14,15.14,0,0,0-.44-2.12l.21,2.42s-.37,1.05-1.26.65a1.14,1.14,0,0,1-1.49-.09s-1,.41-1.53-.28a1,1,0,0,1-1.31-.68l0,.1S12.07,182.71,12.5,182.88Z"/><path class="cls-19" d="M10.24,158.05a1.29,1.29,0,0,0,0-.2v0a3.32,3.32,0,0,1,3.3-3.25,3.41,3.41,0,0,1,3.36,3.3c.08.49-.12,5.63-.64,17.66l-4.45.71C11.07,171.83,9.84,162.77,10.24,158.05Z"/><path class="cls-19" d="M13.44,161.14a3.31,3.31,0,0,0,3.22-2.58C18,154,22.47,139.1,22.53,138.81a3.81,3.81,0,0,0-3-4.47,3.65,3.65,0,0,0-.74-.08,3.83,3.83,0,0,0-3.74,3.06l-4.86,19.92v0a3.31,3.31,0,0,0,2.61,3.82,2.86,2.86,0,0,0,.65.06Z"/><path class="cls-22" d="M21.12,152.19s.17,12.41-2.31,18.76l25.06-2.77a55.47,55.47,0,0,1-3-16Z"/><path class="cls-22" d="M19.36,132.92s-7.07.42-7.33,12.56l9.51,1.25S27.3,135.88,19.36,132.92Z"/><path class="cls-22" d="M38,134.61s-3.57,6.12,6.41,13l5.6-6.43S44.89,129.63,38,134.61Z"/><path class="cls-19" d="M24.11,115.87a2,2,0,1,1-1.75-2.16A2,2,0,0,1,24.11,115.87Z"/><path class="cls-19" d="M40.53,115.87a2,2,0,1,1-1.75-2.16A2,2,0,0,1,40.53,115.87Z"/><path class="cls-19" d="M35.7,106.7a7.63,7.63,0,0,0-13.08,3.57,24.44,24.44,0,0,0-.34,9.43c1.36,7.58,6.24,10.67,11.56,8s5.55-13.45,3.66-18.14A9.69,9.69,0,0,0,35.7,106.7Z"/><path class="cls-19" d="M64.87,139.13a8,8,0,0,1,.31-2.8,5.5,5.5,0,0,0-.3-3.05c-.44-.87-.82-1.06-.59-1.27.59-.55,1.51-.65,2.84,2.64l2.1-1.31s.76-.44,1.22.08a.64.64,0,0,1,0,.9h0s.69-.22,1,.25a1,1,0,0,1,0,1s.35,0,.64.49a1,1,0,0,1,0,.88,1.63,1.63,0,0,1,.3.52,1.6,1.6,0,0,1-.15,1,14.8,14.8,0,0,1-4.29,3.32S64.31,142.94,64.87,139.13Z"/><path class="cls-25" d="M67.15,134.8l2.1-1.26s-1.19,1-1.54,1.42a.68.68,0,0,0,0,.85l0,0h0c.25.32.77,0,.77,0l1.93-1.51-1.87,1.6c-.51.44-.31.8-.31.8h0l.14.22c.29.36.8.1.8.1l2.24-1.43s-1.66,1.23-2.15,1.54a.57.57,0,0,0-.21.79l0,0a.64.64,0,0,0,.72.25L72.06,137s-1.82,1.13-2.14,1.35a.46.46,0,0,0-.17.55l.15.2c.35.46,2.22-.69,2.22-.69a9.63,9.63,0,0,1-1.55,1.35,3.46,3.46,0,0,0-3.3-.86C68.36,137.05,67.15,134.8,67.15,134.8Z"/><path class="cls-18" d="M39,112.64s-8.45-4.27-8.85-9.08C30.16,103.56,39.42,101.46,39,112.64Z"/><path class="cls-18" d="M32.1,104.09A8,8,0,0,1,27,109.71a6.76,6.76,0,0,0,.44-2.21,6.63,6.63,0,0,1-5.62,3.79S21.12,101.68,32.1,104.09Z"/><path class="cls-10" d="M61.79,254.2c0,2-13.83,3.65-30.9,3.65S0,256.22,0,254.2s13.83-3.65,30.89-3.65S61.79,252.18,61.79,254.2Z"/><path class="cls-10" d="M235.49,253.29c0,2-13.84,3.65-30.9,3.65s-30.89-1.63-30.89-3.65,13.83-3.65,30.89-3.65S235.49,251.27,235.49,253.29Z"/><rect class="cls-27" x="197.7" y="240.93" width="5.43" height="6.18"/><path class="cls-11" d="M204,214.81a4.68,4.68,0,0,0-9.35,0c0,1.31,2.79,28.86,2.79,28.86,2.73,0,2.65-.21,5.93-.18Z"/><path class="cls-11" d="M203.42,179.61a5.09,5.09,0,1,0-10.18,0c0,.08,1.39,33.91,1.45,35.2a4.68,4.68,0,1,0,9.35-.16Z"/><path class="cls-27" d="M196.73,246.55s.76-1.16,3.71-1.16,3.25,1.22,3.25,1.22v1.44h-6.94Z"/><rect class="cls-28" x="185.34" y="252.54" width="19.85" height="1.5"/><path class="cls-22" d="M185.42,252.54s-.93-3.57,5.66-3l5.6-4a.66.66,0,0,1,.86,0,4.82,4.82,0,0,0,3.67,1.55c1.8-.24,1.84-1.34,2.48-1.25s1.67,2.94,1.5,6.68Z"/><path class="cls-29" d="M191.08,249.52c-6.59-.55-5.66,3-5.66,3h6.22A5.61,5.61,0,0,0,191.08,249.52Z"/><path class="cls-30" d="M194.43,249.22a.26.26,0,0,1-.2-.11,3,3,0,0,0-1-1,.24.24,0,0,1-.09-.32.23.23,0,0,1,.32-.09,3.67,3.67,0,0,1,1.17,1.18.24.24,0,0,1-.07.33A.28.28,0,0,1,194.43,249.22Z"/><path class="cls-30" d="M195.4,248.54a.23.23,0,0,1-.2-.11,3.1,3.1,0,0,0-1-1,.24.24,0,0,1-.09-.32.23.23,0,0,1,.32-.09,3.67,3.67,0,0,1,1.17,1.18.24.24,0,0,1-.07.33A.27.27,0,0,1,195.4,248.54Z"/><path class="cls-30" d="M196.36,247.86a.23.23,0,0,1-.2-.11,3.1,3.1,0,0,0-1-1,.24.24,0,0,1-.09-.32.23.23,0,0,1,.32-.09,3.75,3.75,0,0,1,1.18,1.18.25.25,0,0,1-.08.33Z"/><rect class="cls-27" x="213.99" y="240.88" width="5.43" height="6.18" transform="translate(-6.91 6.32) rotate(-1.64)"/><path class="cls-11" d="M219.51,214.67a4.68,4.68,0,0,0-9.35.26c0,1.31,3.75,28.7,3.75,28.7,2.58-.24,2.54-.24,5.6-.55Z"/><path class="cls-11" d="M217.87,179.5a5.09,5.09,0,1,0-10.17.29c0,.07,2.36,33.85,2.46,35.14a4.68,4.68,0,1,0,9.34-.43Z"/><path class="cls-27" d="M212.83,246.55s.77-1.16,3.71-1.16,3.25,1.22,3.25,1.22v1.44h-6.94Z"/><rect class="cls-30" x="203.13" y="252.54" width="18.35" height="1.5"/><path class="cls-22" d="M205.18,252.54s-.34-3,3.47-3.11l4.61-4.05a1.78,1.78,0,0,1,1.93,0c.81.46.93,1.81,2.41,1.57s1.51-1.35,2-1.26,2,2.73,1.84,6.85Z"/><path class="cls-29" d="M206.6,249.45c-3.81.08-3.47,3.09-3.47,3.09h6.4A3,3,0,0,0,206.6,249.45Z"/><path class="cls-9" d="M212.52,249.07a.22.22,0,0,1-.17-.07,3.12,3.12,0,0,0-2-.92c-.13,0-.24-.07-.24-.21s.11-.2.24-.2h0a3.44,3.44,0,0,1,2.38,1,.22.22,0,0,1,0,.32A.25.25,0,0,1,212.52,249.07Z"/><path class="cls-9" d="M213.49,248.23a.22.22,0,0,1-.18-.08,3.15,3.15,0,0,0-2-.92A.23.23,0,0,1,211,247a.24.24,0,0,1,.24-.24h0a3.57,3.57,0,0,1,2.38,1.08.24.24,0,0,1,0,.34A.23.23,0,0,1,213.49,248.23Z"/><path class="cls-9" d="M214.45,247.39a.25.25,0,0,1-.18-.08,3.09,3.09,0,0,0-2-.92c-.14,0-.24-.07-.24-.2s.11-.2.24-.2h0a3.45,3.45,0,0,1,2.38,1,.21.21,0,0,1,0,.32A.18.18,0,0,1,214.45,247.39Z"/><path class="cls-11" d="M217.92,171.66H193.19l.1,8.74a6,6,0,0,0,5.82,5.86l13,.09a6,6,0,0,0,5.83-6Z"/><path class="cls-20" d="M220.22,243.29l-7.39.38-.5-4h8.21Z"/><path class="cls-20" d="M204.2,243.64l-7.39.38-.5-4h8.21Z"/><g class="cls-24"><path d="M206.37,186.05a.16.16,0,0,1-.15-.09,38.32,38.32,0,0,1-1.55-5.08c-.84-3.46,0-11.18,0-11.51a.16.16,0,0,1,.18-.14.17.17,0,0,1,.14.18c0,.07-.84,8,0,11.39a35,35,0,0,0,1.54,5,.17.17,0,0,1-.09.21Z"/><path d="M204.94,183.14h0c-1.59-.24-2.16-2.15-2.18-2.23-1-3.22,0-11.38,0-11.73a.17.17,0,0,1,.18-.14.17.17,0,0,1,.14.18c0,.09-1.08,8.44-.05,11.6,0,0,.54,1.8,1.93,2a.15.15,0,0,1,.13.18A.15.15,0,0,1,204.94,183.14Z"/><path d="M205.42,171.82a17.18,17.18,0,0,1-7.39-1.44.16.16,0,0,1-.07-.22.17.17,0,0,1,.22-.06c.06,0,6.1,3.15,15.4,0a.15.15,0,0,1,.2.1.16.16,0,0,1-.1.2A25.68,25.68,0,0,1,205.42,171.82Z"/><circle cx="203.68" cy="170.32" r="0.66"/><path d="M210.24,171.67s0,4.54,4.72,4.42a23.7,23.7,0,0,0-1.85-5.12A16.36,16.36,0,0,1,210.24,171.67Z"/><path d="M198.49,171s-.51,2.55-2.53,3.19a24.53,24.53,0,0,1,1.5-3.69A9.8,9.8,0,0,0,198.49,171Z"/><path d="M214.79,177.23a5.58,5.58,0,0,1-4-1.42,6.13,6.13,0,0,1-1.69-4.14.17.17,0,0,1,.16-.17h0a.17.17,0,0,1,.16.17,5.9,5.9,0,0,0,1.59,3.91,5.52,5.52,0,0,0,4.33,1.31.15.15,0,0,1,.17.15.16.16,0,0,1-.15.17Z"/><path d="M195.77,175.14a.16.16,0,0,1-.15-.12.17.17,0,0,1,.11-.2,4.69,4.69,0,0,0,3.33-3.71.16.16,0,0,1,.31,0,5,5,0,0,1-3.56,4Z"/><path d="M207.15,185.75l-.08,0a.15.15,0,0,1,0-.22,15.21,15.21,0,0,1,3.57-3.75.16.16,0,0,1,.22,0,.16.16,0,0,1,0,.23,15.1,15.1,0,0,0-3.48,3.66A.15.15,0,0,1,207.15,185.75Z"/><path d="M208.09,185.43a.16.16,0,0,1-.12-.06.17.17,0,0,1,0-.22,15.61,15.61,0,0,1,6.29-2.88.15.15,0,0,1,.18.12.16.16,0,0,1-.13.19,15.21,15.21,0,0,0-6.13,2.81A.15.15,0,0,1,208.09,185.43Z"/><path d="M207.94,186.05a.15.15,0,0,1-.16-.13.15.15,0,0,1,.12-.18,17.53,17.53,0,0,1,5.25-.3.16.16,0,0,1,.12.19.17.17,0,0,1-.19.12,17.7,17.7,0,0,0-5.11.3Z"/><path d="M204.43,185.75a.15.15,0,0,1-.13-.07,15.25,15.25,0,0,0-3.49-3.66.16.16,0,1,1,.19-.26,15.44,15.44,0,0,1,3.57,3.75.17.17,0,0,1,0,.22Z"/><path d="M203.49,185.43a.14.14,0,0,1-.1,0,15.37,15.37,0,0,0-6.14-2.81.17.17,0,0,1-.13-.19.16.16,0,0,1,.19-.12,15.53,15.53,0,0,1,6.28,2.88.15.15,0,0,1,0,.22A.14.14,0,0,1,203.49,185.43Z"/><path d="M203.65,186.05h0a17.7,17.7,0,0,0-5.11-.3.16.16,0,0,1-.19-.12.16.16,0,0,1,.12-.19,17.45,17.45,0,0,1,5.24.3.16.16,0,0,1,.13.18A.16.16,0,0,1,203.65,186.05Z"/></g><path class="cls-31" d="M213.93,101.65a6.38,6.38,0,0,1,2.2,3.53,11.34,11.34,0,0,1-.08,5.61A23.22,23.22,0,0,1,213.9,116a2.17,2.17,0,0,1-.64.82,2,2,0,0,1-.91.25,44.1,44.1,0,0,1-11.29.44,4.15,4.15,0,0,1-2.4-.92,4.48,4.48,0,0,1-1-3.15q-.06-1.5-.06-3c0-2.22-3.31-2.82-2.62-4.93.27-.82,4-3.28,4.64-3.88a5.44,5.44,0,0,1,1.65-1,11.65,11.65,0,0,1,6.34-.73c1.08.18,2,.95,3,.87A4.56,4.56,0,0,1,213.93,101.65Z"/><rect class="cls-19" x="202.75" y="122.23" width="7.68" height="8.99"/><path class="cls-25" d="M210.43,126.07v-3.84h-7.68v6C203.88,128.38,208.37,128.69,210.43,126.07Z"/><path class="cls-19" d="M201.69,130.12a26,26,0,0,1,9.9,0,5.8,5.8,0,0,1-5.38,3.09C202.18,133.21,201.69,130.12,201.69,130.12Z"/><path class="cls-22" d="M226.15,136.21a4.41,4.41,0,0,0-3.23-3.22s-6.47-1.79-11.8-3c0,0-1.15,3.08-5.49,3-3.76-.06-3.4-3-3.4-3a59.17,59.17,0,0,0-11,2.94,4.38,4.38,0,0,0-2.79,3.75s0,1.31,2.72,3.11c.16,3.06.56,7.29,1.4,13,1,6.65.59,10.13.58,19.31,0,0,7.86,3.29,25.22,0a111.83,111.83,0,0,1,.23-17c.69-5.89,3-11.63,3.41-14.79h0C226.91,138.29,226.15,136.21,226.15,136.21Z"/><path class="cls-22" d="M224.44,135.38a3.48,3.48,0,0,0-5.47,4.3c.19.24,15.07,15.86,15.07,15.86a2.94,2.94,0,0,0,4.62-3.63Z"/><path class="cls-22" d="M238.29,155.86a3,3,0,0,0,.13-4.13,3,3,0,0,0-4.17-.22h0s-4.44,2.9-15.63,14.52l2.56,2.75s12-7.32,17-12.79Z"/><path class="cls-22" d="M234.52,145.35l-9.25-10.72a4.54,4.54,0,0,0-7.11,5.65c.13.17,4.85,5.12,10.09,10.61A45.18,45.18,0,0,0,234.52,145.35Z"/><path class="cls-19" d="M222.25,166c-.58-1.68-1.48-1.41-1.48-1.41l-1.28.06c-1.12-.56-1.72-1.46-2.29-1.64-1-.32-1.39-1.33-1.61-1.25a.69.69,0,0,0-.38,1,4.27,4.27,0,0,0,1,1.11,22.41,22.41,0,0,0-3-.82,7.35,7.35,0,0,0-2.44,1c-.25.14-.6.38-.49.62a.81.81,0,0,0,1,.28c.4-.11,1.3-.76,1.62-.67s1.35.39,1.44.43-1.42.55-2,.77-2.18.86-2.18.86c-1.17.73.27,1.19.27,1.19s-.37.33-.28.55c.17.42.77.42.92.42a15.49,15.49,0,0,0,1.94-.48l2.07.06c-.62.49-1,.76-1.76,1.29a7.28,7.28,0,0,0-1,.73.25.25,0,0,0,.13.36,1.3,1.3,0,0,0,1,0,12,12,0,0,0,1.14-.55c1.34-.79,2.1-1,3.33-.14,1.77,1.29,3.72-1.35,3.72-1.35A2.1,2.1,0,0,0,222.25,166Z"/><path class="cls-25" d="M216.21,163.88l.95.34S217.26,164,216.21,163.88Z"/><path class="cls-25" d="M210.41,167.57s2-.69,2.39-.81,2.63-.08,2.45-.56C215.25,166.2,214.6,165.63,210.41,167.57Z"/><path class="cls-25" d="M214.36,164.75s1.09-.16.83-.27S214.58,164.67,214.36,164.75Z"/><path class="cls-22" d="M189.85,135.42a3.48,3.48,0,0,1,5.46,4.31c-.19.24-15.12,15.82-15.12,15.82a2.94,2.94,0,0,1-4.61-3.65Z"/><path class="cls-22" d="M175.69,155.55a2.94,2.94,0,0,1,.31-4.11,3,3,0,0,1,4.17.22h0s4.1,3.36,14,16.11l-2.63,2.29s-11.34-8.39-15.71-14.36A1.16,1.16,0,0,0,175.69,155.55Z"/><path class="cls-22" d="M179.75,145.36,189,134.67a4.54,4.54,0,0,1,7.1,5.66c-.14.17-4.87,5.11-10.12,10.59A44.88,44.88,0,0,1,179.75,145.36Z"/><path class="cls-19" d="M193.47,162.89s.46-1.48-.22-1.9-1.11,2.38-1.11,2.38Z"/><path class="cls-19" d="M198.88,165.31c-.08-.06-2.28-1.16-2.6-1.24s-1.81-.2-1.82-.21l1.22-.35c.51-.15,1.45.63,2.16.45s.59-.65.35-.74c-1.66-.66-2.07-1-2.66-1a13.3,13.3,0,0,0-1.87.34c-.78.12-1.07,0-1.4.54a17.3,17.3,0,0,0-1.5,5.19c-.26,1.63,1.57,2.12,1.57,2.12,1.54.4,1.49-1.32,2.1-1.87.26-.23,1.42.73,1.8.95s.91.38,1.12.26c.47-.28.27-.5.05-.67s-2.73-2-2.73-2,0-.16.05-.25,1.22.4,1.79.66,1.45.65,1.91.36a.43.43,0,0,0,.08-.74c-.27-.26-3.57-1.73-3.57-1.73a1.49,1.49,0,0,1,1.16-.2,9.14,9.14,0,0,1,1.44.49c.32.16,1.07.51,1.37.14A.38.38,0,0,0,198.88,165.31Z"/><path class="cls-25" d="M194.56,168.55a6,6,0,0,0-.71-.45C193.75,168.07,193.67,168.22,194.56,168.55Z"/><path class="cls-25" d="M194.13,169a5.42,5.42,0,0,1-1.07-.24C193,168.6,192.54,169.08,194.13,169Z"/><path class="cls-25" d="M194.67,167.17s-1.18-.57-1.11-.78.87.32,1.16.53Z"/><path class="cls-25" d="M194.93,165.47s-1.33-.26-1.29-.58S194.93,165.47,194.93,165.47Z"/><path class="cls-25" d="M194.46,163.86s-1-.22-1.06-.41S193.78,163.42,194.46,163.86Z"/><path class="cls-19" d="M212.75,115.05a2.26,2.26,0,1,0,1.95-2.53A2.26,2.26,0,0,0,212.75,115.05Z"/><path class="cls-32" d="M214.13,114.9a1.09,1.09,0,1,0,1.06-1.11A1.08,1.08,0,0,0,214.13,114.9Z"/><path class="cls-19" d="M200.51,104.76a8,8,0,0,1,13.72,3.38,25.75,25.75,0,0,1,.6,9.82c-1.22,7.92-6.23,11.27-11.83,8.66s-6.13-13.87-4.29-18.8A10.55,10.55,0,0,1,200.51,104.76Z"/><path class="cls-31" d="M215,112.5s-.84-.09-1.59,1.17c0,0-1.43-9.43-5.16-9.12a28.28,28.28,0,0,0-9.91,2.6c-4.31,2.06-3.78-7.37,3.95-7.66,9-.32,8,.59,8,.59S218.8,97.22,215,112.5Z"/><path class="cls-31" d="M211.37,106.1s.82-5.18-.78-7.24S207.84,97,206.85,98c0,0-2-2.09-3.28-.15s-2.19.5-2.95,0-2.91-.64-2.3,1.43c0,0-4.28-2.54-5.42.15s2.27,3.79,2.27,3.79-2,6.69,3.9,3.89C206.24,103.7,211.37,106.1,211.37,106.1Z"/><path class="cls-11" d="M72.49,13.93c-.23-.44-.45-.88-.65-1.33l.34-.15c.19.44.4.88.63,1.31Z"/><path class="cls-11" d="M223.87,51.29,222.12,49l.29-.22,1.75,2.32Zm-3.5-4.64-1.75-2.32.29-.22,1.75,2.32ZM216.87,42l-1.76-2.32.3-.22,1.75,2.32Zm-3.51-4.63c-.59-.77-1.18-1.54-1.78-2.29l.28-.23c.61.76,1.2,1.52,1.79,2.29Zm-3.62-4.54c-.66-.78-1.29-1.49-1.92-2.17l.27-.25c.63.68,1.26,1.4,1.93,2.18Zm-87.45-.46h-.45V32a25.61,25.61,0,0,0,2.89-.1l0,.37C123.93,32.34,123.09,32.38,122.29,32.38Zm-3.37-.23a22.11,22.11,0,0,1-2.87-.6l.1-.35a21,21,0,0,0,2.82.59Zm8.74-.27-.07-.36q1.41-.25,2.82-.63l.1.35C129.56,31.5,128.6,31.71,127.66,31.88ZM113.3,30.54a17,17,0,0,1-1.93-1l-.63-.41.21-.3.61.4a19,19,0,0,0,1.89,1Zm20-.15-.12-.35.59-.2c.69-.25,1.4-.53,2.12-.83l.14.34c-.72.3-1.44.58-2.13.83Zm72.5-1.8c-.59-.57-1.19-1.12-1.78-1.63l-.36-.31.23-.28.37.31c.6.52,1.2,1.07,1.79,1.65Zm-67.1-.4-.15-.34c.81-.37,1.66-.78,2.61-1.25l.17.33C140.37,27.4,139.51,27.81,138.7,28.19Zm-37.55-.33-1.32,0v-.37c1,0,1.93,0,2.9,0v.37Zm4.51-.15,0-.37c.91-.06,1.85-.13,2.86-.22a16.49,16.49,0,0,1-1.75-2.29l.32-.2a14.6,14.6,0,0,0,1.74,2.28l-.27.25h0l0,.32C107.53,27.57,106.58,27.65,105.66,27.71Zm-8.74,0c-1-.08-2-.19-2.9-.32l0-.36c.93.13,1.89.24,2.88.31Zm14.53-.53,0-.36,2.57-.32.31,0,0,.36-.32,0Zm-20.31-.3-.89-.21c-.65-.16-1.3-.34-1.93-.53l.1-.35c.63.19,1.28.37,1.92.52.29.08.59.14.88.21Zm26.08-.49-.06-.36c1-.19,2-.39,2.83-.61l.09.35C119.21,26,118.28,26.19,117.22,26.38Zm26.7-.76-.16-.33L146.34,24l.17.33Zm-58.36-.48c-.9-.37-1.79-.79-2.64-1.24l.17-.32c.84.44,1.72.85,2.61,1.22Zm115.82-.28c-.77-.56-1.58-1.1-2.4-1.61l.19-.31c.83.51,1.65,1.06,2.43,1.63Zm-78.52,0-.14-.34a15.63,15.63,0,0,0,2.55-1.31l.2.3A15.61,15.61,0,0,1,122.86,24.85ZM149.1,23l-.16-.33c1-.47,1.82-.88,2.63-1.25l.15.33C150.92,22.1,150.06,22.51,149.1,23Zm-68.7-.57a24.64,24.64,0,0,1-2.35-1.74l.23-.28c.73.6,1.51,1.18,2.32,1.72Zm25-.2a15.9,15.9,0,0,1-.82-2.82l.37-.07a15.09,15.09,0,0,0,.79,2.75Zm91.05-.4c-.84-.44-1.72-.86-2.61-1.26l.15-.33c.9.39,1.78.82,2.63,1.27Zm-68.73-.18-.27-.25a10.86,10.86,0,0,0,1.66-2.33l.32.18A11.42,11.42,0,0,1,127.74,21.63Zm26.63-1.06-.13-.34.49-.21c.73-.29,1.48-.57,2.23-.83l.12.34c-.74.26-1.49.54-2.21.83Zm36.81-1.1c-.9-.33-1.82-.63-2.75-.9l.1-.36c.94.28,1.87.59,2.78.92Zm-115.27-.8A20.85,20.85,0,0,1,74,16.42l.3-.21a21.13,21.13,0,0,0,1.84,2.21Zm83.93,0-.1-.36c.93-.26,1.88-.51,2.82-.73l.09.36C161.71,18.15,160.77,18.39,159.84,18.66Zm25.79-.83c-.93-.21-1.89-.4-2.84-.56l.06-.36c1,.16,1.92.35,2.86.57Zm-20.14-.47-.07-.36c1-.16,1.93-.3,2.89-.41l0,.36C167.4,17.06,166.44,17.2,165.49,17.36Zm14.43-.48c-.95-.1-1.93-.17-2.89-.22l0-.37c1,.05,1.95.13,2.91.23Zm-8.68-.19,0-.36c1-.06,1.95-.1,2.91-.1v.37C173.18,16.6,172.2,16.63,171.24,16.69Zm-66.5-.22h-.37a11.57,11.57,0,0,1,.45-2.92l.35.11A11.3,11.3,0,0,0,104.74,16.47Zm25.71,0-.36-.07a7.75,7.75,0,0,0,.16-1.57,7.28,7.28,0,0,0-.1-1.25l.36-.06a8,8,0,0,1,.11,1.31A8.38,8.38,0,0,1,130.45,16.45Zm-24.11-5.4-.31-.19a9.75,9.75,0,0,1,1.12-1.44,10.26,10.26,0,0,1,.82-.79l.24.28a9.51,9.51,0,0,0-.79.76A8.87,8.87,0,0,0,106.34,11.05ZM129.08,11a8.43,8.43,0,0,0-2-2l.21-.3a8.67,8.67,0,0,1,2.09,2.1Zm-4.5-3.38c-.52-.22-1.08-.43-1.66-.61-.35-.11-.71-.22-1.07-.31l.09-.36c.37.1.74.2,1.09.32.59.19,1.16.39,1.69.62Zm-14-.22L110.44,7a12.85,12.85,0,0,1,2.78-1l.08.36A12.84,12.84,0,0,0,110.6,7.36ZM119,6.14a18.58,18.58,0,0,0-2.88-.1V5.67a19.27,19.27,0,0,1,2.93.1Z"/><rect class="cls-11" x="226.07" y="53.41" width="0.37" height="1.47" transform="matrix(0.8, -0.6, 0.6, 0.8, 13.03, 147.2)"/><polygon class="cls-33" points="76.21 7.06 75.81 18.82 37.25 0 76.21 7.06"/><polygon class="cls-22" points="86.22 0.4 76.21 7.06 37.25 0 86.22 0.4"/><polygon class="cls-22" points="72.67 9.21 37.25 0 62.12 16.27 72.67 9.21"/><polygon class="cls-34" points="75.81 18.82 72.67 9.21 65.68 13.89 75.81 18.82"/><polygon class="cls-6" points="136.82 153.04 129.9 151.79 124.47 141.78 111.98 148.56 107.52 147.76 105.77 151.93 93.27 158.71 98.71 168.72 95.98 175.2 111.24 203.32 152.08 181.15 136.82 153.04"/><rect class="cls-34" x="94.94" y="160.74" width="46.47" height="23.48" transform="translate(-67.96 77.25) rotate(-28.49)"/><polygon class="cls-22" points="92.16 173.24 103.7 145.8 133 151.08 92.16 173.24"/><rect class="cls-9" x="97.47" y="145.7" width="35.49" height="42.64" transform="translate(-65.71 75.17) rotate(-28.49)"/><rect class="cls-35" x="94" y="155.81" width="30.6" height="1.43" transform="translate(-61.42 71.08) rotate(-28.49)"/><rect class="cls-35" x="95.37" y="158.35" width="30.61" height="1.43" transform="translate(-62.46 72.04) rotate(-28.49)"/><rect class="cls-35" x="96.75" y="160.88" width="30.61" height="1.43" transform="translate(-63.51 73.01) rotate(-28.49)"/><rect class="cls-35" x="98.12" y="163.42" width="30.61" height="1.43" transform="translate(-64.55 73.97) rotate(-28.49)"/><rect class="cls-35" x="99.5" y="165.95" width="30.61" height="1.43" transform="translate(-65.59 74.93) rotate(-28.49)"/><rect class="cls-35" x="101.37" y="170.27" width="23.72" height="1.43" transform="translate(-67.84 74.71) rotate(-28.49)"/><polygon class="cls-22" points="92.16 173.24 107.42 201.36 148.26 179.19 133 151.08 121.61 178.81 92.16 173.24"/><polygon class="cls-22" points="107.42 201.36 118.96 173.91 148.26 179.19 107.42 201.36"/><polygon class="cls-6" points="107.42 201.36 116.19 177.79 117.25 177.99 107.42 201.36"/><polygon class="cls-6" points="148.26 179.19 123.3 174.7 123.71 173.71 148.26 179.19"/><path class="cls-6" d="M67.73,94.77V65.29a13.47,13.47,0,0,1,6-11.25,23.6,23.6,0,0,1-6,40.73Z"/><circle class="cls-22" cx="57.99" cy="70.69" r="23.61" transform="matrix(0.16, -0.99, 0.99, 0.16, -21.28, 116.26)"/><circle class="cls-22" cx="58.62" cy="71.14" r="20.89" transform="translate(-23.77 29.8) rotate(-23.86)"/><path class="cls-36" d="M64.3,89.67A20.89,20.89,0,0,1,38,77c.05.14.08.28.13.42A20.89,20.89,0,0,0,77.71,64c0-.14-.11-.27-.16-.41A20.87,20.87,0,0,1,64.3,89.67Z"/><path class="cls-6" d="M51.91,52.64A20.88,20.88,0,0,1,78.06,64.9c-.08-.3-.17-.59-.27-.88a20.89,20.89,0,0,0-39.6,13.34c.1.29.21.58.32.87A20.9,20.9,0,0,1,51.91,52.64Z"/><g class="cls-37"><polygon points="58.11 82.55 47.27 73.47 49.39 70.94 57.31 77.59 68.56 59.47 71.35 61.21 58.11 82.55"/></g><polygon class="cls-9" points="57.62 81.37 46.79 72.28 48.91 69.76 56.83 76.41 68.07 58.29 70.87 60.02 57.62 81.37"/></g></g></g></svg>