<svg xmlns="http://www.w3.org/2000/svg" viewBox="0 0 587.24 602.22"><defs><style>.cls-1{fill:#ed7d2b;}.cls-2{fill:#fff;}.cls-3{fill:#43c1c7;}.cls-4{fill:#4cdae0;}.cls-5{fill:#d62243;}.cls-6{fill:#ff2950;}.cls-7{fill:#ff566a;}.cls-8{fill:#231f20;}.cls-9{fill:#96ffdc;opacity:0.73;}</style></defs><g id="Layer_2" data-name="Layer 2"><g id="Layer_1-2" data-name="Layer 1"><rect class="cls-1" x="151.64" y="0.24" width="340.84" height="601.75" rx="21.49" transform="translate(-0.48 0.51) rotate(-0.09)"/><rect class="cls-2" x="176.92" y="80.57" width="290.27" height="441.08" transform="translate(-0.48 0.51) rotate(-0.09)"/><path class="cls-2" d="M322.5,580.91h0a19.77,19.77,0,0,1-19.81-19.75h0a19.78,19.78,0,0,1,19.75-19.82h0a19.79,19.79,0,0,1,19.82,19.76h0A19.78,19.78,0,0,1,322.5,580.91Z"/><path class="cls-2" d="M353.84,53.44l-64.34.11a6,6,0,0,1-6-5.95h0a5.94,5.94,0,0,1,5.94-6l64.34-.1a5.94,5.94,0,0,1,6,5.94h0A5.94,5.94,0,0,1,353.84,53.44Z"/><polygon class="cls-3" points="587.25 100.99 261.64 107.86 261.99 329.7 394.53 329.49 384.48 362.41 443.17 329.42 572.57 329.21 587.25 100.99"/><polygon class="cls-4" points="587.25 100.99 253.63 101.52 253.98 323.37 386.52 323.15 384.48 362.41 435.15 323.08 564.56 322.87 587.25 100.99"/><rect class="cls-2" x="417.12" y="192.07" width="47.25" height="70.94" transform="translate(-0.36 0.7) rotate(-0.09)"/><rect class="cls-2" x="362.19" y="213.32" width="47.25" height="49.78" transform="translate(-0.38 0.61) rotate(-0.09)"/><rect class="cls-2" x="472.04" y="156.32" width="47.25" height="106.6" transform="translate(-0.33 0.79) rotate(-0.09)"/><path class="cls-5" d="M42.24,190.28A148,148,0,0,1,273.18,372.77L292.06,433l-65.17-14A148,148,0,0,1,42.24,190.28Z"/><polygon class="cls-6" points="211.72 407.8 293.54 431.51 269.56 348.74 211.72 407.8"/><ellipse class="cls-6" cx="153.3" cy="288.35" rx="147.99" ry="147.97" transform="translate(-0.38 0.2) rotate(-0.08)"/><circle class="cls-2" cx="93.85" cy="259.23" r="27.12" transform="translate(-174.65 321.82) rotate(-83.22)"/><path class="cls-2" d="M135.57,309.12a55.37,55.37,0,0,0-7.17-17.33,11,11,0,0,0-14.49-3.73,41.28,41.28,0,0,1-40,.06A11,11,0,0,0,59.4,291.9a55.26,55.26,0,0,0-7.11,17.35l-3.63,13.24a12.2,12.2,0,0,0,12,15.56l66.67-.11a12.21,12.21,0,0,0,11.93-15.6Z"/><path class="cls-7" d="M244.47,335.51l-79.69.12a8.1,8.1,0,0,1-8.12-8.1h0a8.1,8.1,0,0,1,8.09-8.12l79.7-.13a8.12,8.12,0,0,1,8.12,8.1h0A8.12,8.12,0,0,1,244.47,335.51Z"/><path class="cls-7" d="M244.41,296.07l-79.69.13a8.12,8.12,0,0,1-8.13-8.1h0a8.11,8.11,0,0,1,8.1-8.12l79.69-.13a8.12,8.12,0,0,1,8.13,8.1h0A8.11,8.11,0,0,1,244.41,296.07Z"/><path class="cls-7" d="M244.35,256.64l-79.7.12a8.12,8.12,0,0,1-8.12-8.1h0a8.12,8.12,0,0,1,8.1-8.12l79.69-.13a8.12,8.12,0,0,1,8.13,8.1h0A8.12,8.12,0,0,1,244.35,256.64Z"/><rect class="cls-8" x="381.17" y="382.94" width="68.4" height="24.58" transform="translate(430.53 968.4) rotate(-135.09)"/><path class="cls-8" d="M413.12,423.94l89.53,89.25a21.92,21.92,0,0,0,31-.05h0a21.92,21.92,0,0,0,0-31l-89.54-89.26Z"/><circle class="cls-9" cx="330.43" cy="311.22" r="84.14" transform="translate(-0.49 0.52) rotate(-0.09)"/><path class="cls-8" d="M256.58,236.94a105.62,105.62,0,1,0,149.36-.23A105.62,105.62,0,0,0,256.58,236.94ZM273.7,254a81.44,81.44,0,1,1,.18,115.18A81.45,81.45,0,0,1,273.7,254Z"/><path class="cls-2" d="M277.28,301.53a3.46,3.46,0,0,0,1.47-2.23,52.44,52.44,0,0,1,61.4-41.56,3.48,3.48,0,1,0,1.32-6.83A59.39,59.39,0,0,0,271.91,298a3.49,3.49,0,0,0,5.37,3.54Z"/><circle class="cls-6" cx="276.67" cy="479.51" r="13.81"/><circle class="cls-6" cx="323.74" cy="479.43" r="13.81" transform="matrix(1, 0, 0, 1, -0.76, 0.51)"/><circle class="cls-6" cx="370.81" cy="479.36" r="13.81" transform="translate(-0.76 0.59) rotate(-0.09)"/></g></g></svg>