<svg xmlns="http://www.w3.org/2000/svg" viewBox="0 0 703.43 748.47"><defs><style>.cls-1{fill:#f5f5f5;}.cls-2{fill:#e0e0e0;}.cls-3{fill:#0071bc;}.cls-4{fill:#263238;}.cls-5{fill:#455a64;}.cls-6{fill:#fafafa;}.cls-7{fill:#ebebeb;}.cls-8{fill:#eb996e;}.cls-9{fill:#ffbe9d;}.cls-10,.cls-11{opacity:0.2;}.cls-10,.cls-13{isolation:isolate;}.cls-12{fill:#407bff;}.cls-13{opacity:0.3;}.cls-14{opacity:0.7;}</style></defs><g id="Layer_2" data-name="Layer 2"><g id="Layer_1-2" data-name="Layer 1"><g id="freepik--background-complete--inject-2"><path class="cls-1" d="M0,337.85V423.7a28.13,28.13,0,0,0,28.13,28.14H336a28.14,28.14,0,0,0,28.11-28.14V351.17l38.33-40.26L28.24,309.74A28.12,28.12,0,0,0,0,337.76Z"/><polygon class="cls-2" points="318.69 361.75 39.38 360.45 39.4 351.87 318.73 353.15 318.69 361.75"/><polygon class="cls-2" points="318.69 389.99 39.38 388.71 39.4 380.11 318.73 381.41 318.69 389.99"/><rect class="cls-2" x="259.14" y="357.68" width="8.58" height="110.53" transform="translate(-150.79 674.36) rotate(-89.72)"/><path class="cls-1" d="M285.23,634.48v85.86a28.13,28.13,0,0,0,28.13,28.13H621.15a28.13,28.13,0,0,0,28.11-28.13V647.8l38.33-40.26-374.18-1.17a28.13,28.13,0,0,0-28.18,28.08Z"/><polygon class="cls-2" points="605.27 656.14 325.94 654.87 325.95 646.27 605.29 647.57 605.27 656.14"/><polygon class="cls-2" points="605.27 684.38 325.94 683.11 325.95 674.51 605.29 675.81 605.27 684.38"/><rect class="cls-2" x="545.7" y="652.06" width="8.58" height="110.53" transform="translate(-160.02 1253.85) rotate(-89.72)"/><path class="cls-1" d="M164.54,14.47H346.09A16.22,16.22,0,0,1,362.3,30.69v88.79a16.22,16.22,0,0,1-16.21,16.22H192a16.22,16.22,0,0,1-16.22-16.22h0V25.7Z"/><path class="cls-2" d="M269.73,100.79v57a18.65,18.65,0,0,1-18.65,18.65H47a18.66,18.66,0,0,1-18.72-18.61V109.62L2.9,82.92l248.18-.78A18.65,18.65,0,0,1,269.73,100.79Z"/><polygon class="cls-1" points="58.41 116.64 243.67 115.79 243.65 110.09 58.39 110.96 58.41 116.64"/><polygon class="cls-1" points="58.41 135.38 243.67 134.51 243.65 128.84 58.39 129.68 58.41 135.38"/><rect class="cls-1" x="57.34" y="148.7" width="73.31" height="5.69"/><path class="cls-2" d="M656.54,364.83v56.95a18.65,18.65,0,0,1-18.65,18.65H433.72a18.67,18.67,0,0,1-18.67-18.65V373.66L389.64,347l248.18-.77a18.66,18.66,0,0,1,18.72,18.61Z"/><polygon class="cls-1" points="445.17 380.69 630.45 379.82 630.41 374.13 445.15 374.99 445.17 380.69"/><polygon class="cls-1" points="445.17 399.41 630.45 398.56 630.41 392.87 445.15 393.72 445.17 399.41"/><rect class="cls-1" x="442.81" y="414.64" width="73.31" height="5.69"/></g><g id="freepik--Plants--inject-2"><path class="cls-3" d="M481.66,647.5c-30.51-29.72-31-75.7-23.08-115.61,1.33-6.67,1.8-13.86,5.91-19.23s12.23-8.17,17.78-4.35c4.6,3.16,5.82,9.3,7.83,14.55a39.5,39.5,0,0,0,13.26,17.59c3.91,2.92,9,5.13,13.55,3.51,6.31-2.25,8.31-10.13,9.35-16.79q2.93-18.67,5.88-37.33c1-6.68,2.14-13.5,5.24-19.48s8.67-11.12,15.3-11.86,13.88,4.2,14.15,11a63.24,63.24,0,0,1-1.17,8.33c-.27,2.79.52,6.07,3,7.21s5.51-.24,7.82-1.81c8-5.6,14.07-13.5,19.82-21.41s11.46-16,18.92-22.38,17-10.72,26.68-9.69,18.87,8.57,19.73,18.38-6.16,18.43-13.37,25.06a151.15,151.15,0,0,1-35.83,24.48c-2.34,1.15-4.88,2.38-6.09,4.72-2.18,4.22,1.32,9.32,5.41,11.5,4.7,2.47,10.16,2.83,15.26,4.3s10.36,4.67,11.53,9.92c1.61,7.21-5.26,13.46-11.64,17.23a129.18,129.18,0,0,1-41.3,15.6c-5.19,1-10.62,1.71-15.14,4.53s-7.88,8.39-6.25,13.48,7.49,7.6,12.79,7.49,10.35-2.16,15.55-3.21c9.74-1.94,21.47.62,26,9.5,3,5.84,2.16,13.14-.81,19A49.13,49.13,0,0,1,605,626.55c-17.52,14.82-38.58,25.61-61.06,29.51s-42.47,2.66-62.33-8.53"/><path class="cls-4" d="M476.25,677.19A297.58,297.58,0,0,1,496.08,624a607.31,607.31,0,0,1,34.24-60.44l9.8-15.37c3.23-5.05,6.42-10.06,9.86-14.75a301.81,301.81,0,0,1,21.32-25.89c7.21-7.91,14.24-15.14,20.92-21.86s13-12.83,19.07-18.17a239.73,239.73,0,0,1,30.28-23.07c3.78-2.43,6.77-4.23,8.81-5.4l2.34-1.35a4.44,4.44,0,0,1,.87-.44,4.38,4.38,0,0,1-.76.54l-2.27,1.45c-2,1.24-4.94,3.1-8.67,5.6a250.16,250.16,0,0,0-30,23.32c-6,5.41-12.27,11.52-18.92,18.24s-13.68,14-20.8,21.89a308.9,308.9,0,0,0-21.12,25.81c-3.41,4.67-6.58,9.64-9.8,14.69s-6.47,10.18-9.79,15.37a625.94,625.94,0,0,0-34.24,60.28,303.09,303.09,0,0,0-20.08,52.9"/><path class="cls-4" d="M550.4,533.45a15.29,15.29,0,0,1-.19-3v-8c.15-6.79.67-16.22,1.27-26.51s1-19.68,1-26.47v-8a12.75,12.75,0,0,1,.11-3,15.37,15.37,0,0,1,.38,2.94c.18,1.8.3,4.63.39,8,.18,6.79,0,16.22-.68,26.54s-1.19,19.43-1.64,26.48c-.16,3.17-.31,5.85-.43,8A13.09,13.09,0,0,1,550.4,533.45Z"/><path class="cls-4" d="M638.75,531.47a17.51,17.51,0,0,1-3.47-.14c-2.24-.16-5.41-.43-9.46-.61-8-.44-19.05-.65-31.27-.36s-23.25,1.06-31.23,1.8c-4,.36-7.21.74-9.43,1a18.53,18.53,0,0,1-3.49.27,19,19,0,0,1,3.42-.76c2.22-.39,5.41-.9,9.41-1.39,8-1,19-1.89,31.3-2.21a306.3,306.3,0,0,1,31.34.74c4,.3,7.21.68,9.46,1A18,18,0,0,1,638.75,531.47Z"/><path class="cls-4" d="M497.47,622.61a10,10,0,0,1-.42-1.14c-.23-.75-.58-2-1-3.35-.81-2.9-1.89-7.21-3.16-12.38-2.52-10.51-5.55-25.1-8.68-41.29s-6-30.78-8.35-41.32c-1.13-5.12-2.07-9.34-2.75-12.47-.31-1.35-.54-2.49-.74-3.41a4.12,4.12,0,0,1-.18-1.21,4,4,0,0,1,.43,1.16c.25.9.56,2,1,3.33.81,2.9,1.89,7.21,3.15,12.4,2.52,10.49,5.57,25.1,8.69,41.29s6,30.78,8.34,41.32c1.13,5.12,2.07,9.34,2.76,12.47.3,1.35.54,2.47.74,3.39A4.92,4.92,0,0,1,497.47,622.61Z"/><path class="cls-4" d="M617.4,604.55a5,5,0,0,1-1.21.27l-3.49.58-12.85,1.94c-10.82,1.66-25.79,4.13-42.32,6.85s-31.52,5.07-42.4,6.49c-5.41.72-9.86,1.26-12.91,1.57l-3.6.34a4.23,4.23,0,0,1-1.23,0,6.4,6.4,0,0,1,1.21-.27l3.48-.58,12.85-1.94c10.81-1.66,25.81-4.11,42.33-6.85s31.52-5.07,42.41-6.49c5.4-.72,9.84-1.26,12.9-1.57l3.6-.32A3.91,3.91,0,0,1,617.4,604.55Z"/><path class="cls-5" d="M178.5,242.26a20.06,20.06,0,0,1-6.9-18.92,26.65,26.65,0,0,1,11.46-17.08c2.69-1.81,6-3.32,9.16-2.4a8.63,8.63,0,0,1,5.55,6.7,17.42,17.42,0,0,1-1.05,9c-3.42,9.88-8.54,18.82-18.22,22.75"/><path class="cls-5" d="M169.37,259.13a46.86,46.86,0,0,0-41.45-10.81c-3.61.85-7.84,2.79-8.44,6.52s2.72,6.92,6,8.83a40.11,40.11,0,0,0,44.35-3.6"/><path class="cls-5" d="M116.55,181a23.53,23.53,0,0,1,18,3.13,41.38,41.38,0,0,1,13,13.55c6.53,10.31,8.83,24.19,9.12,36.39-13.55-.54-25.12-11.19-30.64-17-8.75-9.12-19-30.9-9.58-36"/><path class="cls-4" d="M189.86,277.57a49.3,49.3,0,0,1-3.39-5.12,85.73,85.73,0,0,1-7.62-21.75,43,43,0,0,1,1.69-22.94,28.17,28.17,0,0,1,3.26-6.22,8.56,8.56,0,0,1,1.68-2,59.66,59.66,0,0,0-4,8.51,45.3,45.3,0,0,0-1.26,22.38,100,100,0,0,0,7.21,21.63"/><path class="cls-4" d="M190,277.73l-7.06-9.1c-5.93-7.7-14.17-18.31-23.43-29.92s-17.75-22-23.91-29.48l-7.21-9a24.52,24.52,0,0,1-2.56-3.37,26.39,26.39,0,0,1,2.95,3c1.81,2,4.46,5,7.64,8.63,6.37,7.35,15,17.66,24.26,29.27S178,260.1,183.77,268c2.88,3.93,5.17,7.21,6.72,9.36"/><path class="cls-4" d="M136.37,256.3a7.75,7.75,0,0,1,2.34-.72,18.12,18.12,0,0,1,2.83-.54,32.45,32.45,0,0,1,3.8-.41,49.6,49.6,0,0,1,10,.37,53.35,53.35,0,0,1,22.62,8.8,49.15,49.15,0,0,1,7.58,6.45,33,33,0,0,1,2.54,2.87,20.12,20.12,0,0,1,1.81,2.3c.88,1.32.75,1.93.68,2a78.69,78.69,0,0,0-5.62-6.47,55.88,55.88,0,0,0-7.61-6.1,57.37,57.37,0,0,0-22.09-8.52,53.77,53.77,0,0,0-9.73-.65C139.79,255.73,136.37,256.55,136.37,256.3Z"/></g><g id="freepik--Device--inject-2"><path class="cls-4" d="M438.66,716.14l-208.15-1a45.33,45.33,0,0,1-45-45.53l2.2-521.85a45.33,45.33,0,0,1,45.48-45.14l208.15,1a45.35,45.35,0,0,1,45.06,45.54L484.18,671A45.36,45.36,0,0,1,438.66,716.14Z"/><path class="cls-6" d="M440.93,121.63l-40.37-.2a10,10,0,0,0-9.84,10.2h0V139a10,10,0,0,1-9.83,10.2h0l-78.66-.36a10,10,0,0,1-9.75-10.29v-7.32a10,10,0,0,0-9.77-10.29H268.52l-35.32-.16a31.79,31.79,0,0,0-31.92,31.62L199.14,661.7a31.76,31.76,0,0,0,31.61,31.89l207.73,1a31.75,31.75,0,0,0,31.9-31.61h0l2.14-509.36a31.71,31.71,0,0,0-31.48-32Z"/><path class="cls-5" d="M323.43,645.71a4.34,4.34,0,1,1-4.94-3.64,3.78,3.78,0,0,1,.67-.05A4,4,0,0,1,323.43,645.71Z"/><path class="cls-5" d="M336.71,645.78a4.34,4.34,0,1,1-4.92-3.66,3.49,3.49,0,0,1,.65,0A4,4,0,0,1,336.71,645.78Z"/><path class="cls-5" d="M350,645.84a4.34,4.34,0,1,1-4.95-3.65,5.16,5.16,0,0,1,.67-.05A4,4,0,0,1,350,645.84Z"/><path class="cls-7" d="M263.46,367.17C266.84,367.66,471,407.7,471,407.7V367.17Z"/><path class="cls-7" d="M199.21,624.52s222.13-31.43,220.19-30.46-220.19,0-220.19,0Z"/><path class="cls-4" d="M457.15,29.83c.25,0,.47,11.22.47,25.06S457.4,80,457.15,80s-.47-11.23-.47-25.09S456.9,29.83,457.15,29.83Z"/><path class="cls-4" d="M546.05,87.55c.11.23-10.09,5-22.76,10.54s-23,10-23.14,9.7,10.09-5,22.76-10.55S545.94,87.3,546.05,87.55Z"/><path class="cls-4" d="M543.8,0a3.79,3.79,0,0,1-.47,1c-.41.69-.92,1.57-1.55,2.65-1.35,2.31-3.35,5.61-5.87,9.64-5,8.11-12.31,19.11-20.55,31.11s-15.55,22.94-20.74,30.94c-2.54,3.91-4.61,7.21-6.13,9.48l-1.69,2.56a4.93,4.93,0,0,1-.65.87,5.28,5.28,0,0,1,.49-1c.41-.68.91-1.57,1.54-2.65,1.34-2.3,3.36-5.58,5.88-9.64,5.05-8.11,12.31-19.1,20.53-31.1S530.16,21,535.35,12.92l6.12-9.5,1.7-2.55A6,6,0,0,1,543.8,0Z"/></g><g id="freepik--speech-bubbles--inject-2"><path class="cls-3" d="M668.42,212.17H262.12A15.87,15.87,0,0,0,246.25,228v126A15.87,15.87,0,0,0,262.1,370h30.3c2.43,13.16,5.28,29.76,5.28,29.76L325.07,370H668.42A15.88,15.88,0,0,0,684.3,354.1h0v-126a15.88,15.88,0,0,0-15.86-15.89Z"/><path class="cls-1" d="M500.78,280.49c0,.25-48.35.47-108,.47s-108-.22-108-.47,48.36-.49,108-.49S500.78,280.27,500.78,280.49Z"/><path class="cls-1" d="M500.78,261.17c0,.25-48.35.47-108,.47s-108-.22-108-.47,48.36-.47,108-.47S500.78,260.9,500.78,261.17Z"/><path class="cls-1" d="M500.78,299.7c0,.25-48.35.47-108,.47s-108-.22-108-.47,48.36-.47,108-.47S500.78,299.43,500.78,299.7Z"/><path class="cls-1" d="M426.26,319.54c0,.25-31.66.47-70.73.47s-70.74-.22-70.74-.47,31.67-.47,70.74-.47S426.26,319.27,426.26,319.54Z"/><path class="cls-3" d="M484.83,438.75H75.22A11.1,11.1,0,0,0,64.1,449.84V583.25a11.12,11.12,0,0,0,11.12,11.12h297.5l27,29.43s2.83-16.55,5.23-29.43h79.8a11.12,11.12,0,0,0,11.12-11.12h0V449.89a11.11,11.11,0,0,0-11.07-11.14Z"/><path class="cls-1" d="M468.78,507.56c0,.25-48.36.47-108,.47s-108-.22-108-.47,48.35-.47,108-.47S468.78,507.23,468.78,507.56Z"/><path class="cls-1" d="M468.78,488.13c0,.25-48.36.47-108,.47s-108-.22-108-.47,48.35-.47,108-.47S468.78,487.86,468.78,488.13Z"/><path class="cls-1" d="M468.78,526.66c0,.25-48.36.47-108,.47s-108-.22-108-.47,48.35-.47,108-.47S468.78,526.41,468.78,526.66Z"/><path class="cls-1" d="M394.26,546.5c0,.27-31.67.47-70.74.47s-70.75-.2-70.75-.47,31.68-.47,70.75-.47S394.26,546.25,394.26,546.5Z"/></g><g id="freepik--character-2--inject-2"><path class="cls-4" d="M566.27,158.72c.25-3.32-2.7-7.88-5.4-10.51a10.79,10.79,0,0,1-3-11.48c1.1-4.09,3.69-3.79,4.72-6.2a18.16,18.16,0,0,0,.59-5.73,12,12,0,0,1,13.42-10.31l.86.14a16.56,16.56,0,0,1,30.63-3.18,12.73,12.73,0,0,1,18.47,10.34,9.3,9.3,0,0,1,12.08,1.8,11.45,11.45,0,0,1,.86,12.62,14.92,14.92,0,0,1-10.81,7.21,21.92,21.92,0,0,1-13-2.37A41.57,41.57,0,0,1,605,133"/><ellipse class="cls-2" cx="595.74" cy="289.62" rx="78.02" ry="76.19"/><path class="cls-8" d="M674.08,289.68l-8.64-22.13L634.5,287l27.57,42.52S673.28,314.94,674.08,289.68Z"/><path class="cls-9" d="M588.71,241.74h0a20.76,20.76,0,0,0,20.85-19.62c.45-9.18.85-18,.85-18s17-1.22,18.58-17.87,1.8-55.13,1.8-55.13h0a59,59,0,0,0-59.29,2.58l-1.62,1-2,86.15a20.76,20.76,0,0,0,20.62,20.9Z"/><path class="cls-4" d="M598.4,156.72a2.41,2.41,0,1,1-3.1,1.53A2.45,2.45,0,0,1,598.4,156.72Z"/><path class="cls-4" d="M603.13,157.58c-.29.27-1.81-1.1-4.18-1.24s-4.08.93-4.31.63.18-.65.94-1.16a5.72,5.72,0,0,1,3.47-.86,5.64,5.64,0,0,1,3.3,1.35C603,156.91,603.22,157.45,603.13,157.58Z"/><path class="cls-4" d="M623.81,156.72a2.41,2.41,0,1,1-3.09,1.53A2.42,2.42,0,0,1,623.81,156.72Z"/><path class="cls-4" d="M628.79,157.62c-.27.28-1.8-1.09-4.18-1.23s-4.08.94-4.31.63.18-.65,1-1.15a5.61,5.61,0,0,1,3.46-.87,5.76,5.76,0,0,1,3.31,1.35C628.72,157,628.93,157.51,628.79,157.62Z"/><path class="cls-4" d="M611.31,175.62a11.35,11.35,0,0,1,3.8-.49c.61,0,1.1-.11,1.17-.43a3,3,0,0,0-.29-1.8c-.47-1.57-1-3.16-1.46-4.81-2-6.85-3.29-12.47-2.95-12.62s2.25,5.41,4.23,12.22c.47,1.66.9,3.26,1.35,4.83a3.76,3.76,0,0,1,.13,2.52,1.64,1.64,0,0,1-1.13.89,4.61,4.61,0,0,1-1,0A11.3,11.3,0,0,1,611.31,175.62Z"/><path class="cls-8" d="M610.33,203.88a39.43,39.43,0,0,1-21.4-7.95s4.19,12.42,21.1,12.27Z"/><path class="cls-9" d="M569.37,159.17a2.53,2.53,0,0,0-2.38-2.58c-3.13-.15-8.29,1-9,9.57-.93,12.25,11,9.42,11.09,9S569.32,163.94,569.37,159.17Z"/><path class="cls-8" d="M566.51,170.36a3.77,3.77,0,0,1-.62.27,2.11,2.11,0,0,1-1.6,0,5.28,5.28,0,0,1-2.11-4.94,7.07,7.07,0,0,1,.83-3,2.5,2.5,0,0,1,1.8-1.51,1.08,1.08,0,0,1,1.23.68c.14.34,0,.6.11.61s.28-.18.21-.7a1.27,1.27,0,0,0-.43-.79,1.69,1.69,0,0,0-1.15-.42,3,3,0,0,0-2.4,1.81,6.83,6.83,0,0,0-1,3.35,5.55,5.55,0,0,0,2.74,5.53,2.38,2.38,0,0,0,2-.18C566.45,170.66,566.54,170.39,566.51,170.36Z"/><path class="cls-4" d="M592.1,151c.61.79,2.74.43,5.51.3s4.92-.1,5.41-1-2.09-2.94-5.66-2.63S591.41,150.23,592.1,151Z"/><path class="cls-4" d="M619.09,150.23c.33,1.06,2.36,1.39,4.62,1.37s4.27-.42,4.57-1.5-1.8-2.54-4.63-2.5S618.75,149.18,619.09,150.23Z"/><path class="cls-4" d="M633.08,136.31s-10.11,4.91-23.25-1.65c-8.63-4.31-18.67-6.42-20.89-4.69s-2.68,10.63-11.22,13.23c0,0,.57,16.94-6.19,16.34S569,132.71,569,132.71l16.55-8.07,18-3.41,17,2.4,13.16,3.6Z"/><path class="cls-5" d="M519.88,234.5c17.68-18.19,48.79-16.22,48.79-16.22l25.79,18.47,14.61-17a94.8,94.8,0,0,1,29.77,9.21l1,.3v.2c11.31,6.15,27.32,20.89,42.58,35.18l-18.26,16.94-20.22,18a.45.45,0,0,1,0,.36c-.19,1.1,2.82,25.77,5.92,44.52A76.08,76.08,0,0,1,582,365c-8.27-1.46-12.27-3.46-19.93-5.4a27.75,27.75,0,0,1-20.53-24.42h0c-1.37-15.72-2.41-35.18-2.41-35.18"/><path class="cls-4" d="M625.24,222.91a19.54,19.54,0,0,1,1.12,2.9c.66,1.8,1.55,4.63,2.61,8,2.13,6.81,4.85,16.22,7.41,26.9s4.48,20.3,5.69,27.32c.61,3.61,1.06,6.38,1.33,8.37a19.76,19.76,0,0,1,.35,3.08,18.52,18.52,0,0,1-.71-3c-.41-2.11-.95-4.9-1.62-8.29-1.39-7-3.4-16.63-6-27.23s-5.16-20.13-7.1-26.92L626,225.92A24.15,24.15,0,0,1,625.24,222.91Z"/><path class="cls-4" d="M641.84,287.88c-.17-.2,7.55-6.76,17.22-14.64s17.65-14.11,17.81-13.91-7.53,6.76-17.21,14.63S642,288.07,641.84,287.88Z"/><path class="cls-10" d="M543.22,259.44l-15.78,52,5.89,3.06,5.8-14.71S545,268.9,543.22,259.44Z"/><g class="cls-11"><path d="M623.53,222.94c8.52,4.49-12.85,15.3-22.49,15l7-18.49S620.66,221.43,623.53,222.94Z"/></g><path class="cls-5" d="M566.13,219.47V205.68s26.9,6.94,27.88,23c0,0,3.42-17.8,17.3-18.65l2,25-16.22,14.06H580.78l-13-11.19-1.69-17.38"/><path class="cls-4" d="M600.08,306a16.15,16.15,0,0,1,0-2.95c0-1.91,0-4.67.09-8.08,0-6.79-.2-16.22-1-26.54s-2.22-19.67-3.36-26.37c-.57-3.22-1.06-5.89-1.42-7.93a16.16,16.16,0,0,1-.43-2.94,19.39,19.39,0,0,1,.79,2.87c.47,1.8,1.06,4.54,1.71,7.89A252.57,252.57,0,0,1,600,268.3a246.68,246.68,0,0,1,.75,26.64c-.09,3.41-.21,6.16-.38,8.07A19.3,19.3,0,0,1,600.08,306Z"/><path class="cls-4" d="M592.78,224.08a3.22,3.22,0,0,0-1.6.14,5.77,5.77,0,0,0-2.71,3.45,79.12,79.12,0,0,0-5.17,15l-.14.61-.54-.32c-1.61-1-3.26-2-4.92-3.14a103.7,103.7,0,0,1-8.72-6.63,11.13,11.13,0,0,1-3-3.89,12.36,12.36,0,0,1-.9-4.16,24.33,24.33,0,0,1,.6-6,8.47,8.47,0,0,1,.59-2.15,14.65,14.65,0,0,1-.23,2.2,27.38,27.38,0,0,0-.29,5.93,11.33,11.33,0,0,0,1,3.88,10.35,10.35,0,0,0,2.83,3.6c2.54,2.13,5.5,4.32,8.67,6.49,1.66,1.11,3.28,2.18,4.88,3.15l-.68.29a66.75,66.75,0,0,1,5.41-14.94,10.84,10.84,0,0,1,1.4-2.33,3.76,3.76,0,0,1,1.71-1.17C592.31,223.61,592.82,224.06,592.78,224.08Z"/><path class="cls-4" d="M611.31,210.06a9.63,9.63,0,0,1,.25,2.14l.43,5.88c.2,2.47.51,5.4,1,8.63a14.56,14.56,0,0,1,.33,5.3,9.19,9.19,0,0,1-3.61,4.52,40.18,40.18,0,0,0-5.91,4.49l-.72.81v-1.08a32.25,32.25,0,0,0-4-13.41c-1.71-3.08-3.12-4.65-3-4.74s.43.33,1.06,1.07a25.28,25.28,0,0,1,2.45,3.38A30.93,30.93,0,0,1,604,240.7l-.79-.27a37.34,37.34,0,0,1,6-4.65,8.37,8.37,0,0,0,3.2-4,14.34,14.34,0,0,0-.29-4.93c-.45-3.27-.68-6.24-.81-8.73s-.14-4.5-.12-5.89A8.68,8.68,0,0,1,611.31,210.06Z"/><path class="cls-4" d="M697.94,213.52c-1.1,1.28-40.75,54.35-40.75,54.35l5.59,3.17,40.65-52.26Z"/><path class="cls-9" d="M538.75,255.4s41.69,60,44.21,61.18c4.94,2.33,62-46.94,67.4-51.66.76-1,2.31-3.12,5.41-7.32,0,0,4.5-20.58,9.3-19s-2.64,10.47.5,18.29,17.45-10.81,18-12.51l3.7-4.83s3.87,11,3.6,15.57c-.85,14.69-14.74,32.15-14.74,32.15S613.74,364.58,571,367c-12.3.69-34.24-34.24-48.82-60.44a35.88,35.88,0,0,1,10.22-46.43Z"/><path class="cls-8" d="M683.81,257.71a60.32,60.32,0,0,1,2.67-5.41,55.65,55.65,0,0,1,2.7-5.41,33.73,33.73,0,0,1-5.41,10.82Z"/><path class="cls-5" d="M531.71,226.12S487,242,520.23,317.27l51.65-31.18-7.36-17.59Z"/><path class="cls-4" d="M528.28,227.43a15.64,15.64,0,0,1,5.41.45,22.38,22.38,0,0,1,5.86,2.47,31.6,31.6,0,0,1,6.52,5.41,78.07,78.07,0,0,1,12.15,18.15c3.78,7.31,7.31,15.66,10.94,24.4,1.08,2.63,2.16,5.2,3.17,7.66l.16.39-.38.2c-14.94,8.15-28,15.77-37.14,21.48-4.61,2.85-8.27,5.19-10.81,6.81l-2.89,1.81a7.13,7.13,0,0,1-1,.59,6,6,0,0,1,.93-.74c.64-.47,1.57-1.15,2.82-2,2.45-1.8,6.07-4.14,10.63-7.06,9.12-5.86,22.09-13.61,37-21.77l-.22.57c-1-2.45-2.09-5-3.17-7.66-3.6-8.74-7.21-17.06-10.81-24.36a79.7,79.7,0,0,0-11.86-18,32,32,0,0,0-6.31-5.41,23.09,23.09,0,0,0-5.73-2.58A32.35,32.35,0,0,0,528.28,227.43Z"/><path class="cls-5" d="M624.52,115.88a2.72,2.72,0,0,1,.21.79,10.11,10.11,0,0,1,.15,2.33,12,12,0,0,1-15.46,10.85,10.63,10.63,0,0,1-6.17-4.47,6.42,6.42,0,0,1-.92-4.08,5.23,5.23,0,0,1,2.22-3.71,4.55,4.55,0,0,1,4.32-.29,5.57,5.57,0,0,1,3,3,7.91,7.91,0,0,1-1.19,7.49,9.38,9.38,0,0,1-11.82,2.56,19.81,19.81,0,0,0-4.45-1.69,5.35,5.35,0,0,0-3.44.36,16.19,16.19,0,0,0-2.56,1.69,7.32,7.32,0,0,1,.52-.63,4.72,4.72,0,0,1,.74-.67,5.33,5.33,0,0,1,1.15-.73,5.93,5.93,0,0,1,3.61-.55,20.07,20.07,0,0,1,4.63,1.63,13.06,13.06,0,0,0,2.59.84,7.85,7.85,0,0,0,2.9,0,8.39,8.39,0,0,0,5.41-3.26,7,7,0,0,0,1.05-6.63,4.27,4.27,0,0,0-5.52-2.45,3,3,0,0,0-.41.18,4.37,4.37,0,0,0-1.81,3.06A5.52,5.52,0,0,0,604,125a9.77,9.77,0,0,0,5.62,4.11A11.5,11.5,0,0,0,621,126.38a12.15,12.15,0,0,0,3.51-7.35A25.47,25.47,0,0,0,624.52,115.88Z"/><path class="cls-4" d="M614.77,183.84c0,.11-.54.36-1.53.39a8.06,8.06,0,0,1-6.67-3.35c-.54-.83-.7-1.42-.6-1.48a12.37,12.37,0,0,0,8.8,4.44Z"/><path class="cls-4" d="M567.52,176c.09,0,.59.8,0,2a3,3,0,0,1-1.81,1.46,3.14,3.14,0,0,1-2.79-.74,3.4,3.4,0,0,1-1.24-2.76,3.58,3.58,0,0,1,.83-2.16c.86-1,1.8-1.12,1.8-1a8,8,0,0,0-1.23,1.41,2.79,2.79,0,0,0,.43,3.6,2.42,2.42,0,0,0,2,.6,2.49,2.49,0,0,0,1.47-1C567.55,176.68,567.37,176,567.52,176Z"/><path class="cls-5" d="M627.49,121.9a6.31,6.31,0,0,1,.87,3.31,11.06,11.06,0,0,1-10,11.56,6.21,6.21,0,0,1-3.41-.4c0-.16,1.32,0,3.32-.27a11.14,11.14,0,0,0,9.44-10.81C627.74,123.23,627.33,122,627.49,121.9Z"/><path class="cls-2" d="M566.54,272.74c.11.23-11.77,6.34-26.54,13.64s-26.84,13.05-27,12.81,11.75-6.34,26.53-13.66S566.43,272.5,566.54,272.74Z"/><path class="cls-2" d="M555.71,252.3c.13.22-10.45,6.15-23.62,13.21s-24,12.62-24.06,12.38,10.45-6.14,23.62-13.21S555.59,252.07,555.71,252.3Z"/><path class="cls-2" d="M545.24,235.78a43,43,0,0,1-5.28,3.11L527,246.1l-12.87,7.35a41.37,41.37,0,0,1-5.4,2.92,35.88,35.88,0,0,1,5.08-3.47c3.21-2,7.69-4.74,12.74-7.61s9.7-5.28,13.1-7A34.93,34.93,0,0,1,545.24,235.78Z"/><path class="cls-2" d="M584.83,231.83a8.53,8.53,0,0,1-3.49-.94,26.8,26.8,0,0,1-7.21-4.74,50.77,50.77,0,0,1-5.88-6.38,13.28,13.28,0,0,1-2-2.94,19,19,0,0,1,2.54,2.53,79.1,79.1,0,0,0,6,6.09,32.68,32.68,0,0,0,6.94,4.83C583.55,231.31,584.87,231.72,584.83,231.83Z"/><path class="cls-2" d="M611.11,222.1a9.93,9.93,0,0,1-3.73,5.4,9.82,9.82,0,0,1-6,2.76,52.94,52.94,0,0,0,5.41-3.48A63.25,63.25,0,0,0,611.11,222.1Z"/><path class="cls-2" d="M658,249.22a4.19,4.19,0,0,1-1,.18l-2.9.36c-2.52.29-6.18.63-10.68,1-9,.72-21.63,1.43-35.38,1.93s-26.35.67-35.43.59c-4.52,0-8.2-.12-10.72-.21l-2.92-.15a4.29,4.29,0,0,1-1-.12,3.42,3.42,0,0,1,1,0h2.92l10.72-.09c9-.09,21.63-.38,35.39-.87s26.32-1.11,35.36-1.66l10.71-.68,2.92-.18A3.5,3.5,0,0,1,658,249.22Z"/><path class="cls-2" d="M643.75,270.59a21.2,21.2,0,0,1-3,.47c-1.93.24-4.7.52-8.13.85-6.86.63-16.36,1.28-26.87,1.71s-20,.52-27,.45c-3.44,0-6.23-.11-8.16-.18a17.56,17.56,0,0,1-3-.23,21.32,21.32,0,0,1,3-.15l8.16-.11c6.89,0,16.4-.3,26.89-.72s20-1,26.87-1.44l8.14-.56A17.74,17.74,0,0,1,643.75,270.59Z"/><path class="cls-2" d="M611.43,296.94a35.22,35.22,0,0,1-6,.85c-3.71.38-8.83.79-14.51,1.08s-10.81.38-14.54.36a35.63,35.63,0,0,1-6-.23,37.61,37.61,0,0,1,6-.44l14.51-.63,14.41-.81A44.55,44.55,0,0,1,611.43,296.94Z"/><path class="cls-2" d="M570.15,234.41c0,.27-5.54.32-12.35.61s-12.31.67-12.34.4A92,92,0,0,1,570.15,234.41Z"/><path class="cls-2" d="M646.16,233.43a140,140,0,0,1-16,.4,135.91,135.91,0,0,1-16-.52,138.12,138.12,0,0,1,16-.42A133.54,133.54,0,0,1,646.16,233.43Z"/><path class="cls-2" d="M648.94,343.09a7.65,7.65,0,0,1-1.64.94c-1.08.56-2.69,1.3-4.69,2.15a104.44,104.44,0,0,1-16.22,5.17,106,106,0,0,1-16.83,2.43c-2.16.13-3.93.16-5.15.13a8.44,8.44,0,0,1-1.81-.13c0-.14,2.67-.25,7-.67a132.4,132.4,0,0,0,16.67-2.68,127.21,127.21,0,0,0,16.22-4.89C646.38,344,648.88,343,648.94,343.09Z"/></g><g id="freepik--character-1--inject-2"><ellipse class="cls-2" cx="162.12" cy="513.96" rx="78.02" ry="74.43"/><path class="cls-4" d="M146.23,334.55C133.86,335.2,129,348.1,127.52,351a24.9,24.9,0,0,0-2,9.44,20.47,20.47,0,0,1-2.38,9.32c-2.72,4.34-8.45,6.59-10,11.48-1.81,5.53,2.75,11.44,1.55,17.12-.65,3-2.87,5.55-3.61,8.56a12.61,12.61,0,0,0,1.68,9.35c4,7,12.49,10.49,20.56,10.81s16-2.12,23.7-4.5"/><path class="cls-4" d="M200.69,350.55a7.76,7.76,0,0,0,1.8,8,50.27,50.27,0,0,0,6.7,5.4,11,11,0,0,1,4.58,7.09c.24,2.63-1.1,5.26-.74,7.87.94,6.76,11.7,8.78,12.26,15.55.39,4.53-4.26,8.69-3,13A20.53,20.53,0,0,0,225,412c3.07,5.09,1,12.08-3.44,16s-10.56,5.31-16.47,5.58c-5,.22-10.63-.59-13.55-4.61-2.69-3.69-2.13-8.7-1.61-13.23,2.51-21.12,2.08-42.46,1.66-63.72"/><path class="cls-9" d="M149.49,448.29c.09-11.11,0-22.78,0-22.78s-14.26-2.55-17-21.22c-2.62-17.82,1.8-56.13,1.8-56.13h0c20.67-8.17,43.95-5,58.42,11.62h0l-2.27,90.11c-.25,10.45-9.46,18.56-20.65,18.2h0C158.48,467.71,149.4,458.9,149.49,448.29Z"/><path class="cls-4" d="M138.17,377.57a2.4,2.4,0,0,0,2.27,2.45,2.3,2.3,0,0,0,2.5-2.09v0a2.42,2.42,0,0,0-2.29-2.45,2.3,2.3,0,0,0-2.49,2.08Z"/><path class="cls-4" d="M134.33,375.73c.29.31,2.11-1,4.69-1,4.85.7,4.76,1.44,4.72,1,.14-.12-.14-.7-1-1.29a6.55,6.55,0,0,0-3.77-1.23,6.46,6.46,0,0,0-3.75,1.17C134.46,375,134.19,375.59,134.33,375.73Z"/><path class="cls-4" d="M164.52,378.34a2.38,2.38,0,0,0,2.27,2.44,2.27,2.27,0,0,0,2.48-2,.28.28,0,0,1,0-.09A2.4,2.4,0,0,0,167,376.2a2.31,2.31,0,0,0-2.49,2.11Z"/><path class="cls-4" d="M161.17,376.61c.28.33,2.12-1,4.68-1s4.45,1.35,4.74,1.05-.16-.71-1-1.32a6.52,6.52,0,0,0-3.79-1.21,6.26,6.26,0,0,0-3.74,1.16C161.29,376,161,376.47,161.17,376.61Z"/><path class="cls-4" d="M151.6,395.09a15.65,15.65,0,0,0-4.17-.82c-.64,0-1.28-.21-1.38-.66a3.5,3.5,0,0,1,.46-1.95l2-5A89.88,89.88,0,0,0,153,373.64c-.29-.11-2.78,5.57-5.57,12.62-.67,1.8-1.3,3.42-1.91,5a3.76,3.76,0,0,0-.38,2.57,1.65,1.65,0,0,0,1.08,1,3.75,3.75,0,0,0,1.1.16A17.19,17.19,0,0,0,151.6,395.09Z"/><path class="cls-8" d="M149.47,425.51a47.5,47.5,0,0,0,25.05-6.37s-6.2,12.75-24.85,10.82Z"/><path class="cls-8" d="M152.59,401.23a4.64,4.64,0,0,1,4.18-1.67,4.25,4.25,0,0,1,3,1.67,2.71,2.71,0,0,1,.16,3.08,3.14,3.14,0,0,1-3.39.81,9.54,9.54,0,0,1-3.26-2,2.78,2.78,0,0,1-.72-.77.84.84,0,0,1,0-1"/><path class="cls-4" d="M159.17,396.94c-.44,0-.47,2.78-2.89,4.72s-5.4,1.63-5.4,2,.66.56,1.91.6a6.77,6.77,0,0,0,4.52-1.52,6.1,6.1,0,0,0,2.22-3.94C159.65,397.63,159.35,396.92,159.17,396.94Z"/><path class="cls-4" d="M184.59,346.48c-6.81,9.73-24.88,19.74-37.84,22.06,1.49-2,9.44-6.88,11-8.87-5.86,4.36-14.26,10.24-22,10.62a4.6,4.6,0,0,1-2.68-.42,3.55,3.55,0,0,1-1.35-2.92,77.07,77.07,0,0,1,.54-16.9A18.63,18.63,0,0,1,138.91,338c5-3.85,12.11-4.79,18.83-4.95a42.35,42.35,0,0,1,16.6,2.23c5.15,2,9.57,6,10.33,10.82"/><path class="cls-4" d="M204.17,390.08A105.07,105.07,0,0,0,206,377.6c.56-9.62-2.22-45.05-35.4-42.27l-1.35,10.11S164.1,380,185.57,380.27a38.4,38.4,0,0,0,10.81,20.33s5.62-.16,7.64-10.52"/><path class="cls-9" d="M185.62,380.27a11.34,11.34,0,0,1,6,.45,7.84,7.84,0,0,1,4.35,4.06,8.22,8.22,0,0,1,0,5.94,14,14,0,0,1-3.46,5,9,9,0,0,1-3.61,2.36,4.37,4.37,0,0,1-4.14-.69"/><path class="cls-8" d="M186.58,392.38c-.24,0,.63,1.28,2.45.81a3.8,3.8,0,0,0,2.27-1.94,8.69,8.69,0,0,0,1-3.28,5.24,5.24,0,0,0-.81-3.61,3.37,3.37,0,0,0-2.59-1.56c-1.8,0-2.47,1.22-2.27,1.26a3.58,3.58,0,0,1,2.11-.2,3.33,3.33,0,0,1,2,3.87c-.23,2.06-1,3.93-2.14,4.38S186.7,392.22,186.58,392.38Z"/><path class="cls-4" d="M189.24,342.84a11.31,11.31,0,0,0,15.3-4,7.2,7.2,0,0,0,1.05-5.4,7.4,7.4,0,0,0-5.57-4.83,11.43,11.43,0,0,0-10.45,2.5,10,10,0,0,0-2.7,10.28,9,9,0,0,0,8.59,5.94"/><path class="cls-4" d="M192.24,396.62a26.73,26.73,0,0,0-5.16,4.45,8.89,8.89,0,0,0-2.22,6.27,17.17,17.17,0,0,1,.42,3.78,12.67,12.67,0,0,1-2.61,4.51,10.69,10.69,0,0,0,1.67,12.53,17.37,17.37,0,0,0,12.27,5,12.4,12.4,0,0,0,7.54-1.8c3.1-2.17,4.29-6.24,4.38-10"/><path class="cls-5" d="M194.51,350.28a11.93,11.93,0,0,1-1.95,3.39,37.58,37.58,0,0,1-6.4,7,38.16,38.16,0,0,1-7.87,5.28,12.66,12.66,0,0,1-3.61,1.43A84.18,84.18,0,0,0,185.6,360,83.32,83.32,0,0,0,194.51,350.28Z"/><path class="cls-5" d="M198,350.09a14.1,14.1,0,0,1-.6,4.56,37.44,37.44,0,0,1-4.21,10.25,36.93,36.93,0,0,1-7.09,8.52,14.11,14.11,0,0,1-3.74,2.67,57.08,57.08,0,0,0,10-11.68A56.23,56.23,0,0,0,198,350.09Z"/><path class="cls-5" d="M125.92,365.19c.27,0,.63,3.1,1.8,6.79s2.41,6.53,2.16,6.65A21.44,21.44,0,0,1,125.92,365.19Z"/><path class="cls-5" d="M205.41,428.88a5.45,5.45,0,0,0,2.74.88,5.79,5.79,0,0,0,3.17-1,6.32,6.32,0,0,0,2.4-3.6,11.51,11.51,0,0,0,0-5.41c-.38-2-1.14-4-1.8-6.2a16.07,16.07,0,0,1-.82-7.21c.42-2.63,2.13-4.77,3-7.21a9.36,9.36,0,0,0-5.46-11.64,31.57,31.57,0,0,1-3.1-1.35,6.24,6.24,0,0,1-2.47-2.2,10.63,10.63,0,0,1-1.12-5.68,19.43,19.43,0,0,0-.18-4.57,7.2,7.2,0,0,0-1.35-3.1,4.45,4.45,0,0,0-2.43-1.52,1.76,1.76,0,0,1,.79,0,3.9,3.9,0,0,1,1.93,1.19,8.15,8.15,0,0,1,1.59,3.23,19,19,0,0,1,.32,4.7,9.68,9.68,0,0,0,1.12,5.25c1,1.65,3.1,2.34,5.22,3.19a10,10,0,0,1,5.41,4.9,10.13,10.13,0,0,1,.61,7.84c-.93,2.57-2.59,4.63-2.95,7a15.43,15.43,0,0,0,.74,6.87c.63,2.16,1.37,4.23,1.8,6.27a12.46,12.46,0,0,1-.16,5.76,6.93,6.93,0,0,1-2.76,3.9,5.79,5.79,0,0,1-3.48.93,4.16,4.16,0,0,1-2.16-.7A1.92,1.92,0,0,1,205.41,428.88Z"/><path class="cls-5" d="M192.4,427.6a2.19,2.19,0,0,0,1.1,1,3,3,0,0,0,3.49-1,5.5,5.5,0,0,0-.29-5.64c-1-2-3.06-4-3.6-7a5.06,5.06,0,0,1,1-4.16c.88-1.08,1.93-1.8,2.6-2.69a7.88,7.88,0,0,0,1.26-5.76,24,24,0,0,0-1-4.09,6.27,6.27,0,0,1-.43-1.52,8.89,8.89,0,0,1,.76,1.39,17.08,17.08,0,0,1,1.35,4.13,8.41,8.41,0,0,1-1.21,6.36c-.78,1-1.8,1.8-2.56,2.76a4.17,4.17,0,0,0-.81,3.44c.43,2.57,2.34,4.54,3.44,6.76a6.15,6.15,0,0,1,0,6.43,3.18,3.18,0,0,1-2.29,1.24,3.25,3.25,0,0,1-1.91-.36C192.36,428.26,192.36,427.58,192.4,427.6Z"/><path class="cls-5" d="M121.75,422.86a8.47,8.47,0,0,1-1.47-1.46,18.27,18.27,0,0,1-3.14-4.74,9.47,9.47,0,0,1-.76-3.93,6.93,6.93,0,0,1,1.59-4.38c1.12-1.28,2.74-2,3.71-3.17a5.27,5.27,0,0,0,.74-4.63,19.42,19.42,0,0,0-2-4.76,16.25,16.25,0,0,1-1.81-4.74,6.21,6.21,0,0,1,.92-4.54,15.85,15.85,0,0,1,2.74-2.87,8.19,8.19,0,0,0,3.08-4.4,5.07,5.07,0,0,0,0-2,1.4,1.4,0,0,1,.27.47,3.35,3.35,0,0,1,.17,1.57,8.18,8.18,0,0,1-3,4.83,16.81,16.81,0,0,0-2.54,2.79,5.46,5.46,0,0,0-.72,4,16,16,0,0,0,1.8,4.46,20.28,20.28,0,0,1,2.08,5,6.25,6.25,0,0,1-.94,5.41c-1.23,1.44-2.85,2.07-3.78,3.17a6.05,6.05,0,0,0-1.46,3.82,8.66,8.66,0,0,0,.59,3.6,19.83,19.83,0,0,0,2.81,4.76A10,10,0,0,1,121.75,422.86Z"/><path class="cls-12" d="M196.9,345.18a30.05,30.05,0,0,0-4.39-4.77,29.94,29.94,0,0,0-5.79-2.92,10.8,10.8,0,0,1,10.18,7.69Z"/><path class="cls-5" d="M199.44,327.94a4,4,0,0,1,1.19,2,9.77,9.77,0,0,1-2.9,10.55c-1.15,1-2,1.24-2.07,1.15s.67-.61,1.6-1.62a10.72,10.72,0,0,0,2.74-9.9A14,14,0,0,1,199.44,327.94Z"/><path class="cls-13" d="M108,549.62s44.79,42.53,71.41,34.82,34.47-27.67,34.47-27.67l.65-7.2-2.67-1.81-102.5-8.18Z"/><path class="cls-8" d="M81.51,509.79l8.63-22.06,31,19.45L93.51,549.69S82.3,535.06,81.51,509.79Z"/><path class="cls-5" d="M116.42,448.63c14.42-7.54,33.05-9.7,33.05-9.7h0c5.41,10.81,22.47,12.2,32.8,4.81l8.72-5.89a31,31,0,0,1,3.61.16,46.5,46.5,0,0,1,41.23,37.11A92.71,92.71,0,0,1,238,498.55C236.87,518.24,216.49,520,216.49,520s-1,19.44-2.43,35.18h0a29.38,29.38,0,0,1-17.82,25.43,72.85,72.85,0,0,1-22.73,7,76.43,76.43,0,0,1-67.74-23.43c3.1-18.74,6-43,5.84-44.12a.55.55,0,0,1,0-.36l-20.2-17.93-11.47-9.62s25.23-37.31,36.44-43.44"/><path class="cls-6" d="M141.47,460.7a10.81,10.81,0,0,0-5-1.39,8.27,8.27,0,0,0-5.16,1.81,20.7,20.7,0,0,0-2.3,2.47,5.85,5.85,0,0,1-3.27,2.16,5.23,5.23,0,0,1-3.8-1c-1-.67-1.93-1.39-2.85-1.91a6.2,6.2,0,0,0-5.28-.47,6.9,6.9,0,0,0-3.08,2.13c-.56.7-.75,1.17-.84,1.13a2.91,2.91,0,0,1,.55-1.35,6.59,6.59,0,0,1,3.14-2.52,6.7,6.7,0,0,1,6,.32c1,.54,1.91,1.28,2.9,1.89a4.45,4.45,0,0,0,3.15.87,5.13,5.13,0,0,0,2.76-1.8,18.75,18.75,0,0,1,2.43-2.53,8.74,8.74,0,0,1,5.7-1.8,8.4,8.4,0,0,1,3.85,1.1A4,4,0,0,1,141.47,460.7Z"/><path class="cls-6" d="M162,487.73a10.74,10.74,0,0,0-4.29-2.92,8.36,8.36,0,0,0-5.41,0,25.66,25.66,0,0,0-3,1.61,5.88,5.88,0,0,1-3.78,1,5.24,5.24,0,0,1-3.28-2.18c-.78-1-1.39-1.93-2.09-2.72a6.21,6.21,0,0,0-4.85-2.13,7,7,0,0,0-3.6,1c-.76.48-1.1.86-1.17.81s.23-.51,1-1.12a7,7,0,0,1,9.3.83c.77.85,1.4,1.8,2.14,2.72a4.57,4.57,0,0,0,2.71,1.8,5.26,5.26,0,0,0,3.2-.88A18.47,18.47,0,0,1,152,484a8.55,8.55,0,0,1,6,.16,8.19,8.19,0,0,1,3.32,2.27A3,3,0,0,1,162,487.73Z"/><path class="cls-6" d="M207.61,448.27a10.79,10.79,0,0,0-5.17-.31,8.22,8.22,0,0,0-4.67,2.85,23.22,23.22,0,0,0-1.71,2.88,5.93,5.93,0,0,1-2.74,2.83,5.39,5.39,0,0,1-3.93-.2c-1.16-.43-2.18-.95-3.19-1.28a6.18,6.18,0,0,0-5.26.69,7,7,0,0,0-2.56,2.72c-.4.79-.51,1.32-.58,1.3s0-.54.25-1.46a7,7,0,0,1,8.42-4.06c1.1.33,2.14.83,3.22,1.23a4.41,4.41,0,0,0,3.27.18,5.15,5.15,0,0,0,2.3-2.4,19.15,19.15,0,0,1,1.81-3,8.7,8.7,0,0,1,5.2-3,8.1,8.1,0,0,1,4,.27A3,3,0,0,1,207.61,448.27Z"/><path class="cls-6" d="M186.56,477.82a9.23,9.23,0,0,0-3.23-2.3,6.13,6.13,0,0,0-4.14-.13,15.59,15.59,0,0,0-2.33,1.12,4.64,4.64,0,0,1-3,.66,4.16,4.16,0,0,1-2.53-1.8c-.56-.77-1-1.55-1.49-2.18a4.69,4.69,0,0,0-3.61-1.8,6.64,6.64,0,0,0-3.73,1.17,2.57,2.57,0,0,1,.76-.85,5.42,5.42,0,0,1,7.21.92c.57.69,1,1.46,1.57,2.16a3.28,3.28,0,0,0,2,1.48c1.66.29,3.17-1.2,4.9-1.69a6.72,6.72,0,0,1,4.67.34C186.09,476.06,186.67,477.86,186.56,477.82Z"/><path class="cls-6" d="M140.15,502.73a9.43,9.43,0,0,0-3.24-2.31,6.22,6.22,0,0,0-4.15-.07,16.52,16.52,0,0,0-2.32,1.12,4.65,4.65,0,0,1-3.08.68,4.18,4.18,0,0,1-2.51-1.8c-.57-.78-1-1.55-1.49-2.16a4.76,4.76,0,0,0-3.61-1.81,6.5,6.5,0,0,0-3.73,1.18,2.3,2.3,0,0,1,.76-.85,5,5,0,0,1,3-1,5.23,5.23,0,0,1,4.27,1.91c.58.68,1,1.46,1.57,2.16a3.37,3.37,0,0,0,2,1.48c1.66.29,3.19-1.21,4.92-1.7a6.67,6.67,0,0,1,4.65.35C139.67,501,140.24,502.76,140.15,502.73Z"/><path class="cls-6" d="M183.53,503.3a8.77,8.77,0,0,0-3.8-1.15,6.3,6.3,0,0,0-4,1.23,16.1,16.1,0,0,0-1.8,1.8,4.66,4.66,0,0,1-2.65,1.6,4.2,4.2,0,0,1-3-.93c-.79-.54-1.44-1.14-2.13-1.57a4.7,4.7,0,0,0-4-.52,6.64,6.64,0,0,0-3.15,2.32,2,2,0,0,1,.45-1.06,5.18,5.18,0,0,1,2.5-1.9,5.24,5.24,0,0,1,4.65.44c.76.45,1.44,1,2.18,1.53a3.33,3.33,0,0,0,2.33.76c1.65-.26,2.61-2.17,4.09-3.19a6.74,6.74,0,0,1,4.52-1.19A4.8,4.8,0,0,1,183.53,503.3Z"/><path class="cls-6" d="M169.2,523.09a9.39,9.39,0,0,0-3.8-1.15,6.37,6.37,0,0,0-4,1.22,16.19,16.19,0,0,0-1.8,1.81,4.7,4.7,0,0,1-2.65,1.6,4.28,4.28,0,0,1-3-.92c-.79-.56-1.44-1.15-2.12-1.57a4.69,4.69,0,0,0-4-.54,6.59,6.59,0,0,0-3.15,2.33,2.1,2.1,0,0,1,.43-1.07,5.42,5.42,0,0,1,7.21-1.46c.78.46,1.46,1,2.2,1.54a3.28,3.28,0,0,0,2.33.75c1.65-.25,2.61-2.16,4.09-3.19a6.91,6.91,0,0,1,4.52-1.19A4.87,4.87,0,0,1,169.2,523.09Z"/><path class="cls-6" d="M139,572.22a9.67,9.67,0,0,0-3.28-2.27,6.28,6.28,0,0,0-4.15,0,16.68,16.68,0,0,0-2.31,1.17,4.54,4.54,0,0,1-3,.68,4.13,4.13,0,0,1-2.54-1.8c-.57-.75-1-1.53-1.53-2.14a4.73,4.73,0,0,0-3.6-1.8,6.33,6.33,0,0,0-3.71,1.24,2.38,2.38,0,0,1,.73-.88,5.19,5.19,0,0,1,3-1,5.28,5.28,0,0,1,4.29,1.8c.57.68,1,1.46,1.58,2.14a3.3,3.3,0,0,0,2,1.45c1.66.27,3.16-1.25,4.89-1.81a6.77,6.77,0,0,1,4.67.29C138.42,570.45,139,572.24,139,572.22Z"/><path class="cls-6" d="M174.36,582.67a9.26,9.26,0,0,0-3.75-1.22,6.28,6.28,0,0,0-4,1.17,16.19,16.19,0,0,0-1.81,1.8,4.65,4.65,0,0,1-2.66,1.55,4.15,4.15,0,0,1-3-1c-.79-.55-1.44-1.17-2.11-1.6a4.71,4.71,0,0,0-4-.59,6.6,6.6,0,0,0-3.17,2.28,2,2,0,0,1,.45-1,5.24,5.24,0,0,1,2.52-1.8,5.4,5.4,0,0,1,4.65.5c.76.47,1.44,1.07,2.16,1.57a3.4,3.4,0,0,0,2.33.79c1.66-.25,2.65-2.12,4.13-3.13a6.88,6.88,0,0,1,4.54-1.14A4.85,4.85,0,0,1,174.36,582.67Z"/><path class="cls-4" d="M57.65,433.67c1.08,1.28,40.71,54.26,40.71,54.26l-5.57,3.17L52.12,438.84Z"/><path class="cls-9" d="M212.29,471.51s-37.16,64.11-39.64,65.28c-5,2.32-62-47-67.42-51.67-.74-1-2.29-3.12-5.41-7.32,0,0-4.49-20.59-9.3-19s2.63,10.47-.48,18.29-17.45-10.81-18-12.5l-3.6-4.83s-3.87,11-3.6,15.57c.82,14.69,14.72,32.15,14.72,32.15s56.48,70.75,99.23,73.15c12.3.7,35.82-34.75,50.46-61,8.83-15.82,4.72-31.88-9.92-42.57Z"/><path class="cls-8" d="M71.78,477.82A33.78,33.78,0,0,1,66.37,467c.15,0,1.21,2.43,2.71,5.41S71.91,477.75,71.78,477.82Z"/><path class="cls-5" d="M210.55,453.6c-1.46.88-36.05,65-36.05,65L219,553.48a514.75,514.75,0,0,0,17.66-51.67c1.66-6.29.81-23.1-1.53-29.59-3.32-9.21-8.33-6.92-15.84-12.31Z"/><g class="cls-14"><path d="M225.16,453.6s-.43-.25-1.26-.67a7.68,7.68,0,0,0-3.91-.81,10.59,10.59,0,0,0-5.8,2.42,28.69,28.69,0,0,0-5.74,6.16,102.68,102.68,0,0,0-5.4,9c-1.8,3.26-3.86,6.76-6,10.44-4.2,7.33-8.83,15.41-13.66,23.88-3,5.13-5.84,10.12-8.54,14.81l-.11-.58,30.1,23.79,8.74,7,2.3,1.91a4.75,4.75,0,0,1,.78.7,5,5,0,0,1-.87-.57l-2.41-1.8-8.9-6.82-30.3-23.42-.32-.26.3-.43c2.71-4.68,5.57-9.68,8.51-14.83,4.87-8.45,9.52-16.49,13.73-23.83l6-10.39a97.65,97.65,0,0,1,5.41-9,28.25,28.25,0,0,1,6-6.28,11.07,11.07,0,0,1,6.09-2.37,7.29,7.29,0,0,1,4,1,8.8,8.8,0,0,1,.9.6C225.09,453.49,225.18,453.58,225.16,453.6Z"/></g><path class="cls-6" d="M211.88,513.76a9,9,0,0,0-3.23-2.31,6.32,6.32,0,0,0-4.14-.14,15.64,15.64,0,0,0-2.33,1.13,4.77,4.77,0,0,1-3,.67,4.16,4.16,0,0,1-2.53-1.8c-.56-.78-1-1.55-1.49-2.18a4.7,4.7,0,0,0-3.61-1.81,6.65,6.65,0,0,0-3.73,1.18,2.73,2.73,0,0,1,.76-.87,5.43,5.43,0,0,1,3-1,5.2,5.2,0,0,1,4.25,1.91c.58.68,1,1.46,1.57,2.16a3.45,3.45,0,0,0,2,1.48c1.65.29,3.17-1.21,4.9-1.7a6.72,6.72,0,0,1,4.67.33C211.41,512,212.06,513.78,211.88,513.76Z"/><path class="cls-6" d="M232.21,505.47a8.7,8.7,0,0,0-2.49-3.12,6.36,6.36,0,0,0-3.95-1.24,20.21,20.21,0,0,0-2.54.46,4.72,4.72,0,0,1-3.1-.18,4.19,4.19,0,0,1-1.93-2.45c-.32-.9-.54-1.8-.84-2.48a4.71,4.71,0,0,0-3-2.71,6.68,6.68,0,0,0-3.91.13,2.38,2.38,0,0,1,.95-.61,5.11,5.11,0,0,1,3.14-.15,5.29,5.29,0,0,1,3.6,3c.36.82.6,1.68.92,2.51a3.29,3.29,0,0,0,1.5,1.93c1.51.74,3.37-.29,5.17-.31a6.84,6.84,0,0,1,4.39,1.59A4.81,4.81,0,0,1,232.21,505.47Z"/><path class="cls-6" d="M233.25,478.94a8.81,8.81,0,0,0-2.48-3.1,6.24,6.24,0,0,0-4-1.24,13.69,13.69,0,0,0-2.54.47,4.65,4.65,0,0,1-3.1-.2,4.23,4.23,0,0,1-1.93-2.44c-.32-.9-.54-1.8-.85-2.5a4.77,4.77,0,0,0-3-2.7,6.6,6.6,0,0,0-3.91.12,2.67,2.67,0,0,1,1-.61,5.15,5.15,0,0,1,3.13-.14,5.39,5.39,0,0,1,3.61,3c.36.81.59,1.69.91,2.5a3.37,3.37,0,0,0,1.5,2c1.51.72,3.37-.31,5.17-.31a6.69,6.69,0,0,1,4.4,1.59A4.84,4.84,0,0,1,233.25,478.94Z"/><path class="cls-6" d="M223.41,540a9.13,9.13,0,0,0-2.48-3.1,6.3,6.3,0,0,0-4-1.25,15.33,15.33,0,0,0-2.52.47,4.71,4.71,0,0,1-3.1-.18,4.25,4.25,0,0,1-1.93-2.45c-.34-.9-.54-1.8-.86-2.5a4.8,4.8,0,0,0-3-2.71,6.38,6.38,0,0,0-3.91.15,2.39,2.39,0,0,1,1-.63,5.4,5.4,0,0,1,6.72,2.84c.38.81.61,1.7.94,2.51a3.3,3.3,0,0,0,1.47,1.94c1.53.73,3.39-.3,5.19-.3a6.68,6.68,0,0,1,4.4,1.58A4.88,4.88,0,0,1,223.41,540Z"/></g></g></g></svg>