<svg xmlns="http://www.w3.org/2000/svg" xmlns:xlink="http://www.w3.org/1999/xlink" viewBox="0 0 627.3 636.79"><defs><style>.cls-1{fill:none;clip-rule:evenodd;}.cls-2{fill:#e4e1f6;}.cls-13,.cls-16,.cls-17,.cls-18,.cls-2,.cls-20,.cls-21,.cls-23,.cls-24,.cls-25,.cls-26,.cls-29,.cls-3,.cls-8{fill-rule:evenodd;}.cls-3{fill:#7a5ae2;}.cls-4{clip-path:url(#clip-path);}.cls-5{fill:url(#linear-gradient);}.cls-6{clip-path:url(#clip-path-2);}.cls-7{fill:url(#linear-gradient-2);}.cls-8{fill:#f9db3a;}.cls-9{clip-path:url(#clip-path-3);}.cls-10{fill:url(#linear-gradient-3);}.cls-11{clip-path:url(#clip-path-4);}.cls-12{fill:url(#linear-gradient-4);}.cls-13{fill:#fee88f;}.cls-14{clip-path:url(#clip-path-5);}.cls-15{fill:url(#linear-gradient-5);}.cls-16{fill:#ffeda3;}.cls-17{fill:#dec535;}.cls-18{fill:#ff7a7a;}.cls-19{fill:#fff;}.cls-20{fill:#ffa281;}.cls-21{fill:#ffd358;}.cls-22{fill:#059170;}.cls-23{fill:#f29d7e;}.cls-24{fill:#184656;}.cls-25{fill:#f2b741;}.cls-26{fill:#6e50cf;}.cls-27{clip-path:url(#clip-path-6);}.cls-28{fill:url(#linear-gradient-6);}.cls-29{fill:#bd8a6f;}</style><clipPath id="clip-path"><path class="cls-1" d="M330.24,20.38a5.51,5.51,0,1,1-5.51,5.51,5.51,5.51,0,0,1,5.51-5.51m-61,2.6h46.13a2.91,2.91,0,0,1,2.9,2.91h0a2.91,2.91,0,0,1-2.9,2.91H269.2a2.92,2.92,0,0,1-2.91-2.91h0A2.92,2.92,0,0,1,269.2,23ZM163.28,72.29V582.22a30.62,30.62,0,0,0,30.53,30.53H408.22a30.62,30.62,0,0,0,30.53-30.53V51.67a30.62,30.62,0,0,0-30.53-30.53H362.3a8.47,8.47,0,0,0-8.45,8.45v6a10.58,10.58,0,0,1-10.56,10.56H258.75a10.58,10.58,0,0,1-10.57-10.56v-6a8.47,8.47,0,0,0-8.45-8.45H193.81a30.62,30.62,0,0,0-30.53,30.53Z"/></clipPath><linearGradient id="linear-gradient" x1="194.26" y1="559.38" x2="421.08" y2="43.51" gradientUnits="userSpaceOnUse"><stop offset="0" stop-color="#8375ff"/><stop offset="1" stop-color="#ed8fd2"/></linearGradient><clipPath id="clip-path-2"><path class="cls-1" d="M301,390.66a29,29,0,1,1-29,29,29,29,0,0,1,29-29"/></clipPath><linearGradient id="linear-gradient-2" x1="301.02" y1="409.09" x2="301.02" y2="437.65" gradientUnits="userSpaceOnUse"><stop offset="0" stop-color="#c7b02c"/><stop offset="0.22" stop-color="#d5bc30"/><stop offset="0.71" stop-color="#efd338"/><stop offset="1" stop-color="#f9db3b"/></linearGradient><clipPath id="clip-path-3"><path class="cls-1" d="M301,206.45h0a87.33,87.33,0,0,1,87.07,87.07v21.73c0,33.88,19.89,63.78,27.11,72.93l-27.11-1v32.5H214v-32.5l-27.11,1C194.06,379,214,349.13,214,315.25V293.52A87.32,87.32,0,0,1,301,206.45"/></clipPath><linearGradient id="linear-gradient-3" x1="301" y1="376.97" x2="301.04" y2="244.21" gradientUnits="userSpaceOnUse"><stop offset="0" stop-color="#f9db3a"/><stop offset="1" stop-color="#ffe347"/></linearGradient><clipPath id="clip-path-4"><path class="cls-1" d="M202.76,419.67H399.28a19.84,19.84,0,0,0,19.78-19.78h0a19.84,19.84,0,0,0-19.78-19.78H202.76A19.85,19.85,0,0,0,183,399.89h0v11a8.76,8.76,0,0,0,8.75,8.74Z"/></clipPath><linearGradient id="linear-gradient-4" x1="301.02" y1="419.67" x2="301.02" y2="387.11" gradientUnits="userSpaceOnUse"><stop offset="0" stop-color="#e8ce3c"/><stop offset="1" stop-color="#ffe347"/></linearGradient><clipPath id="clip-path-5"><path class="cls-1" d="M214,389.35v-2.18l-10.31.38.11-.14c7.66-10,26.52-39.17,26.52-72.16V293.52c0-35,23.2-72.37,54.63-85.56a88.62,88.62,0,0,1,10.64-1.33c-32,12.91-48.48,49.2-48.48,86.89v21.73c0,33-18.85,62.21-26.51,72.16-.2.24-.39.49-.58.74l0,0h0c-.29.38-.55.77-.81,1.17Z"/></clipPath><linearGradient id="linear-gradient-5" x1="230.15" y1="377.18" x2="266.24" y2="230.14" gradientUnits="userSpaceOnUse"><stop offset="0" stop-color="#fee88f"/><stop offset="1" stop-color="#fff5cc"/></linearGradient><clipPath id="clip-path-6"><path class="cls-1" d="M496.3,218a11.5,11.5,0,0,0,3.24-.89c7.32-3.32,6.84-20.43,6.23-25.54-7.37,3.59-14.5,1.68-17.62,1.18l-.18,5.91-4.14.29a80.93,80.93,0,0,0,0,9.45c-2.57-2.22-2.45-9.85-6-7.84-3.22,1.81-.68,6.72,2.61,9.09l-3.4,5.23v8.27c1.12,6.69,9.65,10.06,12.86,9.9a7.89,7.89,0,0,0,6.39-4.63V218Z"/></clipPath><linearGradient id="linear-gradient-6" x1="490.74" y1="227" x2="490.74" y2="212.31" gradientUnits="userSpaceOnUse"><stop offset="0" stop-color="#d49f82"/><stop offset="1" stop-color="#e5ac8e"/></linearGradient></defs><g id="Layer_2" data-name="Layer 2"><g id="Layer_1-2" data-name="Layer 1"><path class="cls-2" d="M146.07,273.64c13.37-.26,17.36-22.27,21.63-29.88,2.43-4.33,6.46-6,7.84-9.22,1.56-3.7-1.4-11.91-6-12-5.46-.16-8.72,8.2-15.08,6.06-6.35-2.3-3.81-15.51-.88-24.84s13.2-18.86,14.85-29.47-1.21-16.34-5.06-17.46c-5.49-1.6-11.45,3.62-14.5,9.66-3.2,6.34-4.94,20.18-16.9,16.63-3.81-1.13-6.68-8.52-4.62-17.42s12.31-13.91,15.09-26.27c4.31-19.16-11.39-23.86-22.43-11.12-2.53,2.92-4.34,7.52-6.77,11.59-5,8.4-14.28,8-17.12,5.87-4.36-3.33-6.5-5.47-4.77-14.44s6-20.5,7.23-29.48S95.93,76.45,84,73.51c-6.83-1.67-27.92,5.93-28.25,43.05.29,24.5,22.11,24.79,22.15,33.76S62.08,158,62.32,165.62,69.47,178.73,78.57,180s30.13-2.83,31.77,6.87c.45,2.53-1.17,4.11-3.3,4.94-3.62,1.41-8.38.81-9.78,4.25-1.47,3.61-.36,13.11,7.33,15,8.47,2.12,15.93-3.68,24,3.1,2.79,2.33,4.46,6.25,3,9.47-2.38,4.34-6.9,1.13-9.74,2.76-1.92,1.1-3.77,7.41-2,10.69s10.38,6.08,12.19,10.67,3.19,23.42,11.16,25.58a158.3,158.3,0,0,0,.08-25.56,119.25,119.25,0,0,0-3.85-22.14,98.36,98.36,0,0,0-7.35-18.86,92.91,92.91,0,0,0-10.42-16c-2.86-3.52-5.88-6.88-9-10.13s-6.18-6.37-9.23-9.44C84.28,152,67,134.68,73.84,101.62l.15-.71,2.82.58-.14.7C73.43,118,76,130,81.62,140.45s14.56,19.39,23.9,28.77h0A258.56,258.56,0,0,1,123.89,189a96.05,96.05,0,0,1,10.76,16.44,101.28,101.28,0,0,1,7.56,19.43,121.17,121.17,0,0,1,3.94,22.64,160.52,160.52,0,0,1-.08,26.11"/><path class="cls-2" d="M148.05,389c-4.1,3.33-8.38,4.84-9.57,3.37s1.16-5.35,5.26-8.68,8.38-4.83,9.57-3.37-1.16,5.35-5.26,8.68m.21,18c-1.27.6-2.54.6-2.83,0s.51-1.59,1.78-2.19,2.54-.6,2.83,0S149.53,406.39,148.26,407ZM111,435.42c-1.83.95-3.64,1.11-4,.35s.79-2.12,2.62-3.07,3.64-1.1,4-.35S112.85,434.48,111,435.42Zm33.07-74.12c-1.57-1.6-9.25,1.28-13.46,4.93s-6.49,6.92-3.94,10.31C130.86,382.09,146.31,363.75,144.08,361.3Zm-17-13.61c.72.76-.25,4.87-2.7,7.88s-4.35,3.42-5.62,3.08-2.84-2.46-2-5S125.19,344.46,127,347.69ZM79,320c2.91,1.15,5.91.81,6.72-.76s-.91-3.79-3.82-4.94-5.91-.82-6.71.75S76.09,318.84,79,320Zm1.9,26.35c.35-1.88,5.46-3.45,8.77-3.58s5.93,2.07,6.45,3.33,0,3.93-3.51,4.89S79.9,350.27,80.9,346.35Zm.13,26c0-1.75,6-5.41,12.45-6s9.14,1.13,10.22,3,.42,6.21-3.62,8.17S79.39,378.36,81,372.4Zm12.62,45.94c0-1.69,6.3-4.4,10.35-5.39s9.48-.59,9.69,1.8-4.49,4.42-7.83,5.2S93.68,420.05,93.65,418.34Zm-7.73-21c0-2.24,7.5-5.55,13.07-5.89s9.48.41,10,4.62C109.9,402.93,86,400.62,85.92,397.31ZM77.41,246c7.75-.75,15.45-.49,17.38,2.6,4.1,6.57-7.52,33-.73,35.93,2.7.63,9-27.6,8.73-32.27a6.48,6.48,0,0,0-4.08-5.64.43.43,0,0,1-.24-.48.42.42,0,0,1,.41-.34c5.4-.1,16,2,17.8,5.44.82,1.53,3.3,15.22-.65,27.49-6.16,19.17-19,39.87-9.73,43.71,7,3.23,20-44.39,17-74a1.26,1.26,0,0,1,.47-1.13,1.25,1.25,0,0,1,1.19-.23c6.42,2,17.65,10.23,21.91,11,1.13,5.11,1.77,16.13-1.52,27.22-5.23,17.64-15,37.75-18.5,47.33-4.35,11.94,6.35,6,10.18-1.93,3.7-7.64,23.74-46.25,24.61-65a1.45,1.45,0,0,1,.67-1.18,1.49,1.49,0,0,1,1.36-.15c8.5,3.24,21.61,16,19.4,30A70.53,70.53,0,0,1,172.68,320c-10.57,15.88-25.77,31.09-23.51,32.85.75.66,7.34-3,11.39-8.44,7.08-9.57,13.14-24.2,15.08-27.38,1.77-2.92,9.78-15.88,10.8-22.36a.44.44,0,0,1,.36-.36.42.42,0,0,1,.45.23c7.56,15.07,15.09,17.63,14.38,33.32-.73,13.94-39.08,42-38,45.71s10.67,2,19-7.93,18.64-30.2,19.72-33.29c3.4,5.85,20.26,19.74,12.29,35.91-12,22.59-48.82,24.08-47,30.06.56,1.82,7.09-.84,8.13-1.26,13.15-5.27,38.92-18.84,43.18-20.73-8.3,6.18,4.49,28.29-13.72,38.83-8.31,4.81-40.57-2.76-43.48,6.57-1.42,2.52,4.17,8.48,29.57-.85-1.48,3.86,4.74,11.25,2.33,15.94s-8.71,6.61-11.75,9.88c-6,6.51-8.24,11.2-15.33,12.8-7.38,1.66-12.87-1.55-17.07-6.54-2.49-3-7.25-15.23-11.28-21.9h0c-5.85-16.82-40-87.54-60.68-185ZM72,308.17c3.16-5.26-11-10.17-21.32-20.89s-18.46-23.71-13.33-26.41c2.32-1.05,23.35,16.44,29.18,14.27,3.3-1.65-9.89-21-7.24-25.25.61-.83,9-2.89,17.5-3.78h0c8.49,69.92,46,163.47,55,188.36h0c1.29,14,16.06,38.51,6.69,52.48-13.67,20.36-37,13.1-46.34,14.71,12.39-3.51,35.8-38.25,27-45.09-1-.91-4.64,1.72-8,6.82-5.4,8.17-11,20.43-15.59,27.81A14.22,14.22,0,0,1,82,498c-8.51-.71-21.46-5.54-31-24.3A.62.62,0,0,1,51,473a.64.64,0,0,1,.67-.22c13.94,3.76,29.44-2.1,33.78-4.26,4.38-2,16.2-19.94,12.43-24.2-1.49-1.68-8.21-.06-15.78,4.46C70.5,455.68,56,467.28,48.72,467.48,36.65,467.83,23,446.31,19,434.09c20.22-4.58,35.26-2.16,41-3.58s26.25-7,25.77-9.69S60.3,422,55.3,422.66s-31.08,7.17-42.87,0c-4.55-2.93-15.37-29.47-10.9-41.47,10.21,8.06,25.42,2.67,32.16,15.7,6.52,1.52,41.1,3.71,42.6-.36.85-1.67-39.94-7.08-49.84-11.65-3.62-1.88-5.27-4.32-7.39-5.13S2.5,376.29.74,369s-.14-25.8,2.43-30c8.77,9,62.18,35.93,70.63,31.67,4.93-2.62-6-7.43-11.77-8.64S12.79,349.09,1.26,330.79C-1.3,324.5,4.38,299,6.07,294.63c7.41,19,70,57.29,71.78,42.5.28-2.56-53.25-16.77-66.95-44.37-1.39-3.92,7.94-20.24,10.64-23.37C32.77,280,63.11,317.53,71.79,308.6Z"/><path class="cls-3" d="M408.22,0H193.81a48.21,48.21,0,0,0-48.07,48.08V588.51a48.22,48.22,0,0,0,48.07,48.08H408.22a48.23,48.23,0,0,0,48.08-48.08V48.08A48.22,48.22,0,0,0,408.22,0"/><g class="cls-4"><rect class="cls-5" x="163.28" y="20.38" width="275.47" height="592.37"/></g><g class="cls-6"><rect class="cls-7" x="272" y="390.66" width="58.03" height="58.03"/></g><path class="cls-8" d="M301,187.9h0a14.42,14.42,0,0,1,14.38,14.38v20.84H286.64V202.28A14.42,14.42,0,0,1,301,187.9"/><g class="cls-9"><rect class="cls-10" x="186.84" y="206.45" width="228.36" height="213.22"/></g><g class="cls-11"><rect class="cls-12" x="182.97" y="380.11" width="236.09" height="39.57"/></g><path class="cls-13" d="M402.47,380.37a19.8,19.8,0,0,0-3.19-.26H202.76A19.85,19.85,0,0,0,183,399.89h0c0,.11,0,.21,0,.31a20,20,0,0,1,19.5-16.46Zm-3.19,39.3a19.83,19.83,0,0,0,19.77-19.27A20,20,0,0,1,399.28,419.67Z"/><g class="cls-14"><rect class="cls-15" x="203.64" y="206.63" width="91.9" height="182.72"/></g><path class="cls-16" d="M216.28,402.63a19,19,0,0,1-.19-2.74h0A19.63,19.63,0,0,1,220,388.18h0l0,0c.19-.25.38-.5.58-.74,1.4-1.82,3.18-4.29,5.14-7.3H208.9c-2,3-3.75,5.48-5.15,7.3-.2.24-.39.49-.57.74l0,0h0a19.69,19.69,0,0,0-3.68,9,11.17,11.17,0,0,0,10,12.67,6.32,6.32,0,0,0,6.81-7.18"/><path class="cls-17" d="M414.57,387.38a19.76,19.76,0,0,0-15.29-7.27H387.62c10.52,14.53,24.21,33.32-10.18,39.56h32.88a8.76,8.76,0,0,0,8.74-8.74v-11h0a19.69,19.69,0,0,0-3.86-11.71l-.63-.8"/><path class="cls-17" d="M399.28,380.11a19.76,19.76,0,0,1,15.29,7.27c-7.67-10-26.48-39.18-26.48-72.13V293.52c0-43-31.58-79-72.69-85.87a86.4,86.4,0,0,0-14.38-1.2c11.18,1.62,25.87,8.41,34.58,15.36,19.7,15.74,30.65,42.06,30.65,71.71v21.73c0,26.95,12.59,51.39,21.37,64.86Z"/><path class="cls-18" d="M372.47,208.46a33.12,33.12,0,1,1-33.13,33.12,33.12,33.12,0,0,1,33.13-33.12"/><path class="cls-19" d="M376.73,262.8H368.2v-7.14h8.53Zm.43-42.44-1.1,31H369l-1.18-31Z"/><path class="cls-20" d="M531,272.41c-5.07.54-15.18,1.26-20.84,4.43,1.06,8.78,5.52,30.15,7.87,37.26,1.77,5.37,5.66,8,9.73,7.71,3.9-.31,5.43-6.68,5.77-14.8.55-12.9-1.89-30.21-2.53-34.6"/><path class="cls-21" d="M510.41,282.43c6.45.51,17.88-.86,24.29-2.11,0-9.16-2-36.92-10.72-48.84-2.59-1.5-12-7.2-14.3-4.8-9.29,9.68-2,47.05.73,55.75"/><rect class="cls-22" x="553.17" y="222" width="34.91" height="18.58" transform="translate(197.15 720.8) rotate(-74.72)"/><path class="cls-20" d="M578.38,237.49c-7.58-16.65-28.27-8-10.23,6.82-2.54,19.29-36.68,41.46-44.57,58-4,11.52-1.79,21,1.47,22.14,16.51,5.93,58-76.73,53.33-87"/><path class="cls-23" d="M490.5,582.46,477.62,597.3c-2,2-8,7.28-15.5,13.84-5.76-.75-9.68-6.66-8-9.4s23.49-25.88,23.49-25.88Z"/><path class="cls-24" d="M445.29,603.87c1.57,2.17,7.88,10,8.47,10.78s.91,3.17,1.29,3.66c1.94,2.48,5.85,4.71,6.75,5.35s12.19,12.87,12.51,12.73a3.15,3.15,0,0,0,1.2-3.23c-.26-.8-1.66-4.06-3.17-8s-2.92-8.25-3.48-10.32.17-3.56-1.52-5.76-5.95-1.89-7.39-4.74,1-5.42,0-6.79-6.3-1.12-14.63,6.35"/><path class="cls-25" d="M445.33,603.93h-.1a8.73,8.73,0,0,0-2.45,1.41c-.2.4,3.15,6.55,11.7,15.59s15.81,16.5,19.81,15.47h0c-.58-.17-11.59-12.1-12.49-12.73s-4.81-2.87-6.75-5.35c-.38-.49-.69-2.87-1.29-3.66s-6.78-8.46-8.43-10.72"/><path class="cls-24" d="M468.42,611.3c-.14-.93-.08-5.92-.49-6.26s-4.58-1.48-5-1.09a8.46,8.46,0,0,0-.92,2.3c1.83,1,4.18,1.29,5.34,2.8a5.53,5.53,0,0,1,1.08,2.25"/><path class="cls-23" d="M541.85,584.25l2.45,19.5c.17,2.88.1,10.79,0,20.78-4.4,3.78-11.43,2.75-12.32-.35s-3.58-34.77-3.58-34.77Z"/><path class="cls-24" d="M527.6,632.2c2.68.28,12.7.8,13.69.89s3,1.44,3.58,1.48c3.14.21,7.41-1.2,8.49-1.45s17.72-.47,17.83-.8a3.14,3.14,0,0,0-1.6-3.06c-.77-.34-4.13-1.47-8.1-3s-8.09-3.34-10-4.3-2.54-2.5-5.31-2.71-5.37,3.16-8.46,2.34-3.34-4.39-5.08-4.52-5,3.94-5,15.13"/><path class="cls-25" d="M527.68,632.21l-.08.07A8.53,8.53,0,0,0,527,635c.17.42,7,2,19.41,1.7s22.85-.75,24.75-4.41h0c-.52.32-16.75.55-17.82.79s-5.35,1.66-8.49,1.45c-.61,0-2.59-1.4-3.58-1.48s-10.83-.6-13.61-.88"/><path class="cls-24" d="M548.58,619.94c-.78-.51-4.46-3.89-5-3.81s-4.15,2.42-4.15,3a8.48,8.48,0,0,0,1.09,2.22c2-.72,3.76-2.25,5.65-2.1a5.55,5.55,0,0,1,2.4.69"/><path class="cls-26" d="M523.75,361.44c13.67,18.9,61.79,79.49,44.71,120-16,35.8-78,105.51-85.48,112.12-3.92-1.31-12.74-14.18-14.11-16.94,3.1-3.3,6-9.12,6-10.12s-1.34-3.48-.93-6.09,10.71-12.67,11.53-15.53.28-4.54,1.24-6.57S500.08,521.5,502,518.34s2.65-14.12,7.68-18.59c3-3,19.31-11.53,27.1-33.57S488.38,395.56,481,365Z"/><path class="cls-3" d="M501.66,364.33c2.27,14.35,39.85,177.21,43.38,239-3.69.93-19.9,3.34-23.58,3.51.34-8.26-4.79-16.38-5.07-18.66s.93-5.92.21-9-6.45-7.25-7.35-11.07c-.29-1.5,1.19-6.15.5-8.38s-4-2.52-4.72-5.27,3.1-9.37,2.41-11.22-10.6-12.33-10.46-16.46c.34-2.82,5-3.85,4.47-7.78-4.83-35.14-45.41-104.33-48.21-159l31.12,4.13Z"/><path class="cls-21" d="M476.66,221.94c-5.9,1.38-26.62,7.46-30.78,11.3-4.48,4.14-24.86,28.71-28.5,35.39.09.12.2.25.31.37,3.25,3.77,11.27,10.88,15.88,14.73,1.44,1.2,2.54,2.08,3.06,2.45,4-3.85,12.36-14.39,17.43-21.5-.31,33.42-.44,68.95-.9,100.88,1.09.26,2.29.5,3.58.71,19.74,3.24,60.4.13,67-4.83-.42-5.81-1.61-51.74-2.72-87.89-.7-23-1.38-42-1.81-44.26-4.78-4.32-20-7.24-24.65-7.93-2.05-.07-14.05.15-17.91.58"/><path class="cls-23" d="M448.84,356.9c-2-4-25.7-48.51-28.8-55.74.44-2.63,10.19-13.09,13.53-17.43-4.61-3.85-12.63-11-15.88-14.73-6.1,7.73-18.89,27.11-18.76,32.26.49,18.71,34,50.1,45.78,64.93.41,3.1,5.37,15.84,19.28,14.39,2.51-.5-2.27-8.61-7.25-14.31-1.29-.21-2.49-.45-3.58-.71,0-.95,0-1.89,0-2.84,0-1.85.05-3.71.07-5.58a12.2,12.2,0,0,0-4.43-.24"/><path class="cls-26" d="M483.87,208.39a80.93,80.93,0,0,1,0-9.45l4.14-.29.18-5.91c3.64.58,12.75,3.09,21.31-3.47,15.47-11.84-.09-27.72-8-16.71-2.11-1.46-12.36-4.93-20.68-.57-3.79,2-8.48,5.83-8.9,12.44-3.23-.29-8.16,3.8-8.58,11.32s5.29,17.07,13.77,19.12l3.4-5.23c-3.29-2.37-5.83-7.28-2.61-9.09,3.58-2,3.46,5.62,6,7.84"/><g class="cls-27"><rect class="cls-28" x="474.62" y="191.56" width="32.24" height="41.64"/></g><path class="cls-29" d="M496.3,218c-4.9.65-10.63-1.39-12.6-5.22.36,4.08,4.22,9.23,12.6,9.34Z"/><path class="cls-18" d="M610.33,164.87a17,17,0,1,1-17,17,17,17,0,0,1,17-17"/><path class="cls-19" d="M612.52,192.71h-4.37v-3.66h4.37Zm.22-21.74-.57,15.87h-3.64l-.6-15.87Z"/></g></g></svg>