<?xml version="1.0" encoding="utf-8"?>
<!-- Generator: Adobe Illustrator 24.3.0, SVG Export Plug-In . SVG Version: 6.00 Build 0)  -->
<svg version="1.1" id="Layer_1" xmlns="http://www.w3.org/2000/svg" xmlns:xlink="http://www.w3.org/1999/xlink" x="0px" y="0px"
	 viewBox="0 0 297.7 132.1" style="enable-background:new 0 0 297.7 132.1;" xml:space="preserve">
<style type="text/css">
	.st0{fill:url(#SVGID_1_);}
	.st1{opacity:0.15;fill:#FFFFFF;}
	.st2{opacity:0.2;fill:#010101;}
	.st3{fill:#FFFFFF;}
	.st4{fill:#E6E6E5;}
	.st5{fill:url(#SVGID_2_);}
	.st6{fill:url(#SVGID_3_);}
	.st7{fill:url(#SVGID_4_);}
	.st8{fill:#F15722;}
</style>
<g>
	<g>
		<linearGradient id="SVGID_1_" gradientUnits="userSpaceOnUse" x1="99.7876" y1="20.1191" x2="33.3903" y2="95.1768">
			<stop  offset="0" style="stop-color:#F15B22"/>
			<stop  offset="1" style="stop-color:#DB4D26"/>
		</linearGradient>
		<path class="st0" d="M109.4,49.4c-0.1,0.5-0.2,1-0.3,1.5c-1.1,6.3-2.5,11.9-4.5,16.9c-0.8,1.9-1.7,3.7-2.7,5.4v0
			c-2.8,4.6-6.4,8.4-11.5,11.1c-4.6,2.5-10.3,4.1-17.4,4.7c-25.8,2.2-26.9,15.3-27.4,18.6C38.2,96.9,33,87.2,29.8,78.6
			c-6.3-17.2-4.7-30.3,3-39.2c0.7-0.9,1.6-1.7,2.4-2.5c5.1-4.6,12.1-7.9,20.6-9.8c3.7-0.8,7.2-1.4,10.6-1.9
			c3.5-0.5,6.9-0.7,10.1-0.8c12.8-0.3,23,2.5,28.5,8.4C108.9,36.9,110.6,42.4,109.4,49.4z"/>
		<path class="st1" d="M109.4,49.4c-0.1,0.5-0.2,1-0.3,1.5C94.5,32.2,57.9,31.7,35.2,36.9c5.1-4.6,12.1-7.9,20.6-9.8
			c3.7-0.8,7.2-1.4,10.6-1.9c17.6-2.3,31.7,0.2,38.7,7.6C108.9,36.9,110.6,42.4,109.4,49.4z"/>
		<path class="st1" d="M109.4,49.4c-0.1,0.5-0.2,1-0.3,1.5c-1.1,6.3-2.5,11.9-4.5,16.9c-0.8,1.9-1.7,3.7-2.7,5.4v0
			c-2.8,4.6-6.4,8.4-11.5,11.1c3.7-15.5,1.1-42.7-13.9-59.9c12.8-0.3,23,2.5,28.5,8.4C108.9,36.9,110.6,42.4,109.4,49.4z"/>
		<path class="st2" d="M50.5,90.1c-6.8-12.6-8.8-26.5-6.1-33.5c2.2-5.6,8-9.5,17.2-11.6c6.4-1.4,12.3-2.1,17.6-2.1
			c7.8,0,13.8,1.6,16.1,4.4c0.4,0.5,1.6,1.9,1,5.8c-3.1,19.1-8.2,25-22.7,26.3C62.9,80.3,54.3,83.3,50.5,90.1z"/>
		<path class="st3" d="M47.2,86.9c-6.8-12.6-8.8-26.5-6.1-33.5c2.2-5.6,8-9.5,17.2-11.6c6.4-1.4,12.3-2.1,17.6-2.1
			c7.8,0,13.8,1.6,16.1,4.4c0.4,0.5,1.6,1.9,1,5.8c-3.1,19.1-8.2,25-22.7,26.3C59.7,77.1,51,80.1,47.2,86.9z"/>
		<path class="st4" d="M65.5,75.1c-8.4,1.3-14.5,4.3-18.1,8.7c-3.8-7.8-5.6-15.3-5.8-21.3C45.7,70.7,54.6,75,65.5,75.1z"/>
		<g>
			<g>
				<g>
					<linearGradient id="SVGID_2_" gradientUnits="userSpaceOnUse" x1="53.7599" y1="59.6369" x2="58.9078" y2="59.6369">
						<stop  offset="0" style="stop-color:#F15B22"/>
						<stop  offset="1" style="stop-color:#DB4D26"/>
					</linearGradient>
					<circle class="st5" cx="56.3" cy="59.6" r="2.6"/>
				</g>
			</g>
			<g>
				<g>
					<linearGradient id="SVGID_3_" gradientUnits="userSpaceOnUse" x1="64.002" y1="59.6369" x2="69.1499" y2="59.6369">
						<stop  offset="0" style="stop-color:#F15B22"/>
						<stop  offset="1" style="stop-color:#DB4D26"/>
					</linearGradient>
					<circle class="st6" cx="66.6" cy="59.6" r="2.6"/>
				</g>
			</g>
			<g>
				<g>
					<linearGradient id="SVGID_4_" gradientUnits="userSpaceOnUse" x1="74.2441" y1="59.6369" x2="79.392" y2="59.6369">
						<stop  offset="0" style="stop-color:#F15B22"/>
						<stop  offset="1" style="stop-color:#DB4D26"/>
					</linearGradient>
					<circle class="st7" cx="76.8" cy="59.6" r="2.6"/>
				</g>
			</g>
		</g>
	</g>
	<g>
		<g>
			<path class="st8" d="M140.4,61.9h-3.3v7.2h-2.2V51.9h5.5c4,0,5.9,2.2,5.9,5C146.3,59.5,144.6,61.9,140.4,61.9z M140.4,60.1
				c2.6,0,3.6-1.2,3.6-3.1c0-2-1.1-3.2-3.6-3.2h-3.3v6.3H140.4z"/>
			<path class="st8" d="M149.1,50.8h2.2v18.2h-2.2V50.8z"/>
			<path class="st8" d="M167.1,69.1h-2.2v-2c-0.9,1.4-2.5,2.2-4.3,2.2c-3.1,0-5.5-1.9-5.5-5.8v-7.9h2.2v7.6c0,2.7,1.5,4.1,3.8,4.1
				c2.3,0,3.9-1.4,3.9-4.3v-7.4h2.2V69.1z"/>
			<path class="st8" d="M176.5,55.3c2.5,0,4.2,1.2,5,2.7v-2.5h2.3v13.8c0,3.7-2.5,6.4-6.5,6.4c-3.6,0-6.1-1.8-6.5-4.7h2.2
				c0.5,1.6,2.1,2.7,4.3,2.7c2.4,0,4.2-1.5,4.2-4.4v-2.8c-0.8,1.5-2.6,2.8-5,2.8c-3.6,0-6.4-2.8-6.4-7
				C170.1,58.1,172.9,55.3,176.5,55.3z M176.9,57.3c-2.5,0-4.6,1.8-4.6,5c0,3.2,2.1,5.1,4.6,5.1s4.6-1.8,4.6-5
				C181.5,59.2,179.4,57.3,176.9,57.3z"/>
			<path class="st8" d="M188.1,57.4h-1.8v-1.8h1.8v-3.4h2.2v3.4h3.5v1.8h-3.5v8c0,1.3,0.5,1.8,1.9,1.8h1.7v1.9h-2
				c-2.4,0-3.7-1-3.7-3.7V57.4z"/>
			<path class="st8" d="M202.5,69.3c-3.8,0-6.7-2.7-6.7-7c0-4.3,3-7,6.8-7c3.8,0,6.8,2.7,6.8,7C209.4,66.6,206.3,69.3,202.5,69.3z
				 M202.5,67.3c2.3,0,4.6-1.6,4.6-5c0-3.4-2.2-5-4.6-5c-2.4,0-4.5,1.6-4.5,5C198,65.7,200.1,67.3,202.5,67.3z"/>
			<path class="st8" d="M220,51.6c4.1,0,7.2,2.3,8.2,6.1h-4.6c-0.7-1.5-2-2.2-3.6-2.2c-2.6,0-4.4,1.9-4.4,5s1.8,5,4.4,5
				c1.6,0,2.9-0.7,3.6-2.2h4.6c-1,3.7-4.1,6-8.2,6c-5.1,0-8.7-3.6-8.7-8.8C211.3,55.2,214.9,51.6,220,51.6z"/>
			<path class="st8" d="M230.8,50.8h4.2v6.3c0.8-1.2,2.3-2,4.2-2c3.1,0,5.2,2.2,5.2,5.9v8h-4.2v-7.5c0-1.9-1-2.9-2.6-2.9
				s-2.6,1-2.6,2.9v7.5h-4.2V50.8z"/>
			<path class="st8" d="M252.6,55.1c2,0,3.5,0.9,4.2,2.1v-1.9h4.2v13.8h-4.2v-1.9c-0.8,1.2-2.2,2.1-4.3,2.1c-3.4,0-6-2.8-6-7.1
				S249.2,55.1,252.6,55.1z M253.8,58.8c-1.6,0-3,1.2-3,3.4c0,2.2,1.4,3.4,3,3.4c1.6,0,3-1.2,3-3.4C256.9,60,255.4,58.8,253.8,58.8z
				"/>
			<path class="st8" d="M264.8,58.8h-1.7v-3.5h1.7V52h4.2v3.4h2.8v3.5H269v5.5c0,0.8,0.3,1.2,1.3,1.2h1.5v3.6h-2.1
				c-2.9,0-4.9-1.2-4.9-4.8V58.8z"/>
		</g>
	</g>
</g>
</svg>
