<svg xmlns="http://www.w3.org/2000/svg" width="346.082" height="255.208" viewBox="0 0 346.082 255.208">
  <g id="Group_600" data-name="Group 600" transform="translate(0 -55)">
    <g id="freepik--background-complete--inject-66" transform="translate(0 55)">
      <rect id="Rectangle_458" data-name="Rectangle 458" width="22.924" height="0.173" transform="translate(288.48 237.751)" fill="#ebebeb"/>
      <rect id="Rectangle_459" data-name="Rectangle 459" width="6.015" height="0.173" transform="translate(223.244 239.634)" fill="#ebebeb"/>
      <rect id="Rectangle_460" data-name="Rectangle 460" width="13.283" height="0.173" transform="translate(274.505 231.328)" fill="#ebebeb"/>
      <rect id="Rectangle_461" data-name="Rectangle 461" width="29.895" height="0.173" transform="translate(36.311 232.491)" fill="#ebebeb"/>
      <rect id="Rectangle_462" data-name="Rectangle 462" width="4.381" height="0.173" transform="translate(72.373 232.491)" fill="#ebebeb"/>
      <rect id="Rectangle_463" data-name="Rectangle 463" width="64.842" height="0.173" transform="translate(90.999 235.412)" fill="#ebebeb"/>
      <path id="Path_1868" data-name="Path 1868" d="M175.805,250.744H42.162a3.952,3.952,0,0,1-3.952-3.952V58.918A3.952,3.952,0,0,1,42.162,55H175.805a3.952,3.952,0,0,1,3.952,3.952h0V246.792A3.952,3.952,0,0,1,175.805,250.744ZM42.162,55.138a3.787,3.787,0,0,0-3.779,3.779V246.792a3.787,3.787,0,0,0,3.779,3.779H175.805a3.787,3.787,0,0,0,3.779-3.779V58.918a3.787,3.787,0,0,0-3.779-3.779Z" transform="translate(-11.762 -55)" fill="#ebebeb"/>
      <path id="Path_1869" data-name="Path 1869" d="M392.109,250.744H258.452a3.959,3.959,0,0,1-3.952-3.952V58.918A3.959,3.959,0,0,1,258.452,55H392.109a3.952,3.952,0,0,1,3.938,3.918V246.792A3.952,3.952,0,0,1,392.109,250.744ZM258.452,55.138a3.786,3.786,0,0,0-3.779,3.779V246.792a3.786,3.786,0,0,0,3.779,3.779H392.109a3.787,3.787,0,0,0,3.779-3.779V58.918a3.787,3.787,0,0,0-3.779-3.779Z" transform="translate(-78.344 -55)" fill="#ebebeb"/>
      <rect id="Rectangle_464" data-name="Rectangle 464" width="346.082" height="0.173" transform="translate(0 226.615)" fill="#ebebeb"/>
      <rect id="Rectangle_465" data-name="Rectangle 465" width="86.375" height="91.982" transform="translate(202.084 27.458)" fill="#ebebeb"/>
      <rect id="Rectangle_466" data-name="Rectangle 466" width="75.993" height="81.599" transform="translate(207.275 32.649)" fill="#f5f5f5"/>
      <path id="Path_1870" data-name="Path 1870" d="M342.55,183.769h22.841l21.443-81.6H363.993Z" transform="translate(-105.449 -69.521)" fill="#fafafa"/>
      <path id="Path_1871" data-name="Path 1871" d="M348.663,102.17l-21.443,81.6h5.537l21.443-81.6Z" transform="translate(-100.73 -69.521)" fill="#fafafa"/>
      <path id="Path_1872" data-name="Path 1872" d="M378.1,98.981H289.549L287.68,94.62h92.293Z" transform="translate(-88.558 -67.196)" fill="#f5f5f5"/>
      <path id="Path_1873" data-name="Path 1873" d="M378.1,102.631H289.549L287.68,98.27h92.293Z" transform="translate(-88.558 -68.32)" fill="#f0f0f0"/>
      <path id="Path_1874" data-name="Path 1874" d="M378.1,106.281H289.549l-1.869-4.361h92.293Z" transform="translate(-88.558 -69.444)" fill="#e6e6e6"/>
      <path id="Path_1875" data-name="Path 1875" d="M378.1,109.931H289.549l-1.869-4.361h92.293Z" transform="translate(-88.558 -70.567)" fill="#e0e0e0"/>
      <rect id="Rectangle_467" data-name="Rectangle 467" width="98.737" height="5.814" transform="translate(195.903 21.962)" fill="#e0e0e0"/>
      <path id="Path_1876" data-name="Path 1876" d="M284.044,155.313h0a1,1,0,0,1-1-1h0V120.394a1,1,0,0,1,1-1h0a1,1,0,0,1,1,1h0V154.31a1,1,0,0,1-1,1Z" transform="translate(-87.13 -74.822)" fill="#e0e0e0"/>
      <rect id="Rectangle_468" data-name="Rectangle 468" width="0.727" height="20.142" transform="translate(196.547 26.614)" fill="#e0e0e0"/>
      <rect id="Rectangle_469" data-name="Rectangle 469" width="1.246" height="97.159" transform="translate(61.409 25.679)" fill="#e0e0e0"/>
      <rect id="Rectangle_470" data-name="Rectangle 470" width="1.246" height="97.159" transform="translate(138.966 25.679)" fill="#e0e0e0"/>
      <path id="Path_1877" data-name="Path 1877" d="M169.408,98.981H80.839L78.97,94.62h92.3Z" transform="translate(-24.31 -67.196)" fill="#f5f5f5"/>
      <path id="Path_1878" data-name="Path 1878" d="M169.408,107.631H80.839L78.97,103.27h92.3Z" transform="translate(-24.31 -69.859)" fill="#f5f5f5"/>
      <path id="Path_1879" data-name="Path 1879" d="M169.408,116.281H80.839L78.97,111.92h92.3Z" transform="translate(-24.31 -72.522)" fill="#f5f5f5"/>
      <path id="Path_1880" data-name="Path 1880" d="M169.408,124.931H80.839L78.97,120.57h92.3Z" transform="translate(-24.31 -75.185)" fill="#f5f5f5"/>
      <path id="Path_1881" data-name="Path 1881" d="M169.408,133.581H80.839L78.97,129.22h92.3Z" transform="translate(-24.31 -77.848)" fill="#f5f5f5"/>
      <path id="Path_1882" data-name="Path 1882" d="M169.408,142.231H80.839L78.97,137.87h92.3Z" transform="translate(-24.31 -80.51)" fill="#f5f5f5"/>
      <path id="Path_1883" data-name="Path 1883" d="M169.408,150.881H80.839L78.97,146.52h92.3Z" transform="translate(-24.31 -83.173)" fill="#f5f5f5"/>
      <path id="Path_1884" data-name="Path 1884" d="M169.408,159.531H80.839L78.97,155.17h92.3Z" transform="translate(-24.31 -85.836)" fill="#f5f5f5"/>
      <path id="Path_1885" data-name="Path 1885" d="M169.408,168.181H80.839L78.97,163.82h92.3Z" transform="translate(-24.31 -88.499)" fill="#f5f5f5"/>
      <path id="Path_1886" data-name="Path 1886" d="M169.408,176.831H80.839L78.97,172.47h92.3Z" transform="translate(-24.31 -91.161)" fill="#f5f5f5"/>
      <path id="Path_1887" data-name="Path 1887" d="M169.408,185.481H80.839L78.97,181.12h92.3Z" transform="translate(-24.31 -93.824)" fill="#f5f5f5"/>
      <path id="Path_1888" data-name="Path 1888" d="M169.408,194.121H80.839L78.97,189.76h92.3Z" transform="translate(-24.31 -96.484)" fill="#f5f5f5"/>
      <path id="Path_1889" data-name="Path 1889" d="M169.408,202.778H80.839L78.97,198.41h92.3Z" transform="translate(-24.31 -99.147)" fill="#f5f5f5"/>
      <path id="Path_1890" data-name="Path 1890" d="M169.408,211.421H80.839L78.97,207.06h92.3Z" transform="translate(-24.31 -101.81)" fill="#f5f5f5"/>
      <path id="Path_1891" data-name="Path 1891" d="M169.408,220.071H80.839L78.97,215.71h92.3Z" transform="translate(-24.31 -104.472)" fill="#f5f5f5"/>
      <path id="Path_1892" data-name="Path 1892" d="M169.408,228.721H80.839L78.97,224.36h92.3Z" transform="translate(-24.31 -107.135)" fill="#f5f5f5"/>
      <rect id="Rectangle_471" data-name="Rectangle 471" width="92.3" height="2.492" transform="translate(54.66 121.586)" fill="#e0e0e0"/>
      <rect id="Rectangle_472" data-name="Rectangle 472" width="98.737" height="5.814" transform="translate(51.442 21.962)" fill="#e0e0e0"/>
      <path id="Path_1893" data-name="Path 1893" d="M75.344,155.313h0a1,1,0,0,1-1-1V120.394a1,1,0,0,1,1-1h0a1,1,0,0,1,1,1V154.31A1,1,0,0,1,75.344,155.313Z" transform="translate(-22.885 -74.822)" fill="#e0e0e0"/>
      <rect id="Rectangle_473" data-name="Rectangle 473" width="0.727" height="20.142" transform="translate(52.092 26.614)" fill="#e0e0e0"/>
      <path id="Path_1894" data-name="Path 1894" d="M76.739,299.087c-.083.09.381.741-1.516.457-4.672-.692-12.805-2.6-15.068-7.4-3.232-6.859,6.79-4.354,6.444-7.863s-11.767-2.9-12.964-8.043,6.527-2.693,6.631-5.2-8.811-.955-10.583-6.506,4.97-1.46,4.195-3.772-8.306-12.743-4.215-13.954,11.019,9.5,13.7,11.012,5.039-7.226,8.223-3.53S69.721,270.9,73.777,273.4c3.025,1.869,2.173-3.274,6.16-2.312C85.329,272.39,83.509,291.514,76.739,299.087Z" transform="translate(-14.915 -114.016)" fill="#ebebeb"/>
      <path id="Path_1895" data-name="Path 1895" d="M68.364,276.553a16.2,16.2,0,0,1,4.035.824,31.618,31.618,0,0,0-2.872-3.689.346.346,0,0,1,.491-.485,40.7,40.7,0,0,1,5.752,8.348,30.657,30.657,0,0,0-2.277-16.667.263.263,0,0,1,.471-.228,31.247,31.247,0,0,1,2.2,17.629c.478.907.962,1.883,1.433,2.928a65.607,65.607,0,0,1,3.952,11.573,23.834,23.834,0,0,0,2.769-10.569.256.256,0,0,1,.263-.249h0a.263.263,0,0,1,.256.27h0a23.93,23.93,0,0,1-3.094,11.275,80.586,80.586,0,0,1,1.751,23.845.346.346,0,0,1-.365.325h-.043a.339.339,0,0,1-.277-.367,76.294,76.294,0,0,0-3.578-30.005,9.511,9.511,0,0,0-5.537-3.149.27.27,0,0,1-.215-.3.257.257,0,0,1,.286-.222h0a9.823,9.823,0,0,1,5.039,2.506,57.864,57.864,0,0,0-5.9-12,14.387,14.387,0,0,0-4.589-1.08.263.263,0,0,1-.242-.277.256.256,0,0,1,.268-.244Z" transform="translate(-20.957 -119.501)" fill="#f5f5f5"/>
      <path id="Path_1896" data-name="Path 1896" d="M96.78,307.751c3.883.069,10.514-3.537,13.151-7.039s-4.79-1.384-4.028-4.153,9.926-.727,11.615-4.734-4.914-3.08-4.651-5.129,7.109-1.627,9.3-5.883-3.821-1.869-2.879-3.634,8.493-9.185,5.337-10.729-10.237,6.181-12.6,7.046-2.928-4.478-6.015-1.924-.775,13.712-4.4,15.186c-2.706,1.1-1.557-4.015-4.672-2.72C91.423,286.3,95.181,307.716,96.78,307.751Z" transform="translate(-28.948 -120.029)" fill="#e0e0e0"/>
      <g id="Group_615" data-name="Group 615" transform="translate(65.089 146.217)" opacity="0.3">
        <path id="Path_1897" data-name="Path 1897" d="M96.78,307.751c3.883.069,10.514-3.537,13.151-7.039s-4.79-1.384-4.028-4.153,9.926-.727,11.615-4.734-4.914-3.08-4.651-5.129,7.109-1.627,9.3-5.883-3.821-1.869-2.879-3.634,8.493-9.185,5.337-10.729-10.237,6.181-12.6,7.046-2.928-4.478-6.015-1.924-.775,13.712-4.4,15.186c-2.706,1.1-1.557-4.015-4.672-2.72C91.423,286.3,95.181,307.716,96.78,307.751Z" transform="translate(-94.037 -266.246)" fill="#e0e0e0"/>
      </g>
      <path id="Path_1898" data-name="Path 1898" d="M98.028,306.839a.26.26,0,0,1-.138-.118,20.4,20.4,0,0,1-1.744-10.382.263.263,0,1,1,.519.042,20.761,20.761,0,0,0,1.571,9.884,79.812,79.812,0,0,1,5.911-12.5,27.4,27.4,0,0,1,3.627-15.228.258.258,0,0,1,.436.277h0a26.994,26.994,0,0,0-3.592,14.148,72.511,72.511,0,0,1,9.926-13.269.346.346,0,0,1,.523.454.389.389,0,0,1-.038.037,67.474,67.474,0,0,0-7.579,9.58,20.5,20.5,0,0,1,7.316-1.315.263.263,0,0,1,.249.27.256.256,0,0,1-.256.249h0a19.935,19.935,0,0,0-7.828,1.53,83.1,83.1,0,0,0-4.222,7.261,8.769,8.769,0,0,1,7.24-1.274.263.263,0,0,1,.187.318.256.256,0,0,1-.314.181h0a8.376,8.376,0,0,0-7.655,1.855,70.4,70.4,0,0,0-7.468,28.434.346.346,0,0,1-.346.332h0a.346.346,0,0,1-.346-.332A68.3,68.3,0,0,1,98.028,306.839Z" transform="translate(-28.937 -123.776)" fill="#f5f5f5"/>
      <path id="Path_1899" data-name="Path 1899" d="M79.459,367.267c-3.7-6.963-6.139-17.027-6.139-21.457a12.318,12.318,0,0,1,4.527-9.42H96.819a12.318,12.318,0,0,1,4.527,9.42c0,4.416-2.436,14.48-6.139,21.457Z" transform="translate(-22.571 -141.622)" fill="#f0f0f0"/>
    </g>
    <g id="freepik--Shadow--inject-66" transform="translate(35.501 294.537)">
      <ellipse id="freepik--path--inject-66" cx="134.204" cy="7.835" rx="134.204" ry="7.835" fill="#f5f5f5"/>
    </g>
    <g id="freepik--Screen--inject-66" transform="translate(114.387 99.74)">
      <path id="Path_1900" data-name="Path 1900" d="M253.435,119.639H236.823a2.423,2.423,0,0,0-2.312,1.89l-.111.519a5.883,5.883,0,0,1-5.634,4.6H212.985a4.741,4.741,0,0,1-4.845-4.6v-.519a1.937,1.937,0,0,0-1.98-1.89H189.548a11.158,11.158,0,0,0-10.9,10.023l-13.331,152.65a9.041,9.041,0,0,0,9.143,10.029h63.866a11.164,11.164,0,0,0,10.9-10.029l13.359-152.65a9.037,9.037,0,0,0-9.15-10.023Z" transform="translate(-165.26 -119.638)" fill="#ff5900"/>
      <path id="Path_1901" data-name="Path 1901" d="M253.435,119.639H236.823a2.423,2.423,0,0,0-2.312,1.89l-.111.519a5.883,5.883,0,0,1-5.634,4.6H212.985a4.741,4.741,0,0,1-4.845-4.6v-.519a1.937,1.937,0,0,0-1.98-1.89H189.548a11.158,11.158,0,0,0-10.9,10.023l-13.331,152.65a9.041,9.041,0,0,0,9.143,10.029h63.866a11.164,11.164,0,0,0,10.9-10.029l13.359-152.65a9.037,9.037,0,0,0-9.15-10.023Z" transform="translate(-165.26 -119.638)" fill="#fff" opacity="0.7" style="isolation: isolate"/>
      <path id="Path_1902" data-name="Path 1902" d="M267.306,206.11H233.39a2.014,2.014,0,0,1-2.046-1.982,1.967,1.967,0,0,1,.011-.247l2.554-29.2a2.478,2.478,0,0,1,2.423-2.229h33.916a2.007,2.007,0,0,1,2.047,1.967,1.945,1.945,0,0,1-.012.262l-2.554,29.2A2.485,2.485,0,0,1,267.306,206.11Z" transform="translate(-185.603 -135.895)" fill="#fff"/>
      <path id="Path_1903" data-name="Path 1903" d="M239.5,348.074H182.739a4.992,4.992,0,0,1-5.053-5.537h0A6.168,6.168,0,0,1,183.708,337h56.757a4.992,4.992,0,0,1,5.053,5.537h0A6.16,6.16,0,0,1,239.5,348.074Z" transform="translate(-169.076 -186.549)" fill="#fff"/>
      <path id="Path_1904" data-name="Path 1904" d="M249.1,155.934H197.032a2.767,2.767,0,0,1-2.831-3.108l.422-4.845a3.461,3.461,0,0,1,3.378-3.1h52.072a2.8,2.8,0,0,1,2.838,3.1l-.429,4.845A3.461,3.461,0,0,1,249.1,155.934Z" transform="translate(-174.162 -127.408)" fill="#fff"/>
      <path id="Path_1905" data-name="Path 1905" d="M288.058,148.738a.962.962,0,0,1-.941.865.782.782,0,0,1-.793-.77.731.731,0,0,1,0-.095.956.956,0,0,1,.941-.858.775.775,0,0,1,.793.757A.828.828,0,0,1,288.058,148.738Z" transform="translate(-202.528 -128.332)" fill="#fff"/>
      <path id="Path_1906" data-name="Path 1906" d="M287.732,152.475a.955.955,0,0,1-.934.865.782.782,0,0,1-.793-.77.725.725,0,0,1,0-.095.955.955,0,0,1,.934-.865.782.782,0,0,1,.793.77A.72.72,0,0,1,287.732,152.475Z" transform="translate(-202.429 -129.48)" fill="#fff"/>
      <path id="Path_1907" data-name="Path 1907" d="M287.408,156.205a.962.962,0,0,1-.941.865.782.782,0,0,1-.793-.77.72.72,0,0,1,0-.095.962.962,0,0,1,.941-.865.782.782,0,0,1,.793.77A.72.72,0,0,1,287.408,156.205Z" transform="translate(-202.328 -130.628)" fill="#fff"/>
      <path id="Path_1908" data-name="Path 1908" d="M248.123,273.875H184.769a2.007,2.007,0,0,1-2.047-1.967,1.95,1.95,0,0,1,.012-.262l2.949-33.328a2.478,2.478,0,0,1,2.423-2.229h63.333a2.007,2.007,0,0,1,2.04,1.974,1.955,1.955,0,0,1-.012.255l-2.914,33.328A2.478,2.478,0,0,1,248.123,273.875Z" transform="translate(-170.636 -155.486)" fill="#fff"/>
      <path id="Path_1909" data-name="Path 1909" d="M201.867,300.257H182.14a.484.484,0,0,1-.494-.474.417.417,0,0,1,0-.066h0a.6.6,0,0,1,.588-.547h19.727a.484.484,0,0,1,.5.473.521.521,0,0,1,0,.073h0A.6.6,0,0,1,201.867,300.257Z" transform="translate(-170.304 -174.904)" fill="#fff"/>
      <path id="Path_1910" data-name="Path 1910" d="M236.84,300.257H215.667a.484.484,0,0,1-.5-.467.51.51,0,0,1,0-.073h0a.6.6,0,0,1,.588-.547h21.18a.484.484,0,0,1,.5.473.521.521,0,0,1,0,.073h0A.6.6,0,0,1,236.84,300.257Z" transform="translate(-180.623 -174.904)" fill="#fff"/>
      <path id="Path_1911" data-name="Path 1911" d="M194.854,307.2H181.537a.491.491,0,0,1-.5-.481.415.415,0,0,1,0-.066h0a.61.61,0,0,1,.588-.547h13.345a.5.5,0,0,1,.5.5.411.411,0,0,1,0,.051h0A.609.609,0,0,1,194.854,307.2Z" transform="translate(-170.116 -177.041)" fill="#fff"/>
      <path id="Path_1912" data-name="Path 1912" d="M227.7,307.2H205.837a.491.491,0,0,1-.5-.481.417.417,0,0,1,0-.066h0a.609.609,0,0,1,.6-.547h21.852a.491.491,0,0,1,.5.481.416.416,0,0,1,0,.066h0A.6.6,0,0,1,227.7,307.2Z" transform="translate(-177.597 -177.041)" fill="#fff"/>
      <path id="Path_1913" data-name="Path 1913" d="M216.5,314.147h-35.57a.484.484,0,0,1-.5-.467.512.512,0,0,1,0-.073h0a.609.609,0,0,1,.6-.547h35.57a.5.5,0,0,1,.5.5.409.409,0,0,1,0,.051h0A.609.609,0,0,1,216.5,314.147Z" transform="translate(-169.929 -179.18)" fill="#fff"/>
      <path id="Path_1914" data-name="Path 1914" d="M239.733,314.147h-2.346a.484.484,0,0,1-.5-.467.508.508,0,0,1,0-.073h0a.6.6,0,0,1,.588-.547h2.353a.484.484,0,0,1,.5.473.523.523,0,0,1,0,.073h0A.6.6,0,0,1,239.733,314.147Z" transform="translate(-187.309 -179.18)" fill="#fff"/>
      <path id="Path_1915" data-name="Path 1915" d="M196.919,321.094H180.307a.5.5,0,0,1-.5-.5.414.414,0,0,1,0-.051h0a.609.609,0,0,1,.6-.547h16.612a.491.491,0,0,1,.5.481.417.417,0,0,1,0,.066h0A.609.609,0,0,1,196.919,321.094Z" transform="translate(-169.738 -181.316)" fill="#fff"/>
      <path id="Path_1916" data-name="Path 1916" d="M230.019,321.094H209.337a.5.5,0,0,1-.5-.5.411.411,0,0,1,0-.051h0a.609.609,0,0,1,.6-.547h20.675a.491.491,0,0,1,.5.481.413.413,0,0,1,0,.066h0A.61.61,0,0,1,230.019,321.094Z" transform="translate(-178.675 -181.316)" fill="#fff"/>
      <path id="Path_1917" data-name="Path 1917" d="M200.163,328.037H179.71a.484.484,0,0,1-.5-.473.521.521,0,0,1,0-.073h0a.6.6,0,0,1,.588-.54h20.447a.484.484,0,0,1,.5.467.508.508,0,0,1,0,.073h0A.6.6,0,0,1,200.163,328.037Z" transform="translate(-169.556 -183.456)" fill="#fff"/>
      <path id="Path_1918" data-name="Path 1918" d="M230.753,328.037H214.28a.484.484,0,0,1-.5-.473.523.523,0,0,1,0-.073h0a.6.6,0,0,1,.588-.54H230.85a.484.484,0,0,1,.5.467.513.513,0,0,1,0,.073h0A.609.609,0,0,1,230.753,328.037Z" transform="translate(-180.197 -183.456)" fill="#fff"/>
      <path id="Path_1919" data-name="Path 1919" d="M269.014,204.544a.692.692,0,0,1-.977.068l-.006-.006L239.7,177.57a.692.692,0,0,1,0-.976h0a.692.692,0,0,1,.977-.068l.006.006,28.33,27.036A.692.692,0,0,1,269.014,204.544Z" transform="translate(-188.113 -137.098)" fill="#ff5900"/>
      <path id="Path_1920" data-name="Path 1920" d="M236.106,211.3h0a.692.692,0,0,1,.129-.97l.017-.012L250.7,198.505a.692.692,0,0,1,.969.062h0a.692.692,0,0,1-.136.969l-.009.007-14.452,11.822A.693.693,0,0,1,236.106,211.3Z" transform="translate(-187.025 -143.864)" fill="#ff5900"/>
      <path id="Path_1921" data-name="Path 1921" d="M263.088,189.227h0a.692.692,0,0,1,.136-.969l.009-.007,14.48-11.836a.692.692,0,0,1,.969.062h0a.692.692,0,0,1-.136.969l-.009.007-14.48,11.836A.692.692,0,0,1,263.088,189.227Z" transform="translate(-195.332 -137.064)" fill="#ff5900"/>
      <g id="Group_616" data-name="Group 616" transform="translate(51.386 39.258)" opacity="0.7">
        <path id="Path_1922" data-name="Path 1922" d="M269.014,204.544a.692.692,0,0,1-.977.068l-.006-.006L239.7,177.57a.692.692,0,0,1,0-.976h0a.692.692,0,0,1,.977-.068l.006.006,28.33,27.036A.692.692,0,0,1,269.014,204.544Z" transform="translate(-239.499 -176.356)" fill="#fff"/>
      </g>
      <g id="Group_617" data-name="Group 617" transform="translate(48.938 54.472)" opacity="0.7">
        <path id="Path_1923" data-name="Path 1923" d="M236.106,211.3h0a.692.692,0,0,1,.129-.97l.017-.012L250.7,198.505a.692.692,0,0,1,.969.062h0a.692.692,0,0,1-.136.969l-.009.007-14.452,11.822A.693.693,0,0,1,236.106,211.3Z" transform="translate(-235.964 -198.336)" fill="#fff"/>
      </g>
      <g id="Group_618" data-name="Group 618" transform="translate(67.617 39.182)" opacity="0.7">
        <path id="Path_1924" data-name="Path 1924" d="M263.088,189.227h0a.692.692,0,0,1,.136-.969l.009-.007,14.48-11.836a.692.692,0,0,1,.969.062h0a.692.692,0,0,1-.136.969l-.009.007-14.48,11.836A.692.692,0,0,1,263.088,189.227Z" transform="translate(-262.949 -176.246)" fill="#fff"/>
      </g>
    </g>
    <g id="freepik--Icons--inject-66" transform="translate(71.577 96.419)">
      <path id="Path_1925" data-name="Path 1925" d="M160.279,114.84h-9A3.3,3.3,0,0,0,148,118.135v9a3.3,3.3,0,0,0,3.295,3.295h9a3.3,3.3,0,0,0,3.295-3.295v-9a3.3,3.3,0,0,0-3.295-3.295Zm-4.478,3.184c1.35,0,2.076,1.1,2.076,2.45s-.727,2.45-2.076,2.45-2.076-1.094-2.076-2.45S154.444,118.024,155.8,118.024Zm5.406,9.185H150.388a.333.333,0,0,1-.235-.1l.692-1.89a3.086,3.086,0,0,1,2.9-2.035h4.091a3.094,3.094,0,0,1,2.907,2.035l.692,1.89a.32.32,0,0,1-.228.1Z" transform="translate(-117.136 -114.84)" fill="#ff5900"/>
      <path id="Path_1926" data-name="Path 1926" d="M160.279,114.84h-9A3.3,3.3,0,0,0,148,118.135v9a3.3,3.3,0,0,0,3.295,3.295h9a3.3,3.3,0,0,0,3.295-3.295v-9a3.3,3.3,0,0,0-3.295-3.295Zm-4.478,3.184c1.35,0,2.076,1.1,2.076,2.45s-.727,2.45-2.076,2.45-2.076-1.094-2.076-2.45S154.444,118.024,155.8,118.024Zm5.406,9.185H150.388a.333.333,0,0,1-.235-.1l.692-1.89a3.086,3.086,0,0,1,2.9-2.035h4.091a3.094,3.094,0,0,1,2.907,2.035l.692,1.89a.32.32,0,0,1-.228.1Z" transform="translate(-117.136 -114.84)" fill="#fff" opacity="0.7" style="isolation: isolate"/>
      <path id="Path_1927" data-name="Path 1927" d="M114.658,168.12h-6.811a4.43,4.43,0,0,0-4.437,4.423v6.818a4.437,4.437,0,0,0,4.437,4.437h6.811a4.43,4.43,0,0,0,4.43-4.43V172.55a4.423,4.423,0,0,0-4.416-4.43Zm-3.405,11.552s-2.769-3.039-2.769-4.589a2.8,2.8,0,0,1,5.6,0C114.049,176.634,111.252,179.672,111.252,179.672Z" transform="translate(-103.41 -131.242)" fill="#ff5900"/>
      <path id="Path_1928" data-name="Path 1928" d="M114.167,176.34a1.281,1.281,0,1,0,1.274,1.287v-.014A1.274,1.274,0,0,0,114.167,176.34Z" transform="translate(-106.325 -133.772)" fill="#ff5900"/>
      <g id="Group_619" data-name="Group 619" transform="translate(0 36.878)" opacity="0.7">
        <path id="Path_1929" data-name="Path 1929" d="M114.658,168.12h-6.811a4.43,4.43,0,0,0-4.437,4.423v6.818a4.437,4.437,0,0,0,4.437,4.437h6.811a4.43,4.43,0,0,0,4.43-4.43V172.55a4.423,4.423,0,0,0-4.416-4.43Zm-3.405,11.552s-2.769-3.039-2.769-4.589a2.8,2.8,0,0,1,5.6,0C114.049,176.634,111.252,179.672,111.252,179.672Z" transform="translate(-103.41 -168.12)" fill="#fff"/>
        <path id="Path_1930" data-name="Path 1930" d="M114.167,176.34a1.281,1.281,0,1,0,1.274,1.287v-.014A1.274,1.274,0,0,0,114.167,176.34Z" transform="translate(-106.325 -170.65)" fill="#fff"/>
      </g>
      <path id="Path_1931" data-name="Path 1931" d="M335.7,137.6l4.561-2.949L335.7,131.7Z" transform="translate(-174.917 -120.03)" fill="#ff5900"/>
      <path id="Path_1932" data-name="Path 1932" d="M338.677,124.34h-8.694a3.7,3.7,0,0,0-3.7,3.7h0v8.694a3.71,3.71,0,0,0,3.7,3.7h8.694a3.7,3.7,0,0,0,3.7-3.7h0v-8.694a3.7,3.7,0,0,0-3.689-3.7Zm-4.347,13.843a5.793,5.793,0,1,1,5.793-5.793v.007a5.787,5.787,0,0,1-5.793,5.78h0Z" transform="translate(-172.017 -117.764)" fill="#ff5900"/>
      <g id="Group_620" data-name="Group 620" transform="translate(154.263 6.576)" opacity="0.7">
        <path id="Path_1933" data-name="Path 1933" d="M335.7,137.6l4.561-2.949L335.7,131.7Z" transform="translate(-329.18 -126.606)" fill="#fff"/>
        <path id="Path_1934" data-name="Path 1934" d="M338.677,124.34h-8.694a3.7,3.7,0,0,0-3.7,3.7h0v8.694a3.71,3.71,0,0,0,3.7,3.7h8.694a3.7,3.7,0,0,0,3.7-3.7h0v-8.694a3.7,3.7,0,0,0-3.689-3.7Zm-4.347,13.843a5.793,5.793,0,1,1,5.793-5.793v.007a5.787,5.787,0,0,1-5.793,5.78h0Z" transform="translate(-326.28 -124.34)" fill="#fff"/>
      </g>
    </g>
    <g id="freepik--Gears--inject-66" transform="translate(211.428 129.262)">
      <path id="Path_1935" data-name="Path 1935" d="M350.7,169.364v-.533l1.045-.581a6.879,6.879,0,0,0-.388-1.447h-1.191a5.935,5.935,0,0,0-.54-.928l.616-1.017a7.376,7.376,0,0,0-1.059-1.066l-1.024.616a6.121,6.121,0,0,0-.921-.533v-1.2a7.513,7.513,0,0,0-1.447-.388l-.581,1.045h-1.066l-.581-1.045a7.805,7.805,0,0,0-1.447.388v1.2a5.777,5.777,0,0,0-.921.533l-1.024-.616a7.057,7.057,0,0,0-1.066,1.066l.616,1.017a6.492,6.492,0,0,0-.533.928h-1.19a7.321,7.321,0,0,0-.395,1.447l1.045.581V169.9l-1.045.581a7.215,7.215,0,0,0,.395,1.447h1.19a6.491,6.491,0,0,0,.533.927l-.616,1.024a7.379,7.379,0,0,0,1.066,1.059l1.024-.616a5.328,5.328,0,0,0,.921.533v1.2a7.32,7.32,0,0,0,1.447.388l.581-1.045h1.066l.581,1.045a7.067,7.067,0,0,0,1.447-.388v-1.2a5.617,5.617,0,0,0,.921-.533l1.024.616a7.655,7.655,0,0,0,1.059-1.059l-.616-1.024a5.935,5.935,0,0,0,.54-.927h1.191a6.757,6.757,0,0,0,.388-1.447L350.7,169.9C350.682,169.7,350.7,169.544,350.7,169.364Zm-6.036,4.1a4.1,4.1,0,1,1,4.1-4.1,4.1,4.1,0,0,1-4.1,4.1Z" transform="translate(-315.354 -162.29)" fill="#ff5900"/>
      <path id="Path_1936" data-name="Path 1936" d="M350.7,169.364v-.533l1.045-.581a6.879,6.879,0,0,0-.388-1.447h-1.191a5.935,5.935,0,0,0-.54-.928l.616-1.017a7.376,7.376,0,0,0-1.059-1.066l-1.024.616a6.121,6.121,0,0,0-.921-.533v-1.2a7.513,7.513,0,0,0-1.447-.388l-.581,1.045h-1.066l-.581-1.045a7.805,7.805,0,0,0-1.447.388v1.2a5.777,5.777,0,0,0-.921.533l-1.024-.616a7.057,7.057,0,0,0-1.066,1.066l.616,1.017a6.492,6.492,0,0,0-.533.928h-1.19a7.321,7.321,0,0,0-.395,1.447l1.045.581V169.9l-1.045.581a7.215,7.215,0,0,0,.395,1.447h1.19a6.491,6.491,0,0,0,.533.927l-.616,1.024a7.379,7.379,0,0,0,1.066,1.059l1.024-.616a5.328,5.328,0,0,0,.921.533v1.2a7.32,7.32,0,0,0,1.447.388l.581-1.045h1.066l.581,1.045a7.067,7.067,0,0,0,1.447-.388v-1.2a5.617,5.617,0,0,0,.921-.533l1.024.616a7.655,7.655,0,0,0,1.059-1.059l-.616-1.024a5.935,5.935,0,0,0,.54-.927h1.191a6.757,6.757,0,0,0,.388-1.447L350.7,169.9C350.682,169.7,350.7,169.544,350.7,169.364Zm-6.036,4.1a4.1,4.1,0,1,1,4.1-4.1,4.1,4.1,0,0,1-4.1,4.1Z" transform="translate(-315.354 -162.29)" fill="#fff" opacity="0.7" style="isolation: isolate"/>
      <path id="Path_1937" data-name="Path 1937" d="M325.027,197.549a6.069,6.069,0,0,0-.035-.8l1.564-.865a10.836,10.836,0,0,0-.581-2.173l-1.786.035a8.893,8.893,0,0,0-.8-1.384l.921-1.53a10.723,10.723,0,0,0-1.585-1.585l-1.53.914a9.437,9.437,0,0,0-1.384-.8v-1.786a10.625,10.625,0,0,0-2.166-.581l-.865,1.564h-1.592L314.34,187a10.864,10.864,0,0,0-2.166.581v1.786a9.375,9.375,0,0,0-1.384.8l-1.5-.914a10.806,10.806,0,0,0-1.592,1.585l.921,1.53a8.833,8.833,0,0,0-.8,1.384l-1.786-.035a10.361,10.361,0,0,0-.581,2.173l1.564.865a7.651,7.651,0,0,0,0,1.592l-1.564.872a10.425,10.425,0,0,0,.581,2.166l1.786-.035a8.53,8.53,0,0,0,.8,1.384l-.921,1.53a10.805,10.805,0,0,0,1.592,1.585l1.53-.914a8.8,8.8,0,0,0,1.384.8v1.786a10.425,10.425,0,0,0,2.166.581l.872-1.564a7.649,7.649,0,0,0,1.592,0l.865,1.564a10.2,10.2,0,0,0,2.166-.581V205.73a8.834,8.834,0,0,0,1.384-.8l1.53.914a10.723,10.723,0,0,0,1.585-1.585l-.921-1.53a8.619,8.619,0,0,0,.8-1.384l1.786.035a10.861,10.861,0,0,0,.581-2.166l-1.564-.872A5.106,5.106,0,0,1,325.027,197.549Zm-9,3.558a3.558,3.558,0,1,1,3.558-3.558,3.557,3.557,0,0,1-3.558,3.558h0Z" transform="translate(-305.46 -169.897)" fill="#ff5900"/>
      <path id="Path_1938" data-name="Path 1938" d="M325.027,197.549a6.069,6.069,0,0,0-.035-.8l1.564-.865a10.836,10.836,0,0,0-.581-2.173l-1.786.035a8.893,8.893,0,0,0-.8-1.384l.921-1.53a10.723,10.723,0,0,0-1.585-1.585l-1.53.914a9.437,9.437,0,0,0-1.384-.8v-1.786a10.625,10.625,0,0,0-2.166-.581l-.865,1.564h-1.592L314.34,187a10.864,10.864,0,0,0-2.166.581v1.786a9.375,9.375,0,0,0-1.384.8l-1.5-.914a10.806,10.806,0,0,0-1.592,1.585l.921,1.53a8.833,8.833,0,0,0-.8,1.384l-1.786-.035a10.361,10.361,0,0,0-.581,2.173l1.564.865a7.651,7.651,0,0,0,0,1.592l-1.564.872a10.425,10.425,0,0,0,.581,2.166l1.786-.035a8.53,8.53,0,0,0,.8,1.384l-.921,1.53a10.805,10.805,0,0,0,1.592,1.585l1.53-.914a8.8,8.8,0,0,0,1.384.8v1.786a10.425,10.425,0,0,0,2.166.581l.872-1.564a7.649,7.649,0,0,0,1.592,0l.865,1.564a10.2,10.2,0,0,0,2.166-.581V205.73a8.834,8.834,0,0,0,1.384-.8l1.53.914a10.723,10.723,0,0,0,1.585-1.585l-.921-1.53a8.619,8.619,0,0,0,.8-1.384l1.786.035a10.861,10.861,0,0,0,.581-2.166l-1.564-.872A5.106,5.106,0,0,1,325.027,197.549Zm-9,3.558a3.558,3.558,0,1,1,3.558-3.558,3.557,3.557,0,0,1-3.558,3.558h0Z" transform="translate(-305.46 -169.897)" fill="#fff" opacity="0.7" style="isolation: isolate"/>
    </g>
    <g id="freepik--speech-bubbles--inject-66" transform="translate(133.463 95.782)">
      <path id="Path_1939" data-name="Path 1939" d="M295.263,143.607v3.627l-3.461,1.82a.844.844,0,0,0,0,1.488l3.461,1.82v3.627a1.461,1.461,0,0,0,1.46,1.46h12.383a1.467,1.467,0,0,0,1.467-1.46V143.607a1.467,1.467,0,0,0-1.467-1.467H296.7A1.46,1.46,0,0,0,295.263,143.607Z" transform="translate(-223.153 -122.607)" fill="#ff5900"/>
      <g id="Group_621" data-name="Group 621" transform="translate(75.48 23.049)" opacity="0.9">
        <path id="Path_1940" data-name="Path 1940" d="M302.735,148.95h7.039a.865.865,0,0,0,0-1.73h-7.039a.865.865,0,0,0,0,1.73Z" transform="translate(-301.87 -147.22)" fill="#fff"/>
        <path id="Path_1941" data-name="Path 1941" d="M309.775,152h-7.039a.865.865,0,0,0,0,1.73h7.039a.865.865,0,0,0,0-1.73Z" transform="translate(-301.87 -148.691)" fill="#fff"/>
        <path id="Path_1942" data-name="Path 1942" d="M309.775,156.69h-7.039a.865.865,0,0,0,0,1.73h7.039a.865.865,0,0,0,0-1.73Z" transform="translate(-301.87 -150.135)" fill="#fff"/>
      </g>
      <path id="Path_1943" data-name="Path 1943" d="M194.952,129.2h2.956l1.523,2.886a1.177,1.177,0,0,0,2.076,0l1.523-2.886h2.956a2.132,2.132,0,0,0,2.132-2.132V116.052a2.132,2.132,0,0,0-2.132-2.132H194.952a2.125,2.125,0,0,0-2.132,2.118v11.088A2.131,2.131,0,0,0,194.952,129.2Z" transform="translate(-192.82 -113.92)" fill="#ff5900"/>
      <path id="Path_1944" data-name="Path 1944" d="M202.365,118.69l-3.405,1.993v5.828h2.533V122.6h1.751v3.911h2.533v-5.828Z" transform="translate(-194.71 -115.388)" fill="#fff" opacity="0.9" style="isolation: isolate"/>
      <path id="Path_1945" data-name="Path 1945" d="M238.071,363.126h-2.63l-1.7-3.226a.983.983,0,0,0-1.73,0l-1.7,3.226h-2.7a2.429,2.429,0,0,0-2.429,2.429h0v10.452a2.429,2.429,0,0,0,2.429,2.43h10.452a2.429,2.429,0,0,0,2.429-2.43h0V365.555A2.429,2.429,0,0,0,238.071,363.126Z" transform="translate(-202.785 -189.483)" fill="#ff5900"/>
      <path id="Path_1946" data-name="Path 1946" d="M235.52,370.067a3.779,3.779,0,1,0-.533,5.786.875.875,0,0,0,.228.457l2.353,2.346a.847.847,0,0,0,1.2-1.2l-2.346-2.346a.855.855,0,0,0-.464-.235A3.793,3.793,0,0,0,235.52,370.067Zm-.8,4.548a2.651,2.651,0,1,1,0-3.752,2.65,2.65,0,0,1,0,3.752Z" transform="translate(-203.979 -192.43)" fill="#fff" opacity="0.9" style="isolation: isolate"/>
    </g>
    <g id="freepik--character-2--inject-66" transform="translate(188.234 154.279)">
      <path id="Path_1947" data-name="Path 1947" d="M390.334,263.4s-5.641,13.982-11.165,15.491-13.843.284-13.843.284l-2.575.692-2.526-.374h-.09l-2.845-.069a.54.54,0,0,1-.484-.851l1.017-1.384a.7.7,0,0,1,.339-.242l2.713-.872a.737.737,0,0,1,.325,0l4.153.658s11.525-1.89,12.7-2.956S382.7,261.53,382.7,261.53Z" transform="translate(-298.041 -217.857)" fill="#eec1bb"/>
      <path id="Path_1948" data-name="Path 1948" d="M365.6,283.078l-.27.042-4.153-.658a.737.737,0,0,0-.325,0l-2.713.872a.7.7,0,0,0-.339.242l-1.018,1.384a.54.54,0,0,0,.485.851l2.845.069h.09l1.7.249A10.865,10.865,0,0,0,365.6,283.078Z" transform="translate(-298.035 -224.294)" opacity="0.1" style="isolation: isolate"/>
      <path id="Path_1949" data-name="Path 1949" d="M404.841,244.091c-4.1-1.343-9.863,1.737-12.071,14.639l8.507,2.513S410.7,246.016,404.841,244.091Z" transform="translate(-309.143 -212.399)" fill="#ff5900"/>
      <path id="Path_1950" data-name="Path 1950" d="M375.77,219.518c0,.429.228.768.505.768s.519-.367.5-.782-.228-.761-.505-.754S375.77,219.1,375.77,219.518Z" transform="translate(-303.91 -204.687)" fill="#263238"/>
      <path id="Path_1951" data-name="Path 1951" d="M377.294,220.47,375.28,223.8s.692.789,2.208.208Z" transform="translate(-303.759 -205.217)" fill="#d4827d"/>
      <path id="Path_1952" data-name="Path 1952" d="M377.81,215.813a.215.215,0,0,1-.2.069,1.737,1.737,0,0,0-1.516.478.229.229,0,0,1-.311,0,.235.235,0,0,1,0-.318,2.152,2.152,0,0,1,1.91-.616.222.222,0,0,1,.194.246v0h0A.264.264,0,0,1,377.81,215.813Z" transform="translate(-303.894 -203.654)" fill="#263238"/>
      <path id="Path_1953" data-name="Path 1953" d="M392.282,212.229c.311,5.627.568,8.008-1.917,11.206-3.966,3.426-10.722,3.973-12.715-1.447-1.793-4.845-2-13.241,3.2-16.141a7.69,7.69,0,0,1,10.461,2.974l0,.009A7.819,7.819,0,0,1,392.282,212.229Z" transform="translate(-304.135 -200.415)" fill="#eec1bb"/>
      <path id="Path_1954" data-name="Path 1954" d="M387.97,232.5l1.426,8.341,6.949-1.606-2.43-8.514Z" transform="translate(-307.665 -208.372)" fill="#eec1bb"/>
      <path id="Path_1955" data-name="Path 1955" d="M379.482,210.661c.353-3.655-.907.568-2.6-4.257s6.292-8.742,7.565-7.842.547,2.277,4.769,3.059a4.8,4.8,0,0,1,4.042,4.88s2.43,1.121,1.564,6.34a21.384,21.384,0,0,1-4.153,9.171s-1.6-1.647-4.153-.132a8.205,8.205,0,0,1-2.471-2.519c-1.135-1.7-1.488-3.322-3.045-3.461C377.751,215.6,379.364,211.866,379.482,210.661Z" transform="translate(-304.181 -198.433)" fill="#263238"/>
      <path id="Path_1956" data-name="Path 1956" d="M400,208.809s3.461-2.118,1.924-4.34S401.128,206.919,400,208.809Z" transform="translate(-311.368 -200.111)" fill="#263238"/>
      <path id="Path_1957" data-name="Path 1957" d="M381.678,218.837a4.347,4.347,0,0,0-1.1,3.135c.1,1.523,1.592,1.793,2.769.962s2.291-2.45,1.613-3.786a1.959,1.959,0,0,0-3.281-.311Z" transform="translate(-305.387 -204.483)" fill="#ffc3bd"/>
      <path id="Path_1958" data-name="Path 1958" d="M388.16,233.891l.568,3.309a6.228,6.228,0,0,1,1.564-4.52A2.8,2.8,0,0,0,388.16,233.891Z" transform="translate(-307.724 -208.975)" opacity="0.1" style="isolation: isolate"/>
      <rect id="Rectangle_474" data-name="Rectangle 474" width="1.987" height="11.718" transform="translate(29.59 46.428)" fill="#ff5900"/>
      <rect id="Rectangle_475" data-name="Rectangle 475" width="1.987" height="11.718" transform="translate(29.59 46.428)" fill="#fff" opacity="0.7" style="isolation: isolate"/>
      <path id="Path_1959" data-name="Path 1959" d="M294.156,231.89h-4.949a3.357,3.357,0,0,0-3.357,3.357h0v22.931a3.357,3.357,0,0,0,3.357,3.357h4.949Z" transform="translate(-276.229 -208.732)" fill="#ff5900"/>
      <rect id="Rectangle_476" data-name="Rectangle 476" width="40.201" height="29.638" rx="4.85" transform="translate(11.351 23.158)" fill="#ff5900"/>
      <rect id="Rectangle_477" data-name="Rectangle 477" width="40.201" height="29.638" rx="4.85" transform="translate(11.351 23.158)" fill="#fff" opacity="0.5" style="isolation: isolate"/>
      <rect id="Rectangle_478" data-name="Rectangle 478" width="37.432" height="26.87" rx="2.85" transform="translate(12.736 24.542)" fill="#263238"/>
      <path id="Path_1960" data-name="Path 1960" d="M305.69,286.423a7.233,7.233,0,0,1,14.459,0Z" transform="translate(-282.336 -223.362)" fill="#ff5900"/>
      <path id="Path_1961" data-name="Path 1961" d="M323.909,285.98H309.45v2.346h28.919v-.962Z" transform="translate(-283.494 -225.383)" fill="#ff5900"/>
      <path id="Path_1962" data-name="Path 1962" d="M323.909,285.98H309.45v2.346h28.919v-.962Z" transform="translate(-283.494 -225.383)" fill="#fff" opacity="0.8" style="isolation: isolate"/>
      <path id="Path_1963" data-name="Path 1963" d="M323.909,288.326H309.45V285.98l14.459,1.384Z" transform="translate(-283.494 -225.383)" fill="#ff5900"/>
      <path id="Path_1964" data-name="Path 1964" d="M323.909,288.326H309.45V285.98l14.459,1.384Z" transform="translate(-283.494 -225.383)" fill="#fff" opacity="0.6" style="isolation: isolate"/>
      <path id="Path_1965" data-name="Path 1965" d="M361.119,371.553H331.294a4.527,4.527,0,0,1-4.534-4.52V298.447a4.527,4.527,0,0,1,4.527-4.527h29.832a1.211,1.211,0,0,1,1.211,1.211h0a1.212,1.212,0,0,1-1.211,1.211H331.294a2.077,2.077,0,0,0-2.111,2.042V367a2.076,2.076,0,0,0,2.077,2.077h29.86a1.212,1.212,0,0,1,1.211,1.211h0a1.212,1.212,0,0,1-1.155,1.265Z" transform="translate(-288.823 -227.827)" fill="#263238"/>
      <g id="Group_622" data-name="Group 622" transform="translate(37.938 66.093)" opacity="0.5">
        <path id="Path_1966" data-name="Path 1966" d="M361.119,371.553H331.294a4.527,4.527,0,0,1-4.534-4.52V298.447a4.527,4.527,0,0,1,4.527-4.527h29.832a1.211,1.211,0,0,1,1.211,1.211h0a1.212,1.212,0,0,1-1.211,1.211H331.294a2.077,2.077,0,0,0-2.111,2.042V367a2.076,2.076,0,0,0,2.077,2.077h29.86a1.212,1.212,0,0,1,1.211,1.211h0a1.212,1.212,0,0,1-1.155,1.265Z" transform="translate(-326.76 -293.92)" fill="#fff"/>
      </g>
      <rect id="Rectangle_479" data-name="Rectangle 479" width="42.354" height="3.551" transform="translate(0 62.943)" fill="#ff5900"/>
      <rect id="Rectangle_480" data-name="Rectangle 480" width="42.354" height="3.551" transform="translate(0 62.943)" fill="#fff" opacity="0.2" style="isolation: isolate"/>
      <rect id="Rectangle_481" data-name="Rectangle 481" width="36.124" height="3.551" transform="translate(40.415 62.943)" fill="#ff5900"/>
      <rect id="Rectangle_482" data-name="Rectangle 482" width="36.124" height="3.551" transform="translate(40.415 62.943)" fill="#fff" opacity="0.5" style="isolation: isolate"/>
      <path id="Path_1967" data-name="Path 1967" d="M360.856,369.73l2,20.225h-4.79l-4.8-19.7Z" transform="translate(-296.983 -251.164)" fill="#eec1bb"/>
      <path id="Path_1968" data-name="Path 1968" d="M355.75,397l6.112.1a.491.491,0,0,1,.471.395l1.024,4.99a.824.824,0,0,1-.63.969h-.173c-2.208-.076-4.153-.228-6.922-.277-3.232-.055-2.423.346-6.229.339-2.291,0-2.665-2.623-1.7-2.734,4.464-.484,4.949-1.82,6.693-3.385A1.98,1.98,0,0,1,355.75,397Z" transform="translate(-295.117 -259.557)" fill="#263238"/>
      <path id="Path_1969" data-name="Path 1969" d="M362.337,384.674l-1.481-14.944-7.586.526,3.509,14.418Z" transform="translate(-296.983 -251.164)" opacity="0.1" style="isolation: isolate"/>
      <path id="Path_1970" data-name="Path 1970" d="M390.777,302.36l-19.644.692s-26.461,9.254-27.154,16.363c-.761,7.323,8.126,40.969,8.126,40.969H360s-2.18-24.69-3.011-32.248,27.541-5.06,32.469-11.5C393.968,310.721,390.777,302.36,390.777,302.36Z" transform="translate(-294.109 -230.425)" fill="#263238"/>
      <path id="Path_1971" data-name="Path 1971" d="M390.777,302.36l-19.644.692s-26.461,9.254-27.154,16.363c-.761,7.323,8.126,40.969,8.126,40.969H360s-2.18-24.69-3.011-32.248,27.541-5.06,32.469-11.5C393.968,310.721,390.777,302.36,390.777,302.36Z" transform="translate(-294.109 -230.425)" opacity="0.2" style="isolation: isolate"/>
      <path id="Path_1972" data-name="Path 1972" d="M364.362,384.59l.173,2.789h-9.759l-.955-2.789Z" transform="translate(-297.153 -255.739)" fill="#ff5900"/>
      <path id="Path_1973" data-name="Path 1973" d="M334.72,371.12l.526,19.263h-4.707L327.75,371.12Z" transform="translate(-289.127 -251.592)" fill="#eec1bb"/>
      <path id="Path_1974" data-name="Path 1974" d="M327.04,397l6.112.1a.491.491,0,0,1,.471.395l1.024,4.99a.823.823,0,0,1-.63.969h-.173c-2.208-.076-4.153-.228-6.922-.277-3.239-.055-2.423.346-6.229.339-2.291,0-2.665-2.623-1.7-2.734,4.464-.484,4.949-1.82,6.693-3.385A1.965,1.965,0,0,1,327.04,397Z" transform="translate(-286.279 -259.556)" fill="#263238"/>
      <path id="Path_1975" data-name="Path 1975" d="M335.1,385.088l-.381-13.968h-6.97l2.028,13.982C331.294,385.109,333.377,385.095,335.1,385.088Z" transform="translate(-289.127 -251.592)" opacity="0.1" style="isolation: isolate"/>
      <path id="Path_1976" data-name="Path 1976" d="M374.922,303.987s1.634,14.937-13.56,15.636-27.057,2.436-27.4,7.842,0,32.947,0,32.947H325.7S322.49,343,321.238,332.2c-1.218-10.486-3.461-18.093,7.316-21.644,11.441-3.779,31.777-7.268,31.777-7.268l14.646-.928Z" transform="translate(-286.796 -230.425)" fill="#263238"/>
      <path id="Path_1977" data-name="Path 1977" d="M337.162,384.59l-.519,2.789h-9.067l-.955-2.789Z" transform="translate(-288.779 -255.739)" fill="#ff5900"/>
      <path id="Path_1978" data-name="Path 1978" d="M398.321,241.462s0-3.364-6.8-2.976c-7.226.415-5.863,3.641-5.863,3.641Z" transform="translate(-306.921 -210.753)" fill="#ff5900"/>
      <path id="Path_1979" data-name="Path 1979" d="M398.321,241.462s0-3.364-6.8-2.976c-7.226.415-5.863,3.641-5.863,3.641Z" transform="translate(-306.921 -210.753)" opacity="0.3" style="isolation: isolate"/>
      <path id="Path_1980" data-name="Path 1980" d="M400.9,257.4c-.457,6.652-.3,26.662-.3,26.662s-14.535.955-25.942.581l-1.322-38.491a3.385,3.385,0,0,1,2.173-3.135c3.225-1.253,10.8-2.672,22.641-1.114C402.238,242.453,401.442,249.54,400.9,257.4Z" transform="translate(-303.161 -211.605)" fill="#ff5900"/>
      <path id="Path_1981" data-name="Path 1981" d="M361.754,263.4s-5.648,13.982-11.165,15.491-13.843.284-13.843.284l-2.575.692-2.519-.374h-.09l-2.852-.069a.54.54,0,0,1-.485-.851l1.024-1.384a.7.7,0,0,1,.339-.242l2.706-.872a.768.768,0,0,1,.332,0l4.153.658s11.525-1.89,12.694-2.956,4.651-12.244,4.651-12.244Z" transform="translate(-289.243 -217.857)" fill="#eec1bb"/>
      <path id="Path_1982" data-name="Path 1982" d="M375.635,254.362s-.879,1.045-1.945,2.554l.381,11.144c4.243-1.876,5.925-12.8,5.925-12.8l-2.769-1.952Z" transform="translate(-303.269 -215.326)" opacity="0.1" style="isolation: isolate"/>
      <path id="Path_1983" data-name="Path 1983" d="M376.258,244.091c-4.1-1.343-9.87,1.737-12.078,14.639l8.514,2.485S382.114,246.016,376.258,244.091Z" transform="translate(-300.342 -212.399)" fill="#ff5900"/>
      <rect id="Rectangle_483" data-name="Rectangle 483" width="6.403" height="18.765" transform="translate(74.934 96.444)" fill="#263238"/>
      <rect id="Rectangle_484" data-name="Rectangle 484" width="6.403" height="18.765" transform="translate(74.934 96.444)" fill="#fff" opacity="0.6" style="isolation: isolate"/>
      <path id="Path_1984" data-name="Path 1984" d="M378.666,378.838V355h-8.389v23.838l-19.1,2.651v2.651l23.291-1.987,23.291,1.987v-2.651Z" transform="translate(-296.34 -246.63)" fill="#263238"/>
      <circle id="Ellipse_106" data-name="Ellipse 106" cx="2.526" cy="2.526" r="2.526" transform="translate(52.037 138.957)" fill="#ff5900"/>
      <circle id="Ellipse_107" data-name="Ellipse 107" cx="2.526" cy="2.526" r="2.526" transform="translate(98.896 138.957)" fill="#ff5900"/>
      <circle id="Ellipse_108" data-name="Ellipse 108" cx="2.526" cy="2.526" r="2.526" transform="translate(75.605 138.957)" fill="#ff5900"/>
      <rect id="Rectangle_485" data-name="Rectangle 485" width="6.403" height="4.638" transform="translate(74.934 96.444)" opacity="0.3" style="isolation: isolate"/>
      <path id="Path_1985" data-name="Path 1985" d="M393.879,276.32H373.018a6.589,6.589,0,0,0-6.555,5.973L364.7,301.141A8.687,8.687,0,0,1,356.5,309l-20.135,1.011a4.6,4.6,0,0,0-4.368,4.6v.422a3.814,3.814,0,0,0,3.814,3.814h61.319l3.3-35.3a6.589,6.589,0,0,0-5.921-7.2C394.3,276.33,394.091,276.32,393.879,276.32Z" transform="translate(-290.436 -222.409)" fill="#ff5900"/>
      <path id="Path_1986" data-name="Path 1986" d="M393.879,276.32H373.018a6.589,6.589,0,0,0-6.555,5.973L364.7,301.141A8.687,8.687,0,0,1,356.5,309l-20.135,1.011a4.6,4.6,0,0,0-4.368,4.6v.422a3.814,3.814,0,0,0,3.814,3.814h61.319l3.3-35.3a6.589,6.589,0,0,0-5.921-7.2C394.3,276.33,394.091,276.32,393.879,276.32Z" transform="translate(-290.436 -222.409)" fill="#fff" opacity="0.3" style="isolation: isolate"/>
      <path id="Path_1987" data-name="Path 1987" d="M352.22,307h2.872v15.027a1.384,1.384,0,0,1-1.384,1.384h-.1a1.384,1.384,0,0,1-1.384-1.384V307Z" transform="translate(-296.66 -231.854)" fill="#263238"/>
      <path id="Path_1988" data-name="Path 1988" d="M352.22,307h2.872v15.027a1.384,1.384,0,0,1-1.384,1.384h-.1a1.384,1.384,0,0,1-1.384-1.384V307Z" transform="translate(-296.66 -231.854)" fill="#fff" opacity="0.2" style="isolation: isolate"/>
      <path id="Path_1989" data-name="Path 1989" d="M369.389,300.768H363v5.3h6.4a2.651,2.651,0,1,0,.271-5.3,2.533,2.533,0,0,0-.271,0Z" transform="translate(-299.978 -229.934)" fill="#ff5900"/>
      <path id="Path_1990" data-name="Path 1990" d="M369.389,300.768H363v5.3h6.4a2.651,2.651,0,1,0,.271-5.3,2.533,2.533,0,0,0-.271,0Z" transform="translate(-299.978 -229.934)" fill="#fff" opacity="0.5" style="isolation: isolate"/>
      <rect id="Rectangle_486" data-name="Rectangle 486" width="27.486" height="5.302" rx="2.651" transform="translate(41.924 70.834)" fill="#ff5900"/>
      <rect id="Rectangle_487" data-name="Rectangle 487" width="27.486" height="5.302" rx="2.651" transform="translate(41.924 70.834)" fill="#fff" opacity="0.3" style="isolation: isolate"/>
      <path id="Path_1991" data-name="Path 1991" d="M414.54,318.869H383.87l3.419-36.525a6.589,6.589,0,0,1,6.555-5.973h20.862a6.589,6.589,0,0,1,6.583,6.6c0,.2-.01.4-.028.6L418.277,315.5A3.759,3.759,0,0,1,414.54,318.869Z" transform="translate(-306.403 -222.425)" fill="#ff5900"/>
      <path id="Path_1992" data-name="Path 1992" d="M414.54,318.869H383.87l3.419-36.525a6.589,6.589,0,0,1,6.555-5.973h20.862a6.589,6.589,0,0,1,6.583,6.6c0,.2-.01.4-.028.6L418.277,315.5A3.759,3.759,0,0,1,414.54,318.869Z" transform="translate(-306.403 -222.425)" fill="#fff" opacity="0.5" style="isolation: isolate"/>
      <path id="Path_1993" data-name="Path 1993" d="M309.389,371.553H279.564a4.527,4.527,0,0,1-4.534-4.52V298.447a4.527,4.527,0,0,1,4.527-4.527h29.832a1.211,1.211,0,0,1,1.211,1.211h0a1.212,1.212,0,0,1-1.211,1.211H279.564a2.077,2.077,0,0,0-2.111,2.042V367a2.076,2.076,0,0,0,2.076,2.077h29.86a1.212,1.212,0,0,1,1.211,1.211h0a1.212,1.212,0,0,1-1.155,1.265Z" transform="translate(-272.898 -227.827)" fill="#263238"/>
      <g id="Group_623" data-name="Group 623" transform="translate(2.132 66.093)" opacity="0.5">
        <path id="Path_1994" data-name="Path 1994" d="M309.389,371.553H279.564a4.527,4.527,0,0,1-4.534-4.52V298.447a4.527,4.527,0,0,1,4.527-4.527h29.832a1.211,1.211,0,0,1,1.211,1.211h0a1.212,1.212,0,0,1-1.211,1.211H279.564a2.077,2.077,0,0,0-2.111,2.042V367a2.076,2.076,0,0,0,2.076,2.077h29.86a1.212,1.212,0,0,1,1.211,1.211h0a1.212,1.212,0,0,1-1.155,1.265Z" transform="translate(-275.03 -293.92)" fill="#fff"/>
      </g>
      <path id="Path_1995" data-name="Path 1995" d="M295.19,240.253l-2.076-1.384a.374.374,0,0,1-.114-.516.37.37,0,0,1,.114-.113l2.076-1.384a.346.346,0,0,1,.478.1h0a.346.346,0,0,1-.1.471l-1.723,1.142,1.723,1.142a.346.346,0,0,1,.1.471h0A.353.353,0,0,1,295.19,240.253Z" transform="translate(-278.412 -210.243)" fill="#fff"/>
      <path id="Path_1996" data-name="Path 1996" d="M302.812,240.147h0a.339.339,0,0,1,.118-.45l1.724-1.142-1.724-1.163a.339.339,0,0,1-.09-.471h0a.339.339,0,0,1,.469-.1h0l2.077,1.384a.374.374,0,0,1,0,.63l-2.077,1.384a.347.347,0,0,1-.486-.059Z" transform="translate(-281.438 -210.234)" fill="#fff"/>
      <path id="Path_1997" data-name="Path 1997" d="M298.614,240.69h0a.339.339,0,0,1-.223-.425v0l1.433-4.527a.332.332,0,0,1,.413-.224l.01,0h0a.332.332,0,0,1,.224.413l0,.01-1.426,4.534a.339.339,0,0,1-.425.223Z" transform="translate(-280.085 -209.842)" fill="#fff"/>
      <path id="Path_1998" data-name="Path 1998" d="M308.687,247.68H293.273a.353.353,0,0,1-.353-.353v-.007h0a.353.353,0,0,1,.346-.36h15.421a.36.36,0,0,1,.36.36h0A.36.36,0,0,1,308.687,247.68Z" transform="translate(-278.405 -213.371)" fill="#fff"/>
      <path id="Path_1999" data-name="Path 1999" d="M334.261,247.692H318.84a.36.36,0,0,1-.36-.36h0a.36.36,0,0,1,.36-.332h15.408a.36.36,0,0,1,.36.36h0A.359.359,0,0,1,334.261,247.692Z" transform="translate(-286.274 -213.384)" fill="#fff"/>
      <path id="Path_2000" data-name="Path 2000" d="M302.084,252.263h-8.811a.353.353,0,0,1-.353-.353V251.9h0a.353.353,0,0,1,.353-.353h8.811a.36.36,0,0,1,.36.353h0A.36.36,0,0,1,302.084,252.263Z" transform="translate(-278.405 -214.784)" fill="#fff"/>
      <path id="Path_2001" data-name="Path 2001" d="M323.745,252.263H309.313a.353.353,0,0,1-.353-.353V251.9h0a.353.353,0,0,1,.353-.353h14.432a.353.353,0,0,1,.353.353h0a.353.353,0,0,1-.346.36Z" transform="translate(-283.343 -214.784)" fill="#fff"/>
      <path id="Path_2002" data-name="Path 2002" d="M316.751,256.85H293.273a.36.36,0,0,1-.353-.36h0a.353.353,0,0,1,.346-.36h23.485a.36.36,0,0,1,.36.36h0A.36.36,0,0,1,316.751,256.85Z" transform="translate(-278.405 -216.194)" fill="#fff"/>
      <path id="Path_2003" data-name="Path 2003" d="M335.41,256.85h-4.9a.36.36,0,0,1-.36-.36h0a.36.36,0,0,1,.36-.36h4.9a.36.36,0,0,1,.36.36h0A.36.36,0,0,1,335.41,256.85Z" transform="translate(-289.866 -216.194)" fill="#fff"/>
      <path id="Path_2004" data-name="Path 2004" d="M304.237,261.43H293.273a.353.353,0,0,1-.353-.353v-.007h0a.353.353,0,0,1,.346-.36h10.971a.36.36,0,0,1,.36.36h0A.36.36,0,0,1,304.237,261.43Z" transform="translate(-278.405 -217.604)" fill="#fff"/>
      <path id="Path_2005" data-name="Path 2005" d="M326.072,261.43H312.43a.36.36,0,0,1-.36-.36h0a.36.36,0,0,1,.36-.36h13.643a.36.36,0,0,1,.36.36h0A.36.36,0,0,1,326.072,261.43Z" transform="translate(-284.3 -217.604)" fill="#fff"/>
      <path id="Path_2006" data-name="Path 2006" d="M308.688,266.013H293.273a.353.353,0,0,1-.353-.353v-.007h0a.353.353,0,0,1,.353-.353h15.414a.353.353,0,0,1,.36.346v.007h0A.36.36,0,0,1,308.688,266.013Z" transform="translate(-278.405 -219.017)" fill="#fff"/>
      <path id="Path_2007" data-name="Path 2007" d="M329.728,266.013H318.84a.36.36,0,0,1-.36-.36h0a.353.353,0,0,1,.353-.353h10.881a.353.353,0,0,1,.353.353h0A.353.353,0,0,1,329.728,266.013Z" transform="translate(-286.274 -219.017)" fill="#fff"/>
    </g>
    <g id="freepik--character-1--inject-66" transform="translate(56.014 122.125)">
      <path id="Path_2008" data-name="Path 2008" d="M140.189,176.82c.284,3.26-.422,9.164-2.879,11.075a25.993,25.993,0,0,1,10.971,7.226c2.693-3.918-.367-6.153-.367-6.153-3.461-1.232-3.094-3.855-2.2-6.271Z" transform="translate(-98.283 -159.626)" fill="#b97964"/>
      <path id="Path_2009" data-name="Path 2009" d="M160.4,172.451c-.042.408.152.761.422.789s.512-.291.554-.692-.152-.761-.422-.789S160.446,172.043,160.4,172.451Z" transform="translate(-105.388 -158.067)" fill="#263238"/>
      <path id="Path_2010" data-name="Path 2010" d="M161.05,171.684l1-.194S161.479,172.231,161.05,171.684Z" transform="translate(-105.591 -157.985)" fill="#263238"/>
      <path id="Path_2011" data-name="Path 2011" d="M160.48,173.39a11.32,11.32,0,0,0,1.225,2.769,1.79,1.79,0,0,1-1.5.138Z" transform="translate(-105.332 -158.57)" fill="#a24e3f"/>
      <path id="Path_2012" data-name="Path 2012" d="M161.153,169.179a.286.286,0,0,0,.166-.09.25.25,0,0,0,0-.339,2.409,2.409,0,0,0-2.139-.574.256.256,0,0,0-.076.339.229.229,0,0,0,.208.111A1.958,1.958,0,0,1,161,169.1.251.251,0,0,0,161.153,169.179Z" transform="translate(-104.981 -156.947)" fill="#263238"/>
      <path id="Path_2013" data-name="Path 2013" d="M140.963,165.96c-.159,5.06-.332,7.212,1.924,10.036,3.4,4.243,9.552,3.315,11.2-1.613,1.481-4.437,1.5-12-3.163-14.445A6.792,6.792,0,0,0,140.963,165.96Z" transform="translate(-99.382 -154.179)" fill="#b97964"/>
      <path id="Path_2014" data-name="Path 2014" d="M138.439,173.319c-4.977-.851-3.551-3.987-3.551-3.987-4.9-.99-1.114-3.385-1.114-3.385-4.077-1.758,0-3.336,0-3.336-3.932-3.26,1.675-4.388,1.675-4.388-1.384-5.087,3.461-3,3.461-3,2.63-4.374,4.9-.2,4.9-.2,4.61-6.229,5.731-.976,5.731-.976,4.714-1.239,2.907,3.717,2.907,3.717,3.876,1.038.831,3,.831,3,1.5,1.89-3.911,2.215-3.911,2.215s2.575,4.153,0,5.3l-6.548,5.018S139.8,172.066,138.439,173.319Z" transform="translate(-96.637 -151.979)" fill="#263238"/>
      <path id="Path_2015" data-name="Path 2015" d="M148.39,169.716s3.461-8.306.754-15.394l2.284-.782S154.412,163.846,148.39,169.716Z" transform="translate(-101.694 -152.459)" fill="#ff5900"/>
      <path id="Path_2016" data-name="Path 2016" d="M153.264,174.457c.568,1.191.789,1.71,1.606,2.076a1.481,1.481,0,0,0,2.173-1.647c-.215-1.191-1.128-2.942-2.395-2.976a1.654,1.654,0,0,0-1.384,2.547Z" transform="translate(-103.114 -158.114)" fill="#b97964"/>
      <path id="Path_2017" data-name="Path 2017" d="M146.671,197.628s4.686,3.461,6.589,4.845l13.559-6.4h0a3.743,3.743,0,0,1,2.284-3.544l.969-.4,2.042-.914a2.367,2.367,0,0,1,2.36.249h0a2.373,2.373,0,0,1,.879,2.589h0a5.862,5.862,0,0,1-4.153,4.028l-1.98.519s-11.621,8.8-15.774,9.012-10.237-3.869-10.237-3.869Z" transform="translate(-100.099 -163.995)" fill="#b97964"/>
      <path id="Path_2018" data-name="Path 2018" d="M130.839,192.14c3.579,0,7.579,2.229,13.843,6.313a17.2,17.2,0,0,1-4.845,7.669s-3.461-.928-8.057-5.254C126.243,195.629,128.645,192.147,130.839,192.14Z" transform="translate(-95.536 -164.342)" fill="#263238"/>
      <path id="Path_2019" data-name="Path 2019" d="M214.136,192.153H180.22a2.014,2.014,0,0,1-2.046-1.982,1.972,1.972,0,0,1,.011-.247l2.554-29.2a2.478,2.478,0,0,1,2.423-2.229h33.916a2.007,2.007,0,0,1,2.04,1.974,1.95,1.95,0,0,1-.012.255l-2.554,29.2A2.478,2.478,0,0,1,214.136,192.153Z" transform="translate(-110.862 -153.986)" fill="#ff5900"/>
      <path id="Path_2020" data-name="Path 2020" d="M214.136,192.153H180.22a2.014,2.014,0,0,1-2.046-1.982,1.972,1.972,0,0,1,.011-.247l2.554-29.2a2.478,2.478,0,0,1,2.423-2.229h33.916a2.007,2.007,0,0,1,2.04,1.974,1.95,1.95,0,0,1-.012.255l-2.554,29.2A2.478,2.478,0,0,1,214.136,192.153Z" transform="translate(-110.862 -153.986)" fill="#fff" opacity="0.4" style="isolation: isolate"/>
      <path id="Path_2021" data-name="Path 2021" d="M214.882,191.384a.934.934,0,0,0,.914-.844l2.554-29.2a.762.762,0,0,0-.673-.84.725.725,0,0,0-.095,0H183.666a.942.942,0,0,0-.921.844l-2.547,29.2a.762.762,0,0,0,.673.84.722.722,0,0,0,.095,0Z" transform="translate(-111.484 -154.602)" fill="#fff" opacity="0.7" style="isolation: isolate"/>
      <path id="Path_2022" data-name="Path 2022" d="M191.333,180.32l-11.075,16.031v.291a.762.762,0,0,0,.673.84.72.72,0,0,0,.095,0h19.214Z" transform="translate(-111.503 -160.703)" fill="#ff5900"/>
      <path id="Path_2023" data-name="Path 2023" d="M191.333,180.32l-11.075,16.031v.291a.762.762,0,0,0,.673.84.72.72,0,0,0,.095,0h19.214Z" transform="translate(-111.503 -160.703)" fill="#fff" opacity="0.3" style="isolation: isolate"/>
      <path id="Path_2024" data-name="Path 2024" d="M221.528,194.449l-9.282-17.629L198.5,196.408h22.018a.934.934,0,0,0,.914-.844Z" transform="translate(-117.119 -159.626)" fill="#ff5900"/>
      <path id="Path_2025" data-name="Path 2025" d="M210.4,170.931a3.461,3.461,0,0,1-3.385,3.115,2.812,2.812,0,0,1-2.845-3.115,3.461,3.461,0,0,1,3.385-3.122,2.81,2.81,0,0,1,2.861,2.758A2.78,2.78,0,0,1,210.4,170.931Z" transform="translate(-118.861 -156.852)" fill="#ff5900"/>
      <path id="Path_2026" data-name="Path 2026" d="M210.4,170.931a3.461,3.461,0,0,1-3.385,3.115,2.812,2.812,0,0,1-2.845-3.115,3.461,3.461,0,0,1,3.385-3.122,2.81,2.81,0,0,1,2.861,2.758A2.78,2.78,0,0,1,210.4,170.931Z" transform="translate(-118.861 -156.852)" fill="#fff" opacity="0.4" style="isolation: isolate"/>
      <path id="Path_2027" data-name="Path 2027" d="M89.367,377.37,85.92,387.586l5.281,2.16,4.132-9.427Z" transform="translate(-82.463 -221.362)" fill="#b97964"/>
      <path id="Path_2028" data-name="Path 2028" d="M96.253,394.639a.173.173,0,0,1-.083-.159.145.145,0,0,1,.118-.125c.111,0,2.6-.581,3.53,0a.791.791,0,0,1,.353.478.567.567,0,0,1-.18.63,2.7,2.7,0,0,1-1.931-.09A11.391,11.391,0,0,1,96.253,394.639Zm.526-.048c1.087.485,2.623.948,3.025.644.055-.042.125-.111.069-.325a.393.393,0,0,0-.221-.291,1,1,0,0,0-.263-.118A6.928,6.928,0,0,0,96.779,394.59Z" transform="translate(-85.618 -226.511)" fill="#ff5900"/>
      <path id="Path_2029" data-name="Path 2029" d="M96.171,393.8a.153.153,0,0,1,0-.152,4.194,4.194,0,0,1,1.668-2.077,1.145,1.145,0,0,1,.879,0c.381.159.443.4.408.568-.083.727-1.952,1.592-2.769,1.689a.07.07,0,0,1-.062,0A.13.13,0,0,1,96.171,393.8Zm2.346-1.959a.8.8,0,0,0-.554,0,3.529,3.529,0,0,0-1.384,1.613c.893-.215,2.166-.948,2.256-1.384,0-.042,0-.152-.235-.249h-.083Z" transform="translate(-85.613 -225.707)" fill="#ff5900"/>
      <path id="Path_2030" data-name="Path 2030" d="M91.2,392.435l-6.631-2.077a.561.561,0,0,0-.651.256l-2.866,5.025a.928.928,0,0,0,.332,1.269l.008,0a.865.865,0,0,0,.18.083c2.4.692,4.568,1.218,7.545,2.146,3.516,1.08,2.492,1.225,6.6,2.561,2.478.8,3.807-1.89,2.769-2.353-4.644-2.076-4.693-3.71-6.022-6.015A2.228,2.228,0,0,0,91.2,392.435Z" transform="translate(-80.926 -225.353)" fill="#263238"/>
      <path id="Path_2031" data-name="Path 2031" d="M88.51,382.271l5.537,2.8,2.083-4.748-5.966-2.949Z" transform="translate(-83.261 -221.362)" fill="#263238" opacity="0.2" style="isolation: isolate"/>
      <path id="Path_2032" data-name="Path 2032" d="M113.583,240.85s-7.441,5.683-5.849,23.485a51.492,51.492,0,0,1,.692,5.254,46.885,46.885,0,0,1-.754,4.949c-.6,4.1-1.689,19.381-2.845,21.367s-1.627,1.634-4.845,7.115c-3.461,5.9-7.96,16.238-11.441,33.764a19.527,19.527,0,0,0,7.78,3.26s19.014-29.985,23.056-41.149c3.62-9.988,7.932-41.862,7.932-41.862l.346-13.843Z" transform="translate(-83.27 -179.336)" fill="#ff5900"/>
      <path id="Path_2033" data-name="Path 2033" d="M133.973,274.78h-5.385s-1.772,16.944,4.084,31.078c.609-2.27,1.225-4.99,1.827-7.932L136.832,283c-.332-2.52-.588-4.444-.63-4.568C136.084,278.04,133.973,274.78,133.973,274.78Z" transform="translate(-95.521 -189.781)" opacity="0.1" style="isolation: isolate"/>
      <path id="Path_2034" data-name="Path 2034" d="M135.2,383.31l.035,10.86,6.126-.408.941-10.452Z" transform="translate(-97.633 -223.191)" fill="#b97964"/>
      <path id="Path_2035" data-name="Path 2035" d="M145.063,397.493a.15.15,0,0,1-.055-.277c.1-.055,2.263-1.384,3.336-1.149a.808.808,0,0,1,.491.332.58.58,0,0,1,.035.658,2.769,2.769,0,0,1-1.855.547A10.83,10.83,0,0,1,145.063,397.493Zm.485-.215c1.184.1,2.769.035,3.066-.388.042-.055.076-.145-.042-.332a.416.416,0,0,0-.3-.2.976.976,0,0,0-.284,0,6.707,6.707,0,0,0-2.436.921Z" transform="translate(-100.63 -227.109)" fill="#ff5900"/>
      <path id="Path_2036" data-name="Path 2036" d="M144.966,396.84a.167.167,0,0,1-.076-.138,4.3,4.3,0,0,1,.9-2.492,1.111,1.111,0,0,1,.831-.291c.415,0,.554.235.575.408.159.692-1.315,2.139-2.077,2.506a.1.1,0,0,1-.062,0A.13.13,0,0,1,144.966,396.84Zm1.564-2.63a.774.774,0,0,0-.512.208,3.512,3.512,0,0,0-.775,1.98c.768-.491,1.73-1.606,1.675-2.035,0-.042-.035-.152-.3-.166h-.083Z" transform="translate(-100.616 -226.456)" fill="#ff5900"/>
      <path id="Path_2037" data-name="Path 2037" d="M140.352,396.885l-6.922.249a.56.56,0,0,0-.526.457l-1.052,5.69a.927.927,0,0,0,.734,1.087.972.972,0,0,0,.2,0c2.5-.138,4.714-.353,7.828-.457,3.675-.132,2.769.339,7.081.249,2.609-.062,2.976-3.039,1.869-3.142-5.074-.457-5.655-1.966-7.669-3.7A2.228,2.228,0,0,0,140.352,396.885Z" transform="translate(-96.598 -227.367)" fill="#263238"/>
      <path id="Path_2038" data-name="Path 2038" d="M135.221,388.93l6.589-.138.491-5.482h-7.1Z" transform="translate(-97.633 -223.191)" fill="#263238" opacity="0.2" style="isolation: isolate"/>
      <path id="Path_2039" data-name="Path 2039" d="M128.951,238s-7.427,9.836-1.924,29.071l6.229,28.095s-5.911,12.777-2.769,46.486a28.378,28.378,0,0,0,9.164-.208s6.922-35.6,7.967-47.621c1.156-13.248.464-53.179.464-53.179Z" transform="translate(-94.493 -178.459)" fill="#ff5900"/>
      <path id="Path_2040" data-name="Path 2040" d="M137.161,190.467s-1.149-4.914,6.229-2.769,6.756,6.347,6.756,6.347Z" transform="translate(-98.217 -162.808)" fill="#263238"/>
      <path id="Path_2041" data-name="Path 2041" d="M137.161,190.467s-1.149-4.914,6.229-2.769,6.756,6.347,6.756,6.347Z" transform="translate(-98.217 -162.808)" opacity="0.4" style="isolation: isolate"/>
      <path id="Path_2042" data-name="Path 2042" d="M151.47,203.938a35.515,35.515,0,0,1-1.384,7c-.318,1.322-.609,2.7-.8,4.1-1.045,7.614-1.384,15.636-1.384,15.636a30.357,30.357,0,0,1-23.769-4.714s2.9-2.457,2.3-19.478c-.27-7.669-3.039-16.785,9.635-15.352,10.7,1.211,14.3,4.534,15.165,9.732v.2l.062.485A20.262,20.262,0,0,1,151.47,203.938Z" transform="translate(-94.226 -163.986)" fill="#263238"/>
      <path id="Path_2043" data-name="Path 2043" d="M160.438,206.8a35.516,35.516,0,0,1-1.384,7c-2.893-3.461-5.793-10-5.793-10l2.388-3.516,4.208,1.959a12.461,12.461,0,0,1,.346,1.481v.2l.062.485A20.262,20.262,0,0,1,160.438,206.8Z" transform="translate(-103.193 -166.851)" opacity="0.4" style="isolation: isolate"/>
      <path id="Path_2044" data-name="Path 2044" d="M168.064,204.178s4.153,4.1,5.793,5.745l14.355-4.305h0a3.751,3.751,0,0,1,2.769-3.156l1.011-.263,2.16-.6a2.388,2.388,0,0,1,2.3.6h0a2.367,2.367,0,0,1,.485,2.686h0a5.884,5.884,0,0,1-4.707,3.371l-2.035.215s-12.812,7-16.937,6.61-9.545-5.35-9.545-5.35Z" transform="translate(-106.41 -167.229)" fill="#b97964"/>
      <path id="Path_2045" data-name="Path 2045" d="M153.82,194.58c3.544.519,7.164,3.336,12.784,8.306a17.215,17.215,0,0,1-5.946,6.866s-3.274-1.433-7.178-6.4C148.761,197.349,151.675,194.262,153.82,194.58Z" transform="translate(-102.48 -165.086)" fill="#263238"/>
    </g>
  </g>
</svg>
