<svg xmlns="http://www.w3.org/2000/svg" viewBox="0 0 809.59 606.38"><defs><style>.cls-1{isolation:isolate;}.cls-2{fill:#9dccff;}.cls-3{fill:#cde5f9;}.cls-4,.cls-5{fill:#312764;}.cls-5{opacity:0.6;}.cls-18,.cls-19,.cls-22,.cls-23,.cls-5{mix-blend-mode:multiply;}.cls-6{fill:#ffb671;}.cls-7{fill:#ddd8df;}.cls-20,.cls-26,.cls-27,.cls-29,.cls-30,.cls-8{fill:none;}.cls-8{stroke:#b4b4b5;}.cls-20,.cls-27,.cls-8{stroke-miterlimit:10;}.cls-26,.cls-27,.cls-8{stroke-width:2px;}.cls-9{fill:#b4b4b5;}.cls-10{fill:#d1834e;}.cls-11{fill:#feb870;}.cls-12{fill:#30062a;}.cls-13{fill:#373e75;}.cls-14{fill:#100f0d;}.cls-15{fill:#491a06;}.cls-16{fill:#fff;}.cls-17,.cls-18{fill:#97ccff;}.cls-18,.cls-19{opacity:0.5;}.cls-20{stroke:#7fb5e2;stroke-width:3px;}.cls-21,.cls-22{fill:#4d5acd;}.cls-23{fill:#ffbc95;}.cls-24{fill:#ffd2bb;}.cls-25{fill:#f09719;}.cls-26,.cls-27{stroke:#fff;}.cls-26,.cls-30{stroke-linecap:round;stroke-linejoin:round;}.cls-28{fill:#4e6af1;}.cls-30{stroke:#969696;stroke-width:4px;}</style></defs><g class="cls-1"><g id="Layer_2" data-name="Layer 2"><g id="Layer_1-2" data-name="Layer 1"><path class="cls-2" d="M652.1,592.18s-18.31-118.66.35-132.54,36.23-5.24,36.12-21.5.87-56.27,25.84-61.44,27.44-8.93,32.33-25.22,23.52-35.17,38.63-20.27,9,35-4.7,45.05-19.94,10.13-18.58,25.13,11.58,48.68-12.09,61.34-33.76.23-27.36,22.69,11.27,31.71-14.6,58.87C673.27,580.78,652.1,592.18,652.1,592.18Z"/><path class="cls-3" d="M759.58,360.34c-18.62,22.61-31.78,49-44.74,75.17,0-11.83,1.83-23.56,2-35.4,0-2.42-3.72-2.41-3.75,0-.2,13.48-2.58,26.83-1.88,40.33a1.84,1.84,0,0,0,.56,1.23c-17,34.12-35.16,67.65-51.88,101.9-1,2.17,2.18,4.07,3.24,1.9Q669,533.56,675,521.79a1.85,1.85,0,0,0,1.9-.32c8.33-7.05,19.05-10.12,27.76-16.59,1.91-1.42.05-4.68-1.9-3.24C695,507.38,685.87,510.59,678,516c11.68-22.65,23.67-45.15,34.85-68.05,14.29-29.28,28.57-59.66,49.41-85C763.76,361.14,761.12,358.47,759.58,360.34Z"/><path class="cls-2" d="M649.4,520.75s-82.17-87.53-74.62-109.53,26.91-24.8,17.63-38.14S561.32,326.17,579,307.79s17.59-22.89,12.41-39.09-.48-42.3,20.41-38.55S639,253.9,633.4,270s-10.71,19.63-1.12,31.24,37.07,33.61,24.71,57.44-27.72,19.27-9.74,34.18,27.21,19.78,21.23,56.81C660.43,499.38,649.4,520.75,649.4,520.75Z"/><path class="cls-3" d="M607,268.75c-2.58,29.18,1.5,58.42,5.58,87.3-6.7-9.74-11.81-20.47-18.35-30.32-1.34-2-4.43.1-3.1,2.12,7.46,11.22,13.05,23.58,21.25,34.32a1.76,1.76,0,0,0,1.16.7c5.27,37.75,9.24,75.68,14.81,113.38.35,2.39,4.1,2.13,3.74-.26-1.29-8.74-2.47-17.49-3.59-26.24a1.88,1.88,0,0,0,1.39-1.35c2.88-10.52,10-19.11,13.51-29.37.78-2.26-2.6-3.89-3.39-1.6-3.13,9.1-8.88,16.93-12.33,25.86-3.17-25.29-6-50.63-9.72-75.84-4.76-32.23-10.16-65.37-7.27-98C610.91,267.05,607.23,266.34,607,268.75Z"/><polygon class="cls-4" points="571.46 570.78 485.19 570.78 489.88 303.53 572.4 334.48 571.46 570.78"/><polygon class="cls-5" points="535.53 321.04 512.42 387.3 496.48 359.79 535.53 321.04"/><polygon class="cls-6" points="522.86 340.57 443.64 382.3 446.79 313.1 449.72 264.62 505 251.19 515.36 248.68 522.86 340.57"/><polygon class="cls-7" points="496.77 601.09 438.01 601.09 438.01 337.92 461.78 371.98 478.66 337.29 495.52 331.66 496.77 601.09"/><polyline class="cls-8" points="477.49 343.15 463.66 372.45 463.66 545.46"/><polygon class="cls-9" points="468.35 357.92 477.73 337.29 524.28 327.6 496.48 359.79 468.35 357.92"/><path class="cls-4" d="M373.28,516.39,210,540.15,208,598s104.08,3.75,121,1.88,65.27,8,76.89-31.88c3.48-11.91,1.24-40.35.17-51.58Z"/><path class="cls-4" d="M448.65,601.09l-1.9-281.62-7.5,7.51-35.64,28.13c-5.35,4.26-23.66,14.76-35.78,21.55-23.42,13.13-17.84,52.51-19,69.39s2.26,155,2.26,155Z"/><path class="cls-5" d="M389.89,526.06c.06-3.66.13-6.73.23-8.73l-.23-.08V428.56l-12,106.82c-2.12,5.58-4.4,11-6.13,13.83-8.73,14.06-42.19,15-59.07,16.88-12.55,1.39-73.3-.32-103.64-1.29L208,598s104.08,3.75,121,1.88,47.16,8.91,58.78-31c1.29-4.42,1.74-17.09,2-29.07h.22Z"/><path class="cls-5" d="M444.9,327.29c-3.75,0-17.5,42.5-17.5,42.5l20-13.12Z"/><path class="cls-4" d="M570.5,570.77l-.88-237.23s36.32,7.11,62.77,15.93c39.39,13.13,30,52.51,31.89,69.39s-3.72,116.29-3.72,116.29Z"/><path class="cls-4" d="M463.18,543l195.5-28.44s4.69,41.25.31,56.26c-11.62,39.85-60,30-76.89,31.88s-121-1.87-121-1.87Z"/><path class="cls-5" d="M660.56,535.15s5.59-99.41,3.72-116.29c-1.79-16.06,6.58-52.46-26.5-67.27,12.88,17.35,8.24,41.78,9.62,54.14,1.87,16.88-3.72,116.29-3.72,116.29l-.18.07c.71,12.58.91,27.69-1.39,35.56-11.62,39.86-60,30-76.89,31.88-12.55,1.4-73.3-.32-103.64-1.29l-.44,12.55s104.08,3.75,121,1.87,65.27,8,76.89-31.88c2.3-7.88,2.1-23,1.39-35.56Z"/><path class="cls-10" d="M504.42,277.43c-3.75,7.5-10.31,21.88-22.5,31.88-5.89,4.82-19.52,10.52-35.13,11.29l2.93-48.48L505,258.69C505.42,268.43,505.34,275.57,504.42,277.43Z"/><path class="cls-11" d="M393.92,193.35s-10.14,76,16.41,96.59c27.2,21.1,67,7,77.83-1.88,12.19-10,18.76-24.38,22.51-31.88S504.1,154,504.1,154l-109.71,6.56Z"/><path class="cls-12" d="M513.36,252c1.33-2-1.58-4.37-2.92-2.36-7.66,11.52-18,17.76-30.86,21.59a3.81,3.81,0,0,0-1.37-1c-4.44-1.93-7.43,4.95-3,6.88a3.57,3.57,0,0,0,4.88-2.14C493.94,271,505.19,264.27,513.36,252Z"/><path class="cls-10" d="M459.54,278.84A12.76,12.76,0,0,1,449.09,284a.94.94,0,0,0,0,1.87,14.71,14.71,0,0,0,12.07-6.09C461.86,278.79,460.23,277.86,459.54,278.84Z"/><path class="cls-12" d="M463.31,186.32s1.4,21.11,20.79,33.6c14.07,9.07,25.63,7.19,25.63,7.19l7.5,46.57s51.87-36.08,25.32-107.21C526,122.09,474.1,128.34,474.1,128.34s-20.16,4.06-25.79,4.06-38-6.09-54.85,5.16S370,171.79,378.92,187.73s32.08,18.39,42.67,16.88C444.56,201.32,463.31,186.32,463.31,186.32Z"/><path class="cls-13" d="M520.36,216.17s4.37-42.51-14.85-66.42c-14.35-17.85-32.35-23.44-39.85-22.5s-20.16,4.68-20.16,4.68,25.38,4.46,38.44,19.7c19.7,23,22,67.51,22,67.51Z"/><path class="cls-4" d="M494.73,237.19c0,13.08,8,23.68,17.81,23.68s21.91-14.12,21.91-27.2-12.07-20.16-21.91-20.16S494.73,224.11,494.73,237.19Z"/><path class="cls-5" d="M506.45,237.8c0,9.12,5.56,16.52,12.42,16.52S534,242.32,534,233.2s-8.25-11.91-15.12-11.91S506.45,228.69,506.45,237.8Z"/><path class="cls-14" d="M454.11,236a3.64,3.64,0,1,1-3.6-4.14A3.9,3.9,0,0,1,454.11,236Z"/><path class="cls-14" d="M410.35,237.89a3.64,3.64,0,1,1-3.6-4.14A3.89,3.89,0,0,1,410.35,237.89Z"/><path class="cls-15" d="M422.74,259.29c-7.48,2-5.42-13.15-3.81-16.4.68-1.38-1.71-2.29-2.39-.91-2.58,5.2-4,22.5,7.14,19.44C425.32,261,424.37,258.85,422.74,259.29Z"/><path class="cls-14" d="M449.7,278.46a17.64,17.64,0,0,1-20.61-10.4c-.1-.21-.19-.44-.27-.66a55.57,55.57,0,0,0,31.93-14.49c.24.46.46.93.65,1.4a17.9,17.9,0,0,1,.83,2.47A17.71,17.71,0,0,1,449.7,278.46Z"/><path class="cls-16" d="M461.4,254.31c-1.46,7-7.56,13.29-16,15.46a22.75,22.75,0,0,1-16.31-1.71c-.1-.21-.19-.44-.27-.66a55.57,55.57,0,0,0,31.93-14.49C461,253.37,461.21,253.84,461.4,254.31Z"/><path class="cls-15" d="M435.81,219c.44.61-.94,1.5,2.19,1.29s19.06,1.29,20.31,0-2.83-5.83-9.06-6.23C439.25,213.45,434.87,217.75,435.81,219Z"/><path class="cls-15" d="M397.71,224.82c.44.48-.36,1.5,1.81.8s13.77-1.94,14.39-3.3-3.2-4.76-7.7-4.1C399,219.27,396.78,223.82,397.71,224.82Z"/><polygon class="cls-7" points="478.66 337.29 519.9 300.41 535.53 321.04 503.65 369.33 478.66 337.29"/><polygon class="cls-7" points="447.37 314.47 447.39 356.67 423 336.04 447.37 314.47"/><rect class="cls-17" x="24.78" y="298.22" width="300.06" height="243.8"/><rect class="cls-18" x="28.29" y="312.5" width="273.36" height="229.31"/><path class="cls-16" d="M155.39,405.47s-4.82-7.73-8.87-15.77c-2.94,5.84-5.48,11.85-5.48,15.18a14.35,14.35,0,1,0,28.69,0c0-3.33-2.54-9.34-5.48-15.18C160.2,397.74,155.39,405.47,155.39,405.47Z"/><g class="cls-19"><path class="cls-20" d="M298.58,427.94v45.15"/><path class="cls-20" d="M225.27,316.87h73.31v68.79"/><path class="cls-20" d="M69.7,316.87h62.19"/></g><rect class="cls-21" x="134.88" y="446.38" width="41.51" height="152.2"/><rect class="cls-22" x="168.63" y="446.38" width="7.75" height="152.2"/><rect class="cls-21" x="106.05" y="576.38" width="103.77" height="25.94"/><rect class="cls-22" x="199.82" y="576.38" width="10" height="25.94"/><rect class="cls-17" x="209.54" y="576.38" width="202.2" height="25.94"/><rect class="cls-18" x="209.54" y="588.32" width="202.2" height="15.2"/><rect class="cls-18" x="209.54" y="588.32" width="202.2" height="15.2"/><rect class="cls-18" x="310.81" y="576.13" width="100.93" height="27.39"/><path class="cls-6" d="M461.22,600.15l2.18-56.89S402,522.08,391.78,526.5s-30,17.46-32.23,20.68-1.78,17.89,12.18,12.1,19.7-9.11,24.58-7.44,24.55,30.89,32.91,35.08S461.22,600.15,461.22,600.15Z"/><path class="cls-23" d="M461.22,593.89s-23.63-9-32-13.23-28-33.4-32.91-35.07-10.61,1.65-24.58,7.44c-8.17,3.39-11.69-.24-12.78-4.47-1.35,4.73.31,15.89,12.78,10.72,14-5.79,19.7-9.11,24.58-7.44s24.55,30.89,32.91,35.08,32,13.23,32,13.23l2.18-56.89-.23-.08Z"/><path class="cls-24" d="M391.78,526.5c-10.23,4.43-30,17.46-32.23,20.68a9.74,9.74,0,0,0-.93,5.65,4.39,4.39,0,0,1,.46-1c2.19-3.21,22-16.25,32.23-20.67S462.93,548,462.93,548l-2,52.09.29.11,2.18-56.89S402,522.08,391.78,526.5Z"/><polygon class="cls-5" points="499.29 537.96 576.18 537.96 570.56 429.18 553.68 519.2 499.29 537.96"/><circle class="cls-25" cx="109.88" cy="208.11" r="60.48" transform="translate(-20.1 11.92) rotate(-5.69)"/><path class="cls-26" d="M101.92,198.09l8.83-5.78-12.7-19.4-8.84,5.79a11.46,11.46,0,0,0-3.55,3.66,13.55,13.55,0,0,0-1.55,16.77l21.6,33A13.53,13.53,0,0,0,124.44,236c.28-.19.55-.38.8-.58s.55-.31.81-.48l8.84-5.79-12.71-19.4-8.83,5.79a11.63,11.63,0,0,0-2.87,2.67L98.32,199.66A11.82,11.82,0,0,0,101.92,198.09Z"/><line class="cls-26" x1="89.13" y1="178.87" x2="102.13" y2="197.71"/><line class="cls-26" x1="114.69" y1="216.54" x2="125.15" y2="234.14"/><path class="cls-25" d="M324.45,61A60.48,60.48,0,1,1,264,.54,60.48,60.48,0,0,1,324.45,61Z"/><rect class="cls-27" x="232.41" y="39.76" width="63.12" height="42.52" rx="1.77"/><path class="cls-27" d="M295.53,41.53V44l-30,22a2.28,2.28,0,0,1-3.19,0L232.41,44.14V41.53a1.77,1.77,0,0,1,1.77-1.77h59.58A1.78,1.78,0,0,1,295.53,41.53Z"/><line class="cls-26" x1="274.07" y1="61.6" x2="294.06" y2="80.31"/><line class="cls-26" x1="255.23" y1="61.6" x2="234.92" y2="80.31"/><path class="cls-25" d="M605.23,60.48A60.48,60.48,0,1,1,544.75,0,60.48,60.48,0,0,1,605.23,60.48Z"/><path class="cls-27" d="M576.47,60.48a31.72,31.72,0,1,1-31.72-31.72A31.72,31.72,0,0,1,576.47,60.48Z"/><path class="cls-27" d="M576.47,60.48a31.72,31.72,0,1,1-31.72-31.72A31.72,31.72,0,0,1,576.47,60.48Z"/><line class="cls-27" x1="563.52" y1="62.39" x2="563.52" y2="58.57"/><line class="cls-27" x1="544.38" y1="71.65" x2="544.68" y2="58.15"/><line class="cls-27" x1="545.6" y1="60.23" x2="537.21" y2="51.83"/><line class="cls-27" x1="546.66" y1="41.71" x2="542.84" y2="41.71"/><line class="cls-27" x1="546.66" y1="79.25" x2="542.84" y2="79.25"/><line class="cls-27" x1="525.98" y1="62.39" x2="525.98" y2="58.57"/><path class="cls-25" d="M754,206.66a60.48,60.48,0,1,1-60.48-60.48A60.48,60.48,0,0,1,754,206.66Z"/><path class="cls-27" d="M727.56,214.86v-16.4h-6.75a28.33,28.33,0,0,0-2.2-5.33l4.77-4.77-11.6-11.59L707,181.54a28.33,28.33,0,0,0-5.33-2.2v-6.75h-16.4v6.75a28.33,28.33,0,0,0-5.33,2.2l-4.76-4.77-11.6,11.59,4.77,4.77a28.33,28.33,0,0,0-2.2,5.33h-6.75v16.4h6.75a28.61,28.61,0,0,0,2.2,5.33L663.6,225l11.6,11.6,4.76-4.77a28.33,28.33,0,0,0,5.33,2.2v6.75h16.4V234a28.33,28.33,0,0,0,5.33-2.2l4.76,4.77,11.6-11.6-4.77-4.76a28.33,28.33,0,0,0,2.2-5.33Zm-34.07,5a13.2,13.2,0,1,1,13.2-13.2A13.2,13.2,0,0,1,693.49,219.86Z"/><path class="cls-28" d="M213.06,210.53a35.35,35.35,0,0,1,35.35-35.35h71.08a35.35,35.35,0,0,1,0,70.7H263.66l-29.51,13.33,7.74-13.94A35.35,35.35,0,0,1,213.06,210.53Z"/><line class="cls-29" x1="241.45" y1="191.23" x2="240.82" y2="191.23"/><path class="cls-26" d="M310.89,197.48h13"/><path class="cls-26" d="M268.09,197.48h33.73"/><path class="cls-26" d="M245.92,197.48h14.33"/><path class="cls-26" d="M289.78,211.23h34.08"/><path class="cls-26" d="M245.92,211.23h35.39"/><path class="cls-26" d="M309.48,225h14.38"/><path class="cls-26" d="M276.78,225h24.85"/><path class="cls-26" d="M245.92,225h23.37"/><line class="cls-30" x1="2" y1="604.38" x2="807.59" y2="604.38"/></g></g></g></svg>