<svg xmlns="http://www.w3.org/2000/svg" viewBox="0 0 664.03 643.65"><defs><style>.cls-1{fill:#fff;}.cls-2,.cls-5{fill:#e0e0e0;}.cls-3{opacity:0.3;}.cls-4{fill:none;}.cls-5{fill-rule:evenodd;}.cls-6{fill:#ebebeb;}.cls-7{fill:#263238;}.cls-8{fill:#92e3a9;}.cls-9{fill:#455a64;}.cls-10{fill:#fafafa;}.cls-11{fill:#ffbe9d;}.cls-12{opacity:0.6;}.cls-13{fill:#eb996e;}</style></defs><g id="Layer_2" data-name="Layer 2"><g id="Layer_1-2" data-name="Layer 1"><g id="freepik--background-complete--inject-8"><rect class="cls-1" x="72.64" y="122.43" width="183.24" height="122.69"/><path class="cls-2" d="M256,245.11V211.73c0-21.32-.08-52-.13-89.26l.26.26H72.86l.34-.32V245.1l-.31-.31,132,.15,37.73.09h.11l-37.63.07-132.22.15H72.6V121.93H256.43v.26c0,37.42-.11,68.12-.15,89.47v31A8.26,8.26,0,0,1,256,245.11Z"/><path class="cls-2" d="M72.64,133.37c0-.17,41-.34,91.55-.34s91.55.17,91.55.34-41,.32-91.55.32S72.64,133.52,72.64,133.37Z"/><g class="cls-3"><path class="cls-2" d="M79.87,127.84a1.47,1.47,0,1,1-1.46-1.46A1.46,1.46,0,0,1,79.87,127.84Z"/></g><g class="cls-3"><circle class="cls-2" cx="83.44" cy="127.84" r="1.46"/></g><g class="cls-3"><path class="cls-2" d="M89.87,127.84a1.47,1.47,0,1,1-1.47-1.46A1.46,1.46,0,0,1,89.87,127.84Z"/></g><rect class="cls-2" x="88.4" y="146.16" width="48.88" height="48.88"/><path class="cls-2" d="M230.76,160c0,.19-19,.33-42.57.33s-42.59-.14-42.59-.33,19-.33,42.59-.33S230.76,159.86,230.76,160Z"/><path class="cls-2" d="M230.76,169.06c0,.18-19,.32-42.57.32s-42.59-.14-42.59-.32,19-.32,42.59-.32S230.76,168.89,230.76,169.06Z"/><path class="cls-2" d="M230.76,178.15c0,.18-19,.32-42.57.32s-42.59-.14-42.59-.32,19-.34,42.59-.34S230.76,178,230.76,178.15Z"/><path class="cls-2" d="M196,187.22a10.1,10.1,0,0,1-2,.14l-5.4.1c-4.55,0-10.84.1-17.78.1s-13.17,0-17.79-.1l-5.4-.1a10.15,10.15,0,0,1-2-.14,12,12,0,0,1,2-.11L153,187c4.55-.07,10.84-.1,17.79-.1s13.17,0,17.78.1l5.4.11A11.9,11.9,0,0,1,196,187.22Z"/><rect class="cls-2" x="91.46" y="211.52" width="22.97" height="22.97"/><rect class="cls-2" x="133.12" y="211.52" width="22.97" height="22.97"/><rect class="cls-2" x="174.77" y="211.52" width="22.97" height="22.97"/><rect class="cls-2" x="216.43" y="211.52" width="22.97" height="22.97"/><path class="cls-4" d="M598.52,162.3a21.85,21.85,0,0,1-3.9,4.08l1,5.14L587.72,175l-3.13-4.2A21.31,21.31,0,0,1,579,171L576,175.37l-8.1-3.12.76-5.18a20.6,20.6,0,0,1-4.08-3.89l-5.14,1L556,156.27l4.2-3.11a21,21,0,0,1-.14-5.65l-4.39-2.93,3.24-8.14,5.18.75a21,21,0,0,1,3.9-4.08l-1-5.14,7.92-3.51,3.06,4.23a21.39,21.39,0,0,1,5.65-.15l2.92-4.39,8.08,3.12-.76,5.18a21.6,21.6,0,0,1,4.1,3.89l5.13-1,3.52,7.92-4.2,3.12a20.88,20.88,0,0,1,.13,5.64l4.39,2.93-3.1,8.08-5.18-.75Zm-8.78-8.78a8.87,8.87,0,1,0,0,.06l0-.12Z"/><path class="cls-2" d="M589.77,153.46a6.9,6.9,0,0,1-1,2.08,9.39,9.39,0,0,1-13.92,1.77,8.86,8.86,0,0,1-1.8-2.06,9,9,0,0,1-1.15-2.62,9.51,9.51,0,0,1,.29-5.94,9.7,9.7,0,0,1,3.76-4.6,9,9,0,0,1,2.62-1.15,9.27,9.27,0,0,1,2.72-.34,9.46,9.46,0,0,1,7.88,4.62,9.28,9.28,0,0,1,1.25,6.11,6.75,6.75,0,0,1-.65,2.19,11.79,11.79,0,0,0,.45-2.22,9.31,9.31,0,0,0-1.38-5.86,9,9,0,0,0-7.56-4.25,8.34,8.34,0,0,0-2.58.32,9,9,0,0,0-6.3,11.08,8.66,8.66,0,0,0,1.09,2.47,8.4,8.4,0,0,0,1.69,2,9.08,9.08,0,0,0,8.45,1.92,9.27,9.27,0,0,0,5-3.44A18.74,18.74,0,0,0,589.77,153.46Z"/><path class="cls-2" d="M598.52,162.3h.32l1,.12,3.88.53h-.09c.79-2.07,1.81-4.8,3.07-8.1V155l-4.39-2.92h-.09V152a21,21,0,0,0-.16-5.6v-.11h.09l4.19-3.14v.23l-3.53-7.9.22.12-5.12,1h-.13l-.09-.12a20.78,20.78,0,0,0-4.06-3.83l-.11-.09v-.13c.23-1.61.48-3.38.74-5.18l.15.25-8.08-3.1.3-.09-2.93,4.39-.09.13h-.15a21.65,21.65,0,0,0-5.57.15h-.16l-.09-.14-3.13-4.18h.32l-7.92,3.53.15-.3c.32,1.61.67,3.37,1,5.12v.17l-.13.1a21.06,21.06,0,0,0-3.85,4h0l-.25.1h-.64l-.66-.1-1.3-.19-2.58-.37.29-.17-3,8-.1-.31,4.39,2.93.13.09v.16a20.78,20.78,0,0,0,.13,5.57v.16l-.13.09-4.2,3.12.09-.31c1.18,2.71,2.34,5.36,3.49,7.93l-.28-.14,5.14-1h.15l.09.11a20.43,20.43,0,0,0,4,3.85l.12.09v.15c-.26,1.77-.53,3.48-.77,5.16l-.14-.23,8.08,3.13-.25.07,2.93-4.39v-.1H579a20.93,20.93,0,0,0,5.59-.13h.11v.09l3.12,4.21h-.19l7.93-3.47v.13c-.39-2.06-.72-3.74-1-5.15h0a21.67,21.67,0,0,0,3.06-2.92l.67-.81.22-.26-.19.29c-.13.19-.33.47-.64.84a19.93,19.93,0,0,1-2.93,3v-.08c.28,1.46.63,3.07,1,5.12v-.07h-.09l-7.9,3.55h-.1l-.09-.1-3.13-4.19.16.08a21.69,21.69,0,0,1-5.69.16l.19-.09-2.93,4.39-.09.13H576l-8.1-3.1h-.16v-.18c.26-1.67.51-3.4.75-5.18l.1.22a21.42,21.42,0,0,1-4.14-3.93l.23.08-5.13,1h-.19l-.09-.18-3.51-7.9-.09-.19.16-.12,4.2-3.13-.1.24a21.84,21.84,0,0,1-.15-5.71l.12.25-4.39-2.93-.18-.12v-.2l3.12-8.08.07-.19h.21l2.59.37,1.29.19.66.1h.64c-.51.22-.13,0-.25.12h0a21.61,21.61,0,0,1,4-4l-.08.27c-.35-1.77-.71-3.53-1-5.14v-.22l.19-.09,7.91-3.5.19-.08.14.16c1.06,1.46,2.13,2.92,3.11,4.2l-.25-.09a22,22,0,0,1,5.73-.15l-.25.12,2.92-4.39.11-.16h.19l8.07,3.13h.18v.18c-.26,1.81-.53,3.58-.76,5.18l-.09-.22a20.79,20.79,0,0,1,4.11,4l-.2-.09,5.14-1h.16l.07.16c1.23,2.78,2.38,5.43,3.5,7.91v.15l-.13.09-4.2,3.11.07-.17a21.68,21.68,0,0,1,.12,5.69l-.08-.14,4.39,2.92H607v.09l-3.16,8.06V163h0l-3.83-.6-1-.18Z"/><path class="cls-5" d="M644.57,137.66a17.59,17.59,0,0,1-3.23,3.39l.83,4.26-6.56,2.93-2.6-3.48a17.06,17.06,0,0,1-4.68.11l-2.42,3.62-6.7-2.59.63-4.29a17.65,17.65,0,0,1-3.4-3.23l-4.25.83-2.93-6.56,3.48-2.6a17.47,17.47,0,0,1-.12-4.68L609,123l2.59-6.7,4.29.63a17.65,17.65,0,0,1,3.23-3.4l-.83-4.25,6.55-2.93,2.61,3.48a17.47,17.47,0,0,1,4.68-.12l2.42-3.61,6.71,2.59-.63,4.29a17.94,17.94,0,0,1,3.4,3.23l4.26-.83,2.92,6.57-3.48,2.59a17.47,17.47,0,0,1,.12,4.68l3.61,2.42-2.59,6.7-4.29-.63Zm-7.32-7.32a7.71,7.71,0,1,0-10,4.38h0a7.7,7.7,0,0,0,10-4.34l0,0Z"/><path class="cls-5" d="M616.27,97.64A27.79,27.79,0,0,1,611.2,103l1.32,6.68-10.24,4.56-4.07-5.46a27.61,27.61,0,0,1-7.32.19l-3.79,5.65-10.5-4,1-6.73a27.55,27.55,0,0,1-5.33-5.07l-6.67,1.32L561,89.81l5.46-4.07a28,28,0,0,1-.19-7.32l-5.65-3.79,4-10.51,6.74,1a27.09,27.09,0,0,1,5-5.4L575.12,53l10.24-4.57,4.07,5.46a28,28,0,0,1,7.32-.19l3.79-5.65L611,52.13l-.95,6.76A27.1,27.1,0,0,1,615.4,64l6.69-1.32,4.57,10.25-5.46,4.06a28,28,0,0,1,.19,7.32l5.66,3.89-4,10.51-6.73-1ZM604.88,86.15a12.09,12.09,0,1,0-15.62,6.93h0a12.07,12.07,0,0,0,15.61-6.92Z"/><path class="cls-2" d="M513,41.85a5.77,5.77,0,0,1,.78-.86L516,38.75c1.89-1.87,4.53-4.39,7.47-7.23h.07v.37c-2.93-2.74-5.62-5.26-7.52-7.09l-2.24-2.18a5.77,5.77,0,0,1-.78-.86,4.25,4.25,0,0,1,.91.72l2.36,2.06c2,1.76,4.67,4.23,7.62,7l.21.18-.21.19-.07.07c-2.93,2.8-5.61,5.31-7.57,7.11l-2.34,2.12A4.23,4.23,0,0,1,513,41.85Z"/><path class="cls-2" d="M490.1,21.7a5.46,5.46,0,0,1-.78.88l-2.15,2.22c-1.89,1.88-4.52,4.39-7.46,7.23l-.08.08v-.38c2.93,2.75,5.62,5.25,7.52,7.08L489.39,41a6.24,6.24,0,0,1,.78.85,4.09,4.09,0,0,1-.91-.7c-.64-.56-1.46-1.26-2.35-2.06-2-1.77-4.66-4.23-7.63-7l-.19-.19.19-.19h.08c2.92-2.81,5.6-5.33,7.56-7.13l2.34-2.11A4.21,4.21,0,0,1,490.1,21.7Z"/><path class="cls-2" d="M496,46.59c-.13,0,2.27-6.79,5.36-15s5.7-14.93,5.85-14.87-2.25,6.79-5.36,15.05S496.11,46.65,496,46.59Z"/><path class="cls-2" d="M538.91,61V44.37c0-10.57,0-25.67-.11-43.9l.22.22H464.74L465,.42V61l-.23-.23,53.64.12h15.31l-15.16.07L464.77,61h-.24V0h74.76V.22c0,18.26-.08,33.42-.11,44V59.68A3.62,3.62,0,0,1,538.91,61Z"/><path class="cls-2" d="M539.5,9.47c0,.14-16.77.26-37.45.26s-37.46-.12-37.46-.26,16.77-.27,37.46-.27S539.5,9.32,539.5,9.47Z"/><path class="cls-2" d="M470.69,5.05a1,1,0,0,1-1,1h0a1,1,0,1,1,1-1Z"/><circle class="cls-2" cx="473.33" cy="5.05" r="1"/><path class="cls-2" d="M478,5.05a1,1,0,1,1-1-1,1,1,0,0,1,1,1Z"/><rect class="cls-1" x="223.53" y="29.68" width="171.77" height="69.77"/><path class="cls-2" d="M395.3,99.45V80.7c0-12,0-29.45-.1-51l.19.19L223.63,30h0l.13-.34V99.39l-.26-.26,123.16.13,35.72.07H346.77l-123.33.12h-.26V29.15H395.42v.47c0,21.61-.08,39.07-.11,51.14V98.19C395.31,99,395.3,99.45,395.3,99.45Z"/><path class="cls-2" d="M223.76,39.09c0-.15,38.4-.27,85.76-.27s85.75.12,85.75.27-38.38.27-85.75.27S223.76,39.25,223.76,39.09Z"/><g class="cls-3"><path class="cls-6" d="M230.89,34.89a1.25,1.25,0,0,1-1.24,1.24h0a1.25,1.25,0,1,1,1.24-1.24Z"/></g><g class="cls-3"><path class="cls-6" d="M235.16,34.89a1.24,1.24,0,0,1-1.24,1.24h0a1.25,1.25,0,1,1,1.24-1.24Z"/></g><g class="cls-3"><circle class="cls-6" cx="238.12" cy="34.89" r="1.24"/></g><rect class="cls-2" x="238.12" y="50.43" width="41.49" height="41.49"/><path class="cls-2" d="M383.42,61.55c0,.15-21.35.28-47.68.28s-47.69-.13-47.69-.28,21.35-.28,47.69-.28S383.42,61.4,383.42,61.55Z"/><path class="cls-2" d="M383.42,70c0,.14-21.35.26-47.68.26s-47.69-.12-47.69-.26,21.35-.28,47.69-.28S383.42,69.85,383.42,70Z"/><path class="cls-2" d="M349.44,78.45a2.15,2.15,0,0,1-.62,0H347l-6.57.09-21.7.09L297,78.54l-6.57-.09h-1.8a2.08,2.08,0,0,1-.61,0,3.11,3.11,0,0,1,.61,0h1.8l6.57-.09h43.42l6.57.09h1.8A3.21,3.21,0,0,1,349.44,78.45Z"/></g><g id="freepik--Floor--inject-8"><path class="cls-7" d="M664,603.39c0,.21-146,.38-326.11.38s-326.14-.17-326.14-.38,146-.38,326.14-.38S664,603.17,664,603.39Z"/></g><g id="freepik--Screens--inject-8"><rect class="cls-2" x="403.8" y="150.21" width="205.06" height="167.06"/><rect class="cls-6" x="389.23" y="160.82" width="205.06" height="167.06"/><rect class="cls-1" x="369.13" y="172.46" width="210.53" height="171.52"/><path class="cls-7" d="M579.67,344V331.66c0-8,0-19.77-.07-34.76,0-29.94-.11-72.77-.18-124.38l.32.32H369.24l.38-.38V344l-.35-.35,152.19.17,43,.09h.13l-43,.09-152.35.17H369V171.92H580.21v.32c-.07,51.74-.13,94.65-.16,124.65,0,14.94-.07,26.68-.09,34.68v9.09A16.3,16.3,0,0,1,579.67,344Z"/><path class="cls-8" d="M394.8,197.25l-2.27.82,2.27.83v.85l-3.23-1.23v-.89l3.23-1.23Z"/><path class="cls-8" d="M400.13,195.7v4.75H399v-1.94h-2.16v1.94h-1.1V195.7h1.1v1.87H399V195.7Z"/><path class="cls-8" d="M402.29,196.59h-1.46v-.89H405v.89h-1.46v3.86h-1.22Z"/><path class="cls-8" d="M409.77,200.45v-2.92l-1.46,2.34h-.5l-1.39-2.29v2.8h-1v-4.76h.91l1.78,2.93,1.76-2.93h.89v4.76Z"/><path class="cls-8" d="M411.92,195.7H413v3.86h2.44v.89H412Z"/><path class="cls-8" d="M419.09,197.63v.89l-3.22,1.23v-.85l2.26-.83-2.26-.82v-.81Z"/><path class="cls-8" d="M392.88,327.31l-2.29.84,2.27.82v.84l-3.24-1.23v-.89l3.24-1.23Z"/><path class="cls-8" d="M395.3,324.79h.95l-2.24,6.4h-.95Z"/><path class="cls-8" d="M400.83,325.76v4.76h-1.11v-1.95h-2.11v1.95h-1.1v-4.76h1.1v1.87h2.15v-1.87Z"/><path class="cls-8" d="M403,326.68H401.5v-.89h4.13v.89h-1.46v3.87h-1.11Z"/><path class="cls-8" d="M410.5,330.52v-2.86L409,330h-.5l-1.39-2.3v2.8h-1v-4.76H407l1.77,2.93,1.75-2.93h.91v4.76Z"/><path class="cls-8" d="M412.65,325.76h1.1v3.85h2.39v.89h-3.49Z"/><path class="cls-8" d="M419.85,327.69v.89l-3.23,1.23V329l2.27-.82-2.27-.84v-.85Z"/><path d="M409.71,210.26l-2.41.92,2.41.94v.55l-3-1.2v-.58l3-1.2Z"/><path d="M415,208.81v4.75h-.67v-2.12h-2.72v2.12h-.69v-4.75h.69v2.05h2.72v-2.05Z"/><path d="M419.85,213v.6H416.4v-4.75h3.37v.58h-2.68v1.47h2.38v.57h-2.38v1.46Z"/><path d="M424,212.36h-2.53l-.51,1.2h-.7l2.15-4.75H423l2.15,4.75h-.72Zm-.23-.54-1-2.32-1,2.32Z"/><path d="M425.88,208.81h2a2.38,2.38,0,0,1,.37,4.75h-2.38Zm2,4.15a1.79,1.79,0,1,0,0-3.57h-1.28V213Z"/><path d="M434.27,210.89v.58l-3,1.2v-.55l2.41-.94-2.41-.92v-.57Z"/><path d="M409.71,226.53l-2.41.92,2.41.94v.55l-3-1.2v-.57l3-1.2Z"/><path d="M411.82,225.71h-1.64v-.59h3.94v.59h-1.58v4.17h-.68Z"/><path d="M414.85,225.08h.69v4.76h-.69Z"/><path d="M417.89,225.71h-1.62v-.59h3.92v.59h-1.62v4.17h-.68Z"/><path d="M420.94,225.08h.67v4.16h2.63v.6H421Z"/><path d="M428.42,229.24v.6H425v-4.76h3.35v.59h-2.6v1.46h2.38v.58h-2.38v1.47Z"/><path d="M432.29,227.17v.59l-3,1.2v-.56l2.41-.93-2.41-.93V226Z"/><path d="M435.28,225.08H436v4.16h2.58v.6h-3.25Z"/><path d="M438.88,228a1.87,1.87,0,1,1,1.9,1.84h0a1.79,1.79,0,0,1-1.87-1.69Zm3.07,0a1.22,1.22,0,1,0,0,.26A1.13,1.13,0,0,0,442,228Z"/><path d="M445.4,226.21v.63h-.14a1.08,1.08,0,0,0-1.15,1,1.34,1.34,0,0,0,0,.2v1.8h-.65v-3.6h.62v.6A1.36,1.36,0,0,1,445.4,226.21Z"/><path d="M449.4,228.26h-2.93a1.22,1.22,0,0,0,1.31,1.05,1.34,1.34,0,0,0,1-.44l.36.43a2,2,0,0,1-3.36-1.26,1.78,1.78,0,0,1,1.72-1.83h.1a1.72,1.72,0,0,1,1.77,1.68v.16A.74.74,0,0,1,449.4,228.26Zm-2.93-.47h2.32a1.16,1.16,0,0,0-2.32,0Z"/><path d="M456.29,227.76v2.08h-.66v-2c0-.7-.33-1-.92-1a1,1,0,0,0-1.09,1,1.41,1.41,0,0,0,0,.2v1.86H453v-2c0-.7-.34-1-.92-1a1,1,0,0,0-1.09,1,.69.69,0,0,0,0,.2v1.86h-.65v-3.6h.62v.54a1.43,1.43,0,0,1,1.24-.57,1.33,1.33,0,0,1,1.26.66,1.57,1.57,0,0,1,1.37-.66,1.37,1.37,0,0,1,1.49,1.25A1,1,0,0,1,456.29,227.76Z"/><path d="M459.19,225.12a.42.42,0,0,1,.42-.42h0a.41.41,0,0,1,.44.38v0a.43.43,0,0,1-.41.44h0a.43.43,0,0,1-.44-.41Zm.12,1.12H460v3.6h-.6Z"/><path d="M464.93,228a1.76,1.76,0,0,1-1.67,1.84h-.15a1.57,1.57,0,0,1-1.26-.58v1.85h-.66v-4.91h.63v.57a1.55,1.55,0,0,1,1.29-.6,1.74,1.74,0,0,1,1.82,1.66Zm-.66,0a1.22,1.22,0,1,0-2.43,0,1.22,1.22,0,0,0,2.43,0Z"/><path d="M465.37,229.46l.27-.52a2.37,2.37,0,0,0,1.26.37c.6,0,.87-.18.87-.48,0-.82-2.29-.12-2.29-1.55,0-.65.59-1.07,1.47-1.07a2.58,2.58,0,0,1,1.3.32L468,227a2,2,0,0,0-1-.28c-.57,0-.85.21-.85.5,0,.84,2.29.15,2.29,1.55,0,.65-.6,1.07-1.56,1.07A2.72,2.72,0,0,1,465.37,229.46Z"/><path d="M472.54,226.24v3.6h-.62v-.54a1.54,1.54,0,0,1-2.78-1v-2.06h.66v2c0,.71.35,1.07,1,1.07a1.07,1.07,0,0,0,1.12-1,1.48,1.48,0,0,0,0-.21v-1.86Z"/><path d="M479.85,227.76v2.08h-.64v-2c0-.7-.34-1-.94-1a1.05,1.05,0,0,0-1.08,1c0,.06,0,.13,0,.19v1.86h-.65v-2c0-.7-.34-1-.93-1a1,1,0,0,0-1.09,1,1.41,1.41,0,0,0,0,.2v1.86h-.66v-3.6h.63v.54a1.45,1.45,0,0,1,1.25-.57,1.3,1.3,0,0,1,1.24.66,1.61,1.61,0,0,1,1.39-.66,1.35,1.35,0,0,1,1.47,1.24A1.08,1.08,0,0,1,479.85,227.76Z"/><path d="M485.71,226.53l-2.4.92,2.4.94v.55l-3-1.2v-.57l3-1.2Z"/><path d="M488.18,224.11h.6l-2.24,6.4h-.6Z"/><path d="M490.37,225.71h-1.62v-.59h3.94v.59h-1.64v4.17h-.68Z"/><path d="M493.42,225.08h.67v4.76h-.67Z"/><path d="M496.46,225.71h-1.62v-.59h3.92v.59h-1.62v4.17h-.68Z"/><path d="M499.51,225.08h.67v4.16h2.57v.6h-3.24Z"/><path d="M507,229.24v.6h-3.45v-4.76h3.35v.59H504.2v1.46h2.39v.58H504.2v1.47Z"/><path d="M510.86,227.17v.59l-3,1.2v-.56l2.41-.93-2.41-.93V226Z"/><path d="M409.71,242.8l-2.41.94,2.41.92v.57l-3-1.21v-.57l3-1.22Z"/><path d="M412.22,240.34h.58l-2.24,6.4H410Z"/><path d="M417.34,241.35v4.76h-.68V244H414v2.12h-.69v-4.76H414v2.05h2.72v-2.05Z"/><path d="M422.21,245.51v.6h-3.44v-4.76h3.35v.6h-2.68v1.47h2.39V244h-2.39v1.47Z"/><path d="M426.34,244.92h-2.53l-.52,1.19h-.7l2.15-4.76h.68l2.15,4.76h-.71Zm-.24-.54-1-2.34-1,2.34Z"/><path d="M428.27,241.35h2a2.39,2.39,0,1,1,.38,4.76h-2.38Zm2,4.16a1.79,1.79,0,0,0,.32-3.56H429v3.56Z"/><path d="M436.65,243.45V244l-3,1.21v-.5l2.41-.92-2.41-.93v-.58Z"/><path d="M397.1,256.92l-2.4.94,2.4.92v.59l-3-1.2v-.59l3-1.2Z"/><path d="M402.29,258.94c0,.82-.61,1.29-1.81,1.29h-2.27v-4.76h2.12c1.1,0,1.72.47,1.72,1.23a1.21,1.21,0,0,0-.5,1.65,1.24,1.24,0,0,0,.74.59ZM398.88,256v1.46h1.47c.7,0,1.08-.26,1.08-.76s-.38-.76-1.08-.76Zm2.73,2.92c0-.55-.41-.8-1.16-.8h-1.57v1.58h1.57c.81-.05,1.21-.28,1.21-.82Z"/><path d="M403,257.9a2.53,2.53,0,1,1,2.63,2.43h-.1A2.41,2.41,0,0,1,403,258Zm4.39,0a1.86,1.86,0,1,0-1.9,1.82h.06a1.8,1.8,0,0,0,1.83-1.74v-.08Z"/><path d="M409.1,255.47h2a2.39,2.39,0,0,1,.38,4.76h-2.38Zm2,4.18a1.79,1.79,0,1,0,0-3.58h-1.29v3.58Z"/><path d="M416.31,258.59v1.64h-.67v-1.65l-1.89-3.11h.73L416,258l1.46-2.52h.67Z"/><path d="M421.67,257.57v.58l-3,1.2v-.57l2.41-.92-2.41-.94v-.48Z"/><path d="M397.1,273.2l-2.4.93,2.4.92v.58l-3-1.2v-.59l3-1.2Z"/><path d="M402.29,271.76v4.74h-.67v-2.1h-2.74v2.1h-.67v-4.74h.67v2h2.74v-2Z"/><path d="M404.86,271.76v4.74h-.68v-4.15h-1.07v-.59Z"/><path d="M409.07,273.84v.59l-3,1.2v-.58l2.41-.92L406,273.2v-.56Z"/><path d="M412.11,271.76h.5v4.32h2.66v.42h-3.16Z"/><path d="M415.6,274.72a1.81,1.81,0,0,1,1.83-1.8,1.82,1.82,0,0,1,0,3.63,1.75,1.75,0,0,1-1.81-1.7A.29.29,0,0,1,415.6,274.72Zm3.13,0a1.33,1.33,0,1,0-1.32,1.39,1.31,1.31,0,0,0,1.32-1.29Z"/><path d="M422,272.9v.47h-.12a1.15,1.15,0,0,0-1.21,1.1,1.62,1.62,0,0,0,0,.22v1.81h-.48v-3.57h.45v.71A1.46,1.46,0,0,1,422,272.9Z"/><path d="M425.94,274.86H423a1.32,1.32,0,0,0,1.41,1.25h.05a1.5,1.5,0,0,0,1.1-.47l.26.32a1.76,1.76,0,0,1-1.38.59,1.78,1.78,0,0,1-1.87-1.67v-.16a1.72,1.72,0,0,1,1.64-1.81h.1a1.71,1.71,0,0,1,1.73,1.67v.15Zm-2.92-.35h2.53a1.27,1.27,0,0,0-2.53,0Z"/><path d="M432.82,274.44v2.06h-.48v-2c0-.74-.38-1.14-1-1.14a1.14,1.14,0,0,0-1.19,1.09,1.34,1.34,0,0,0,0,.2v1.87h-.49v-2c0-.74-.38-1.14-1-1.14a1.16,1.16,0,0,0-1.21,1.11,1.09,1.09,0,0,0,0,.18v1.87h-.49v-3.57h.47v.66a1.49,1.49,0,0,1,1.32-.69,1.3,1.3,0,0,1,1.26.76,1.57,1.57,0,0,1,1.46-.76,1.36,1.36,0,0,1,1.4,1.32A1.55,1.55,0,0,1,432.82,274.44Z"/><path d="M435.79,271.81a.35.35,0,0,1,.35-.34.34.34,0,0,1,.35.32v0a.35.35,0,0,1-.35.35A.35.35,0,0,1,435.79,271.81Zm.1,1.12h.49v3.57H436Z"/><path d="M441.34,274.72a1.74,1.74,0,0,1-1.65,1.83h-.12a1.55,1.55,0,0,1-1.36-.72v2h-.49v-4.89h.47v.71a1.58,1.58,0,0,1,1.38-.74,1.74,1.74,0,0,1,1.77,1.68Zm-.47,0a1.33,1.33,0,1,0-1.33,1.33,1.33,1.33,0,0,0,1.33-1.33Z"/><path d="M441.81,276.09l.21-.38a2.1,2.1,0,0,0,1.28.41c.67,0,.95-.23.95-.58,0-.94-2.31-.21-2.31-1.61,0-.59.51-1,1.46-1a2.43,2.43,0,0,1,1.26.34l-.21.4a1.8,1.8,0,0,0-1.05-.31c-.64,0-.94.25-.94.58,0,1,2.32.24,2.32,1.61,0,.62-.55,1-1.47,1A2.25,2.25,0,0,1,441.81,276.09Z"/><path d="M448.86,272.93v3.57h-.47v-.64a1.46,1.46,0,0,1-1.27.69,1.38,1.38,0,0,1-1.47-1.28,1.13,1.13,0,0,1,0-.26v-2.08h.49v2c0,.76.38,1.16,1.06,1.16a1.16,1.16,0,0,0,1.23-1.09,1.48,1.48,0,0,0,0-.21v-1.88Z"/><path d="M456.09,274.44v2.06h-.47v-2c0-.74-.38-1.14-1-1.14a1.14,1.14,0,0,0-1.19,1.09.67.67,0,0,0,0,.2v1.87h-.49v-2c0-.74-.38-1.14-1-1.14a1.15,1.15,0,0,0-1.19,1.12,1,1,0,0,0,0,.17v1.87h-.49v-3.57h.46v.66a1.48,1.48,0,0,1,1.32-.69,1.32,1.32,0,0,1,1.27.76,1.46,1.46,0,0,1,1.46-.76,1.38,1.38,0,0,1,1.39,1.34A1.34,1.34,0,0,1,456.09,274.44Z"/><path d="M462.42,271.47v5H462v-.7a1.55,1.55,0,0,1-1.38.75,1.83,1.83,0,0,1,0-3.65,1.6,1.6,0,0,1,1.37.72v-2.15Zm-.46,3.25a1.34,1.34,0,1,0-1.32,1.39,1.31,1.31,0,0,0,1.32-1.29Z"/><path d="M463.4,274.72a1.83,1.83,0,1,1,1.83,1.83,1.79,1.79,0,0,1-1.83-1.71Zm3.15,0a1.33,1.33,0,1,0-2.66.12,1.33,1.33,0,0,0,1.34,1.27,1.31,1.31,0,0,0,1.32-1.29Z"/><path d="M468,271.47h.47v5H468Z"/><path d="M469.49,274.72a1.82,1.82,0,1,1,1.82,1.83,1.76,1.76,0,0,1-1.82-1.7Zm3.13,0a1.33,1.33,0,1,0-2.66.12,1.34,1.34,0,0,0,1.35,1.27,1.31,1.31,0,0,0,1.32-1.29.34.34,0,0,0,0-.1Z"/><path d="M475.9,272.9v.47h-.12a1.17,1.17,0,0,0-1.21,1.1,1.62,1.62,0,0,0,0,.22v1.81h-.48v-3.57h.46v.71A1.45,1.45,0,0,1,475.9,272.9Z"/><path d="M478.1,276.09l.22-.38a2,2,0,0,0,1.27.41c.67,0,1-.23,1-.58,0-.94-2.31-.21-2.31-1.61,0-.59.5-1,1.46-1a2.44,2.44,0,0,1,1.27.34l-.21.4a1.83,1.83,0,0,0-1.06-.31c-.64,0-.92.25-.92.58,0,1,2.31.24,2.31,1.61,0,.62-.54,1-1.46,1A2.29,2.29,0,0,1,478.1,276.09Z"/><path d="M481.8,271.81a.35.35,0,0,1,.35-.34.34.34,0,0,1,.35.32v0a.35.35,0,0,1-.7,0Zm.12,1.12h.46v3.57h-.46Z"/><path d="M485.62,276.28a1.18,1.18,0,0,1-.76.27.94.94,0,0,1-1-.82.81.81,0,0,1,0-.22v-2.17h-.65v-.41h.65v-.77h.42v.77h1.09v.41h-1.09v2.12a.58.58,0,0,0,.49.65h.13a.82.82,0,0,0,.52-.18Z"/><path d="M491,274.29v2.21h-.47V276a1.33,1.33,0,0,1-1.23.6c-.8,0-1.3-.43-1.3-1s.35-1,1.38-1h1.14v-.2a.89.89,0,0,0-.79-1,.79.79,0,0,0-.22,0,1.77,1.77,0,0,0-1.19.42l-.22-.36a2.31,2.31,0,0,1,1.47-.49A1.29,1.29,0,0,1,491,274,1.4,1.4,0,0,1,491,274.29Zm-.48,1.15v-.59h-1.13c-.69,0-.91.28-.91.64s.34.68.9.68a1.15,1.15,0,0,0,1.14-.71Z"/><path d="M498.16,274.44v2.06h-.48v-2c0-.74-.38-1.14-1-1.14a1.15,1.15,0,0,0-1.2,1.11,1.08,1.08,0,0,0,0,.18v1.87H495v-2c0-.74-.38-1.14-1-1.14a1.16,1.16,0,0,0-1.2,1.11v2.05h-.48v-3.57h.47v.66a1.47,1.47,0,0,1,1.3-.69,1.31,1.31,0,0,1,1.28.76,1.54,1.54,0,0,1,1.46-.76,1.36,1.36,0,0,1,1.4,1.32A1.55,1.55,0,0,1,498.16,274.44Z"/><path d="M502.58,274.86h-2.93a1.33,1.33,0,0,0,1.41,1.25h.06a1.46,1.46,0,0,0,1.09-.47l.27.32a1.89,1.89,0,0,1-3.25-1.08v-.16a1.74,1.74,0,1,1,3.48,0S502.58,274.82,502.58,274.86Zm-2.93-.35h2.53a1.27,1.27,0,0,0-1.4-1.13A1.3,1.3,0,0,0,499.65,274.51Z"/><path d="M505.45,276.28a1.15,1.15,0,0,1-.75.27,1,1,0,0,1-1.05-.84.67.67,0,0,1,0-.2v-2.17H503v-.41h.63v-.77h.48v.77h1.08v.41h-1.08v2.12a.58.58,0,0,0,.49.65h.12a.78.78,0,0,0,.53-.18Z"/><path d="M506.81,276.17a1.07,1.07,0,0,1-.1.39l-.28.94h-.34l.24-1a.34.34,0,0,1-.25-.35.36.36,0,0,1,.36-.37.35.35,0,0,1,.37.34Z"/><path d="M509.24,274.72a1.76,1.76,0,0,1,1.69-1.82h.15a1.61,1.61,0,0,1,1.46.72l-.36.23a1.23,1.23,0,0,0-1-.52,1.46,1.46,0,0,0,0,2.78,1.22,1.22,0,0,0,1-.51l.36.23a1.61,1.61,0,0,1-1.46.72,1.77,1.77,0,0,1-1.84-1.7Z"/><path d="M513,274.72a1.82,1.82,0,1,1,1.83,1.83,1.77,1.77,0,0,1-1.83-1.71Zm3.14,0a1.3,1.3,0,0,0-1.13-1.46h-.18a1.47,1.47,0,0,0-.94,1.85,1.51,1.51,0,0,0,.94.94,1.3,1.3,0,0,0,1.31-1.29Z"/><path d="M520.9,274.44v2.06h-.48v-2a1,1,0,0,0-.84-1.13h-.23a1.17,1.17,0,0,0-1.26,1.08.74.74,0,0,0,0,.21v1.87h-.48v-3.57h.47v.66a1.47,1.47,0,0,1,1.36-.69,1.39,1.39,0,0,1,1.47,1.28A2.26,2.26,0,0,1,520.9,274.44Z"/><path d="M521.71,276.09l.21-.38a2,2,0,0,0,1.28.41c.67,0,.95-.23.95-.58,0-.94-2.31-.21-2.31-1.61,0-.59.49-1,1.46-1a2.44,2.44,0,0,1,1.27.34l-.22.4a1.8,1.8,0,0,0-1.05-.31c-.64,0-.92.25-.92.58,0,1,2.31.24,2.31,1.61,0,.62-.54,1-1.46,1A2.29,2.29,0,0,1,521.71,276.09Z"/><path d="M528.63,274.86H525.7a1.33,1.33,0,0,0,1.41,1.25h0a1.47,1.47,0,0,0,1.1-.47l.26.32a1.74,1.74,0,0,1-1.37.59,1.77,1.77,0,0,1-1.87-1.67.43.43,0,0,1,0-.16,1.72,1.72,0,0,1,1.63-1.81H527a1.71,1.71,0,0,1,1.73,1.67.76.76,0,0,1,0,.15Zm-2.93-.35h2.44a1.27,1.27,0,0,0-1.4-1.13,1.3,1.3,0,0,0-1.13,1.13Z"/><path d="M529.26,274.72A1.76,1.76,0,0,1,531,272.9h.15a1.56,1.56,0,0,1,1.46.72l-.35.23a1.24,1.24,0,0,0-1-.52,1.46,1.46,0,0,0,0,2.78,1.25,1.25,0,0,0,1-.51l.35.23a1.56,1.56,0,0,1-1.46.72,1.77,1.77,0,0,1-1.84-1.7A.29.29,0,0,1,529.26,274.72Z"/><path d="M535.36,276.28a1.18,1.18,0,0,1-.76.27.94.94,0,0,1-1-.82.81.81,0,0,1,0-.22v-2.17h-.65v-.41h.65v-.77H534v.77h1.08v.41H534v2.12a.58.58,0,0,0,.49.65h.12a.85.85,0,0,0,.53-.18Z"/><path d="M539.21,274.86h-2.93a1.33,1.33,0,0,0,1.41,1.25h0a1.47,1.47,0,0,0,1.1-.47l.26.32a1.74,1.74,0,0,1-1.37.59,1.77,1.77,0,0,1-1.87-1.67.43.43,0,0,1,0-.16,1.74,1.74,0,0,1,3.48,0S539.21,274.82,539.21,274.86Zm-2.93-.35h2.53a1.27,1.27,0,0,0-2.53,0Z"/><path d="M542.08,276.28a1.21,1.21,0,0,1-.77.27.94.94,0,0,1-1-.86.54.54,0,0,1,0-.18v-2.17h-.65v-.41h.65v-.77h.48v.77h1.08v.41h-1.08v2.12a.58.58,0,0,0,.49.65h.12a.79.79,0,0,0,.53-.18Z"/><path d="M546.16,272.93v3.57h-.46v-.64a1.49,1.49,0,0,1-2.75-.77v-2.16h.49v2c0,.76.39,1.16,1.06,1.16a1.16,1.16,0,0,0,1.23-1.09,1.48,1.48,0,0,0,0-.21v-1.88Z"/><path d="M550.62,274.86h-2.93a1.33,1.33,0,0,0,1.38,1.26h.09a1.39,1.39,0,0,0,1.08-.47l.28.32a1.89,1.89,0,0,1-3.25-1.24,1.7,1.7,0,0,1,1.61-1.81H549a1.71,1.71,0,0,1,1.73,1.67v.15Zm-2.93-.35h2.54a1.28,1.28,0,0,0-2.54,0Z"/><path d="M553.4,272.9v.47h-.12a1.17,1.17,0,0,0-1.21,1.1,1.62,1.62,0,0,0,0,.22v1.81h-.52v-3.57H552v.71A1.33,1.33,0,0,1,553.4,272.9Z"/><path d="M397,282.43v2.21h-.46v-.56a1.34,1.34,0,0,1-1.23.6c-.8,0-1.3-.42-1.3-1s.35-1,1.38-1h1.08v-.21a.88.88,0,0,0-1-1,1.82,1.82,0,0,0-1.18.43l-.22-.37a2.31,2.31,0,0,1,1.46-.48,1.27,1.27,0,0,1,1.47,1A1.6,1.6,0,0,1,397,282.43Zm-.49,1.14V283h-1.11c-.69,0-.92.27-.92.64s.34.67.91.67a1.13,1.13,0,0,0,1.08-.73Z"/><path d="M401.55,279.61v5h-.46v-.7a1.55,1.55,0,0,1-1.39.74,1.83,1.83,0,0,1,0-3.64,1.53,1.53,0,0,1,1.36.72v-2.15Zm-.47,3.24a1.33,1.33,0,1,0-1.33,1.39,1.3,1.3,0,0,0,1.33-1.27v-.12Z"/><path d="M402.78,279.94a.36.36,0,0,1,.71,0h0a.36.36,0,0,1-.71,0Zm.11,1.13h.49v3.57h-.49Z"/><path d="M408.34,282.85a1.74,1.74,0,0,1-1.65,1.83h-.14a1.55,1.55,0,0,1-1.36-.71v2h-.48v-4.89h.51v.72a1.55,1.55,0,0,1,1.38-.75,1.74,1.74,0,0,1,1.74,1.74Zm-.48,0a1.34,1.34,0,1,0-1.34,1.34A1.34,1.34,0,0,0,407.86,282.85Z"/><path d="M409.2,279.94a.34.34,0,0,1,.35-.33.32.32,0,0,1,.35.32h0a.34.34,0,0,1-.35.35A.35.35,0,0,1,409.2,279.94Zm.12,1.13h.48v3.57h-.48Z"/><path d="M410.64,284.24l.21-.38a2.1,2.1,0,0,0,1.28.41c.67,0,.95-.23.95-.58,0-.94-2.31-.21-2.31-1.61,0-.59.49-1,1.46-1a2.53,2.53,0,0,1,1.26.34l-.21.4a1.8,1.8,0,0,0-1-.31c-.64,0-.94.25-.94.58,0,1,2.32.24,2.32,1.61,0,.62-.55,1-1.47,1A2.25,2.25,0,0,1,410.64,284.24Z"/><path d="M414.09,282.85a1.75,1.75,0,0,1,1.69-1.81h.15a1.59,1.59,0,0,1,1.47.72L417,282a1.27,1.27,0,0,0-1-.53,1.47,1.47,0,0,0-.93,1.85,1.44,1.44,0,0,0,.93.93,1.2,1.2,0,0,0,1-.51l.37.24a1.58,1.58,0,0,1-1.47.71,1.77,1.77,0,0,1-1.84-1.69Z"/><path d="M418.16,279.94a.35.35,0,0,1,.7,0h0a.35.35,0,0,1-.35.35A.34.34,0,0,1,418.16,279.94Zm.11,1.13h.49v3.57h-.49Z"/><path d="M423.38,282.58v2.06h-.48v-2a1,1,0,0,0-.84-1.13.59.59,0,0,0-.23,0,1.17,1.17,0,0,0-1.26,1.07.81.81,0,0,0,0,.22v1.87h-.48v-3.57h.47v.66a1.46,1.46,0,0,1,1.36-.69,1.38,1.38,0,0,1,1.47,1.27A2.44,2.44,0,0,1,423.38,282.58Z"/><path d="M428,281.07v3.17A1.57,1.57,0,0,1,426.7,286a1.93,1.93,0,0,1-.48,0,2.54,2.54,0,0,1-1.67-.56l.25-.36a2.1,2.1,0,0,0,1.46.48c.91,0,1.32-.41,1.32-1.29v-.45a1.62,1.62,0,0,1-1.39.69,1.74,1.74,0,0,1-.32-3.47h.32a1.59,1.59,0,0,1,1.46.72v-.69Zm-.47,1.7a1.38,1.38,0,0,0-1.32-1.41,1.36,1.36,0,0,0-1.4,1.32,1.35,1.35,0,0,0,1.31,1.4h.05a1.26,1.26,0,0,0,1.35-1.18.49.49,0,0,0,0-.12Z"/><path d="M434.24,283h-2.93a1.31,1.31,0,0,0,1.37,1.23h.1a1.35,1.35,0,0,0,1.08-.46l.28.32a1.88,1.88,0,0,1-2.67,0,1.83,1.83,0,0,1-.58-1.3,1.71,1.71,0,0,1,1.6-1.81h.14a1.7,1.7,0,0,1,1.73,1.66v.15Zm-2.93-.37h2.53a1.27,1.27,0,0,0-2.53,0Z"/><path d="M435.22,279.61h.48v5h-.48Z"/><path d="M436.93,279.94a.34.34,0,0,1,.35-.33.35.35,0,0,1,.37.33h0a.37.37,0,0,1-.72,0Zm.12,1.13h.48v3.57h-.48Z"/><path d="M440.75,284.42a1.07,1.07,0,0,1-.74.26,1,1,0,0,1-1.06-.83,1.47,1.47,0,0,1,0-.21v-2.16h-.64v-.41H439v-.78h.48v.78h1.09v.41h-1.09v2.14a.58.58,0,0,0,.49.64h.13a.79.79,0,0,0,.53-.18Z"/><path d="M442.1,284.24a.9.9,0,0,1-.09.4l-.29.94h-.32l.23-1a.37.37,0,0,1-.25-.36.36.36,0,0,1,.37-.36.35.35,0,0,1,.35.35Z"/><path d="M444.41,284.24l.22-.38a2,2,0,0,0,1.27.41c.68,0,1-.23,1-.58,0-.94-2.31-.21-2.31-1.61,0-.59.5-1,1.46-1a2.61,2.61,0,0,1,1.28.34l-.22.4a1.8,1.8,0,0,0-1.06-.31c-.64,0-.92.25-.92.58,0,1,2.32.24,2.32,1.61,0,.62-.55,1-1.47,1A2.32,2.32,0,0,1,444.41,284.24Z"/><path d="M451.33,283H448.4a1.35,1.35,0,0,0,1.43,1.23h0a1.49,1.49,0,0,0,1.1-.46l.26.32a1.89,1.89,0,0,1-3.25-1.25,1.71,1.71,0,0,1,1.61-1.81h.13a1.7,1.7,0,0,1,1.73,1.66v.15Zm-2.93-.37h2.54a1.28,1.28,0,0,0-2.54,0Z"/><path d="M455.58,279.61v5h-.47v-.7a1.47,1.47,0,0,1-1.38.74,1.83,1.83,0,0,1,0-3.64,1.53,1.53,0,0,1,1.36.72v-2.15Zm-.47,3.24a1.34,1.34,0,0,0-1.39-1.27,1.33,1.33,0,0,0,.06,2.66,1.3,1.3,0,0,0,1.33-1.27Z"/><path d="M462,279.61v5h-.47v-.7a1.54,1.54,0,0,1-1.38.74,1.83,1.83,0,0,1,0-3.64,1.55,1.55,0,0,1,1.36.72v-2.15Zm-.49,3.24a1.33,1.33,0,1,0-1.31,1.39,1.3,1.3,0,0,0,1.32-1.28A.41.41,0,0,0,461.47,282.85Z"/><path d="M463.18,279.94a.36.36,0,0,1,.71,0,.35.35,0,0,1-.35.35h0a.34.34,0,0,1-.36-.32Zm.11,1.13h.47v3.57h-.49Z"/><path d="M467.81,282.43v2.21h-.47v-.56a1.29,1.29,0,0,1-1.23.6c-.8,0-1.3-.42-1.3-1s.35-1,1.37-1h1.15v-.21a.88.88,0,0,0-.79-1h-.22a1.83,1.83,0,0,0-1.19.43l-.22-.37a2.24,2.24,0,0,1,1.47-.48,1.27,1.27,0,0,1,1.42,1.09A1,1,0,0,1,467.81,282.43Zm-.48,1.14V283H466.2c-.69,0-.91.27-.91.64s.34.67.89.67A1.14,1.14,0,0,0,467.33,283.57Z"/><path d="M475,282.58v2.06h-.48v-2c0-.75-.38-1.14-1-1.14a1.14,1.14,0,0,0-1.2,1.1.61.61,0,0,0,0,.19v1.87h-.48v-2c0-.75-.38-1.14-1-1.14a1.15,1.15,0,0,0-1.2,1.1v2.06h-.48v-3.57h.5v.66a1.47,1.47,0,0,1,1.3-.69,1.28,1.28,0,0,1,1.27.76,1.54,1.54,0,0,1,1.47-.76,1.36,1.36,0,0,1,1.37,1.35A1.28,1.28,0,0,1,475,282.58Z"/><path d="M479.14,281.32l-2.42.93,2.42.93v.57l-3.05-1.2V282l3.05-1.2Z"/><path d="M481.64,278.93h.58l-2.24,6.4h-.58Z"/><path d="M486.77,279.85v4.75h-.68v-2.11h-2.73v2.11h-.68v-4.75h.68v2h2.73v-2Z"/><path d="M489.28,279.85v4.75h-.65v-4.16h-1.07v-.59Z"/><path d="M493.48,282v.58l-3.05,1.2v-.57l2.43-.92-2.43-.94v-.55Z"/><path d="M397.1,297.62l-2.4.92,2.4.94V300l-3-1.2v-.58l3-1.2Z"/><path d="M402.1,297.82c0,1-.74,1.66-2,1.66h-1.17v1.46h-.67V296.2h1.84C401.36,296.17,402.1,296.79,402.1,297.82Zm-.68,0c0-.67-.46-1.06-1.32-1.06h-1.16v2.12h1.16C401,298.88,401.42,298.5,401.42,297.82Z"/><path d="M405.94,298.25v.58l-3,1.2v-.55l2.41-.94-2.41-.92v-.57Z"/><path d="M411.72,297.62l-2.42.92,2.42.94V300l-3.05-1.2v-.58l3.05-1.2Z"/><path d="M412.87,296.17h.69v4.74h-.69Z"/><path d="M419.39,300.91v-3.5l-1.73,2.93h-.31l-1.72-2.93v3.44H415v-4.74h.56l2,3.34,2-3.34H420v4.74Z"/><path d="M424.74,298.51h.66v1.83a2.79,2.79,0,0,1-1.8.6,2.43,2.43,0,1,1,1.84-4.12l-.42.42a1.87,1.87,0,0,0-1.38-.56,1.83,1.83,0,0,0,0,3.66,1.92,1.92,0,0,0,1.12-.31Z"/><path d="M428.08,300.34l.25-.53a2.41,2.41,0,0,0,1.56.56c.84,0,1.19-.32,1.19-.73,0-1.17-2.93-.44-2.93-2.2,0-.73.57-1.36,1.82-1.36a2.77,2.77,0,0,1,1.53.43l-.23.54a2.51,2.51,0,0,0-1.3-.4c-.81,0-1.16.36-1.16.76,0,1.16,2.93.44,2.93,2.19,0,.71-.59,1.34-1.85,1.34A2.78,2.78,0,0,1,428.08,300.34Z"/><path d="M436,300.91l-1-1.46h-1.47v1.46h-.67v-4.74h1.84c1.25,0,2,.62,2,1.65a1.46,1.46,0,0,1-1.05,1.47l1.13,1.59Zm0-3.09c0-.67-.45-1.06-1.32-1.06h-1.15v2.12h1.15C435.42,298.88,436,298.5,436,297.82Z"/><path d="M437.27,298.54a2.4,2.4,0,0,1,2.37-2.43h.15a2.39,2.39,0,0,1,1.81.75l-.45.42a1.78,1.78,0,0,0-1.34-.57,1.83,1.83,0,0,0,0,3.66,1.79,1.79,0,0,0,1.34-.57l.45.42a2.32,2.32,0,0,1-1.81.75,2.4,2.4,0,0,1-2.52-2.28Z"/><path d="M442.3,297.41h3.05v.53H442.3Zm0,1.61h3.05v.53H442.3Z"/><path d="M448,296.17h.57V298h-.48Zm1.23,0h.57V298h-.48Z"/><path d="M451,296.17h.67v4.17h2.58v.59H451Z"/><path d="M454.54,299.11a1.87,1.87,0,1,1,1.9,1.85h0a1.78,1.78,0,0,1-1.87-1.7A.75.75,0,0,1,454.54,299.11Zm3.07,0a1.22,1.22,0,1,0-2.42-.26v.26a1.22,1.22,0,0,0,1.08,1.34,1.2,1.2,0,0,0,1.34-1.07A1.22,1.22,0,0,0,457.61,299.11Z"/><path d="M461.11,297.28v.63H461a1.09,1.09,0,0,0-1.15,1,1.41,1.41,0,0,0,0,.2v1.78h-.64v-3.58h.61v.6A1.47,1.47,0,0,1,461.11,297.28Z"/><path d="M465.12,299.33h-2.93a1.22,1.22,0,0,0,1.3,1.06,1.37,1.37,0,0,0,1-.43l.37.41a2,2,0,0,1-2.8,0,2,2,0,0,1-.57-1.26,1.78,1.78,0,0,1,1.71-1.83h.11a1.74,1.74,0,0,1,1.77,1.68v.37Zm-2.93-.47h2.31a1.17,1.17,0,0,0-2.31,0Z"/><path d="M472,298.88v2.06h-.64v-2.06c0-.7-.35-1.06-.94-1.06a1.08,1.08,0,0,0-1.08,1.2v1.85h-.64v-2c0-.7-.34-1.06-.94-1.06a1.06,1.06,0,0,0-1.09,1,1.09,1.09,0,0,0,0,.18v1.85H466v-3.59h.66v.53a1.47,1.47,0,0,1,1.23-.57,1.32,1.32,0,0,1,1.26.67,1.62,1.62,0,0,1,1.38-.67,1.47,1.47,0,0,1,1.46,1.47C472,298.76,472,298.82,472,298.88Z"/><path d="M474.89,296.22a.44.44,0,0,1,.44-.44h0a.42.42,0,1,1-.46.45Zm.12,1.11h.66v3.58H475Z"/><path d="M480.63,299.11A1.74,1.74,0,0,1,479,301h-.18a1.43,1.43,0,0,1-1.25-.59v1.86h-.63v-4.9h.61v.57a1.46,1.46,0,0,1,1.29-.62,1.74,1.74,0,0,1,1.8,1.68Zm-.66,0a1.22,1.22,0,0,0-2.43.12,1.23,1.23,0,0,0,1.22,1.16,1.19,1.19,0,0,0,1.21-1.16Z"/><path d="M481.08,300.53l.27-.51a2.24,2.24,0,0,0,1.25.38c.62,0,.87-.19.87-.5,0-.8-2.29-.1-2.29-1.46,0-.64.59-1.08,1.47-1.08a2.59,2.59,0,0,1,1.3.33l-.26.52a1.83,1.83,0,0,0-1-.3c-.57,0-.85.22-.85.5,0,.85,2.27.16,2.27,1.55,0,.66-.59,1.07-1.55,1.07A2.51,2.51,0,0,1,481.08,300.53Z"/><path d="M488.28,297.33v3.58h-.61v-.57a1.57,1.57,0,0,1-2.78-.78.67.67,0,0,1,0-.2V297.3h.66v2c0,.7.35,1,1,1a1,1,0,0,0,1.12-.95.87.87,0,0,0,0-.23V297.3Z"/><path d="M495.5,298.88v2.06h-.66v-2.06c0-.7-.34-1.06-.92-1.06a1.08,1.08,0,0,0-1.09,1.2v1.85h-.66v-2c0-.7-.33-1.06-.92-1.06a1.08,1.08,0,0,0-1.08,1.2v1.85h-.64v-3.59h.57v.53a1.46,1.46,0,0,1,1.24-.57,1.31,1.31,0,0,1,1.24.67,1.66,1.66,0,0,1,1.39-.67,1.47,1.47,0,0,1,1.54,1.39A2.09,2.09,0,0,1,495.5,298.88Z"/><path d="M496.49,296.17h.57V298h-.48Zm1.23,0h.57V298h-.48Z"/><path d="M502.21,298.25v.58l-3,1.2v-.55l2.41-.94-2.41-.92v-.57Z"/><path d="M506.19,297.62l-2.41.92,2.41.94V300l-3.07-1.15v-.59l3-1.2Z"/><path d="M508.67,295.21h.58L507,301.6h-.58Z"/><path d="M513.51,297.82c0,1-.75,1.66-2,1.66h-1.17v1.46h-.69V296.2h1.86C512.81,296.17,513.51,296.79,513.51,297.82Zm-.69,0c0-.67-.45-1.06-1.31-1.06h-1.16v2.12h1.16c.9,0,1.36-.38,1.36-1.06Z"/><path d="M517.39,298.25v.58l-3,1.2v-.55l2.43-.94-2.43-.92v-.57Z"/><path d="M397.1,313.89l-2.4.92,2.4.94v.56l-3-1.2v-.59l3-1.2Z"/><path d="M399.6,311.48h.6l-2.3,6.42h-.58Z"/><path d="M404.74,315.91c0,.82-.62,1.29-1.82,1.29h-2.26v-4.76h2.12c1.09,0,1.71.46,1.71,1.23a1.13,1.13,0,0,1-.64,1.06A1.15,1.15,0,0,1,404.74,315.91ZM401.33,313v1.46h1.46c.7,0,1.1-.25,1.1-.76s-.4-.76-1.1-.76Zm2.72,2.92c0-.54-.41-.79-1.16-.79h-1.56v1.58h1.56c.75-.06,1.16-.26,1.16-.85Z"/><path d="M405.4,314.81a2.53,2.53,0,1,1,2.63,2.43h-.1A2.41,2.41,0,0,1,405.4,315Zm4.39,0a1.85,1.85,0,1,0-1.86,1.83h0a1.77,1.77,0,0,0,1.83-1.74v-.09Z"/><path d="M411.48,312.44h2a2.39,2.39,0,0,1,.37,4.76h-2.38Zm2,4.16a1.79,1.79,0,0,0,0-3.57h-1.29v3.57Z"/><path d="M418.7,315.55v1.65H418v-1.67l-1.89-3.09h.73l1.46,2.51,1.47-2.51h.67Z"/><path d="M424.05,314.52v.59l-3,1.2v-.56l2.42-.94-2.42-.92v-.57Z"/><path class="cls-7" d="M579.67,186.73c0,.22-47,.38-104.88.38S369.9,187,369.9,186.73s46.94-.38,104.89-.38S579.67,186.52,579.67,186.73Z"/><path class="cls-7" d="M376.17,179.23a1.35,1.35,0,1,1-1.34-1.34A1.34,1.34,0,0,1,376.17,179.23Z"/><circle class="cls-7" cx="380.01" cy="179.23" r="1.35"/><path class="cls-7" d="M386.55,179.23a1.37,1.37,0,0,1-1.35,1.38,1.36,1.36,0,0,1,0-2.72h0A1.36,1.36,0,0,1,386.55,179.23Z"/><path class="cls-2" d="M383.27,345.38c-.2,0-.38-35.6-.38-79.5s.18-79.52.38-79.52.38,35.59.38,79.52S383.42,345.38,383.27,345.38Z"/><rect class="cls-8" x="89.44" y="32.22" width="86.7" height="61.81"/><path class="cls-1" d="M176.83,41.4c0,.2-19.58.38-43.71.38S89.4,41.6,89.4,41.4,109,41,133.12,41,176.83,41.18,176.83,41.4Z"/><path class="cls-1" d="M96.52,36.94a1.19,1.19,0,0,1-2.35.32,1.2,1.2,0,0,1,1-1.34h.16a1.1,1.1,0,0,1,1.17,1Z"/><path class="cls-1" d="M100.84,36.94a1.08,1.08,0,0,1-1.14,1h0a1,1,0,1,1,1.16-1Z"/><ellipse class="cls-1" cx="103.85" cy="36.88" rx="1.17" ry="1.02"/><path class="cls-1" d="M121.5,66c0,3.72-2.67,6-7.11,6h-4.68v5.5h-1.85V60.07h6.53C118.83,60.07,121.5,62.31,121.5,66Zm-1.83,0c0-2.78-1.84-4.39-5.34-4.39h-4.62v8.71h4.62C117.83,70.37,119.67,68.78,119.67,66Z"/><path class="cls-1" d="M140,60.07V77.5h-1.81v-8h-10.9v8h-1.85V60.07h1.85v7.77h10.9V60.07Z"/><path class="cls-1" d="M159.38,66c0,3.72-2.68,6-7.12,6h-4.68v5.5h-1.84V60.07h6.52C156.68,60.07,159.38,62.31,159.38,66Zm-1.85,0c0-2.78-1.84-4.39-5.33-4.39h-4.62v8.71h4.62c3.47,0,5.32-1.58,5.32-4.32Z"/><rect class="cls-8" x="560.91" y="268.59" width="78.38" height="55.87"/><path class="cls-1" d="M587.34,294.49v11.09h-2.56V301h-5v4.54h-2.57V294.49h2.57v4.39h5v-4.39Z"/><path class="cls-1" d="M592.27,296.62h-3.56v-2.13h9.68v2.09h-3.56v9h-2.56Z"/><path class="cls-1" d="M613.21,294.49h2.58v9h5.56v2.09h-8.14Z"/><path class="cls-1" d="M609.45,305.62V299l-3.26,5.47H605l-3.25-5.34v6.51h-2.41V294.49h2.12l4.15,6.89,4.09-6.89h2.1v11.09Z"/><path class="cls-1" d="M639.9,276.93c0,.13-17.69.25-39.51.25s-39.51-.12-39.51-.25,17.69-.25,39.51-.25S639.9,276.75,639.9,276.93Z"/><path class="cls-1" d="M567.3,272.8a1.06,1.06,0,1,1-.87-.88A1.06,1.06,0,0,1,567.3,272.8Z"/><path class="cls-1" d="M571.15,272.8a1.06,1.06,0,1,1-.88-.88A1.07,1.07,0,0,1,571.15,272.8Z"/><path class="cls-1" d="M575,272.8a1.06,1.06,0,1,1-2.11.29,1.05,1.05,0,0,1,.91-1.2h.15A1,1,0,0,1,575,272.8Z"/><rect class="cls-8" x="47.84" y="267.8" width="57.79" height="41.19"/><path class="cls-1" d="M106.06,273.9c0,.1-13,.19-29.12.19s-29.13-.09-29.13-.19,13-.18,29.13-.18S106.06,273.8,106.06,273.9Z"/><path class="cls-1" d="M52.55,270.9a.73.73,0,0,1-.78.67.72.72,0,0,1-.77-.65v0a.74.74,0,0,1,.77-.69h0a.74.74,0,0,1,.78.69Z"/><path class="cls-1" d="M55.39,270.9a.79.79,0,1,1-.68-.68A.81.81,0,0,1,55.39,270.9Z"/><path class="cls-1" d="M58.23,270.9a.79.79,0,1,1-.89-.68h.1A.75.75,0,0,1,58.23,270.9Z"/><path class="cls-8" d="M392.12,109.06a10.82,10.82,0,0,1,10.66-11h.57a10.38,10.38,0,0,1,7.71,2.93l-1,1a9,9,0,0,0-6.64-2.56,9.52,9.52,0,1,0-1.05,19,9.19,9.19,0,0,0,1.05,0,9.08,9.08,0,0,0,6.64-2.61l1,1a10.38,10.38,0,0,1-7.71,3,10.82,10.82,0,0,1-11.22-10.4C392.13,109.38,392.12,109.22,392.12,109.06Z"/><path class="cls-8" d="M414,117.1l.7-1.17a10.36,10.36,0,0,0,7.14,2.72c4.39,0,6.25-1.89,6.25-4.24,0-6.5-13.5-2.59-13.5-10.57,0-3.07,2.34-5.77,7.66-5.77a11.58,11.58,0,0,1,6.53,2l-.58,1.25a10.84,10.84,0,0,0-5.95-1.81c-4.21,0-6.08,2-6.08,4.39,0,6.5,13.5,2.66,13.5,10.52,0,3.06-2.44,5.72-7.8,5.72A11.11,11.11,0,0,1,414,117.1Z"/><path class="cls-8" d="M432.85,117.1l.72-1.17a10.34,10.34,0,0,0,7.14,2.72c4.39,0,6.25-1.89,6.25-4.24,0-6.5-13.51-2.59-13.51-10.57,0-3.07,2.34-5.77,7.67-5.77a11.57,11.57,0,0,1,6.52,2l-.58,1.25a10.84,10.84,0,0,0-5.94-1.81c-4.22,0-6.1,2-6.1,4.39,0,6.5,13.52,2.66,13.52,10.52,0,3.06-2.45,5.72-7.8,5.72A11.13,11.13,0,0,1,432.85,117.1Z"/><path class="cls-8" d="M467,137.21v-4.45c0-2.93,0-7.13-.09-12.53,0-10.81-.09-26.34-.14-45.36l.29.3H370.61l.38-.38v62.28l-.35-.35,69.37.18,19.88.09H460l-19.81.08-69.6.18h-.35V74.54h.39l96.41.09h.31V75c0,19-.12,34.64-.17,45.5,0,5.37,0,9.57-.07,12.47v3.23A2.24,2.24,0,0,1,467,137.21Z"/><path class="cls-8" d="M467,84.17c0,.21-21.6.38-48.29.38s-48.29-.17-48.29-.38,21.67-.41,48.35-.41S467,84,467,84.17Z"/><path class="cls-8" d="M377.67,79.62a1.2,1.2,0,0,1-1,1.34,1.19,1.19,0,0,1-.32-2.35h.17a1.1,1.1,0,0,1,1.17,1Z"/><path class="cls-8" d="M382,79.62a1.19,1.19,0,1,1-1.33-1h.16a1.09,1.09,0,0,1,1.17,1Z"/><path class="cls-8" d="M386.2,79.62a1.19,1.19,0,1,1-1.34-1H385a1.1,1.1,0,0,1,1.17,1Z"/></g><g id="freepik--Character--inject-8"><path class="cls-9" d="M188.47,350.1l38.22,129a13.52,13.52,0,0,0,12.94,9.68l155.11.42a14.35,14.35,0,0,0,14.39-14.32c0-.26,0-.52,0-.78h0a14.35,14.35,0,0,0-14.32-13.58H335.48L288,328.15H204.83a17,17,0,0,0-16.36,22Z"/><path class="cls-7" d="M319.7,471.07c0,.31-15.82.54-35.32.54s-35.32-.23-35.32-.54,15.81-.54,35.32-.54S319.7,470.77,319.7,471.07Z"/><path class="cls-7" d="M199.88,332.21c.28-.08,10.84,30.81,23.59,69S246.3,470.49,246,470.58s-10.84-30.74-23.59-69S199.59,332.32,199.88,332.21Z"/><polygon class="cls-9" points="313.25 603.39 303.8 603.17 303.8 488.74 313.25 488.74 313.25 603.39"/><polygon class="cls-9" points="264.53 602.86 352.52 602.86 312.66 589.01 303.21 589.01 264.53 602.86"/><path class="cls-8" d="M242.27,298.53l14.57,72.74-2.61,54.51,97.87-16.27-3.83-47.71-.12-39.51,24,46.51,18.67-36.1-34.2-62h0a57.71,57.71,0,0,0-22.37-14.48,45.81,45.81,0,0,0-14-2.7h0a56.09,56.09,0,0,1-33.87,0c-1.38.18-3.28.37-5.7.65h-.43a43.26,43.26,0,0,0-37.77,40.68Z"/><path class="cls-8" d="M280.67,254.2s-40.21.31-45.19,42.78l-.67,31.17,34.62-.3Z"/><path class="cls-10" d="M376.74,308.83c0,.31-31.63.56-70.66.56s-70.61-.27-70.61-.56,31.62-.54,70.67-.54S376.74,308.54,376.74,308.83Z"/><path class="cls-10" d="M376.74,315.58c0,.29-31.63.54-70.66.54s-70.67-.25-70.67-.54S267,315,306.08,315,376.74,315.27,376.74,315.58Z"/><path class="cls-10" d="M374.49,303.27c0,.31-31.13.55-69.52.55s-69.5-.26-69.5-.55,31.13-.54,69.54-.54S374.49,303,374.49,303.27Z"/><path class="cls-7" d="M347.67,368.78c-.31,0-.18-17.22.29-38.44s1.1-38.43,1.39-38.43.18,17.23-.29,38.45S348,368.78,347.67,368.78Z"/><path class="cls-11" d="M333.91,340.86s19,1.36,22.45,6.4S365,366.62,363,366.72a5.32,5.32,0,0,1-3.42-1.07l-5.21-9.25s.83,8.93-2.28,9.11-18.6,3.27-18.6,3.27Z"/><path class="cls-8" d="M234.83,319.83l-.08,49a18.65,18.65,0,0,0,19.61,17.6,19.51,19.51,0,0,0,3-.4L334,370.26l-.16-31.45-66.19,12.75-.87-33.29Z"/><path class="cls-7" d="M278.58,382.13a7.21,7.21,0,0,1,1-.28l2.93-.67,11.27-2.39,40-8.21-.4.47V338.76l.65.54-13.49,2.59-52.68,10-.58.12v-.47c.5-14.63.93-26.75,1.22-35.36.17-4.18.31-7.5.41-9.87,0-1.07.1-1.93.15-2.59a3.94,3.94,0,0,1,.1-.9,6.76,6.76,0,0,1,0,.9v2.6c0,2.37-.09,5.69-.15,9.88-.2,8.62-.48,20.76-.82,35.35l-.55-.45,52.68-10.24,13.49-2.58.64-.13v33.36l-.39.08-40,7.75-11.32,2.13-3,.52A5.08,5.08,0,0,1,278.58,382.13Z"/><path class="cls-7" d="M322.57,254.2a3.68,3.68,0,0,1,.31.72,16.07,16.07,0,0,1,.6,2.16,17.75,17.75,0,0,1-.37,8.26,21.7,21.7,0,0,1-6.64,10.24,20.67,20.67,0,0,1-14,5.28,19,19,0,0,1-13.8-5.6,19.39,19.39,0,0,1-5.14-11.11,17.4,17.4,0,0,1,1-8.21,11.07,11.07,0,0,1,1-2c.26-.44.41-.65.45-.64s-.47,1-1,2.81a18.63,18.63,0,0,0-.6,8,19.11,19.11,0,0,0,5.09,10.51,18.22,18.22,0,0,0,13.09,5.21,19.94,19.94,0,0,0,13.28-4.93,21.35,21.35,0,0,0,6.59-9.75,18.49,18.49,0,0,0,.67-8C322.8,255.26,322.45,254.23,322.57,254.2Z"/><path class="cls-10" d="M326.27,372.87a23.13,23.13,0,0,1,0-4.85c.12-2.92.27-7.08.29-11.62s0-8.65-.16-11.63a24.46,24.46,0,0,1,0-4.84,19.44,19.44,0,0,1,.74,4.8c.27,2.92.49,7.11.46,11.7s-.29,8.7-.6,11.71A19.42,19.42,0,0,1,326.27,372.87Z"/><path class="cls-10" d="M322.31,373.67a24.19,24.19,0,0,1-.14-4.81c0-3.38.08-7.32.12-11.55v-11.6a22.65,22.65,0,0,1,.18-4.8,20.17,20.17,0,0,1,.6,4.77c.19,2.92.35,7.06.32,11.59s-.21,8.62-.44,11.59A20,20,0,0,1,322.31,373.67Z"/><path class="cls-8" d="M399.12,568.5l14.49,39.92,20.57,28.26a4.39,4.39,0,0,1-1,6.13l-.18.12h0a4.39,4.39,0,0,1-4,.34c-8.3-3.44-38.73-16.26-39.64-19.23-1-3.45-20.69-46.39-20.69-46.39Z"/><g class="cls-12"><path class="cls-1" d="M433,642.93l-44.64-21.57L389,623a6.62,6.62,0,0,0,2.92,3.4c3.66,2,13.9,7.2,36.92,16.87a4.4,4.4,0,0,0,4.09-.38Z"/></g><g class="cls-12"><path class="cls-1" d="M391.48,605.44a2.62,2.62,0,0,1,1.92,2.93,2.54,2.54,0,0,1-2.93,1.93,2.77,2.77,0,0,1-2-3.13,2.63,2.63,0,0,1,3.23-1.67"/></g><path class="cls-7" d="M417.19,629.16a13,13,0,0,1,2.28-4.39c1.86-2.08,4.26-2.38,4.22-2.65s-.63-.22-1.61,0a7,7,0,0,0-5,5.47C416.93,628.56,417.09,629.16,417.19,629.16Z"/><path class="cls-7" d="M422.08,633.36c.25.1,1-1.68,2.84-3.07a32.53,32.53,0,0,1,3.67-2c0-.25-2.19-.35-4.24,1.26S421.83,633.33,422.08,633.36Z"/><path class="cls-7" d="M409.3,624.4c.27.12,1.47-2.61,4.07-5s5.43-3.4,5.34-3.66-3.17.35-6,2.92S409.07,624.38,409.3,624.4Z"/><path class="cls-7" d="M403.89,612.64c.19.2,2-1.57,4.83-2.78s5.33-1.46,5.31-1.68-2.69-.5-5.69.83S403.76,612.51,403.89,612.64Z"/><path class="cls-7" d="M399.37,601c.2.18,1.89-2,4.94-3s5.71-.46,5.77-.72-.6-.44-1.71-.62a9.54,9.54,0,0,0-8.05,2.81C399.53,600.33,399.24,601,399.37,601Z"/><path class="cls-7" d="M403.36,595.83a3.9,3.9,0,0,0-.54-1.47,11,11,0,0,0-2.71-3.45,4.9,4.9,0,0,0-2.84-1.47,1.76,1.76,0,0,0-1.69,1.09,2.81,2.81,0,0,0,0,2,6.14,6.14,0,0,0,7.15,3.39,7.1,7.1,0,0,0,5.18-6,2.43,2.43,0,0,0-.63-2,1.74,1.74,0,0,0-2-.21,6.1,6.1,0,0,0-2.08,2.37,12.66,12.66,0,0,0-1.46,4.13,3.65,3.65,0,0,0,0,1.61,19.75,19.75,0,0,1,2.13-5.39,5.9,5.9,0,0,1,1.86-2,.92.92,0,0,1,1.1.11,1.69,1.69,0,0,1,.35,1.3,6.36,6.36,0,0,1-4.55,5.16,5.31,5.31,0,0,1-6.06-2.75,2,2,0,0,1-.11-1.46,1,1,0,0,1,.93-.6,4.45,4.45,0,0,1,2.42,1.17A16.24,16.24,0,0,1,403.36,595.83Z"/><path class="cls-8" d="M460.3,558.06l-1.24,32.44S491.6,602.67,492,608.69L429,608.51l-.18-50.62Z"/><g class="cls-12"><path class="cls-1" d="M439.58,587.72a2.57,2.57,0,0,0-1.78,2.92,2.46,2.46,0,0,0,2.92,1.8,2.72,2.72,0,0,0,1.88-3.11,2.6,2.6,0,0,0-3.22-1.54"/></g><g class="cls-12"><path class="cls-1" d="M429,608.51v-5l60.53,2s2.79,1.23,2.47,3.21Z"/></g><path class="cls-7" d="M460.07,590.18c0,.3-1.54.45-3.06,1.46s-2.33,2.28-2.61,2.15.18-1.9,2-3.06S460.14,589.9,460.07,590.18Z"/><path class="cls-7" d="M466.68,592.93c.08.3-1.26.82-2.31,2.12s-1.35,2.68-1.65,2.66-.5-1.75.83-3.35S466.68,592.63,466.68,592.93Z"/><path class="cls-7" d="M470.4,600.84c-.28,0-.7-1.46.1-3.14s2.23-2.36,2.36-2.09-.76,1.15-1.47,2.54S470.71,600.82,470.4,600.84Z"/><path class="cls-7" d="M459.54,582.77c-.13.28-1.54-.14-3.28,0s-3.1.66-3.26.4,1.16-1.36,3.2-1.47S459.69,582.52,459.54,582.77Z"/><g class="cls-3"><polygon points="460.05 564.48 459.83 570.26 428.88 569.89 428.85 564.68 460.05 564.48"/></g><path class="cls-7" d="M459.67,576.22a6.27,6.27,0,0,1-3.16,0,15.14,15.14,0,0,1-3.29-1,15.8,15.8,0,0,1-1.82-1,4.62,4.62,0,0,1-.95-.75,1.35,1.35,0,0,1-.13-1.64,1.71,1.71,0,0,1,1.35-.7,4.26,4.26,0,0,1,1.18.17,12.28,12.28,0,0,1,2,.68,11,11,0,0,1,2.93,1.91c1.46,1.36,2,2.51,1.86,2.58s-.85-.86-2.34-2a12.6,12.6,0,0,0-2.81-1.6,11.33,11.33,0,0,0-1.8-.55c-.67-.19-1.25-.19-1.46.1s-.08.16,0,.35a2.92,2.92,0,0,0,.7.56,14.4,14.4,0,0,0,1.67.95,18,18,0,0,0,3,1.17A20.22,20.22,0,0,1,459.67,576.22Z"/><path class="cls-7" d="M459.26,576.65a5.29,5.29,0,0,1-.82-3,10.93,10.93,0,0,1,.44-3.46,11.3,11.3,0,0,1,.81-1.9,2.65,2.65,0,0,1,2-1.57,1.47,1.47,0,0,1,1.31.88,4.86,4.86,0,0,1,.33,1.17,6.92,6.92,0,0,1,0,2.13,7.3,7.3,0,0,1-1.37,3.24c-1.22,1.63-2.51,2-2.54,1.89a12.62,12.62,0,0,0,1.92-2.31,7.26,7.26,0,0,0,1-2.93,7,7,0,0,0,0-1.83c-.09-.65-.34-1.2-.59-1.14a2.25,2.25,0,0,0-1.11,1,10.5,10.5,0,0,0-.79,1.7,11.22,11.22,0,0,0-.62,3.15C459.12,575.45,459.44,576.6,459.26,576.65Z"/><path class="cls-7" d="M428.91,402.54c-37.21,3.85-86.54,8.92-86.54,8.92L349.1,472s72.47-19.15,71.95-17.56,3.37,128.87,3.37,128.87h43.64l.82-144.19a36.25,36.25,0,0,0-35.7-36.78A35.79,35.79,0,0,0,428.91,402.54Z"/><path class="cls-7" d="M253.34,427v18.78c0,12.79,14.56,26.34,27.33,26.34h9.9c7.78,0,20-5.68,26.34-10.25l3.77-2.76,45.45,140.79s52-9.32,52-11S382.92,473.6,366.66,420.85c-6.64-21.54-29.72-34.07-51-26.76-.72.24-1.46.52-2.18.81C290.08,404.24,253.34,427,253.34,427Z"/><path class="cls-9" d="M418.07,588.9a2.71,2.71,0,0,1-.22-.49c-.16-.4-.35-.9-.59-1.47-.49-1.33-1.21-3.29-2.06-5.85-1.74-5.08-4.13-12.5-7-21.67-5.86-18.34-13.58-43.76-22-71.85-4.22-14.07-8.21-27.46-11.87-39.66l-5.14-17.31q-1.23-4.08-2.34-7.83a68.45,68.45,0,0,0-2.37-7.13,29.2,29.2,0,0,0-7.31-10.4,61.82,61.82,0,0,0-7.7-6c-2.23-1.46-4-2.59-5.21-3.32l-1.36-.86a2.15,2.15,0,0,1-.46-.33,2.1,2.1,0,0,1,.5.24l1.46.76c1.25.67,3.06,1.71,5.33,3.16a57.76,57.76,0,0,1,7.87,5.85,29.48,29.48,0,0,1,7.64,10.54,70.67,70.67,0,0,1,2.46,7.18c.78,2.51,1.57,5.13,2.4,7.83l5.24,17.27c3.67,12.19,7.71,25.58,12,39.63,8.45,28.05,16.09,53.46,21.71,71.95l6.7,21.76,1.88,5.86c.19.63.33,1.12.47,1.53S418.1,588.9,418.07,588.9Z"/><path class="cls-9" d="M429,436.26c.27.17-2.21,3.89-4.27,8.94s-3,9.41-3.32,9.35.15-4.59,2.31-9.77S428.83,436.08,429,436.26Z"/><path class="cls-9" d="M437.42,442.11c.11.3-3.63,1.95-7.54,5s-6.43,6.32-6.69,6.13,1.93-3.81,6-7S437.31,441.85,437.42,442.11Z"/><path class="cls-9" d="M366.56,599.86c-.28.09-12.56-37.58-27.42-84.14s-26.67-84.39-26.35-84.48,12.56,37.58,27.43,84.16S366.85,599.78,366.56,599.86Z"/><polygon class="cls-9" points="310.79 380.23 459.54 381.66 487.29 303.25 379.08 303.99 353.97 374.49 310.79 375.15 310.79 380.23"/><path class="cls-1" d="M423.57,349.22a6,6,0,1,1,6.81-5.14v0A6,6,0,0,1,423.57,349.22Z"/><path class="cls-7" d="M298.64,168c1.47-5.22,5.35-7.79,10.45-9.53A16.85,16.85,0,0,1,324.46,161c2.92,2.2,5.12,5.37,8.54,6.56,5.62,1.94,12.21-2.26,17.56.26a7.66,7.66,0,0,1-3.63,14.63c3.66,1.35,4.8,6.57,2.67,9.84s-6.54,4.49-10.39,3.77a21.5,21.5,0,0,1-10.08-5.65c-2.93-2.6-5.51-5.56-8.61-7.93a16.78,16.78,0,0,0-10.77-3.95c-5.28.28-9.8,4.26-12.16,9s-2.93,10.13-3.19,15.41-.38,10.64-1.95,15.69c-.19.6-.46,1.26-1.05,1.46-.86.26-1.59-.64-2-1.46a77.46,77.46,0,0,1-8.85-28.85c-.6-5.85-.46-11.38,2.76-16.31s11.34-8.55,15.32-5.43"/><path class="cls-11" d="M288.44,192.49l-2.7,59.21c-.46,10.07.93,25,16.88,25h0c13.85-1.05,17.93-14,18.35-23.41.2-4.39.37-8.17.43-8.62,0,0,15.13-.73,16.9-15.6.85-7.18,1.46-22.14,1.76-35.66a27.91,27.91,0,0,0-24.88-28.43l-1.46-.15C298.1,164.07,288.75,176.89,288.44,192.49Z"/><path class="cls-13" d="M321.44,244.44a34.81,34.81,0,0,1-18.82-7.58s3.44,11.2,18.44,11.44Z"/><path class="cls-7" d="M334.66,202.91a2.14,2.14,0,0,1-2.29,1.93,2,2,0,0,1-2-2.09v-.06a2.13,2.13,0,0,1,2.27-1.93,2,2,0,0,1,2,2.07Z"/><path class="cls-7" d="M336.08,200.36c-.3.25-1.77-1.11-4.07-1.34s-4.08.73-4.3.42.22-.61,1-1.07a5.84,5.84,0,0,1,3.48-.68,5.57,5.57,0,0,1,3.19,1.46C336,199.74,336.22,200.26,336.08,200.36Z"/><path class="cls-7" d="M312.14,201.3a2.14,2.14,0,0,1-2.29,1.93,2.06,2.06,0,0,1-2-2.13v0a2.17,2.17,0,0,1,2.29-1.93,2,2,0,0,1,2,2.1Z"/><path class="cls-7" d="M313.54,198.4c-.29.25-1.77-1.11-4.07-1.36s-4.08.73-4.3.43.22-.6,1-1.06a5.85,5.85,0,0,1,3.48-.68,5.7,5.7,0,0,1,3.19,1.46C313.5,197.76,313.69,198.29,313.54,198.4Z"/><path class="cls-7" d="M320,216.26a14.59,14.59,0,0,1,3.79-.28c.6,0,1.15,0,1.3-.44a3.15,3.15,0,0,0-.2-1.79c-.41-1.46-.82-3-1.26-4.62-1.73-6.59-2.93-12-2.65-12.06s1.89,5.23,3.61,11.81c.41,1.63.81,3.18,1.17,4.65a3.34,3.34,0,0,1,0,2.33,1.46,1.46,0,0,1-1,.76,4.18,4.18,0,0,1-1,0A15.5,15.5,0,0,1,320,216.26Z"/><path class="cls-7" d="M313.15,217.12c.36,0,.11,2.5,2,4.49s4.61,2,4.6,2.34-.64.43-1.77.34a6.26,6.26,0,0,1-3.85-1.83,5.4,5.4,0,0,1-1.55-3.74C312.63,217.68,313,217.09,313.15,217.12Z"/><path class="cls-7" d="M315.09,189.49c-.29.6-2.54,0-5.27.1s-5,.55-5.26,0c-.12-.27.32-.82,1.25-1.33a9,9,0,0,1,8,0C314.77,188.67,315.22,189.21,315.09,189.49Z"/><path class="cls-7" d="M336,193.66c-.46.47-2-.23-3.87-.47s-3.54,0-3.85-.6c-.14-.27.16-.77.93-1.2a5.53,5.53,0,0,1,3.23-.51,5.44,5.44,0,0,1,2.93,1.38C336,192.86,336.15,193.43,336,193.66Z"/><path class="cls-11" d="M288.49,203.64c-.25-.13-9.91-4.11-10.67,6.1s9.66,8.87,9.69,8.58S288.49,203.64,288.49,203.64Z"/><path class="cls-13" d="M284.68,214.22a3.3,3.3,0,0,1-.49.24,1.88,1.88,0,0,1-1.34-.08,4.45,4.45,0,0,1-1.75-4.11,5.78,5.78,0,0,1,.69-2.5,2,2,0,0,1,1.46-1.27.91.91,0,0,1,1,.57c.12.29,0,.49.09.51s.23-.15.19-.59a1.1,1.1,0,0,0-.37-.66,1.34,1.34,0,0,0-1-.33,2.53,2.53,0,0,0-2,1.46,6.11,6.11,0,0,0-.82,2.8c-.09,2.06.82,4.06,2.27,4.61a1.93,1.93,0,0,0,1.64-.16C284.64,214.47,284.71,214.24,284.68,214.22Z"/><path class="cls-7" d="M343.54,190.59a21.67,21.67,0,0,1-18.64-6.34c-3.3-3.45-5.62-8.16-10-10.05a12.2,12.2,0,0,0-9.38.28,23.39,23.39,0,0,0-7.7,5.7c2.06,7.88-.76,16.1-3.56,23.76a4.08,4.08,0,0,1-1.46,2.22c-1.3.8-3-.12-4-1.33a12.61,12.61,0,0,1-2-6.92,42,42,0,0,1,1.84-16.51A28.81,28.81,0,0,1,298,167.85a27.08,27.08,0,0,1,19.74-5.06,33.18,33.18,0,0,1,18.49,8.91,19.38,19.38,0,0,1,5.49,7.87"/></g><g id="freepik--Plant--inject-8"><path class="cls-8" d="M57.41,505.33a27.63,27.63,0,0,1,17.09-2.09c3.1.51,6.35,1.46,8.47,3.79s2.52,6.45.09,8.46a8.14,8.14,0,0,1-5.34,1.34c-4.54,0-9.57-.85-13.17,1.89-2.08,1.55-3.45,4.14-5.85,4.9a5.86,5.86,0,0,1-6.43-2.85,10.1,10.1,0,0,1-.72-7.32A11.26,11.26,0,0,1,57.41,505.33Z"/><path class="cls-8" d="M45.45,482.25c3.19,4.55,9.4,3.05,12.26.27s4.1-6.81,5.2-10.66c2.53-8.78,5.08-18,3.2-26.94a14.86,14.86,0,0,0-3.45-7.31,7.82,7.82,0,0,0-7.4-2.48c-3.12.84-5.07,3.9-6.47,6.81a64.13,64.13,0,0,0-6.35,27.55c0,4.39.51,9.1,3,12.76"/><path class="cls-8" d="M36.69,488.79a16.61,16.61,0,0,0,2.59-15.26,29.5,29.5,0,0,0-9-13.17,48.48,48.48,0,0,0-16.09-9.55,17.15,17.15,0,0,0-7.32-1.23,7.61,7.61,0,0,0-6.1,3.68c-1.7,3.25-.08,7.19,1.69,10.41A123.43,123.43,0,0,0,13,479.93c3.19,4.09,6.83,8.15,11.71,10s9.89,1.63,12.46-1.73"/><path class="cls-7" d="M45.23,551a9.47,9.47,0,0,0,.29-2.06c.15-1.46.34-3.4.56-5.65A82.72,82.72,0,0,1,47.34,535a64.37,64.37,0,0,1,3-9.79,36.22,36.22,0,0,1,5-8.78,18.48,18.48,0,0,1,6.31-5.34A17,17,0,0,1,67,509.41a10.24,10.24,0,0,0,2.06-.3,10.43,10.43,0,0,0-2.09,0,15.79,15.79,0,0,0-5.55,1.46,18.54,18.54,0,0,0-6.66,5.28,35.62,35.62,0,0,0-5.12,9,59.14,59.14,0,0,0-2.92,10,71.74,71.74,0,0,0-1.12,8.38c-.17,2.4-.23,4.39-.27,5.69A9.66,9.66,0,0,0,45.23,551Z"/><path class="cls-7" d="M45.63,546.63a5,5,0,0,0,0-1v-2.76c0-2.38,0-5.85.13-10.09.2-8.52.94-17.7,2.36-30.62,1.34-12.16,3.14-26.34,5-35.5.4-2.09.81-4,1.2-5.62s.69-3.07,1-4.23.49-2,.65-2.67a3.79,3.79,0,0,0,.17-.94,3.53,3.53,0,0,0-.33.89q-.33,1-.81,2.64c-.32,1.06-.71,2.56-1.12,4.2s-.88,3.52-1.34,5.6a315.85,315.85,0,0,0-5.29,32.94,332.07,332.07,0,0,0-2,33.31c0,4.26,0,7.72.15,10.11,0,1.11.13,2,.17,2.74A3.86,3.86,0,0,0,45.63,546.63Z"/><path class="cls-7" d="M45.69,523.89a20.47,20.47,0,0,0,0-2.93,78.32,78.32,0,0,0-.88-7.79,105.18,105.18,0,0,0-2.5-11.26,93.26,93.26,0,0,0-4.75-13.41,71.55,71.55,0,0,0-13.91-21.66,39.35,39.35,0,0,0-3.29-3c-.52-.42-1-.83-1.47-1.17l-1.27-.88a17.45,17.45,0,0,0-2.42-1.55,84.33,84.33,0,0,1,7.92,7.07,75.18,75.18,0,0,1,13.57,21.58,107.71,107.71,0,0,1,4.77,13.28c1.24,4.17,2.06,8,2.69,11.21s.94,5.85,1.14,7.71A17.18,17.18,0,0,0,45.69,523.89Z"/><polygon class="cls-7" points="23.69 564.01 25.97 595.24 66.1 595.24 68.37 564.01 23.69 564.01"/><rect class="cls-7" x="19.81" y="551.7" width="53.34" height="12.31"/><polygon class="cls-9" points="19.81 594.05 19.81 597.46 22.32 597.46 72.28 597.46 72.28 594.05 19.81 594.05"/><polygon class="cls-9" points="24.77 603.46 22.32 597.46 70.37 597.46 67.5 603.46 24.77 603.46"/><path class="cls-2" d="M67.64,574.23l-.19.27-.6.81-2.35,2.93-.1.13-.1-.13-5.74-8h.33l-5.65,8.09-.18.25-.2-.23c-2.08-2.49-4.39-5.18-6.71-8h.38c-.1.15-.23.29-.36.45l-6,7.51-.2.25-.19-.26-5.65-8h.32l-7,8-.12.13-.1-.16-2.18-3.66-.56-1-.18-.33a1,1,0,0,1,.24.3l.63.94,2.28,3.6h-.22l6.86-8,.17-.2.16.22,5.7,8H39.8l6-7.52.36-.47.19-.24.19.24,6.69,8h-.38l5.72-8,.16-.24.17.24,5.61,8h-.24l2.44-2.93.64-.76C67.53,574.3,67.62,574.21,67.64,574.23Z"/><path class="cls-9" d="M68.94,563.75c0,.14-10,.25-22.46.25S24,563.89,24,563.75s10-.25,22.45-.25S68.94,563.75,68.94,563.75Z"/><path class="cls-7" d="M71,597.8c0,.13-10.93.25-24.4.25s-24.41-.12-24.41-.25,10.94-.25,24.41-.25S71,597.67,71,597.8Z"/></g><g id="freepik--Devices--inject-8"><polygon class="cls-7" points="545.28 238.24 517.4 354.82 525.2 354.82 552.65 238.24 545.28 238.24"/><path class="cls-7" d="M534.57,315c-.5,2.13,12.63,65.69,12.63,65.69h-6.32L531,330.3Z"/><rect class="cls-8" x="496.83" y="464.72" width="130.58" height="138.42"/><rect class="cls-7" x="627.39" y="484.95" width="6.41" height="6.41"/><rect class="cls-7" x="627.39" y="505.3" width="6.41" height="6.41"/><rect class="cls-7" x="627.39" y="525.66" width="6.41" height="6.41"/><rect class="cls-7" x="627.39" y="546.01" width="6.41" height="6.41"/><path class="cls-7" d="M634.05,527.53a9.38,9.38,0,0,1,2-.42,30.69,30.69,0,0,1,5.5-.53,14.73,14.73,0,0,1,7.93,2.09,9.16,9.16,0,0,1,4.39,8.78,11,11,0,0,1-1.67,5A13.13,13.13,0,0,1,648.8,546a17.29,17.29,0,0,1-7.64,3,25.49,25.49,0,0,1-5.52.19,9,9,0,0,1-2-.28,11.13,11.13,0,0,1,2,0,29,29,0,0,0,5.43-.43,17.16,17.16,0,0,0,7.32-3,11.26,11.26,0,0,0,4.7-8.09,8.51,8.51,0,0,0-4-8.14,14.62,14.62,0,0,0-7.56-2.14,39.73,39.73,0,0,0-5.45.28A9.56,9.56,0,0,1,634.05,527.53Z"/><path class="cls-7" d="M632.45,507.29a2.65,2.65,0,0,1,.6-.36,13.15,13.15,0,0,1,1.91-.77,15,15,0,0,1,7.5-.42,6.88,6.88,0,0,1,2.39.95,4.14,4.14,0,0,1,1.68,2.28,7,7,0,0,1-4.17,7.83,4.27,4.27,0,0,1-3.53-.19,3.58,3.58,0,0,1-2-3.07,3.69,3.69,0,0,1,2.08-3.18,5.65,5.65,0,0,1,3.73-.39,7.94,7.94,0,0,1,3.26,1.55,8.78,8.78,0,0,1,3.25,5.85,8.18,8.18,0,0,1-1.67,5.86,11.7,11.7,0,0,1-4,3.38,19.12,19.12,0,0,1-7.31,1.9c-.88.07-1.57.1-2,.1a2.17,2.17,0,0,1-.72,0l2.73-.35a20.34,20.34,0,0,0,7-2.08,11.42,11.42,0,0,0,3.76-3.29,7.61,7.61,0,0,0,1.46-5.34,8.07,8.07,0,0,0-3-5.31,7,7,0,0,0-2.93-1.39,4.93,4.93,0,0,0-3.23.32,2.91,2.91,0,0,0-1.67,2.5,2.94,2.94,0,0,0,1.62,2.42,3.5,3.5,0,0,0,2.93.16,5.73,5.73,0,0,0,2.42-1.76,6,6,0,0,0,1.46-5.21,4.39,4.39,0,0,0-3.59-2.93,15.58,15.58,0,0,0-7.31.18C633.35,506.9,632.48,507.36,632.45,507.29Z"/><path class="cls-7" d="M632.51,487.43a3.47,3.47,0,0,1,1.46-.26,10.27,10.27,0,0,1,3.93.48,11.09,11.09,0,0,1,4.87,3.3,11.13,11.13,0,0,1,.42,13.6,10.91,10.91,0,0,1-4.71,3.59,10.31,10.31,0,0,1-3.88.79,3.31,3.31,0,0,1-1.46-.18,14.33,14.33,0,0,0,5.09-1.09,11,11,0,0,0,4.32-3.51,10.69,10.69,0,0,0-.38-12.74,11.21,11.21,0,0,0-4.52-3.23A14.51,14.51,0,0,0,632.51,487.43Z"/><path class="cls-7" d="M535.59,391.17a12.84,12.84,0,0,1,1.1,2.59,49.26,49.26,0,0,1,1.74,7.86c.54,3.45,1,7.71,1.46,12.64s.87,10.59,1.66,16.78c.2,1.53.45,3.11.77,4.71a20.59,20.59,0,0,0,1.47,4.71,16.91,16.91,0,0,0,3.2,4,25,25,0,0,0,14.77,6.85,20.87,20.87,0,0,0,11.53-2,14,14,0,0,0,7.45-9.37,10.75,10.75,0,0,0-.44-6.22,11,11,0,0,0-4.06-4.9,12.14,12.14,0,0,0-6.17-2,9.82,9.82,0,0,0-6.25,1.83,6.82,6.82,0,0,0-2.12,2.5,5.09,5.09,0,0,0-.41,3.19,7.72,7.72,0,0,0,4.05,5.16,18.74,18.74,0,0,0,6.68,1.84,61.73,61.73,0,0,0,6.93.48,109.1,109.1,0,0,0,13.64-.76c8.9-1,17.56-2.43,25.8-2.52s16.3,1.06,23,4.39a27.27,27.27,0,0,1,8.55,6.4,19.72,19.72,0,0,1,4.39,8.78,23.61,23.61,0,0,1-2.57,16.46,27.67,27.67,0,0,1-8.67,9.27,32.72,32.72,0,0,1-7.17,3.65,21,21,0,0,1-2.7.81l.68-.25c.45-.13,1.11-.38,2-.7a34,34,0,0,0,7.07-3.76,27.8,27.8,0,0,0,8.47-9.22,23.42,23.42,0,0,0,2.38-16.1,19.27,19.27,0,0,0-4.39-8.52,26.39,26.39,0,0,0-8.38-6.2c-6.59-3.19-14.5-4.39-22.7-4.2s-16.8,1.54-25.74,2.55a106.73,106.73,0,0,1-13.73.79,63.52,63.52,0,0,1-7-.49,19.33,19.33,0,0,1-6.94-1.93,8.51,8.51,0,0,1-4.39-5.68,6,6,0,0,1,.47-3.66,7.72,7.72,0,0,1,2.36-2.78,10.58,10.58,0,0,1,6.73-2,13.08,13.08,0,0,1,6.57,2.2,11.05,11.05,0,0,1,4.79,11.9,14.68,14.68,0,0,1-7.85,9.82,21.33,21.33,0,0,1-11.92,2,25.24,25.24,0,0,1-10.8-3.72,24.61,24.61,0,0,1-4.32-3.35,17.53,17.53,0,0,1-3.31-4.12,21.27,21.27,0,0,1-1.46-4.88q-.47-2.42-.75-4.74c-.76-6.22-1.12-11.85-1.55-16.8s-.83-9.19-1.32-12.64a52.37,52.37,0,0,0-1.59-7.86,17.86,17.86,0,0,0-.69-2A6.15,6.15,0,0,1,535.59,391.17Z"/><path class="cls-7" d="M620,597.41v-9.24c0-6,0-14.79-.09-25.93,0-22.29-.1-54-.17-92l.33.34H502l.38-.38V597.36l-.32-.32,85.52.16,24,.09H618l-6.43.12-23.9.08-85.74.16h-.34V469.83H620.34v.26c-.08,38.05-.14,69.91-.18,92.19,0,11.13,0,19.88-.09,25.86v8.53A2.84,2.84,0,0,1,620,597.41Z"/><path class="cls-7" d="M586.68,485.79a.6.6,0,0,1-.59.62h0a.62.62,0,0,1-.19-1.22h.19A.6.6,0,0,1,586.68,485.79Z"/><path class="cls-7" d="M590.06,485.79a.6.6,0,0,1-.59.62h0a.62.62,0,0,1-.19-1.22h.19A.6.6,0,0,1,590.06,485.79Z"/><path class="cls-7" d="M593.4,485.79a.61.61,0,0,1-.59.62h0a.62.62,0,1,1-.19-1.22h.19A.6.6,0,0,1,593.4,485.79Z"/><path class="cls-7" d="M596.73,485.79a.61.61,0,0,1-.6.63.62.62,0,0,1,0-1.23h0A.62.62,0,0,1,596.73,485.79Z"/><path class="cls-7" d="M600.07,485.79a.62.62,0,0,1-.62.62h0a.62.62,0,0,1-.51-.7.63.63,0,0,1,.51-.52A.62.62,0,0,1,600.07,485.79Z"/><path class="cls-7" d="M603.4,485.79a.61.61,0,0,1-.61.62h0a.61.61,0,0,1-.51-.7.63.63,0,0,1,.51-.52A.61.61,0,0,1,603.4,485.79Z"/><path class="cls-7" d="M606.74,485.79a.61.61,0,0,1-.61.62h0a.62.62,0,0,1-.52-.7.64.64,0,0,1,.52-.52A.62.62,0,0,1,606.74,485.79Z"/><circle class="cls-7" cx="604.59" cy="488.05" r="0.6"/><circle class="cls-7" cx="601.18" cy="488.05" r="0.6"/><path class="cls-7" d="M598.39,488.05a.6.6,0,0,1-.6.6h0a.6.6,0,0,1-.62-.59h0a.62.62,0,0,1,.62-.62h0a.6.6,0,0,1,.6.6Z"/><circle class="cls-7" cx="594.36" cy="488.05" r="0.6"/><circle class="cls-7" cx="590.94" cy="488.05" r="0.6"/><path class="cls-7" d="M588.14,488.05a.6.6,0,0,1-.6.6h0a.6.6,0,0,1-.6-.6h0a.6.6,0,0,1,.58-.62h0a.61.61,0,0,1,.61.62Z"/><path class="cls-7" d="M586.68,490.58a.6.6,0,0,1-.6.6h0a.6.6,0,0,1-.62-.59h0a.62.62,0,0,1,.62-.62h0a.6.6,0,0,1,.6.6Z"/><path class="cls-7" d="M590.06,490.58a.6.6,0,0,1-.6.6h0a.6.6,0,0,1-.62-.59h0a.62.62,0,0,1,.62-.62h0a.6.6,0,0,1,.6.6Z"/><path class="cls-7" d="M593.4,490.58a.6.6,0,0,1-.6.6h0a.6.6,0,0,1-.62-.59h0a.62.62,0,0,1,.62-.62h0a.6.6,0,0,1,.6.6Z"/><path class="cls-7" d="M596.73,490.58a.61.61,0,0,1-.7.51.62.62,0,0,1-.51-.51.61.61,0,1,1,1.21,0Z"/><path class="cls-7" d="M600.07,490.58a.6.6,0,0,1-.6.6h0a.6.6,0,0,1-.6-.6h0a.6.6,0,0,1,.59-.61h0a.62.62,0,0,1,.62.62Z"/><path class="cls-7" d="M603.4,490.58a.59.59,0,0,1-.59.6h0a.6.6,0,0,1-.6-.6h0a.59.59,0,0,1,.59-.61h0a.61.61,0,0,1,.61.62Z"/><path class="cls-7" d="M606.74,490.58a.6.6,0,0,1-.6.6h0a.6.6,0,0,1-.6-.6h0a.59.59,0,0,1,.58-.61h0a.61.61,0,0,1,.61.62Z"/><path class="cls-7" d="M605.2,492.82a.61.61,0,0,1-.61.61h0a.6.6,0,0,1-.6-.6h0a.6.6,0,0,1,.6-.6h0a.59.59,0,0,1,.61.58Z"/><path class="cls-7" d="M601.78,492.82a.59.59,0,0,1-.58.61h0a.61.61,0,0,1-.61-.61h0a.6.6,0,0,1,.6-.6h0a.6.6,0,0,1,.6.6Z"/><path class="cls-7" d="M598.39,492.82a.61.61,0,0,1-.59.61h0a.61.61,0,0,1-.62-.61h0a.6.6,0,0,1,.6-.6h0a.6.6,0,0,1,.6.6Z"/><path class="cls-7" d="M595,492.82a.59.59,0,0,1-.58.61h0a.61.61,0,0,1-.61-.61h0a.6.6,0,0,1,.6-.6h0a.6.6,0,0,1,.6.6Z"/><path class="cls-7" d="M591.55,492.82a.61.61,0,1,1-1.21.19.61.61,0,0,1,0-.19.61.61,0,0,1,1.21,0Z"/><path class="cls-7" d="M588.14,492.82a.61.61,0,0,1-.61.61h0a.6.6,0,0,1-.6-.6h0a.6.6,0,0,1,.6-.6h0a.59.59,0,0,1,.61.58Z"/><path class="cls-7" d="M586.68,495.35a.6.6,0,0,1-.59.61h0a.61.61,0,0,1-.62-.61h0a.6.6,0,0,1,.6-.6h0a.6.6,0,0,1,.6.6Z"/><path class="cls-7" d="M590.06,495.35a.59.59,0,0,1-.59.61h0a.61.61,0,0,1-.62-.61h0a.6.6,0,0,1,.6-.6h0a.6.6,0,0,1,.6.6Z"/><path class="cls-7" d="M593.4,495.35a.6.6,0,0,1-.59.61h0a.61.61,0,0,1-.62-.61h0a.6.6,0,0,1,.6-.6h0a.6.6,0,0,1,.6.6Z"/><path class="cls-7" d="M596.73,495.35a.61.61,0,0,1-1.21.19.61.61,0,0,1,.7-.7A.62.62,0,0,1,596.73,495.35Z"/><path class="cls-7" d="M600.07,495.35a.61.61,0,0,1-.62.61h0a.59.59,0,0,1-.6-.59v0a.6.6,0,0,1,.6-.6h0a.6.6,0,0,1,.62.59Z"/><path class="cls-7" d="M603.4,495.35a.61.61,0,0,1-.61.61h0a.59.59,0,0,1-.6-.59v0a.6.6,0,0,1,.6-.6h0a.59.59,0,0,1,.61.59Z"/><path class="cls-7" d="M606.74,495.35a.61.61,0,0,1-.61.61h0a.59.59,0,0,1-.6-.59v0a.6.6,0,0,1,.6-.6h0a.6.6,0,0,1,.61.59Z"/><circle class="cls-7" cx="604.59" cy="497.6" r="0.6"/><circle class="cls-7" cx="601.18" cy="497.6" r="0.6"/><path class="cls-7" d="M598.39,497.6a.6.6,0,0,1-.6.6h0a.61.61,0,1,1-.19-1.21h.19a.6.6,0,0,1,.6.6Z"/><circle class="cls-7" cx="594.36" cy="497.6" r="0.6"/><circle class="cls-7" cx="590.94" cy="497.6" r="0.6"/><path class="cls-7" d="M588.14,497.6a.57.57,0,1,1-1.13-.1.63.63,0,0,1,.52-.51A.61.61,0,0,1,588.14,497.6Z"/><path class="cls-2" d="M540.58,349.06a7.62,7.62,0,0,1,2.37.42,13.33,13.33,0,0,1,5.77,3.76,25.3,25.3,0,0,1,5.11,9.66,96.53,96.53,0,0,1,3.2,14.15,178.47,178.47,0,0,1,.94,37.68,22.11,22.11,0,0,1-3.28,10.45,13.36,13.36,0,0,1-4.13,4,9.21,9.21,0,0,1-5.7,1.36,8.91,8.91,0,0,1-5.43-2.53,6.7,6.7,0,0,1-1.6-2.65,5.62,5.62,0,0,1,0-3.15,6.76,6.76,0,0,1,4.08-4.61,4.87,4.87,0,0,1,3.24,0,5.77,5.77,0,0,1,2.57,1.95,8,8,0,0,1,1.47,6.06,16.55,16.55,0,0,1-2.12,5.76,22.29,22.29,0,0,1-30,8.69,25.34,25.34,0,0,1-7.91-6.8,33.72,33.72,0,0,1-4.87-8.53,56.48,56.48,0,0,1-3.2-17.27c-.28-5.37,0-10.24-.52-14.46a24.29,24.29,0,0,0-1.36-5.7,16.08,16.08,0,0,0-2.44-4.28,12.28,12.28,0,0,0-5.44-4,17.17,17.17,0,0,0-2.33-.56,7.7,7.7,0,0,1,2.38.43,11.91,11.91,0,0,1,5.61,4,16.24,16.24,0,0,1,2.56,4.39,24.66,24.66,0,0,1,1.46,5.86c.57,4.25.31,9.13.63,14.47a56.27,56.27,0,0,0,3.27,17.08,33,33,0,0,0,4.72,8.4,25.09,25.09,0,0,0,7.71,6.6,21.6,21.6,0,0,0,29-8.46,15.88,15.88,0,0,0,2-5.49,7.19,7.19,0,0,0-1.28-5.5,5.2,5.2,0,0,0-2.23-1.7,4,4,0,0,0-2.73,0,6,6,0,0,0-3.6,4.08,5.26,5.26,0,0,0,1.47,5.08,8.09,8.09,0,0,0,5,2.31,8.5,8.5,0,0,0,5.25-1.24,12.7,12.7,0,0,0,3.91-3.78,21.35,21.35,0,0,0,3.17-10.11,180.42,180.42,0,0,0-.76-37.53,98.46,98.46,0,0,0-3.08-14.1,25.2,25.2,0,0,0-4.92-9.58,13.4,13.4,0,0,0-5.59-3.82A17.87,17.87,0,0,0,540.58,349.06Z"/><rect class="cls-2" x="480.48" y="370.23" width="48.61" height="9.26"/><rect class="cls-7" x="114.77" y="466" width="63.41" height="136.49"/><path class="cls-9" d="M172.74,588.11v-8.82c0-5.71,0-14-.11-24.38,0-20.81-.1-50.11-.17-84.19l.36.35h-53l.38-.38c0,45.6,0,87-.11,117.39l-.27-.27,38.73.14,10.6.08H158.69l-38.91.14h-.27v-.28c0-30.38,0-71.79-.11-117.39v-.38h53.8v.37c0,34.18-.13,63.57-.17,84.43,0,10.36,0,18.62-.1,24.3v8.1A2.07,2.07,0,0,1,172.74,588.11Z"/><path class="cls-9" d="M169.46,480.66v-1.47c0-.95,0-2.28-.09-3.95l.16.16c-8.21.14-25.8.22-46.12.22h0l.38-.38h0v5.37l-.37-.38c12.89,0,24.37.09,32.66.16l9.82.11h2.68a3.94,3.94,0,0,1,1,0,6.32,6.32,0,0,1-.87,0h-2.6l-9.72.1c-8.28.09-19.89.16-32.94.16H123V475h0l.39-.38h0c20.33,0,37.92.09,46.13.22h.06V475c0,1.71,0,3.06-.09,4.05A12.16,12.16,0,0,1,169.46,480.66Z"/><path class="cls-9" d="M128,484.52c0,.21-1,.38-2.12.38s-2.14-.17-2.14-.38,1-.38,2.14-.38S128,484.3,128,484.52Z"/><path class="cls-9" d="M168.23,491.56c0,.2-9.82.38-21.95.38s-22-.18-22-.38,9.8-.38,22-.38S168.23,491.36,168.23,491.56Z"/><path class="cls-9" d="M168.42,500.06c0,.22-9.66.38-21.56.38s-21.55-.16-21.55-.38,9.64-.38,21.55-.38S168.42,499.86,168.42,500.06Z"/><circle class="cls-8" cx="146.29" cy="519.95" r="3.48"/><path class="cls-9" d="M136.46,519.85a15,15,0,0,1-4.67.38,14.9,14.9,0,0,1-4.61-.38,14,14,0,0,1,4.65-.38A14.14,14.14,0,0,1,136.46,519.85Z"/><path class="cls-9" d="M164.79,518.88a13,13,0,0,1-4.39.38,12.75,12.75,0,0,1-4.39-.38,13.53,13.53,0,0,1,4.39-.38A13.53,13.53,0,0,1,164.79,518.88Z"/><path class="cls-7" d="M116.94,534.48a12.69,12.69,0,0,1-2.37-.44,20.48,20.48,0,0,1-6.28-2.93,26.83,26.83,0,0,1-7.57-7.88,45.58,45.58,0,0,1-5.51-13.41,54.64,54.64,0,0,1-1.69-17.46,35.82,35.82,0,0,1,6.66-18.93,29.75,29.75,0,0,1,7.95-7.55,27,27,0,0,1,5.11-2.53,28.09,28.09,0,0,1,5.64-1.35c3.87-.54,7.82-.47,11.71-.7a29.18,29.18,0,0,0,11.58-2.67,13,13,0,0,0,7.2-8.78,12.33,12.33,0,0,0-9.29-14.76,12.46,12.46,0,0,0-3-.31,8.75,8.75,0,0,0-4.88,1.82,5.28,5.28,0,0,0-2,4.39,7.08,7.08,0,0,0,6.52,6.3,10.73,10.73,0,0,0,8.37-3.76,20.14,20.14,0,0,0,4.13-8,67.5,67.5,0,0,0,1.68-8.21,135.72,135.72,0,0,0,.78-25.33c-.15-2.93-.26-5.29-.35-6.9a14,14,0,0,0-.09-1.8,3.11,3.11,0,0,1,0-.61,3.21,3.21,0,0,1,.09.61c0,.44.09,1,.16,1.79.12,1.58.31,3.89.48,6.89a128.55,128.55,0,0,1-.54,25.42,68.83,68.83,0,0,1-1.65,8.3,20.92,20.92,0,0,1-4.14,8.21,11.36,11.36,0,0,1-8.89,4,7.74,7.74,0,0,1-7.18-6.93,6,6,0,0,1,2.3-5,9.24,9.24,0,0,1,5.28-2,13.17,13.17,0,0,1,10.37,21.45,15.09,15.09,0,0,1-4.9,3.82A29.93,29.93,0,0,1,130.65,462c-4,.23-7.93.16-11.71.67a28.94,28.94,0,0,0-5.5,1.3,26.64,26.64,0,0,0-5,2.46,29.67,29.67,0,0,0-7.79,7.32,35.39,35.39,0,0,0-6.58,18.56,54.59,54.59,0,0,0,1.64,17.31A46.39,46.39,0,0,0,101.1,523a27,27,0,0,0,7.32,7.87,21.53,21.53,0,0,0,6.16,3c.75.22,1.33.35,1.73.44A2.72,2.72,0,0,1,116.94,534.48Z"/><rect class="cls-7" x="95.35" y="254.26" width="150.14" height="103.11"/><rect class="cls-7" x="158.82" y="343.31" width="20.44" height="38.9"/></g><g id="freepik--Desk--inject-8"><polygon class="cls-7" points="110.29 380.71 110.29 394.7 187.76 394.7 187.76 603.17 194.89 603.17 194.89 394.7 518.43 396.3 518.43 603.17 525.42 603.17 525.42 395.91 575.35 396.31 575.35 379.5 110.29 380.71"/><polygon class="cls-7" points="159.87 391.98 190.41 413.97 187.76 416.52 156.96 393.32 159.87 391.98"/><polygon class="cls-7" points="554.21 394.03 518.76 419.27 521.43 421.82 557.12 395.37 554.21 394.03"/><rect class="cls-7" x="222.94" y="375.54" width="80.08" height="5.9"/></g></g></g></svg>