<svg xmlns="http://www.w3.org/2000/svg" viewBox="0 0 696.56 629.28"><defs><style>.cls-1{fill:#f5f5f5;}.cls-2{fill:#455a64;}.cls-3{fill:#f0f0f0;}.cls-4{fill:#e0e0e0;}.cls-5{fill:#263238;}.cls-10,.cls-6{fill:#fff;}.cls-7,.cls-9{fill:#ed7d2b;}.cls-8{fill:#ff725e;}.cls-9{opacity:0.1;}.cls-10,.cls-13,.cls-9{isolation:isolate;}.cls-10{opacity:0.5;}.cls-11{fill:#ffbe9d;}.cls-12{fill:#eb996e;}.cls-13{opacity:0.2;}.cls-14{fill:#b78876;}.cls-15{fill:#a36957;}.cls-16{fill:#0071bc;}</style></defs><g id="Layer_2" data-name="Layer 2"><g id="Layer_1-2" data-name="Layer 1"><g id="freepik--background-complete--inject-3"><path class="cls-1" d="M642.37,349.17v72.64a23.81,23.81,0,0,1-23.81,23.8H358.12a23.8,23.8,0,0,1-23.79-23.8V360.43l-32.44-34.07,316.6-1a23.79,23.79,0,0,1,23.88,23.7Z"/><polygon class="cls-2" points="372.71 369.38 609.05 368.29 609.02 361.02 372.69 362.12 372.71 369.38"/><polygon class="cls-2" points="372.71 393.27 609.05 392.2 609.02 384.93 372.69 386.01 372.71 393.27"/><rect class="cls-2" x="372.68" y="409.1" width="93.51" height="7.26" transform="matrix(1, 0, 0, 1, -2.01, 2.05)"/><path class="cls-3" d="M373.77,69.46v27a6.85,6.85,0,0,0,6.85,6.85H531.44a6.85,6.85,0,0,0,6.85-6.85V81.71L555.6,63.18l-175-.57a6.86,6.86,0,0,0-6.87,6.84Z"/><path class="cls-4" d="M272.11,15.77V64a15.78,15.78,0,0,1-15.76,15.79H83.53A15.77,15.77,0,0,1,67.76,64V23.26L46.3.65l210-.65a15.77,15.77,0,0,1,15.83,15.72Z"/><polygon class="cls-2" points="93.28 29.18 250.02 28.46 250 23.65 93.26 24.37 93.28 29.18"/><polygon class="cls-2" points="93.28 45.04 250.02 44.31 250 39.49 93.26 40.21 93.28 45.04"/><rect class="cls-2" x="93.25" y="55.53" width="62.01" height="4.81" transform="translate(-0.28 0.61) rotate(-0.28)"/><path class="cls-3" d="M17.51,174.76v72.65A23.79,23.79,0,0,0,41.3,271.2H301.75a23.79,23.79,0,0,0,23.81-23.77V186L358,152l-316.6-1a23.8,23.8,0,0,0-23.87,23.74Z"/><polygon class="cls-2" points="287.16 194.97 50.82 193.89 50.85 186.63 287.18 187.71 287.16 194.97"/><polygon class="cls-2" points="287.16 218.88 50.82 217.78 50.85 210.52 287.18 211.61 287.16 218.88"/><rect class="cls-2" x="236.77" y="191.53" width="7.26" height="93.51" transform="translate(0.94 477.51) rotate(-89.72)"/><path class="cls-3" d="M65.29,346.16h4.54l10-13.32v-8.76s7.07-.41,6.25,11.05,0,8.56,0,8.56,15,0,16.27,1.31c.91.9,1.32,15.19,1.47,22.93a8.42,8.42,0,0,1-6.2,8.46,7.54,7.54,0,0,1-1.71.2c-3.56-.08-22.66-3-22.66-3h-8Z"/><polygon class="cls-3" points="52.19 343.71 55 373.67 62.84 373.67 62.84 344.31 52.19 343.71"/><path class="cls-3" d="M694.94,85.7a6.05,6.05,0,0,0-8.46-.39,10.25,10.25,0,0,0-3.85,7.81,10.49,10.49,0,0,0-5.14-7.23,6.12,6.12,0,0,0-8.41,1.51,8.17,8.17,0,0,0-.85,5.85,11,11,0,0,0,2.43,5.47c4.74,5,7.19,5.84,13.07,9.25,5.34-4.15,7.07-5.14,11.08-10.85a11.19,11.19,0,0,0,1.71-5.73A8.27,8.27,0,0,0,694.94,85.7Z"/></g><g id="freepik--Device--inject-3"><path class="cls-5" d="M412.73,547.79,234.48,547a38.8,38.8,0,0,1-38.65-39v0l1.9-446.88a38.84,38.84,0,0,1,39-38.62L415,23.29a38.84,38.84,0,0,1,38.65,39l-1.88,446.83A38.87,38.87,0,0,1,412.73,547.79Z"/><path class="cls-6" d="M414.72,38.67l-34.56-.15a8.56,8.56,0,0,0-8.43,8.69v6.31a8.55,8.55,0,0,1-8.39,8.73h0L295.9,62a8.57,8.57,0,0,1-8.36-8.77V46.86a8.56,8.56,0,0,0-8.3-8.82H267l-30.19-.16A27.21,27.21,0,0,0,209.51,65h0l-1.85,436.18a27.21,27.21,0,0,0,27.08,27.31l177.89.83A27.21,27.21,0,0,0,440,502.2h0L441.8,66a27.22,27.22,0,0,0-27.08-27.35Z"/><path class="cls-2" d="M317,474.2a3.74,3.74,0,1,1-3.74-3.74h0A3.76,3.76,0,0,1,317,474.2Z"/><path class="cls-2" d="M331.13,474.2a3.74,3.74,0,1,1-3.74-3.74h0A3.76,3.76,0,0,1,331.13,474.2Z"/><path class="cls-2" d="M345.31,474.2a3.74,3.74,0,1,1-3.74-3.74h0A3.76,3.76,0,0,1,345.31,474.2Z"/><path class="cls-2" d="M242.65,160.35v-.94a12.37,12.37,0,0,1,2.52-6.85,12.7,12.7,0,0,1,4.81-4,15.68,15.68,0,0,1,7.76-1.29h32.4l137,.28h1l-.71.74-17.55,18.46.12-.29v30.57a23,23,0,0,1-.45,6.08,13,13,0,0,1-2.89,5.39,13.32,13.32,0,0,1-4.93,3.53,14.86,14.86,0,0,1-5.93,1h-55.9l-74.86-.15h-7.88a14.88,14.88,0,0,1-7.35-1.32,13.15,13.15,0,0,1-7.39-10.95V178.9c0-6,0-10.56.08-13.7v13.7c0,5.91,0,13.28.12,21.72a12.63,12.63,0,0,0,7.16,10.46,14.18,14.18,0,0,0,7.09,1.24h8.17l74.95-.09h55.86a13.62,13.62,0,0,0,5.58-.94,12.58,12.58,0,0,0,4.63-3.29,12.13,12.13,0,0,0,2.67-5,22.19,22.19,0,0,0,.43-5.86V166.33l.12-.12,17.57-18.46.33.74-137-.59-23-.12h-9.41a15.47,15.47,0,0,0-7.6,1.19,12.5,12.5,0,0,0-4.76,3.83,13.23,13.23,0,0,0-2.09,4A19.55,19.55,0,0,0,242.65,160.35Z"/><polygon class="cls-2" points="388.76 171.32 260.7 170.72 260.72 166.78 388.76 167.38 388.76 171.32"/><polygon class="cls-2" points="388.76 184.26 260.7 183.66 260.72 179.72 388.76 180.32 388.76 184.26"/><rect class="cls-2" x="361.43" y="169.45" width="3.94" height="50.66" transform="translate(166.85 557.22) rotate(-89.72)"/><path class="cls-7" d="M416.74,247.08v39.39a12.9,12.9,0,0,1-12.88,12.9H262.74a12.9,12.9,0,0,1-12.9-12.9V253.2l-17.55-18.46,171.5-.54A12.88,12.88,0,0,1,416.74,247Z"/><polygon class="cls-6" points="270.65 258.04 398.71 257.44 398.69 253.51 270.64 254.1 270.65 258.04"/><polygon class="cls-6" points="270.65 270.99 398.71 270.39 398.69 266.47 270.64 267.05 270.65 270.99"/><rect class="cls-6" x="270.62" y="279.56" width="50.66" height="3.94" transform="translate(-1.37 1.45) rotate(-0.28)"/><path class="cls-8" d="M339.93,96.32A6.86,6.86,0,0,0,344,89.91a6.49,6.49,0,1,0-13-.66,3.64,3.64,0,0,0,0,.66,6.85,6.85,0,0,0,4.12,6.46c-10,1.51-9.54,12.37-9.54,12.37l23.62.1S349.83,97.83,339.93,96.32Z"/><path class="cls-9" d="M339.93,96.32A6.86,6.86,0,0,0,344,89.91a6.49,6.49,0,1,0-13-.66,3.64,3.64,0,0,0,0,.66,6.85,6.85,0,0,0,4.12,6.46c-10,1.51-9.54,12.37-9.54,12.37l23.62.1S349.83,97.83,339.93,96.32Z"/><path class="cls-7" d="M327,96.32a7,7,0,0,0,4.13-6.41,6.51,6.51,0,0,0-13-.94,7.37,7.37,0,0,0,0,.94,6.84,6.84,0,0,0,4.13,6.46c-10,1.51-9.54,12.37-9.54,12.37l23.62.1S336.86,97.83,327,96.32Z"/><rect class="cls-8" x="327.38" y="85.69" width="7.88" height="63.49" transform="translate(212.38 448.21) rotate(-89.74)"/><rect class="cls-9" x="327.38" y="85.69" width="7.88" height="63.49" transform="translate(212.38 448.21) rotate(-89.74)"/><path class="cls-2" d="M245.61,336.77a4.71,4.71,0,0,1,0-.92,6.73,6.73,0,0,1,.88-2.62,7,7,0,0,1,3.42-2.93,17.2,17.2,0,0,1,6.1-.53h39.27l132.23.27h1l-.75.71-17.3,18.56.12-.31v15.16a7.24,7.24,0,0,1-4.86,6.49,7.78,7.78,0,0,1-2.79.41H344.57l-67.51-.14H254a12.77,12.77,0,0,1-3-.17,7.08,7.08,0,0,1-5.48-5.72,16.69,16.69,0,0,1-.1-2.55v-8.94c0-5.36,0-9.52.08-12.4v0c0,2.88,0,7,.09,12.4v8.94a14.55,14.55,0,0,0,.12,2.47,6.58,6.58,0,0,0,5.14,5.32,13.65,13.65,0,0,0,2.86.14h23.36l67.58-.1H403a7,7,0,0,0,2.48-.36,6.34,6.34,0,0,0,4.28-5.7V349l.12-.12,17.34-18.53.3.73-132.21-.56L256,330.23a16.41,16.41,0,0,0-6,.45,6.84,6.84,0,0,0-4.24,5.31A7.31,7.31,0,0,1,245.61,336.77Z"/><polygon class="cls-2" points="394.5 347.15 266.44 346.57 266.46 342.63 394.51 343.23 394.5 347.15"/><rect class="cls-2" x="366.56" y="331.75" width="3.94" height="51.96" transform="translate(9 724.5) rotate(-89.72)"/><path class="cls-7" d="M412.24,407v27a6.85,6.85,0,0,1-6.85,6.85H254.57a6.85,6.85,0,0,1-6.85-6.85V419.26l-17.31-18.54,175-.54A6.85,6.85,0,0,1,412.24,407Z"/><polygon class="cls-6" points="263.37 417.41 391.43 416.82 391.41 412.88 263.36 413.48 263.37 417.41"/><polygon class="cls-6" points="263.37 430.08 391.43 429.48 391.41 425.56 263.36 426.14 263.37 430.08"/></g><g id="freepik--Emojis--inject-3"><circle class="cls-8" cx="618.65" cy="63.57" r="20.09"/><circle class="cls-10" cx="618.65" cy="63.57" r="20.09"/><path class="cls-5" d="M612,57.82c.76,0,1.44.8,1.51,1.9s-.5,2-1.27,2.07-1.44-.8-1.5-1.9S611.21,57.85,612,57.82Z"/><path class="cls-5" d="M613.85,52.77c0,.29-1.71.2-3.43.85s-3.1,1.72-3.3,1.51.84-1.71,3-2.47S613.94,52.51,613.85,52.77Z"/><path class="cls-5" d="M628.41,61c-.23.17-1.3-1-3-1.16s-3,.7-3.21.5.14-.5.71-.9a4.15,4.15,0,0,1,2.62-.61,4,4,0,0,1,2.41,1.16C628.39,60.46,628.51,60.87,628.41,61Z"/><path class="cls-5" d="M630.14,57.6c-.16.24-1.72-.6-4-.67s-3.87.61-4,.34a4.66,4.66,0,0,1,4.05-1.35C628.72,56,630.31,57.41,630.14,57.6Z"/><path class="cls-5" d="M628.72,63.18A6.35,6.35,0,0,1,627.45,67a10.17,10.17,0,0,1-17.13.53,6.07,6.07,0,0,1-1.49-3.76,24.25,24.25,0,0,0,2.06,3.42,9.85,9.85,0,0,0,13.84,1.7,9.62,9.62,0,0,0,2.07-2.2A29.49,29.49,0,0,0,628.72,63.18Z"/><path class="cls-8" d="M56.5,418.93a28.26,28.26,0,1,1-27.4-29.11,28.26,28.26,0,0,1,27.4,29.11Z"/><path class="cls-10" d="M56.5,418.93a28.26,28.26,0,1,1-27.4-29.11,28.26,28.26,0,0,1,27.4,29.11Z"/><path class="cls-8" d="M22.7,410.3a3.15,3.15,0,0,0-4.35-.64A5.4,5.4,0,0,0,16,413.5a5.53,5.53,0,0,0-2.26-4,3.21,3.21,0,0,0-4.4.37,4.23,4.23,0,0,0-.72,3,5.94,5.94,0,0,0,1,2.93,22.44,22.44,0,0,0,6.29,5.39,20.89,20.89,0,0,0,6.22-5,5.91,5.91,0,0,0,1.14-2.86A4.19,4.19,0,0,0,22.7,410.3Z"/><path class="cls-8" d="M47.56,411a3.14,3.14,0,0,0-4.35-.62,5.31,5.31,0,0,0-2.34,3.84,5.53,5.53,0,0,0-2.26-4,3.19,3.19,0,0,0-4.4.37,4.18,4.18,0,0,0-.72,3,5.72,5.72,0,0,0,1,2.93,22.3,22.3,0,0,0,6.29,5.39,21.16,21.16,0,0,0,6.21-5A5.92,5.92,0,0,0,48.11,414,4.22,4.22,0,0,0,47.56,411Z"/><path class="cls-6" d="M37.43,425a9.32,9.32,0,0,1-18.57-.86Z"/></g><g id="freepik--character-2--inject-3"><path class="cls-8" d="M557.25,599.49l-3.43-18.08-32.45,5.75,4.71,27.11,2-.22c9.06-1.08,45.84-6.69,51.49-9.66C586,601.09,557.25,599.49,557.25,599.49Z"/><path class="cls-5" d="M580.2,602.59c0,.31-12,2.8-27,5.55s-27.13,4.75-27.18,4.44,12-2.78,27-5.53S580.09,602.3,580.2,602.59Z"/><path class="cls-5" d="M558.5,603.06c-.29-.11-.24-1.1.29-2.16s1.27-1.71,1.52-1.56,0,1-.53,2S558.79,603.18,558.5,603.06Z"/><path class="cls-5" d="M560.79,603.9c-.31,0-.36-1.15,0-2.4s1.15-2.07,1.42-1.94,0,1.15-.36,2.3S561.1,604,560.79,603.9Z"/><path class="cls-5" d="M535.67,610.66c-.12.12-.69-.27-1.54-.94a19.82,19.82,0,0,0-3.43-2.31,7.43,7.43,0,0,0-3.6-.93c-1,0-1.62.33-1.71.17s.45-.67,1.61-1a6.59,6.59,0,0,1,4.42.67,12.2,12.2,0,0,1,3.43,2.76C535.46,609.91,535.82,610.56,535.67,610.66Z"/><path class="cls-5" d="M557.93,599.63c.21.22-.24,1-1.09,1.47s-1.72.55-1.82.26.5-.77,1.25-1.23S557.76,599.43,557.93,599.63Z"/><path class="cls-5" d="M557.14,598c0,.31-.73.72-1.83,1s-2,.13-2-.18.79-.71,1.82-.92S557.06,597.71,557.14,598Z"/><path class="cls-5" d="M596.3,408.28c-10.06-20.3-63.94-98.81-63.94-98.81l-28.75,3v-.17l-32.18,3.53h0l-17.75,1.95,64.24,280.58,44.43-.8-10.69-51.91C559,527.25,601.86,419.51,596.3,408.28Zm-45.84,12.11L534.59,463l-18-87.34Z"/><path class="cls-11" d="M514.82,179.88c-.41-2.93,1.17-15.11,1.17-15.11s11.18-.82,12.23-11.85,1.16-36.56,1.16-36.56l-20-10.59L486.5,122l-5.93,15.42,7.81,19.15-.24,6.33v14.51Z"/><path class="cls-5" d="M527.89,134.85a1.42,1.42,0,1,1-1.38-1.45h0a1.4,1.4,0,0,1,1.37,1.44Z"/><path class="cls-5" d="M528,133.36c-.19.19-1.22-.73-2.73-.87s-2.69.57-2.84.36.12-.43.63-.75a3.72,3.72,0,0,1,2.3-.52,3.68,3.68,0,0,1,2.14.93C527.94,132.94,528.08,133.3,528,133.36Z"/><path class="cls-5" d="M510,133.12a1.42,1.42,0,1,1-2,.31,1.43,1.43,0,0,1,2-.31Z"/><path class="cls-5" d="M511.09,132.83c-.19.17-1.2-.75-2.72-.87s-2.69.56-2.84.34.12-.41.63-.73a3.71,3.71,0,0,1,4.45.41C511.06,132.39,511.19,132.75,511.09,132.83Z"/><path class="cls-5" d="M516.18,145.88a10.5,10.5,0,0,1,2.5-.24c.39,0,.77,0,.87-.32a2.33,2.33,0,0,0-.19-1.25c-.29-1-.6-2.07-.94-3.19a56.52,56.52,0,0,1-2-8.3,11.4,11.4,0,0,1,.89,2.34c.48,1.48,1.11,3.51,1.71,5.79.31,1.11.62,2.19.89,3.2a2.41,2.41,0,0,1,.1,1.61.9.9,0,0,1-.67.52,2.43,2.43,0,0,1-.66,0A10.6,10.6,0,0,1,516.18,145.88Z"/><path class="cls-6" d="M511.11,147.15c-1.53-1.06,4.16,2.69,7.28,2.77a4.23,4.23,0,0,1-5.14,1.29C510.08,149.72,511.11,147.15,511.11,147.15Z"/><path class="cls-12" d="M516,164.77a27.54,27.54,0,0,1-14.49-5.41s3.05,8.22,14.16,8.12Z"/><path class="cls-12" d="M489.68,140.47a4,4,0,0,1-.42.28,1.72,1.72,0,0,1-1.24.08,4,4,0,0,1-2.09-3.53,5.52,5.52,0,0,1,.31-2.38,1.87,1.87,0,0,1,1.17-1.32.83.83,0,0,1,1,.38c.14.26.08.46.14.46s.2-.17.1-.55a1,1,0,0,0-.41-.56,1.18,1.18,0,0,0-.93-.19,2.29,2.29,0,0,0-1.62,1.56,5.67,5.67,0,0,0-.42,2.67,4.29,4.29,0,0,0,2.66,3.92,1.69,1.69,0,0,0,1.47-.34C489.68,140.64,489.72,140.49,489.68,140.47Z"/><path class="cls-7" d="M532.24,118.19a7.38,7.38,0,0,1-1.86.36,11.83,11.83,0,0,0,4.91-4.85,9.41,9.41,0,0,0,0-9.38,6.68,6.68,0,0,0-8.56-2.4,5.4,5.4,0,0,0-1.9-6.85,8.82,8.82,0,0,0-7.61-.67,26.48,26.48,0,0,0-6.85,3.91,5.6,5.6,0,0,0-3.13-4.11,8.68,8.68,0,0,0-5.24-.67,12.76,12.76,0,0,0-10.4,10.27,6.75,6.75,0,0,0-9.54-.12,6.86,6.86,0,0,0-1.69,2.71v.24a5.35,5.35,0,0,0-2.47,2.16,6.44,6.44,0,0,0-.53,5.48,8.89,8.89,0,0,0,3.42,4.3,6.71,6.71,0,0,1,1.58,1.52,3.63,3.63,0,0,1,.6,1.71c-.15,3.7-2,7.2-3,10.83-1.27,5,1.52,11.9,3.13,16.83s2.18,6.85,5.31,7.25l.48-13.26c-3.43,2.81-8-6.85-5-10.7s6.18-2.54,6.73-.11a23.59,23.59,0,0,0,.8,2.76h3.43l-.38-2.89s-.7-12.86,5.45-13.7a6.22,6.22,0,0,1,4.66.85,13.07,13.07,0,0,0,6.25.88c2.19,0,5.14-2.5,5.14-4.68A12,12,0,0,0,526.28,120a11.59,11.59,0,0,0,2.9-.7,6,6,0,0,0,3.52-.09,6,6,0,0,0,2.95-2.11c.55-.77.65-1.35.55-1.4A11.34,11.34,0,0,1,532.24,118.19Zm-51-.41a8.3,8.3,0,0,1-3-3.94,5.74,5.74,0,0,1,.39-4.74,4.69,4.69,0,0,1,1.53-1.72c-.59,3.89,1.95,7.83,2.62,11.89a8.77,8.77,0,0,0-1.43-1.49Z"/><path class="cls-7" d="M591.12,134.27v22.08a9.06,9.06,0,0,0,9.06,9.06h38.25V178L645.28,166h0a8,8,0,0,0,7.46-8V134.27a9,9,0,0,0-9.07-9H600.18A9.06,9.06,0,0,0,591.12,134.27Z"/><path class="cls-6" d="M611.93,146.48a3.74,3.74,0,1,1-3.73-3.73h0A3.73,3.73,0,0,1,611.93,146.48Z"/><path class="cls-6" d="M626.11,146.48a3.73,3.73,0,1,1-3.73-3.73h0A3.73,3.73,0,0,1,626.11,146.48Z"/><path class="cls-6" d="M640.29,146.48a3.73,3.73,0,1,1-3.73-3.73h0A3.73,3.73,0,0,1,640.29,146.48Z"/><path class="cls-2" d="M621.3,199.88c-.77-1.71-49.41,41.23-59.1,42.7l-28.36-37s-5.9-9.33-18.55-25.33c-8.15-10.28-30.68-8.19-36.6,4.4-10.06,21.36-10.4,49.67-18.17,95.16l-6.58,38.58s9.71-1.15,9.68-1.06l69-7.18L534.38,264c13.7,13.84,17.88,16.74,25,15.64,17.86-2.78,80.36-59,80.36-59S622.05,201.63,621.3,199.88Z"/><path class="cls-5" d="M631.3,228.47a17.59,17.59,0,0,1-3.42-2.71A76.79,76.79,0,0,1,614,209.52a16.9,16.9,0,0,1-2.11-3.9,28.28,28.28,0,0,1,2.52,3.53c1.58,2.21,3.82,5.22,6.51,8.37s5.29,5.84,7.22,7.76A26.86,26.86,0,0,1,631.3,228.47Z"/><path class="cls-5" d="M559.44,257.22a63.89,63.89,0,0,1,2.6-14.64A61.21,61.21,0,0,1,559.44,257.22Z"/><path class="cls-5" d="M565.64,255.7a25.45,25.45,0,0,1-2.18-6.36,25,25,0,0,1-1.31-6.57,26.33,26.33,0,0,1,2.17,6.35A25.54,25.54,0,0,1,565.64,255.7Z"/><polygon class="cls-13" points="497.72 215.43 533.66 283.39 534.47 263.23 497.72 215.43"/><path class="cls-5" d="M495.39,212.13a16,16,0,0,1,1.71,2.05l4.28,5.74c3.61,4.86,8.67,11.53,14.34,18.84l14.55,18.65,4.37,5.69a15.37,15.37,0,0,1,1.51,2.15,15,15,0,0,1-1.72-1.93c-1.18-1.44-2.72-3.29-4.59-5.52-3.83-4.69-9.09-11.2-14.76-18.49s-10.65-14.05-14.14-19c-1.72-2.48-3.14-4.5-4.06-5.92A14,14,0,0,1,495.39,212.13Z"/><path class="cls-5" d="M496.52,233.36a8.72,8.72,0,0,1-.64-2.07c-.34-1.35-.78-3.29-1.32-5.67l.54.26L488,229.7l-.48.26-.15-.53c-.26-.93-.53-1.91-.82-2.9l-1.24-4.43.64.25-7,3.92-.43.24V226a40.45,40.45,0,0,1-.72-6.4,41.14,41.14,0,0,1,1.37,6.3l-.5-.24,6.85-4.09.48-.29.16.55c.39,1.42.82,2.91,1.25,4.43.29,1,.56,2,.82,2.9l-.63-.26,7.14-3.72.43-.24.08.48c.45,2.38.81,4.35,1,5.72A9,9,0,0,1,496.52,233.36Z"/><path class="cls-5" d="M505,195a8.3,8.3,0,0,1-1.92-1c-1.18-.74-2.84-1.82-4.86-3.16l.55-.18c-.72,2.27-1.53,4.88-2.4,7.67l-.17.53-.48-.27L493.07,197l-4-2.33.63-.25-2.27,7.67-.14.46-.38-.29a42.42,42.42,0,0,1-5-4.11,44.64,44.64,0,0,1,5.36,3.58l-.52.17c.6-2.26,1.3-4.86,2.08-7.71l.15-.55.48.3,4,2.29,2.6,1.52-.63.24,2.5-7.65.17-.46.39.27c2,1.41,3.58,2.57,4.7,3.43A8.8,8.8,0,0,1,505,195Z"/><path class="cls-4" d="M530.19,208.15a8.64,8.64,0,0,1-1.63-1.45c-1-1-2.4-2.4-4.08-4.15h.59c-1.2,2.08-2.57,4.42-4,7l-.27.47-.41-.38-2.21-2-3.43-3.13.69-.12c-1.44,2.58-2.76,4.93-3.91,7l-.24.43-.31-.36a42.6,42.6,0,0,1-3.93-5.14,44.55,44.55,0,0,1,4.45,4.66h-.55l3.72-7.08.27-.49.41.37,3.43,3.14,2.19,2.05h-.67l4.15-6.85.25-.41.33.36c1.71,1.71,2.94,3.29,3.83,4.35A8.37,8.37,0,0,1,530.19,208.15Z"/><path class="cls-5" d="M596.71,251.4a15.71,15.71,0,0,1-1.44-1.63c-.86-1.08-2.07-2.67-3.51-4.62h.58l-4.86,6.4-.35.43-.34-.41-1.95-2.31-2.93-3.53h.68l-4.74,6.42-.29.4-.26-.4A43.43,43.43,0,0,1,574,246.6a42.51,42.51,0,0,1,3.82,5.14h-.55c1.36-1.9,2.9-4.11,4.59-6.54l.33-.45.36.43,3,3.53,1.94,2.31h-.69l5-6.3.31-.39.28.39c1.38,2,2.5,3.65,3.27,4.81A10.22,10.22,0,0,1,596.71,251.4Z"/><path class="cls-4" d="M555.52,247.94a9.56,9.56,0,0,1-1.72-1.25c-1.09-.86-2.65-2.11-4.52-3.63l.57-.14-3.26,7.33-.2.5-.45-.33-2.45-1.71L539.78,246l.67-.19c-1.13,2.74-2.16,5.14-3.07,7.38l-.19.47-.34-.35a39.81,39.81,0,0,1-4.5-4.59,43.24,43.24,0,0,1,4.94,4.11l-.53.12c.84-2.19,1.82-4.71,2.88-7.45l.21-.53.44.33L544,248l2.43,1.72-.67.18,3.32-7.33.21-.44.36.31c1.81,1.61,3.3,2.93,4.33,3.87A6.27,6.27,0,0,1,555.52,247.94Z"/><path class="cls-4" d="M614.45,238.26a9.53,9.53,0,0,1-.45-2.12c-.2-1.39-.48-3.43-.78-5.76l.51.3-7.4,3.18-.5.21-.1-.53c-.17-1-.36-2-.55-3-.29-1.57-.56-3.08-.82-4.54l.6.31-7.28,3.36-.44.19v-.48a40.72,40.72,0,0,1-.12-6.44,41.73,41.73,0,0,1,.77,6.4l-.46-.29,7.21-3.42.49-.26.11.57c.27,1.45.56,3,.85,4.52.19,1,.36,2,.53,3l-.6-.32,7.45-3,.47-.18v.47c.22,2.42.39,4.41.48,5.79A9.14,9.14,0,0,1,614.45,238.26Z"/><path class="cls-5" d="M532.35,220a10.05,10.05,0,0,1-1.82,1.13c-1.2.68-2.95,1.71-5.14,2.79l.1-.58,5.6,5.77.38.39-.46.29-2.57,1.56-3.94,2.4v-.69l5.65,5.66.35.36-.45.18a40.57,40.57,0,0,1-6,2.4,43.78,43.78,0,0,1,5.71-3l-.09.55-5.79-5.52-.41-.38L524,233l3.94-2.41,2.57-1.56v.67c-2-2.13-3.87-4.13-5.5-5.88l-.34-.36.44-.2c2.18-1.06,4-1.94,5.23-2.5A7.73,7.73,0,0,1,532.35,220Z"/><path class="cls-4" d="M563.77,257.22a8.8,8.8,0,0,1-1.83,1.18c-1.2.69-3,1.72-5.14,2.78l.09-.57,5.61,5.77.38.38-.46.29-2.57,1.58-4,2.38.09-.67,5.65,5.65.34.35-.44.18a44.26,44.26,0,0,1-6,2.42,43.71,43.71,0,0,1,5.81-3l-.11.55L555.48,271l-.41-.39.48-.29,3.92-2.4,2.59-1.57L562,267l-5.49-5.87-.35-.36.43-.21c2.18-1.08,4-1.93,5.24-2.52A8.72,8.72,0,0,1,563.77,257.22Z"/><path class="cls-4" d="M501.41,256.73a11.16,11.16,0,0,1-.63-2.09c-.34-1.36-.79-3.29-1.32-5.66l.53.24-7.14,3.86-.48.27-.13-.53c-.28-.94-.55-1.92-.83-2.91l-1.25-4.44.64.26-7,3.92-.43.24v-.48a44.15,44.15,0,0,1-.71-6.39,41,41,0,0,1,1.37,6.29l-.5-.24,6.85-4.09.48-.28.15.53c.4,1.43.83,2.92,1.27,4.44l.81,2.91-.64-.27,7.14-3.72.43-.22.1.46c.45,2.38.79,4.35,1,5.72A9.33,9.33,0,0,1,501.41,256.73Z"/><path class="cls-5" d="M530,272.89a9.53,9.53,0,0,1-.64-2.09c-.34-1.35-.78-3.28-1.31-5.65l.53.24-7.06,3.85-.48.28-.15-.53c-.28-.94-.55-1.92-.83-2.9-.42-1.54-.83-3-1.25-4.45l.64.26-7,3.92-.42.24v-.46a43.22,43.22,0,0,1-.72-6.41,41,41,0,0,1,1.37,6.29l-.5-.23,6.85-4.09.48-.29.15.55c.42,1.42.83,2.89,1.27,4.42l.81,2.91-.62-.28,7.12-3.71.45-.22.09.46c.44,2.38.78,4.35,1,5.72A8.3,8.3,0,0,1,530,272.89Z"/><path class="cls-4" d="M488.07,308.48a9.34,9.34,0,0,1-.63-2.07c-.34-1.35-.79-3.29-1.32-5.65l.53.24-7,3.85-.48.26-.16-.53c-.27-.93-.55-1.9-.82-2.9l-1.23-4.43.61.25-6.93,4-.43.24v-.48a42.94,42.94,0,0,1-.72-6.4,41.14,41.14,0,0,1,1.37,6.3l-.5-.24,6.85-4.09.48-.29.16.55c.41,1.42.82,2.91,1.26,4.43l.81,2.9-.62-.26,7.13-3.72.44-.24.09.48c.44,2.38.79,4.35,1,5.72A7.35,7.35,0,0,1,488.07,308.48Z"/><path class="cls-5" d="M488.9,271.13a8.56,8.56,0,0,1-1.8-1.23c-1.12-.83-2.69-2.06-4.58-3.58l.57-.14-3.1,7.43-.21.5-.44-.33c-.81-.54-1.63-1.14-2.47-1.71l-3.73-2.69.65-.19-3,7.42-.19.44-.34-.32a44.52,44.52,0,0,1-4.57-4.54,41.38,41.38,0,0,1,5,4l-.53.14c.81-2.19,1.72-4.73,2.79-7.48l.19-.54.47.33,3.8,2.64,2.45,1.71-.65.17,3.23-7.36.21-.45.36.31c1.83,1.59,3.34,2.89,4.37,3.84A9.78,9.78,0,0,1,488.9,271.13Z"/><path class="cls-5" d="M503.83,272.14a8.67,8.67,0,0,1-1.71,1.3c-1.15.77-2.83,1.85-4.88,3.13V276l6,5.36.39.38-.44.31-2.45,1.71L497,286.41v-.67l6.15,5.27.36.33-.41.22a43.77,43.77,0,0,1-5.81,2.81,44.91,44.91,0,0,1,5.48-3.43v.55l-6.16-5.14-.43-.36.46-.32,3.75-2.67,2.45-1.72V282l-5.89-5.46-.36-.35.41-.24c2.09-1.21,3.82-2.21,5-2.87A8,8,0,0,1,503.83,272.14Z"/><path class="cls-4" d="M520.25,283.82a8.71,8.71,0,0,1-1.19,1.81c-.83,1.14-2,2.71-3.53,4.63l-.14-.57,7.47,3,.49.19-.3.46-1.72,2.49-2.63,3.78-.21-.67,7.45,2.88.46.19-.32.34a40,40,0,0,1-4.49,4.62,46.1,46.1,0,0,1,4-5.05l.14.53-7.52-2.69-.53-.18.32-.47c.83-1.21,1.72-2.48,2.61-3.8.6-.84,1.16-1.71,1.71-2.46l.19.65-7.38-3.14-.45-.19.31-.37c1.56-1.87,2.84-3.43,3.77-4.42A18.54,18.54,0,0,1,520.25,283.82Z"/><path class="cls-2" d="M510.94,311.74a1.46,1.46,0,0,0,.19.56,13.4,13.4,0,0,1,.49,1.71c.41,1.49,1,3.7,1.71,6.56s1.56,6.36,2.16,10.52a11.08,11.08,0,0,1-.87,6.69,21.53,21.53,0,0,1-4.39,6.22v-.29C514.72,365,521,394.87,528,427.89c6.76,32.54,12.81,61.91,17.12,83.23,2.15,10.65,3.84,19.29,4.95,25.26.57,3,1,5.31,1.24,6.85a10.55,10.55,0,0,1,.27,2.44s-.14-.83-.44-2.4-.81-3.92-1.41-6.85c-1.25-6-3-14.61-5.22-25.21C540,489.88,533.92,460.5,527.16,428c-6.85-33.05-13-62.92-17.47-84.23v-.17l.12-.12c3.63-3.65,6.08-8.25,5.13-12.4-.54-4.12-1.38-7.65-2-10.51s-1.18-5-1.55-6.58l-.42-1.71A2.81,2.81,0,0,1,510.94,311.74Z"/><path class="cls-2" d="M474.87,315.85a4.54,4.54,0,0,1,.53,1.16,13.34,13.34,0,0,1,.65,3.43A15.83,15.83,0,0,1,463,337.17a13.54,13.54,0,0,1-3.42.2,3.14,3.14,0,0,1-1.25-.22c0-.17,1.81,0,4.6-.6a16,16,0,0,0,12.56-16.1A39.65,39.65,0,0,0,474.87,315.85Z"/><path class="cls-2" d="M503.56,317.68s0-.26.41-.48a2.22,2.22,0,0,1,1.71-.22,2.26,2.26,0,0,1,1.71,1.9,2.57,2.57,0,0,1-4.61,1.9,2.46,2.46,0,0,1-.29-2.55c.71-1.39,1.84-1.43,1.8-1.32a3.1,3.1,0,0,0-1.2,1.54,1.83,1.83,0,0,0,.33,1.81,2,2,0,0,0,2.09.57,1.89,1.89,0,0,0,1.06-1.85,1.59,1.59,0,0,0-1.11-1.4A3,3,0,0,0,503.56,317.68Z"/><path class="cls-2" d="M539.76,321.48a6.32,6.32,0,0,1-3.32,1.15,12,12,0,0,1-13.31-8.57,6.53,6.53,0,0,1-.32-3.42c.15,0,.18,1.34.9,3.3a12.34,12.34,0,0,0,12.66,8.19C538.46,321.86,539.71,321.34,539.76,321.48Z"/><path class="cls-2" d="M558.57,583.33a5.87,5.87,0,0,1-1.72.2l-4.66.26-15.41.74-15.41.8-4.68.19a6.12,6.12,0,0,1-1.71,0,5.86,5.86,0,0,1,1.71-.31c1.08-.14,2.67-.31,4.64-.48,3.92-.36,9.37-.75,15.42-1.06s11.47-.45,15.41-.46h4.68A6.28,6.28,0,0,1,558.57,583.33Z"/><path class="cls-2" d="M480.38,335.39c.24,0,13.7,55.54,30.13,124.16S540,583.89,539.76,583.94s-13.7-55.52-30.12-124.18S480.14,335.44,480.38,335.39Z"/><path class="cls-2" d="M524.21,337.6a2.17,2.17,0,0,1,.31.37l.84,1.12,3.18,4.36,11.55,16.12,17,24,10,14.19c3.42,4.94,6.85,10.47,7.75,17s-1,12.79-3,18.42-4.13,11.12-6.11,16.28c-4,10.27-7.81,19.55-11.12,27.24s-6.09,13.88-8.05,18.12l-2.31,4.88-.62,1.25c-.15.28-.22.43-.24.42a1.72,1.72,0,0,1,.16-.45c.14-.34.32-.77.55-1.3l2.14-4.93c1.86-4.3,4.57-10.52,7.79-18.23s7-16.95,10.93-27.3c2-5.13,4-10.6,6-16.27s3.82-11.74,2.93-18-4.26-11.68-7.6-16.6l-10-14.21-16.89-24.17-11.32-16.29-3-4.45c-.32-.48-.58-.86-.77-1.16S524.19,337.6,524.21,337.6Z"/><polygon class="cls-5" points="611.25 201.63 649.49 173.71 651.37 176.71 613.37 204.97 611.25 201.63"/><path class="cls-11" d="M620.7,200.77s5.14-13.36,6.29-16.2,3.1-7.79,3.83-7.89,3.43.3-.08,8.8,4.12,3.3,4.12,3.3l7.37-5.27s5.82,17.4,2.52,22.64A86.35,86.35,0,0,1,636,217.21Z"/></g><g id="freepik--character-1--inject-3"><path class="cls-14" d="M135.34,422.2c.49-2.89-.6-13.48-.6-13.48s-11.1-1.18-11.77-12.17,0-36.38,0-36.38l20.21-9.88,22.27,16.83-3.43,55Z"/><path class="cls-5" d="M126,378.56a1.41,1.41,0,1,0,1.4-1.4,1.41,1.41,0,0,0-1.4,1.4Z"/><path class="cls-5" d="M124,377.55c.17.17,1.22-.7,2.73-.79s2.65.66,2.82.45-.12-.43-.62-.77a3.67,3.67,0,0,0-2.26-.6,3.78,3.78,0,0,0-2.17.87C124,377.11,123.88,377.47,124,377.55Z"/><circle class="cls-5" cx="143.83" cy="378.31" r="1.4"/><path class="cls-5" d="M140.36,377.28c.18.19,1.21-.7,2.74-.77s2.65.65,2.8.44-.1-.43-.6-.77a3.83,3.83,0,0,0-2.26-.6,3.7,3.7,0,0,0-2.17.88C140.41,376.85,140.27,377.21,140.36,377.28Z"/><path class="cls-5" d="M135.15,389.93a9.46,9.46,0,0,0-2.48-.3c-.38,0-.76-.09-.84-.36a2.2,2.2,0,0,1,.22-1.24l1-3.13a55.34,55.34,0,0,0,2.31-8.19,61.62,61.62,0,0,0-2.9,8c-.36,1.1-.68,2.16-1,3.15a2.38,2.38,0,0,0-.15,1.6.94.94,0,0,0,.65.54,1.78,1.78,0,0,0,.65,0A10,10,0,0,0,135.15,389.93Z"/><path class="cls-6" d="M140.17,391.37a16.67,16.67,0,0,1-7.35,2.52,4.2,4.2,0,0,0,5,1.42C141.09,394,140.17,391.37,140.17,391.37Z"/><path class="cls-15" d="M134.74,408.72a27.42,27.42,0,0,0,14.57-4.93s-3.3,8.08-14.33,7.64Z"/><path class="cls-5" d="M180,375.27s4.49,25.37-16.94,29.94l.64-30.55Z"/><path class="cls-5" d="M179.32,369.66A38.67,38.67,0,0,0,172,354.79c3.08,1.29,5.14,2.57,5.56,2.16s-.36-1.18-1.71-2.33a18.31,18.31,0,0,0-5.92-3.24l-1-.27a11.8,11.8,0,0,0,3.81-2.45,8.88,8.88,0,0,0,2.14-9.85,8.14,8.14,0,0,0-8-4.19,10.25,10.25,0,0,0-7.61,5.29,12.77,12.77,0,0,0-.91,2.12,31.68,31.68,0,0,1,.38-3.63c.69-4.23,2.26-7.4,2-7.53a14.93,14.93,0,0,0-2.92,7.38,9.61,9.61,0,0,1-.16,1.2,24.41,24.41,0,0,0-1.23-3.21c-1.05-2.21-2-3.42-2.33-3.23-.6.29,1.35,4.93,2.16,11.2a22.42,22.42,0,0,0-6-1.12c-3.74,0-9.94-1.71-18.7,5.33A26.39,26.39,0,0,0,119.27,370a24.42,24.42,0,0,0,.29,4.6,5.31,5.31,0,0,0,.43,1.63c.17,0-.32-2.38,0-6.2a27.25,27.25,0,0,1,1.87-8.25,20.84,20.84,0,0,0,.82,13.82l19.61-3.07c-1.27-4.3-.34-11.11.26-14.45,3.42,16,17.21,23.7,17.21,23.7l20.64-3.24C180.11,376.7,179.76,371.34,179.32,369.66Z"/><path class="cls-8" d="M226.79,614.94c.64.31,51.23,10.28,49.36,3.43s-48.91-17.61-48.91-17.61Z"/><path class="cls-5" d="M249.79,610.47c.24,0,.6,1.17.59,2.69s-.38,2.72-.62,2.69-.29-1.23-.28-2.69S249.55,610.49,249.79,610.47Z"/><path class="cls-5" d="M247.1,609.55c.23,0,.67,1.35.5,3.13s-.8,3.08-1,3,0-1.42.14-3.08S246.85,609.58,247.1,609.55Z"/><path class="cls-5" d="M243.83,609.27c.24,0,.59,1.34.62,3.05s-.26,3.08-.5,3.07-.36-1.37-.39-3S243.59,609.29,243.83,609.27Z"/><path class="cls-5" d="M237.67,604.32a2.67,2.67,0,0,1,.79.09,13.47,13.47,0,0,1,2.22.46c1.94.41,4.73,1.08,8.14,2s7.45,2.13,11.87,3.63c2.2.76,4.55,1.53,6.85,2.54a22.32,22.32,0,0,1,6.74,4.26,2.83,2.83,0,0,1,.74.91,1.15,1.15,0,0,1-.43,1.42,4.19,4.19,0,0,1-2.14.46c-1.32.11-2.62.16-3.89.19-2.55,0-5,0-7.36-.19-4.68-.29-8.85-.87-12.35-1.42s-6.3-1.09-8.24-1.49l-2.22-.46a2.84,2.84,0,0,1-.77-.22,19.38,19.38,0,0,1,3,.34l8.28,1.2c3.42.48,7.67,1,12.31,1.25,2.33.12,4.76.19,7.3.12,1.25,0,2.55-.09,3.83-.19a3.77,3.77,0,0,0,1.72-.32c.15-.12.17-.19.12-.35a2.63,2.63,0,0,0-.54-.61,21.69,21.69,0,0,0-6.49-4.1c-2.29-1-4.62-1.71-6.85-2.57-4.4-1.52-8.41-2.79-11.78-3.8s-6.15-1.71-8.05-2.29A21.69,21.69,0,0,1,237.67,604.32Z"/><path class="cls-5" d="M264.54,611.84c.24.09-.26,2,0,4.37s.91,4.2.67,4.32a8.14,8.14,0,0,1-.6-8.69Z"/><path class="cls-8" d="M59.55,604.92c-.7,0-51.75,7-47.8,12.78s52,.7,52,.7Z"/><path class="cls-5" d="M39.17,616.65c-.2.11-.94-.92-1.42-2.36s-.46-2.67-.29-2.67a6.75,6.75,0,0,1,1.13,2.47C39.05,615.47,39.39,616.53,39.17,616.65Z"/><path class="cls-5" d="M42,616.64c-.2.12-1.08-1.06-1.5-2.79s-.24-3.19,0-3.19.46,1.35.87,3S42.25,616.52,42,616.64Z"/><path class="cls-5" d="M45.2,615.83c-.22.11-1-1.08-1.57-2.69s-.78-3-.54-3.06.79,1.2,1.37,2.76S45.42,615.73,45.2,615.83Z"/><path class="cls-5" d="M52.7,618.47a2.47,2.47,0,0,1-.77.17l-2.26.29c-2,.24-4.81.52-8.34.74s-7.74.41-12.42.44c-2.34,0-4.79,0-7.36-.15a21.43,21.43,0,0,1-7.76-1.82,2.82,2.82,0,0,1-1-.61,1.16,1.16,0,0,1,0-1.47,4,4,0,0,1,1.87-1.15c1.21-.53,2.41-1,3.61-1.46,2.4-.87,4.76-1.59,7-2.22,4.52-1.25,8.67-2.06,12.15-2.68s6.31-1,8.27-1.28L48,607a2.62,2.62,0,0,1,.79,0,20.62,20.62,0,0,1-3,.67l-8.2,1.55c-3.43.71-7.57,1.58-12,2.85-2.25.65-4.58,1.37-6.85,2.26-1.19.46-2.38.92-3.58,1.44a3.58,3.58,0,0,0-1.49.85c-.11.17-.11.23,0,.36a2.14,2.14,0,0,0,.72.41,21.21,21.21,0,0,0,7.45,1.72c2.5.2,5,.19,7.29.2,4.66,0,8.86-.1,12.38-.24s6.38-.34,8.34-.46A23.12,23.12,0,0,1,52.7,618.47Z"/><path class="cls-5" d="M24.8,620.18c-.27,0-.41-2-1.37-4.14s-2.22-3.68-2-3.86,1.87,1.12,2.87,3.43A6.21,6.21,0,0,1,24.8,620.18Z"/><path class="cls-2" d="M217.85,542.94h-26L96,545.43l-27.4-3.55c-4.26-.94-7.07-1.34-8-1A23.23,23.23,0,0,0,51.21,548c-10.45,12.47-3.87,31.68,11.85,36l14.77,4-32.3,10.38,10.91,31s48.22-10.43,95-21.45l74.84,20.25,10.79-34.75-12.69-4.13c8-2.43,13-4.35,13.7-5.51,4.71-7.3,13-41.23-20.35-40.71"/><polygon class="cls-13" points="223.97 589.32 168.34 612.36 151.52 607.8 223.97 589.32"/><polygon class="cls-13" points="78.07 545.55 149.28 565.94 203.52 547.45 78.07 545.55"/><path class="cls-5" d="M67.93,627a24.12,24.12,0,0,1-2.28-4.47c-1.27-2.82-2.91-6.85-4.52-11.23s-2.93-8.56-3.77-11.51a25.64,25.64,0,0,1-1.15-4.88,31,31,0,0,1,1.72,4.69c1,2.93,2.38,7,4,11.39s3.16,8.41,4.28,11.29A34.64,34.64,0,0,1,67.93,627Z"/><path class="cls-5" d="M239.6,554.49a1.85,1.85,0,0,1-.44.18l-1.34.5L232.68,557l-19,6.45c-16.12,5.38-38.41,12.66-63.13,20.42s-47.18,14.52-63.47,19.32l-19.32,5.58-5.25,1.46-1.39.35a2,2,0,0,1-.48.09l.46-.17,1.35-.45,5.14-1.62,19.24-5.86c16.25-4.93,38.67-11.8,63.36-19.56s47-14.93,63.18-20.16l19.15-6.18,5.22-1.71,1.36-.41A1.63,1.63,0,0,1,239.6,554.49Z"/><path class="cls-5" d="M187.74,553.24a5.24,5.24,0,0,1-1.09.46l-3.19,1.16c-2.77,1-6.85,2.4-11.81,4.1-10,3.42-23.86,7.94-39.19,12.86s-29.27,9.25-39.39,12.29c-5.14,1.53-9.16,2.73-12,3.53l-3.27.91a9,9,0,0,1-1.17.26,5.08,5.08,0,0,1,1.12-.43L81,587.32l12-3.8L132.25,571l39.26-12.62,11.9-3.82,3.26-1A4.47,4.47,0,0,1,187.74,553.24Z"/><path class="cls-5" d="M148.92,565.82c0,.24-16-4.11-35.56-9.71S78,545.84,78.07,545.55s16,4.11,35.53,9.71S149,565.58,148.92,565.82Z"/><path class="cls-5" d="M226.69,591a181.08,181.08,0,0,1-6.13,17c-3.62,9.31-6.73,16.78-6.95,16.69a175.25,175.25,0,0,1,6.13-17C223.35,598.36,226.47,590.88,226.69,591Z"/><path class="cls-5" d="M220,605.32a124,124,0,0,1-14-3.27,116.25,116.25,0,0,1-13.7-4.15,120.27,120.27,0,0,1,14,3.27A115,115,0,0,1,220,605.32Z"/><path class="cls-5" d="M113.48,576.92a17.27,17.27,0,0,1-2.65-.53l-7.16-1.71c-6-1.54-14.37-3.63-23.46-6.37a185.67,185.67,0,0,1-22.87-8.38c-2.82-1.3-5.13-2.43-6.61-3.27a14.06,14.06,0,0,1-2.33-1.39,18.35,18.35,0,0,1,2.49,1.08c1.57.74,3.85,1.72,6.71,3a228.05,228.05,0,0,0,22.86,8.1c9.08,2.74,17.39,4.92,23.38,6.61l7.07,2A13.27,13.27,0,0,1,113.48,576.92Z"/><path class="cls-16" d="M166.13,420.68H164l-.3-7.3-28.93,1.71s.29,3.43.27,5.81c-17.81,1.71-46.36,10.86-47,51l22.84.53c-1.93,18.4-1.71,29.37-3.58,36.28C104.1,520.06,94,544.14,96,545.36s95.77,2.94,100.24.51-3.66-33.86-5.7-42.39C189.29,498,189,485.57,189,475.93l26.23-1.18S217.12,420.52,166.13,420.68Z"/><path class="cls-5" d="M163.87,420.39a18.53,18.53,0,0,1-4.25.72c-2.65.3-6.32.59-10.38.68a98,98,0,0,1-10.37-.24,19.4,19.4,0,0,1-4.29-.55,21.32,21.32,0,0,1,4.3-.08h10.28c4,0,7.69-.28,10.27-.41A22,22,0,0,1,163.87,420.39Z"/><path class="cls-5" d="M140.05,414.85c.25,0,.44,1.41.44,3.14s-.19,3.15-.44,3.15-.45-1.41-.45-3.15S139.72,414.85,140.05,414.85Z"/><path class="cls-5" d="M147.7,414.31c.24,0,.48,1.54.53,3.42a7.4,7.4,0,0,1-.34,3.43c-.26,0-.5-1.54-.55-3.43A7.1,7.1,0,0,1,147.7,414.31Z"/><path class="cls-5" d="M155.68,414c.24,0,.59,1.51.62,3.43s-.22,3.42-.48,3.42a8.44,8.44,0,0,1-.41-3.42C155.46,415.61,155.46,414.05,155.68,414Z"/><path class="cls-5" d="M161.47,413.76c.26,0,.43,1.5.67,3.34s.43,3.34.19,3.42-.84-1.38-1.06-3.3S161.23,413.74,161.47,413.76Z"/><path class="cls-5" d="M114.48,472a42.32,42.32,0,0,1-.52-8.56,40.19,40.19,0,0,1,.38-8.56,43.81,43.81,0,0,1,.51,8.56A43,43,0,0,1,114.48,472Z"/><path class="cls-5" d="M188,474.81a50.43,50.43,0,0,1-1.23-9.24,47.82,47.82,0,0,1-.33-9.34A99.75,99.75,0,0,1,188,474.81Z"/><path class="cls-5" d="M114.48,472a18.56,18.56,0,0,1-3.94.12H91.65a18.35,18.35,0,0,1-3.92-.12,16,16,0,0,1,3.9-.49c2.42-.19,5.77-.33,9.47-.31s7.06.14,9.47.32A17.15,17.15,0,0,1,114.48,472Z"/><path class="cls-5" d="M215.16,474.81a108.28,108.28,0,0,1-13.95.45,108.68,108.68,0,0,1-14-.45,110.52,110.52,0,0,1,14-.44A110.16,110.16,0,0,1,215.16,474.81Z"/><path class="cls-14" d="M214,475s6.85,63.93-12.75,70.21S143,521.77,143,521.77l11.14-22.53s25.69,17.84,31.23,13.82,2.66-38,2.66-38Z"/><path class="cls-14" d="M88.34,472s-7,63.29,12.61,69.59S159.18,518,159.18,518L148,495.5S122.18,512,116.82,507.85c-3.1-2.43-3.18-35.57-3.18-35.57C104.53,471.88,96.08,471.49,88.34,472Z"/><path class="cls-5" d="M201.82,485.14l-13,63.71s-79.87-.62-80.7-.86-8.56-62.85-8.56-62.85Z"/><path class="cls-6" d="M144.45,517.42a4.8,4.8,0,1,0,5.11-4.45l-.32,0A4.66,4.66,0,0,0,144.45,517.42Z"/><path class="cls-14" d="M161.23,377.64a5.14,5.14,0,0,1,4.87-.29,5,5,0,0,1,1.81,3.18,6.63,6.63,0,0,1-1.45,5.81,4.54,4.54,0,0,1-5.66.77"/><path class="cls-15" d="M163.29,385.36c0-.13.55-.22,1.18-.7a2.79,2.79,0,0,0,1.27-2.53,2.85,2.85,0,0,0-1.63-2.3c-.72-.34-1.27-.33-1.28-.46s.54-.4,1.5-.16a3.27,3.27,0,0,1,.57,6.05C163.9,385.64,163.29,385.55,163.29,385.36Z"/></g></g></g></svg>